<svg viewBox="0 0 512 512" xmlns="http://www.w3.org/2000/svg"><path d="m0 0h512v512h-512z" fill="#fff7ed"/><path d="m180.056 382.572h-24.109l-13.262-13.259-13.259-13.261v-200.11l13.26-13.261 13.265-13.256h48.218l13.26 13.259 13.26 13.262v74.739h-33.754v-67.507h-33.753v185.644h33.753v-67.507h-16.877v-33.753h50.63v108.492l-13.261 13.262-13.26 13.259h-24.113zm84.384 0h-16.877v-226.631l13.26-13.26 13.261-13.256h81.973l13.26 13.259 13.257 13.262v226.629h-33.754v-219.4h-16.876v202.52h-33.754v-202.52h-16.875v219.398h-16.876z" fill="#1e293b"/></svg>