<svg version="1.1" viewBox="0.0 0.0 600.0 371.0" fill="none" stroke="none" stroke-linecap="square" stroke-miterlimit="10" xmlns:xlink="http://www.w3.org/1999/xlink" xmlns="http://www.w3.org/2000/svg">
	<path id="bkg" fill="#ffffff" d="M0 0L600.0 0L600.0 371.0L0 371.0L0 0Z" />
	<path class="divide" stroke="#333333" stroke-width="1.0" d="M77.5 272.5L581.5 272.5" />
	<path class="divide" stroke="#cccccc" stroke-width="1.0" d="M77.5 217.5L581.5 217.5" />
	<path class="divide" stroke="#cccccc" stroke-width="1.0" d="M77.5 162.5L581.5 162.5" />
	<path class="divide" stroke="#cccccc" stroke-width="1.0" d="M77.5 107.5L581.5 107.5" />
	<path class="divide" stroke="#cccccc" stroke-width="1.0" d="M77.5 51.5L581.5 51.5" />
	<clipPath id="id_0">
		<path d="M77.55 51.916668L581.45 51.916668L581.45 272.9109L77.55 272.9109L77.55 51.916668Z" clip-rule="nonzero" />
	</clipPath>
	<path fill="#4285f4" clip-path="url(#id_0)" d="M100.0 273.0L93.0 273.0L93.0 236.0C93.0 234.89543 93.89543 234.0 95.0 234.0L98.0 234.0C99.10457 234.0 100.0 234.89543 100.0 236.0Z" />
	<path fill="#4285f4" clip-path="url(#id_0)" d="M141.0 273.0L134.0 273.0L134.0 236.0C134.0 234.89543 134.89543 234.0 136.0 234.0L139.0 234.0C140.10457 234.0 141.0 234.89543 141.0 236.0Z" />
	<path fill="#4285f4" clip-path="url(#id_0)" d="M182.0 273.0L175.0 273.0L175.0 225.0C175.0 223.89543 175.89543 223.0 177.0 223.0L180.0 223.0C181.10457 223.0 182.0 223.89543 182.0 225.0Z" />
	<path fill="#4285f4" clip-path="url(#id_0)" d="M222.0 273.0L215.0 273.0L215.0 218.0C215.0 216.89543 215.89543 216.0 217.0 216.0L220.0 216.0C221.10457 216.0 222.0 216.89543 222.0 218.0Z" />
	<path fill="#4285f4" clip-path="url(#id_0)" d="M263.0 273.0L256.0 273.0L256.0 210.0C256.0 208.89543 256.89542 208.0 258.0 208.0L261.0 208.0C262.10458 208.0 263.0 208.89543 263.0 210.0Z" />
	<path fill="#4285f4" clip-path="url(#id_0)" d="M304.0 273.0L297.0 273.0L297.0 204.0C297.0 202.89543 297.89542 202.0 299.0 202.0L302.0 202.0C303.10458 202.0 304.0 202.89543 304.0 204.0Z" />
	<path fill="#4285f4" clip-path="url(#id_0)" d="M345.0 273.0L338.0 273.0L338.0 195.0C338.0 193.89543 338.89542 193.0 340.0 193.0L343.0 193.0C344.10458 193.0 345.0 193.89543 345.0 195.0Z" />
	<path fill="#4285f4" clip-path="url(#id_0)" d="M386.0 273.0L379.0 273.0L379.0 183.0C379.0 181.89543 379.89542 181.0 381.0 181.0L384.0 181.0C385.10458 181.0 386.0 181.89543 386.0 183.0Z" />
	<path fill="#4285f4" clip-path="url(#id_0)" d="M427.0 273.0L420.0 273.0L420.0 167.0C420.0 165.89543 420.89542 165.0 422.0 165.0L425.0 165.0C426.10458 165.0 427.0 165.89543 427.0 167.0Z" />
	<path fill="#4285f4" clip-path="url(#id_0)" d="M467.0 273.0L460.0 273.0L460.0 160.0C460.0 158.89543 460.89542 158.0 462.0 158.0L465.0 158.0C466.10458 158.0 467.0 158.89543 467.0 160.0Z" />
	<path fill="#4285f4" clip-path="url(#id_0)" d="M508.0 273.0L501.0 273.0L501.0 93.0C501.0 91.89543 501.89542 91.0 503.0 91.0L506.0 91.0C507.10458 91.0 508.0 91.89543 508.0 93.0Z" />
	<path fill="#4285f4" clip-path="url(#id_0)" d="M549.0 273.0L542.0 273.0L542.0 91.0C542.0 89.89543 542.89545 89.0 544.0 89.0L547.0 89.0C548.10455 89.0 549.0 89.89543 549.0 91.0Z" />
	<path fill="#ea4335" clip-path="url(#id_0)" d="M109.0 273.0L102.0 273.0L102.0 224.0C102.0 222.89543 102.89543 222.0 104.0 222.0L107.0 222.0C108.10457 222.0 109.0 222.89543 109.0 224.0Z" />
	<path fill="#ea4335" clip-path="url(#id_0)" d="M150.0 273.0L143.0 273.0L143.0 232.0C143.0 230.89543 143.89543 230.0 145.0 230.0L148.0 230.0C149.10457 230.0 150.0 230.89543 150.0 232.0Z" />
	<path fill="#ea4335" clip-path="url(#id_0)" d="M191.0 273.0L184.0 273.0L184.0 211.0C184.0 209.89543 184.89543 209.0 186.0 209.0L189.0 209.0C190.10457 209.0 191.0 209.89543 191.0 211.0Z" />
	<path fill="#ea4335" clip-path="url(#id_0)" d="M231.0 273.0L224.0 273.0L224.0 213.0C224.0 211.89543 224.89543 211.0 226.0 211.0L229.0 211.0C230.10457 211.0 231.0 211.89543 231.0 213.0Z" />
	<path fill="#ea4335" clip-path="url(#id_0)" d="M272.0 273.0L265.0 273.0L265.0 195.0C265.0 193.89543 265.89542 193.0 267.0 193.0L270.0 193.0C271.10458 193.0 272.0 193.89543 272.0 195.0Z" />
	<path fill="#ea4335" clip-path="url(#id_0)" d="M313.0 273.0L306.0 273.0L306.0 178.0C306.0 176.89543 306.89542 176.0 308.0 176.0L311.0 176.0C312.10458 176.0 313.0 176.89543 313.0 178.0Z" />
	<path fill="#ea4335" clip-path="url(#id_0)" d="M354.0 273.0L347.0 273.0L347.0 173.0C347.0 171.89543 347.89542 171.0 349.0 171.0L352.0 171.0C353.10458 171.0 354.0 171.89543 354.0 173.0Z" />
	<path fill="#ea4335" clip-path="url(#id_0)" d="M395.0 273.0L388.0 273.0L388.0 114.0C388.0 112.89543 388.89542 112.0 390.0 112.0L393.0 112.0C394.10458 112.0 395.0 112.89543 395.0 114.0Z" />
	<path fill="#ea4335" clip-path="url(#id_0)" d="M436.0 273.0L429.0 273.0L429.0 145.0C429.0 143.89543 429.89542 143.0 431.0 143.0L434.0 143.0C435.10458 143.0 436.0 143.89543 436.0 145.0Z" />
	<path fill="#ea4335" clip-path="url(#id_0)" d="M476.0 273.0L469.0 273.0L469.0 114.0C469.0 112.89543 469.89542 112.0 471.0 112.0L474.0 112.0C475.10458 112.0 476.0 112.89543 476.0 114.0Z" />
	<path fill="#ea4335" clip-path="url(#id_0)" d="M517.0 273.0L510.0 273.0L510.0 110.0C510.0 108.89543 510.89542 108.0 512.0 108.0L515.0 108.0C516.10455 108.0 517.0 108.89543 517.0 110.0Z" />
	<path fill="#ea4335" clip-path="url(#id_0)" d="M558.0 273.0L551.0 273.0L551.0 57.0C551.0 55.89543 551.89545 55.0 553.0 55.0L556.0 55.0C557.10455 55.0 558.0 55.89543 558.0 57.0Z" />
	<path fill="#fbbc04" clip-path="url(#id_0)" d="M118.0 273.0L111.0 273.0L111.0 238.0C111.0 236.89543 111.89543 236.0 113.0 236.0L116.0 236.0C117.10457 236.0 118.0 236.89543 118.0 238.0Z" />
	<path fill="#fbbc04" clip-path="url(#id_0)" d="M159.0 273.0L152.0 273.0L152.0 233.0C152.0 231.89543 152.89543 231.0 154.0 231.0L157.0 231.0C158.10457 231.0 159.0 231.89543 159.0 233.0Z" />
	<path fill="#fbbc04" clip-path="url(#id_0)" d="M200.0 273.0L193.0 273.0L193.0 227.0C193.0 225.89543 193.89543 225.0 195.0 225.0L198.0 225.0C199.10457 225.0 200.0 225.89543 200.0 227.0Z" />
	<path fill="#fbbc04" clip-path="url(#id_0)" d="M240.0 273.0L233.0 273.0L233.0 213.0C233.0 211.89543 233.89543 211.0 235.0 211.0L238.0 211.0C239.10457 211.0 240.0 211.89543 240.0 213.0Z" />
	<path fill="#fbbc04" clip-path="url(#id_0)" d="M281.0 273.0L274.0 273.0L274.0 202.0C274.0 200.89543 274.89542 200.0 276.0 200.0L279.0 200.0C280.10458 200.0 281.0 200.89543 281.0 202.0Z" />
	<path fill="#fbbc04" clip-path="url(#id_0)" d="M322.0 273.0L315.0 273.0L315.0 190.0C315.0 188.89543 315.89542 188.0 317.0 188.0L320.0 188.0C321.10458 188.0 322.0 188.89543 322.0 190.0Z" />
	<path fill="#fbbc04" clip-path="url(#id_0)" d="M363.0 273.0L356.0 273.0L356.0 178.0C356.0 176.89543 356.89542 176.0 358.0 176.0L361.0 176.0C362.10458 176.0 363.0 176.89543 363.0 178.0Z" />
	<path fill="#fbbc04" clip-path="url(#id_0)" d="M404.0 273.0L397.0 273.0L397.0 166.0C397.0 164.89543 397.89542 164.0 399.0 164.0L402.0 164.0C403.10458 164.0 404.0 164.89543 404.0 166.0Z" />
	<path fill="#fbbc04" clip-path="url(#id_0)" d="M445.0 273.0L438.0 273.0L438.0 148.0C438.0 146.89543 438.89542 146.0 440.0 146.0L443.0 146.0C444.10458 146.0 445.0 146.89543 445.0 148.0Z" />
	<path fill="#fbbc04" clip-path="url(#id_0)" d="M485.0 273.0L478.0 273.0L478.0 157.0C478.0 155.89543 478.89542 155.0 480.0 155.0L483.0 155.0C484.10458 155.0 485.0 155.89543 485.0 157.0Z" />
	<path fill="#fbbc04" clip-path="url(#id_0)" d="M526.0 273.0L519.0 273.0L519.0 160.0C519.0 158.89543 519.89545 158.0 521.0 158.0L524.0 158.0C525.10455 158.0 526.0 158.89543 526.0 160.0Z" />
	<path fill="#fbbc04" clip-path="url(#id_0)" d="M567.0 273.0L560.0 273.0L560.0 106.0C560.0 104.89543 560.89545 104.0 562.0 104.0L565.0 104.0C566.10455 104.0 567.0 104.89543 567.0 106.0Z" />
	<path class="title" fill="#000000" d="M30.065638 224.58958L30.221888 223.55833Q30.690638 223.49583 30.909388 223.19896Q31.206263 222.80833 31.206263 222.13646Q31.206263 221.40208 30.909388 221.01146Q30.612513 220.60521 30.096888 220.46458Q29.768763 220.37083 28.737513 220.38646Q29.550013 221.07396 29.550013 222.10521Q29.550013 223.38646 28.628138 224.08958Q27.690638 224.79271 26.409388 224.79271Q25.518763 224.79271 24.768763 224.48021Q24.003138 224.15208 23.596888 223.54271Q23.190638 222.93333 23.190638 222.10521Q23.190638 220.99583 24.081263 220.27708L23.331263 220.27708L23.331263 219.30833L28.706263 219.30833Q30.159388 219.30833 30.768763 219.60521Q31.378138 219.90208 31.721888 220.54271Q32.08126 221.18333 32.08126 222.12083Q32.08126 223.23021 31.581263 223.91771Q31.081263 224.60521 30.065638 224.58958ZM26.331263 223.71458Q27.550013 223.71458 28.112513 223.23021Q28.675013 222.74583 28.675013 222.01146Q28.675013 221.27708 28.112513 220.79271Q27.550013 220.29271 26.362513 220.29271Q25.221888 220.29271 24.643763 220.80833Q24.065638 221.30833 24.065638 222.02708Q24.065638 222.73021 24.643763 223.23021Q25.206263 223.71458 26.331263 223.71458ZM27.550013 213.13646L27.675013 212.04271Q28.628138 212.29271 29.159388 212.99583Q29.690638 213.69896 29.690638 214.77708Q29.690638 216.13646 28.846888 216.94896Q28.003138 217.74583 26.487513 217.74583Q24.925013 217.74583 24.065638 216.93333Q23.190638 216.12083 23.190638 214.83958Q23.190638 213.58958 24.034388 212.80833Q24.878138 212.01146 26.425013 212.01146Q26.518763 212.01146 26.706263 212.01146L26.706263 216.65208Q27.737513 216.58958 28.284388 216.07396Q28.815638 215.55833 28.815638 214.77708Q28.815638 214.19896 28.518763 213.79271Q28.206263 213.37083 27.550013 213.13646ZM25.846888 216.58958L25.846888 213.12083Q25.050013 213.18333 24.659388 213.51146Q24.050013 214.02708 24.050013 214.82396Q24.050013 215.55833 24.534388 216.05833Q25.018763 216.54271 25.846888 216.58958ZM26.440638 210.77708Q24.706263 210.77708 23.878138 209.82396Q23.190638 209.02708 23.190638 207.87083Q23.190638 206.58958 24.034388 205.77708Q24.862513 204.94896 26.346888 204.94896Q27.550013 204.94896 28.237513 205.30833Q28.925013 205.66771 29.315638 206.37083Q29.690638 207.05833 29.690638 207.87083Q29.690638 209.16771 28.862513 209.98021Q28.018763 210.77708 26.440638 210.77708ZM26.440638 209.69896Q27.628138 209.69896 28.221888 209.18333Q28.815638 208.65208 28.815638 207.87083Q28.815638 207.07396 28.221888 206.55833Q27.628138 206.04271 26.409388 206.04271Q25.253138 206.04271 24.659388 206.57396Q24.065638 207.08958 24.065638 207.87083Q24.065638 208.65208 24.659388 209.18333Q25.237513 209.69896 26.440638 209.69896ZM29.550013 203.38646L23.331263 203.38646L23.331263 202.44896L24.206263 202.44896Q23.737513 202.15208 23.471888 201.66771Q23.190638 201.18333 23.190638 200.55833Q23.190638 199.87083 23.471888 199.43333Q23.753138 198.98021 24.268763 198.80833Q23.190638 198.05833 23.190638 196.88646Q23.190638 195.94896 23.706263 195.46458Q24.206263 194.96458 25.284388 194.96458L29.550013 194.96458L29.550013 196.01146L25.628138 196.01146Q25.003138 196.01146 24.721888 196.12083Q24.440638 196.21458 24.268763 196.48021Q24.096888 196.74583 24.096888 197.12083Q24.096888 197.77708 24.534388 198.21458Q24.971888 198.63646 25.940638 198.63646L29.550013 198.63646L29.550013 199.69896L25.503138 199.69896Q24.800013 199.69896 24.456263 199.96458Q24.096888 200.21458 24.096888 200.79271Q24.096888 201.24583 24.331263 201.62083Q24.565638 201.99583 25.018763 202.16771Q25.471888 202.33958 26.315638 202.33958L29.550013 202.33958L29.550013 203.38646ZM27.550013 188.13646L27.675013 187.04271Q28.628138 187.29271 29.159388 187.99583Q29.690638 188.69896 29.690638 189.77708Q29.690638 191.13646 28.846888 191.94896Q28.003138 192.74583 26.487513 192.74583Q24.925013 192.74583 24.065638 191.93333Q23.190638 191.12083 23.190638 189.83958Q23.190638 188.58958 24.034388 187.80833Q24.878138 187.01146 26.425013 187.01146Q26.518763 187.01146 26.706263 187.01146L26.706263 191.65208Q27.737513 191.58958 28.284388 191.07396Q28.815638 190.55833 28.815638 189.77708Q28.815638 189.19896 28.518763 188.79271Q28.206263 188.37083 27.550013 188.13646ZM25.846888 191.58958L25.846888 188.12083Q25.050013 188.18333 24.659388 188.51146Q24.050013 189.02708 24.050013 189.82396Q24.050013 190.55833 24.534388 191.05833Q25.018763 191.54271 25.846888 191.58958ZM28.784388 181.32396Q29.284388 181.91771 29.487513 182.46458Q29.690638 182.99583 29.690638 183.62083Q29.690638 184.65208 29.190638 185.19896Q28.690638 185.74583 27.909388 185.74583Q27.456263 185.74583 27.081263 185.54271Q26.690638 185.33958 26.471888 184.99583Q26.237513 184.65208 26.128138 184.23021Q26.034388 183.93333 25.956263 183.29271Q25.815638 182.02708 25.596888 181.41771Q25.378138 181.41771 25.331263 181.41771Q24.675013 181.41771 24.409388 181.71458Q24.065638 182.12083 24.065638 182.91771Q24.065638 183.65208 24.331263 184.01146Q24.581263 184.37083 25.237513 184.54271L25.096888 185.57396Q24.440638 185.43333 24.034388 185.10521Q23.628138 184.77708 23.409388 184.16771Q23.190638 183.55833 23.190638 182.76146Q23.190638 181.96458 23.378138 181.46458Q23.565638 180.96458 23.846888 180.73021Q24.128138 180.49583 24.565638 180.40208Q24.831263 180.35521 25.534388 180.35521L26.940638 180.35521Q28.409388 180.35521 28.800013 180.29271Q29.190638 180.21458 29.550013 180.01146L29.550013 181.12083Q29.221888 181.27708 28.784388 181.32396ZM26.425013 181.41771Q26.659388 181.99583 26.831263 183.13646Q26.925013 183.79271 27.050013 184.05833Q27.159388 184.32396 27.378138 184.48021Q27.596888 184.62083 27.878138 184.62083Q28.300013 184.62083 28.581263 184.30833Q28.862513 183.98021 28.862513 183.37083Q28.862513 182.76146 28.596888 182.29271Q28.331263 181.80833 27.862513 181.58958Q27.503138 181.41771 26.815638 181.41771L26.425013 181.41771ZM29.550013 178.38646L23.331263 178.38646L23.331263 177.44896L24.206263 177.44896Q23.190638 176.76146 23.190638 175.46458Q23.190638 174.90208 23.393763 174.43333Q23.596888 173.94896 23.925013 173.71458Q24.253138 173.48021 24.690638 173.38646Q24.987513 173.33958 25.721888 173.33958L29.550013 173.33958L29.550013 174.38646L25.768763 174.38646Q25.112513 174.38646 24.800013 174.51146Q24.487513 174.63646 24.300013 174.94896Q24.096888 175.26146 24.096888 175.68333Q24.096888 176.35521 24.534388 176.85521Q24.956263 177.33958 26.143763 177.33958L29.550013 177.33958L29.550013 178.38646Z" />
	<path class="txt" fill="#000000" d="M65.05 272.6765Q65.05 271.14526 65.3625 270.2234Q65.675 269.2859 66.28438 268.7859Q66.90938 268.2859 67.84688 268.2859Q68.53438 268.2859 69.05 268.56714Q69.58125 268.8484 69.925 269.37964Q70.26875 269.89526 70.45625 270.64526Q70.64375 271.39526 70.64375 272.6765Q70.64375 274.19214 70.33125 275.114Q70.03438 276.0359 69.40938 276.5515Q68.8 277.0515 67.84688 277.0515Q66.6125 277.0515 65.89375 276.1609Q65.05 275.0984 65.05 272.6765ZM66.12813 272.6765Q66.12813 274.7859 66.62813 275.489Q67.12813 276.19214 67.84688 276.19214Q68.58125 276.19214 69.06563 275.489Q69.56563 274.7859 69.56563 272.6765Q69.56563 270.5515 69.06563 269.864Q68.58125 269.1609 67.83125 269.1609Q67.1125 269.1609 66.675 269.77026Q66.12813 270.5515 66.12813 272.6765Z" />
	<path class="txt" fill="#000000" d="M62.01875 221.66234L60.971874 221.66234L60.971874 214.94359Q60.58125 215.30296 59.95625 215.67796Q59.346874 216.03734 58.8625 216.20921L58.8625 215.19359Q59.7375 214.77171 60.39375 214.19359Q61.065624 213.59984 61.346874 213.03734L62.01875 213.03734L62.01875 221.66234ZM65.05 217.42796Q65.05 215.89671 65.3625 214.97484Q65.675 214.03734 66.28438 213.53734Q66.90938 213.03734 67.84688 213.03734Q68.53438 213.03734 69.05 213.31859Q69.58125 213.59984 69.925 214.13109Q70.26875 214.64671 70.45625 215.39671Q70.64375 216.14671 70.64375 217.42796Q70.64375 218.94359 70.33125 219.86546Q70.03438 220.78734 69.40938 221.30296Q68.8 221.80296 67.84688 221.80296Q66.6125 221.80296 65.89375 220.91234Q65.05 219.84984 65.05 217.42796ZM66.12813 217.42796Q66.12813 219.53734 66.62813 220.24046Q67.12813 220.94359 67.84688 220.94359Q68.58125 220.94359 69.06563 220.24046Q69.56563 219.53734 69.56563 217.42796Q69.56563 215.30296 69.06563 214.61546Q68.58125 213.91234 67.83125 213.91234Q67.1125 213.91234 66.675 214.52171Q66.12813 215.30296 66.12813 217.42796Z" />
	<path class="txt" fill="#000000" d="M63.596874 165.39816L63.596874 166.41379L57.909374 166.41379Q57.909374 166.03879 58.034374 165.67941Q58.253124 165.10129 58.721874 164.53879Q59.20625 163.97629 60.1125 163.24191Q61.51875 162.08566 62.003124 161.41379Q62.503124 160.74191 62.503124 160.14816Q62.503124 159.52316 62.05 159.10129Q61.596874 158.66379 60.878124 158.66379Q60.1125 158.66379 59.659374 159.11691Q59.20625 159.57004 59.190624 160.38254L58.1125 160.27316Q58.221874 159.05441 58.940624 158.42941Q59.675 157.78879 60.909374 157.78879Q62.14375 157.78879 62.8625 158.47629Q63.58125 159.16379 63.58125 160.17941Q63.58125 160.69504 63.3625 161.19504Q63.159374 161.67941 62.659374 162.24191Q62.175 162.78879 61.05 163.74191Q60.096874 164.53879 59.815624 164.83566Q59.55 165.11691 59.378124 165.39816L63.596874 165.39816ZM65.05 162.17941Q65.05 160.64816 65.3625 159.72629Q65.675 158.78879 66.28438 158.28879Q66.90938 157.78879 67.84688 157.78879Q68.53438 157.78879 69.05 158.07004Q69.58125 158.35129 69.925 158.88254Q70.26875 159.39816 70.45625 160.14816Q70.64375 160.89816 70.64375 162.17941Q70.64375 163.69504 70.33125 164.61691Q70.03438 165.53879 69.40938 166.05441Q68.8 166.55441 67.84688 166.55441Q66.6125 166.55441 65.89375 165.66379Q65.05 164.60129 65.05 162.17941ZM66.12813 162.17941Q66.12813 164.28879 66.62813 164.99191Q67.12813 165.69504 67.84688 165.69504Q68.58125 165.69504 69.06563 164.99191Q69.56563 164.28879 69.56563 162.17941Q69.56563 160.05441 69.06563 159.36691Q68.58125 158.66379 67.83125 158.66379Q67.1125 158.66379 66.675 159.27316Q66.12813 160.05441 66.12813 162.17941Z" />
	<path class="txt" fill="#000000" d="M58.05 108.8996L59.1125 108.75897Q59.284374 109.6496 59.721874 110.05585Q60.159374 110.44647 60.784374 110.44647Q61.534374 110.44647 62.05 109.93085Q62.565624 109.41522 62.565624 108.6496Q62.565624 107.93085 62.08125 107.4621Q61.6125 106.97772 60.878124 106.97772Q60.58125 106.97772 60.128124 107.10272L60.253124 106.16522Q60.3625 106.18085 60.425 106.18085Q61.096874 106.18085 61.628124 105.8371Q62.175 105.47772 62.175 104.74335Q62.175 104.16522 61.784374 103.79022Q61.39375 103.3996 60.76875 103.3996Q60.159374 103.3996 59.7375 103.79022Q59.33125 104.18085 59.221874 104.94647L58.159374 104.75897Q58.346874 103.7121 59.034374 103.13397Q59.721874 102.54022 60.7375 102.54022Q61.440624 102.54022 62.034374 102.85272Q62.628124 103.1496 62.940624 103.66522Q63.253124 104.18085 63.253124 104.7746Q63.253124 105.32147 62.95625 105.79022Q62.659374 106.24335 62.08125 106.50897Q62.83125 106.68085 63.253124 107.24335Q63.675 107.79022 63.675 108.63397Q63.675 109.75897 62.846874 110.54022Q62.034374 111.32147 60.784374 111.32147Q59.659374 111.32147 58.909374 110.6496Q58.159374 109.9621 58.05 108.8996ZM65.05 106.93085Q65.05 105.3996 65.3625 104.47772Q65.675 103.54022 66.28438 103.04022Q66.90938 102.54022 67.84688 102.54022Q68.53438 102.54022 69.05 102.82147Q69.58125 103.10272 69.925 103.63397Q70.26875 104.1496 70.45625 104.8996Q70.64375 105.6496 70.64375 106.93085Q70.64375 108.44647 70.33125 109.36835Q70.03438 110.29022 69.40938 110.80585Q68.8 111.30585 67.84688 111.30585Q66.6125 111.30585 65.89375 110.41522Q65.05 109.35272 65.05 106.93085ZM66.12813 106.93085Q66.12813 109.04022 66.62813 109.74335Q67.12813 110.44647 67.84688 110.44647Q68.58125 110.44647 69.06563 109.74335Q69.56563 109.04022 69.56563 106.93085Q69.56563 104.80585 69.06563 104.11835Q68.58125 103.41522 67.83125 103.41522Q67.1125 103.41522 66.675 104.0246Q66.12813 104.80585 66.12813 106.93085Z" />
	<path class="txt" fill="#000000" d="M61.425 55.916668L61.425 53.854168L57.70625 53.854168L57.70625 52.885418L61.628124 47.322918L62.4875 47.322918L62.4875 52.885418L63.64375 52.885418L63.64375 53.854168L62.4875 53.854168L62.4875 55.916668L61.425 55.916668ZM61.425 52.885418L61.425 49.026043L58.7375 52.885418L61.425 52.885418ZM65.05 51.682293Q65.05 50.151043 65.3625 49.229168Q65.675 48.291668 66.28438 47.791668Q66.90938 47.291668 67.84688 47.291668Q68.53438 47.291668 69.05 47.572918Q69.58125 47.854168 69.925 48.385418Q70.26875 48.901043 70.45625 49.651043Q70.64375 50.401043 70.64375 51.682293Q70.64375 53.197918 70.33125 54.119793Q70.03438 55.041668 69.40938 55.557293Q68.8 56.057293 67.84688 56.057293Q66.6125 56.057293 65.89375 55.166668Q65.05 54.104168 65.05 51.682293ZM66.12813 51.682293Q66.12813 53.791668 66.62813 54.494793Q67.12813 55.197918 67.84688 55.197918Q68.58125 55.197918 69.06563 54.494793Q69.56563 53.791668 69.56563 51.682293Q69.56563 49.557293 69.06563 48.869793Q68.58125 48.166668 67.83125 48.166668Q67.1125 48.166668 66.675 48.776043Q66.12813 49.557293 66.12813 51.682293Z" />
	<path class="txt" fill="#000000" d="M87.96585 307.6813L88.65086 306.8637Q89.17014 307.2725 89.65628 307.3609Q90.14242 307.44928 90.73904 307.2283Q91.33566 306.98523 91.85494 306.46597Q92.30793 306.01297 92.5289 305.52682Q92.73882 305.02966 92.67253 304.6319Q92.60624 304.21207 92.33003 303.93585Q92.04277 303.6486 91.667114 303.6044Q91.28042 303.54913 90.76114 303.78116Q90.407585 303.93585 89.36902 304.57666Q88.34151 305.20642 87.833275 305.3611Q87.15931 305.571 86.617935 305.4495Q86.065506 305.31693 85.64566 304.89706Q85.19267 304.4441 85.04904 303.7922Q84.90541 303.11826 85.20372 302.42218Q85.50203 301.70404 86.109695 301.09637Q86.78366 300.4224 87.52391 300.12408Q88.25311 299.81473 88.96022 299.96942Q89.65628 300.11304 90.20871 300.62128L89.490555 301.44992Q88.84974 300.94168 88.197876 301.01904Q87.54601 301.07428 86.84995 301.77032Q86.12075 302.49954 86.05446 303.09616Q85.98817 303.69278 86.363815 304.06842Q86.695274 304.39987 87.137215 304.37778Q87.579155 304.35568 88.7724 303.6044Q89.97669 302.84204 90.50702 302.64316Q91.291466 302.36694 91.921234 302.4885Q92.53995 302.59897 93.03713 303.09616Q93.52327 303.5823 93.67795 304.2894Q93.82158 304.98544 93.54537 305.7478Q93.25811 306.4991 92.60624 307.15097Q91.7776 307.9796 90.98211 308.31107Q90.186615 308.62042 89.380066 308.4547Q88.58457 308.27792 87.96585 307.6813ZM96.97041 302.58792L90.90477 299.85892L91.68922 299.0745L95.26894 300.75388Q95.84347 301.04114 96.42904 301.36154Q96.185974 300.9196 95.87661 300.25668L94.17513 296.58856L94.937485 295.8262L97.66647 301.89188L96.97041 302.58792ZM100.8816 295.8483L101.743385 295.1633Q102.24057 296.01404 102.11904 296.88687Q101.997505 297.7597 101.23515 298.52206Q100.27393 299.48328 99.10278 299.46118Q97.94269 299.42804 96.87098 298.35632Q95.76613 297.25146 95.73298 296.06927Q95.68879 294.87604 96.594765 293.97006Q97.47865 293.08618 98.6277 293.13037Q99.787796 293.1635 100.8816 294.25732Q100.94789 294.3236 101.080475 294.4562L97.79906 297.7376Q98.57246 298.4226 99.32375 298.44473Q100.06401 298.45578 100.61644 297.90335Q101.02523 297.49454 101.10257 296.99734Q101.17991 296.4781 100.8816 295.8483ZM97.23558 297.08575L99.68836 294.63297Q99.08069 294.11368 98.57246 294.0695Q97.77696 294.0032 97.213486 294.56668Q96.69421 295.08597 96.68315 295.782Q96.68315 296.46704 97.23558 297.08575ZM104.21826 295.3401L98.14156 289.26337L98.89286 288.5121L104.96956 294.58878L104.21826 295.3401ZM107.3229 290.9096L108.08525 291.451Q107.83114 291.83768 107.588066 292.08075Q107.17927 292.48956 106.83677 292.589Q106.483215 292.67737 106.17385 292.5669Q105.87554 292.44537 105.201584 291.7714L102.67146 289.24127L102.13009 289.78265L101.555565 289.20813L102.09694 288.66675L101.003136 287.57294L101.301445 286.39075L102.8372 287.9265L103.58849 287.1752L104.16302 287.74973L103.41172 288.50104L105.98603 291.07535Q106.306435 291.39575 106.42797 291.451Q106.560555 291.49518 106.704185 291.46204Q106.84782 291.4289 107.01354 291.26315Q107.146126 291.13058 107.3229 290.9096ZM110.07399 286.6559L110.935776 285.97092Q111.43296 286.82166 111.311424 287.6945Q111.189896 288.56732 110.42754 289.32968Q109.46632 290.2909 108.29517 290.2688Q107.13508 290.23566 106.06337 289.16394Q104.95851 288.05908 104.92537 286.8769Q104.88117 285.68365 105.787155 284.77768Q106.671036 283.8938 107.82008 283.938Q108.98019 283.97113 110.07399 285.06494Q110.14028 285.13123 110.272865 285.2638L106.99145 288.54523Q107.76485 289.23022 108.51614 289.25232Q109.2564 289.26337 109.80882 288.71094Q110.21762 288.30215 110.29496 287.80496Q110.3723 287.28568 110.07399 286.6559ZM106.42797 287.89337L108.880745 285.44058Q108.27308 284.9213 107.76485 284.8771Q106.969345 284.81082 106.405876 285.3743Q105.88659 285.8936 105.87554 286.58963Q105.87554 287.27463 106.42797 287.89337Z" />
	<path class="txt" fill="#000000" d="M129.57402 310.78595L123.49732 304.70923L125.79542 302.41113Q126.39204 301.8145 126.767685 301.54935Q127.29802 301.1737 127.80625 301.08533Q128.32553 300.98587 128.87796 301.18475Q129.44144 301.3726 129.89442 301.82556Q130.66782 302.59897 130.71202 303.63754Q130.75621 304.654 129.46353 305.9467L127.905685 307.50452L130.38055 309.9794L129.57402 310.78595ZM127.19858 306.79742L128.76747 305.22852Q129.55193 304.4441 129.58507 303.8364Q129.61821 303.20663 129.08788 302.6763Q128.71223 302.30066 128.2482 302.23438Q127.78416 302.14597 127.386406 302.36694Q127.12124 302.52164 126.579865 303.06302L125.02202 304.62085L127.19858 306.79742ZM135.13144 305.22852L130.73412 300.8312L131.40808 300.15726L132.07098 300.82016Q131.86107 300.102 131.92735 299.74844Q131.99365 299.3728 132.25882 299.10764Q132.63446 298.732 133.25319 298.5773L133.69513 299.52747Q133.25319 299.63797 132.98802 299.90314Q132.7339 300.15726 132.68971 300.5108Q132.64551 300.84225 132.83334 301.18475Q133.09851 301.7151 133.56255 302.17914L135.87169 304.48828L135.13144 305.22852ZM139.5619 297.96964L140.42369 297.2846Q140.92087 298.13535 140.79933 299.00818Q140.67781 299.88104 139.91545 300.64337Q138.95424 301.6046 137.78308 301.58252Q136.62299 301.54935 135.55128 300.47766Q134.44643 299.3728 134.41328 298.1906Q134.36908 296.99734 135.27507 296.09137Q136.15895 295.2075 137.308 295.25168Q138.4681 295.28482 139.5619 296.37863Q139.62819 296.44495 139.76077 296.5775L136.47935 299.85892Q137.25276 300.54395 138.00406 300.56604Q138.74431 300.5771 139.29674 300.02466Q139.70554 299.61588 139.78287 299.11868Q139.86021 298.5994 139.5619 297.96964ZM135.91588 299.20706L138.36865 296.7543Q137.76099 296.23502 137.25276 296.19083Q136.45726 296.1245 135.89378 296.688Q135.3745 297.20728 135.36345 297.90335Q135.36345 298.58835 135.91588 299.20706ZM145.2519 294.0253Q145.18561 294.7987 144.94254 295.32904Q144.71053 295.8483 144.26859 296.29025Q143.53938 297.01947 142.79912 297.0526Q142.05887 297.08575 141.50644 296.53333Q141.18604 296.21292 141.0645 295.8041Q140.93192 295.38428 141.02031 294.9865Q141.09766 294.57773 141.31862 294.2021Q141.46225 293.92587 141.86 293.41763Q142.65549 292.42325 142.9317 291.83768Q142.77702 291.683 142.74388 291.64987Q142.27985 291.18582 141.8821 291.20792Q141.35176 291.2521 140.78828 291.81558Q140.26901 292.33487 140.20271 292.77682Q140.12538 293.2077 140.46788 293.79327L139.63924 294.42303Q139.27464 293.85956 139.21939 293.3403Q139.16415 292.821 139.44037 292.23544Q139.71658 291.64987 140.28006 291.0864Q140.84354 290.52292 141.32967 290.30194Q141.81581 290.08096 142.1804 290.1141Q142.54501 290.14725 142.92065 290.39032Q143.14163 290.545 143.63881 291.0422L144.63318 292.03656Q145.67175 293.07513 145.99216 293.30716Q146.32361 293.5281 146.72136 293.6386L145.9369 294.42303Q145.5944 294.3015 145.2519 294.0253ZM143.51727 292.42325Q143.27422 292.99777 142.5892 293.92587Q142.19145 294.4562 142.09201 294.73242Q141.98154 294.99756 142.02573 295.26273Q142.08096 295.51685 142.27985 295.71573Q142.57816 296.01404 142.998 295.99194Q143.4289 295.9588 143.85979 295.5279Q144.29068 295.09702 144.43431 294.57773Q144.58899 294.0474 144.41222 293.56125Q144.27963 293.1856 143.79349 292.69946L143.51727 292.42325ZM149.12994 288.00385L149.95859 287.37408Q150.58835 288.24692 150.52205 289.175Q150.45576 290.10306 149.73761 290.82123Q148.83163 291.7272 147.69363 291.69406Q146.55563 291.63882 145.45078 290.53397Q144.74367 289.82684 144.44536 289.0645Q144.14705 288.28006 144.35696 287.5398Q144.57794 286.7885 145.15247 286.214Q145.85957 285.50687 146.67717 285.4185Q147.49475 285.308 148.3013 285.84937L147.68259 286.68906Q147.1412 286.34656 146.65506 286.39075Q146.15788 286.4239 145.78223 286.79956Q145.21875 287.36304 145.274 288.12537Q145.31819 288.87668 146.19102 289.7495Q147.08595 290.64444 147.82622 290.69968Q148.56647 290.75494 149.10785 290.21356Q149.54979 289.7716 149.57188 289.21918Q149.60503 288.6557 149.12994 288.00385ZM153.07426 285.95987L153.83662 286.50125Q153.5825 286.88794 153.33943 287.131Q152.93063 287.5398 152.58813 287.63925Q152.23457 287.72763 151.92522 287.61716Q151.6269 287.4956 150.95296 286.82166L148.42284 284.29153L147.88145 284.83292L147.30693 284.2584L147.84831 283.717L146.7545 282.6232L147.05281 281.441L148.58856 282.97675L149.33986 282.22546L149.91438 282.8L149.16309 283.55127L151.7374 286.12558Q152.0578 286.446 152.17934 286.50125Q152.31192 286.54544 152.45555 286.5123Q152.59918 286.47916 152.76491 286.31342Q152.89749 286.18085 153.07426 285.95987Z" />
	<path class="txt" fill="#000000" d="M127.59567 353.56592L119.90588 349.1023L120.73453 348.27365L125.65113 351.3341Q126.413475 351.80917 127.142685 352.3174Q126.40243 351.11313 126.29195 350.91425L123.34198 345.6662L124.314255 344.69394L128.25859 346.89258Q129.72804 347.72122 130.88814 348.57196Q130.4241 347.88696 129.86063 346.9478L126.91067 342.0975L127.71721 341.29095L132.13663 349.02496L131.35217 349.8094L125.452255 346.45065Q124.712006 346.04184 124.54627 345.9424Q124.866684 346.4396 125.07661 346.8263L128.42432 352.73727L127.59567 353.56592ZM135.8158 342.51736L136.67758 341.83234Q137.17476 342.68307 137.05324 343.5559Q136.9317 344.42874 136.16934 345.1911Q135.20813 346.1523 134.03697 346.13022Q132.87688 346.09708 131.80518 345.0254Q130.70032 343.92053 130.66718 342.73834Q130.62299 341.54507 131.52896 340.6391Q132.41284 339.75522 133.56189 339.7994Q134.72198 339.83255 135.8158 340.92636Q135.88208 340.99265 136.01466 341.12524L132.73325 344.40665Q133.50665 345.09167 134.25795 345.11377Q134.9982 345.12482 135.55063 344.5724Q135.95943 344.1636 136.03676 343.6664Q136.1141 343.14713 135.8158 342.51736ZM132.16977 343.7548L134.62256 341.30203Q134.01488 340.78275 133.50665 340.73856Q132.71115 340.67224 132.14767 341.23572Q131.6284 341.755 131.61734 342.45108Q131.61734 343.13608 132.16977 343.7548ZM139.85956 341.30203L139.1635 341.99808L133.0868 335.9214L133.8381 335.17007L136.00362 337.3356Q135.89313 336.27493 136.62234 335.54572Q137.03113 335.13693 137.55042 334.9491Q138.0697 334.7392 138.60002 334.80548Q139.1414 334.86072 139.69383 335.14798Q140.24626 335.43524 140.72134 335.91034Q141.8483 337.0373 141.90355 338.21948Q141.95879 339.40167 141.18538 340.17508Q140.40094 340.9595 139.30713 340.7496L139.85956 341.30203ZM137.6167 339.08127Q138.40115 339.8657 138.97568 339.9983Q139.90376 340.21927 140.50038 339.62265Q140.98651 339.1365 140.92023 338.3631Q140.86497 337.57864 140.01424 336.7279Q139.15245 335.86612 138.40115 335.79984Q137.64986 335.73355 137.16371 336.2197Q136.67758 336.7058 136.74387 337.5013Q136.81017 338.27472 137.6167 339.08127ZM146.4224 330.47446L147.42781 329.8889Q148.15701 331.1263 148.02443 332.29745Q147.89185 333.4686 146.94168 334.41876Q145.95836 335.4021 144.9419 335.62308Q143.92543 335.84402 142.85371 335.41315Q141.77097 334.9712 140.89812 334.09836Q139.94795 333.1482 139.60544 332.07648Q139.26294 331.00476 139.56125 329.97726Q139.8706 328.9387 140.67715 328.13214Q141.58313 327.22617 142.6659 327.0715Q143.75969 326.90576 144.84245 327.50238L144.23479 328.48572Q143.36195 328.0327 142.65485 328.1432Q141.94774 328.2316 141.34007 328.83926Q140.64401 329.5353 140.51143 330.3529Q140.37885 331.1484 140.74344 331.91077Q141.1191 332.66205 141.72676 333.2697Q142.50017 334.04312 143.29565 334.39667Q144.1022 334.7392 144.86455 334.55136Q145.6269 334.36353 146.19038 333.80005Q146.86433 333.1261 146.94168 332.27536Q147.03006 331.41357 146.4224 330.47446ZM148.01338 328.7509Q146.787 327.52448 146.87538 326.26495Q146.95273 325.21533 147.77032 324.39774Q148.6763 323.49176 149.84744 323.51385Q151.01859 323.51385 152.0682 324.56348Q152.91895 325.4142 153.15096 326.15445Q153.38298 326.8947 153.162 327.66812Q152.94104 328.4194 152.36652 328.99393Q151.44948 329.91098 150.28938 329.89993Q149.12929 329.86676 148.01338 328.7509ZM148.77574 327.98853Q149.61542 328.82822 150.39987 328.88345Q151.19537 328.92764 151.74779 328.3752Q152.31126 327.81174 152.25603 327.0273Q152.20079 326.24286 151.339 325.38107Q150.52141 324.56348 149.7259 324.5193Q148.94147 324.46405 148.38904 325.01648Q147.83661 325.56888 147.8808 326.36438Q147.925 327.1378 148.77574 327.98853ZM155.438 325.72357L151.04068 321.32626L151.7036 320.66333L152.32231 321.28204Q152.20079 320.7407 152.35547 320.21036Q152.4991 319.66898 152.94104 319.22702Q153.42717 318.7409 153.93541 318.6304Q154.45468 318.50888 154.94083 318.75195Q154.7088 317.45926 155.53745 316.6306Q156.20036 315.9677 156.90747 315.9898Q157.61456 315.9898 158.37692 316.75217L161.39317 319.7684L160.65292 320.50867L157.87973 317.73547Q157.43779 317.29352 157.16158 317.172Q156.89641 317.03943 156.58705 317.1057Q156.2777 317.172 156.01253 317.43716Q155.5485 317.9012 155.5485 318.51993Q155.55954 319.1276 156.24455 319.8126L158.79677 322.3648L158.04547 323.11612L155.18388 320.25455Q154.6867 319.75735 154.25581 319.70212Q153.82492 319.6248 153.41612 320.03357Q153.09572 320.35397 152.99628 320.78488Q152.89684 321.21576 153.09572 321.6577Q153.29459 322.09964 153.8912 322.69626L156.17825 324.9833L155.438 325.72357ZM164.90662 319.63583L158.81886 313.54807L159.49283 312.8741L160.0563 313.4376Q159.96791 312.86307 160.1005 312.39902Q160.24413 311.92395 160.67502 311.49304Q161.2385 310.92957 161.95665 310.78595Q162.6748 310.6423 163.41505 310.9627Q164.16635 311.27206 164.79613 311.90186Q165.47008 312.5758 165.7684 313.36026Q166.07776 314.13364 165.90097 314.88495Q165.7242 315.63626 165.21597 316.14447Q164.84032 316.52014 164.38733 316.66376Q163.9233 316.79636 163.50345 316.75217L165.64687 318.89557L164.90662 319.63583ZM161.71358 315.09488Q162.56432 315.94562 163.31561 316.0119Q164.05588 316.06714 164.542 315.581Q165.03918 315.08383 164.9729 314.31042Q164.90662 313.53702 164.02272 312.65314Q163.18303 311.81345 162.43173 311.74716Q161.66939 311.66983 161.18324 312.15594Q160.70816 312.63104 160.7855 313.4376Q160.86284 314.24414 161.71358 315.09488ZM165.69106 311.0732Q164.46466 309.8468 164.55305 308.58728Q164.6304 307.53766 165.44798 306.72006Q166.35397 305.8141 167.52512 305.83618Q168.69626 305.83618 169.74586 306.8858Q170.5966 307.73654 170.82863 308.4768Q171.06065 309.21704 170.83968 309.99045Q170.61871 310.74176 170.04417 311.31628Q169.12715 312.2333 167.96706 312.22226Q166.80696 312.18912 165.69106 311.0732ZM166.4534 310.31085Q167.29309 311.15054 168.07755 311.20578Q168.87303 311.24997 169.42546 310.69754Q169.98894 310.13406 169.9337 309.34964Q169.87845 308.5652 169.01666 307.7034Q168.19908 306.8858 167.40358 306.8416Q166.61914 306.78638 166.06671 307.3388Q165.51428 307.89124 165.55847 308.6867Q165.60266 309.4601 166.4534 310.31085ZM173.11568 308.0459L168.71835 303.6486L169.38127 302.98566L169.99998 303.6044Q169.76797 302.4001 170.685 301.48306Q171.08275 301.08533 171.55783 300.8975Q172.04396 300.6986 172.44171 300.76492Q172.83946 300.8312 173.21512 301.07428Q173.45818 301.25104 173.97746 301.77032L176.68436 304.47723L175.9441 305.21747L173.27036 302.54373Q172.80632 302.07968 172.49696 301.9471Q172.1876 301.8145 171.83405 301.90292Q171.46944 301.98026 171.17113 302.27856Q170.69604 302.75366 170.65186 303.41656Q170.60765 304.05737 171.44734 304.89706L173.85593 307.30566L173.11568 308.0459ZM179.65642 298.67673L180.5182 297.99173Q181.01538 298.84247 180.89384 299.7153Q180.77232 300.58813 180.00996 301.3505Q179.04875 302.3117 177.8776 302.2896Q176.7175 302.25647 175.6458 301.18475Q174.54094 300.0799 174.5078 298.8977Q174.4636 297.70447 175.36958 296.7985Q176.25346 295.9146 177.40251 295.9588Q178.5626 295.99194 179.65642 297.08575Q179.7227 297.15204 179.85529 297.2846L176.57387 300.56604Q177.34727 301.25104 178.09857 301.27313Q178.83882 301.28418 179.39125 300.73178Q179.80005 300.32297 179.87738 299.82578Q179.95473 299.30652 179.65642 298.67673ZM176.01039 299.91418L178.46317 297.4614Q177.8555 296.9421 177.34727 296.89792Q176.55177 296.83163 175.9883 297.3951Q175.46901 297.9144 175.45796 298.61044Q175.45796 299.29544 176.01039 299.91418ZM183.01517 298.1464L178.61786 293.74908L179.28076 293.08618L179.89948 293.7049Q179.66747 292.5006 180.58449 291.58356Q180.98224 291.18582 181.45732 290.998Q181.94347 290.79913 182.34122 290.86542Q182.73895 290.9317 183.11461 291.17477Q183.35768 291.35156 183.87695 291.87082L186.58385 294.57773L185.8436 295.318L183.16985 292.64423Q182.70581 292.1802 182.39645 292.0476Q182.0871 291.91504 181.73354 292.00342Q181.36894 292.08075 181.07063 292.37906Q180.59554 292.85416 180.55135 293.51706Q180.50716 294.15787 181.34685 294.99756L183.75542 297.40616L183.01517 298.1464ZM188.92615 290.9096L189.68849 291.451Q189.43437 291.83768 189.19131 292.08075Q188.78252 292.48956 188.44 292.589Q188.08646 292.67737 187.7771 292.5669Q187.47879 292.44534 186.80482 291.7714L184.2747 289.24127L183.73332 289.78265L183.1588 289.20813L183.70018 288.66675L182.60637 287.57294L182.9047 286.39075L184.44043 287.9265L185.19174 287.1752L185.76627 287.74973L185.01495 288.50104L187.58926 291.07535Q187.90968 291.39575 188.0312 291.451Q188.16379 291.49518 188.30742 291.46204Q188.45105 291.4289 188.61679 291.26315Q188.74936 291.13058 188.92615 290.9096ZM188.47316 290.05887L189.09187 289.21918Q189.6001 289.59485 190.10834 289.55063Q190.62762 289.4954 191.1469 288.9761Q191.65514 288.4679 191.69933 288.02594Q191.74352 287.5619 191.45625 287.27463Q191.20215 287.02054 190.83754 287.09787Q190.58342 287.1531 189.82108 287.6061Q188.79356 288.21378 188.32953 288.39053Q187.86548 288.54523 187.43459 288.44577Q187.0037 288.34634 186.67224 288.0149Q186.38498 287.72763 186.26344 287.34094Q186.1419 286.95422 186.2082 286.5565Q186.26344 286.25818 186.47337 285.87146Q186.68329 285.48477 187.03683 285.13123Q187.54507 284.623 188.08646 284.39096Q188.62784 284.13684 189.06978 284.20316Q189.51172 284.26944 189.99785 284.623L189.36809 285.45163Q188.99243 285.16437 188.56154 285.2196Q188.13065 285.25275 187.6887 285.6947Q187.18047 286.20294 187.13628 286.60068Q187.08104 286.98737 187.31305 287.2194Q187.45668 287.36304 187.65556 287.38513Q187.87653 287.40723 188.1417 287.29672Q188.29637 287.23044 188.99243 286.82166Q190.0089 286.24713 190.45084 286.07034Q190.89278 285.8936 191.32367 285.97092Q191.75456 286.04825 192.14127 286.43494Q192.51692 286.8106 192.62741 287.36304Q192.73788 287.89337 192.51692 288.49Q192.2849 289.07556 191.76562 289.59485Q190.90384 290.45663 190.09729 290.55606Q189.29074 290.6334 188.47316 290.05887Z" />
	<path class="txt" fill="#000000" d="M226.70045 295.26273L220.62376 289.18604L221.43031 288.3795L226.78885 293.73804L229.783 290.7439L230.50116 291.46204L226.70045 295.26273ZM226.38005 285.15332L225.51826 284.29153L226.26956 283.54022L227.13135 284.402L226.38005 285.15332ZM231.59497 290.36823L227.19765 285.97092L227.94894 285.2196L232.34627 289.61694L231.59497 290.36823ZM234.6775 285.95987L235.43985 286.50125Q235.18573 286.88794 234.94266 287.131Q234.53387 287.53983 234.19138 287.63925Q233.83781 287.72763 233.52846 287.61716Q233.23015 287.4956 232.55618 286.82166L230.02608 284.29153L229.4847 284.83292L228.91017 284.2584L229.45155 283.717L228.35774 282.6232L228.65604 281.441L230.19179 282.97678L230.94308 282.22546L231.51761 282.8L230.76631 283.5513L233.34062 286.1256Q233.66103 286.446 233.78256 286.50125Q233.91515 286.54544 234.05878 286.5123Q234.20241 286.47916 234.36813 286.31342Q234.50072 286.18085 234.6775 285.95987Z" />
	<path class="txt" fill="#000000" d="M263.613 299.15182L255.18295 295.42847L256.0558 294.55563L262.05515 297.3951Q262.77332 297.7376 263.36993 298.06906Q263.0164 297.42825 262.707 296.74323L259.9228 290.68863L260.7404 289.87103L264.44165 298.32318L263.613 299.15182ZM269.6234 293.14142L268.97153 292.48956Q269.20355 293.76013 268.31967 294.644Q267.93298 295.0307 267.44684 295.22958Q266.9607 295.40637 266.574 295.35114Q266.17627 295.28482 265.7785 295.01965Q265.52438 294.85394 265.03827 294.3678L262.3203 291.64987L263.07162 290.89856L265.51334 293.3403Q266.08786 293.91483 266.34198 294.08054Q266.69553 294.3015 267.0933 294.25732Q267.49103 294.19104 267.83353 293.8485Q268.165 293.51706 268.28653 293.0641Q268.40805 292.589 268.2313 292.16913Q268.06555 291.73825 267.50208 291.17477L265.14874 288.82144L265.889 288.08118L270.28632 292.47852L269.6234 293.14142ZM273.28046 286.6559L274.14224 285.97092Q274.63943 286.82166 274.5179 287.6945Q274.39636 288.56732 273.63403 289.32968Q272.6728 290.2909 271.50165 290.2688Q270.34155 290.23566 269.26984 289.16394Q268.165 288.05908 268.13184 286.8769Q268.08765 285.68365 268.99362 284.77768Q269.87753 283.8938 271.02658 283.938Q272.18668 283.97113 273.28046 285.06494Q273.34677 285.13123 273.47934 285.2638L270.19794 288.54523Q270.9713 289.23022 271.72263 289.25232Q272.4629 289.26337 273.01532 288.71094Q273.4241 288.30215 273.50143 287.80496Q273.57877 287.28568 273.28046 286.6559ZM269.63446 287.89337L272.08722 285.44058Q271.47955 284.9213 270.9713 284.8771Q270.17584 284.81082 269.61237 285.3743Q269.09308 285.8936 269.08203 286.58963Q269.08203 287.27463 269.63446 287.89337Z" />
	<path class="txt" fill="#000000" d="M278.6052 324.96124L272.5285 318.88452L274.81555 316.59747Q275.51163 315.90143 276.1193 315.6694Q276.72696 315.43738 277.34567 315.59207Q277.9644 315.72464 278.38425 316.1445Q278.77094 316.5312 278.9035 317.08362Q279.0361 317.63605 278.81512 318.27686Q279.5333 317.89017 280.2183 318.00064Q280.9033 318.08905 281.43362 318.61935Q281.8535 319.0392 282.05234 319.59164Q282.24017 320.13303 282.1739 320.59705Q282.1076 321.0611 281.79825 321.56934Q281.49994 322.0665 280.9254 322.64102L278.6052 324.96124ZM275.88727 320.6302L277.20203 319.31543Q277.73236 318.7851 277.8981 318.4868Q278.11908 318.08905 278.06384 317.72443Q277.99753 317.3488 277.67712 317.02838Q277.3788 316.73007 277.00317 316.64166Q276.6275 316.55328 276.27396 316.75217Q275.9204 316.92892 275.26855 317.5808L274.0532 318.79614L275.88727 320.6302ZM278.6936 323.43652L280.20724 321.92288Q280.59393 321.5362 280.71548 321.34836Q280.95856 321.0169 281.02484 320.72964Q281.09113 320.4203 280.9917 320.07776Q280.89224 319.73526 280.60498 319.448Q280.26248 319.1055 279.8316 319.02817Q279.41174 318.9398 279.00296 319.1497Q278.59415 319.35962 278.00858 319.9452L276.6054 321.34836L278.6936 323.43652ZM286.53806 315.94562Q286.47177 316.71902 286.2287 317.24936Q285.99667 317.76862 285.55475 318.21057Q284.82553 318.9398 284.0853 318.97293Q283.34503 319.00607 282.7926 318.45364Q282.4722 318.13324 282.35068 317.72443Q282.21808 317.3046 282.30646 316.90683Q282.38382 316.49805 282.60477 316.1224Q282.7484 315.8462 283.14615 315.33795Q283.94165 314.34357 284.21786 313.758Q284.0632 313.60333 284.03003 313.5702Q283.566 313.10614 283.16824 313.12823Q282.63794 313.17242 282.07446 313.7359Q281.55518 314.2552 281.4889 314.69714Q281.41153 315.12802 281.75403 315.7136L280.9254 316.34335Q280.5608 315.77988 280.50555 315.26062Q280.45032 314.74133 280.72653 314.15576Q281.00275 313.5702 281.56622 313.0067Q282.1297 312.44324 282.6158 312.22226Q283.10196 312.00128 283.46655 312.03442Q283.83118 312.06757 284.20682 312.31064Q284.4278 312.46533 284.925 312.96252L285.91934 313.95688Q286.95792 314.99545 287.27832 315.22748Q287.60977 315.44843 288.0075 315.55893L287.22308 316.34335Q286.88055 316.22183 286.53806 315.94562ZM284.80344 314.34357Q284.56036 314.9181 283.87537 315.8462Q283.4776 316.37653 283.37817 316.65274Q283.2677 316.91788 283.3119 317.18304Q283.36713 317.43716 283.566 317.63605Q283.86432 317.93436 284.28415 317.91226Q284.71506 317.87912 285.14594 317.4482Q285.57684 317.01733 285.72046 316.49805Q285.87515 315.9677 285.69836 315.48157Q285.5658 315.10593 285.07965 314.61978L284.80344 314.34357ZM290.4161 309.92416L291.24475 309.2944Q291.8745 310.16724 291.80823 311.0953Q291.7419 312.02338 291.02377 312.74155Q290.1178 313.64752 288.9798 313.61438Q287.8418 313.55914 286.73694 312.45428Q286.02982 311.74716 285.7315 310.98483Q285.4332 310.20038 285.64313 309.4601Q285.8641 308.70883 286.43863 308.1343Q287.14572 307.4272 287.96332 307.3388Q288.7809 307.22833 289.58746 307.76968L288.96875 308.60938Q288.42737 308.26688 287.94122 308.31107Q287.44403 308.3442 287.0684 308.71988Q286.5049 309.28336 286.56015 310.0457Q286.60434 310.797 287.47717 311.66983Q288.37213 312.56476 289.11237 312.62Q289.85263 312.67526 290.394 312.13388Q290.83594 311.69193 290.85803 311.1395Q290.89117 310.57602 290.4161 309.92416ZM293.3992 310.16724L287.3225 304.09055L288.07382 303.33923L291.54306 306.80847L291.50992 303.2619L292.48218 302.2896L292.4159 305.6042L297.04523 306.5212L296.1282 307.43823L292.4159 306.64273L292.40485 307.67026L294.1505 309.41592L293.3992 310.16724ZM298.32684 305.2396L297.6308 305.93564L291.5541 299.85895L292.3054 299.10764L294.47092 301.27316Q294.36044 300.2125 295.08963 299.48328Q295.49844 299.0745 296.0177 298.88666Q296.537 298.67676 297.06732 298.74304Q297.6087 298.79828 298.16113 299.08554Q298.71356 299.3728 299.18863 299.8479Q300.31558 300.97485 300.37085 302.15704Q300.4261 303.33923 299.65268 304.11264Q298.86823 304.89706 297.77444 304.68716L298.32684 305.2396ZM296.084 303.01883Q296.86844 303.80328 297.44296 303.93585Q298.37106 304.15683 298.96768 303.5602Q299.4538 303.07407 299.3875 302.30066Q299.33228 301.51624 298.48154 300.6655Q297.61975 299.8037 296.86844 299.7374Q296.11716 299.6711 295.631 300.15726Q295.14487 300.64337 295.21118 301.43887Q295.27747 302.21228 296.084 303.01883ZM300.11673 299.0524Q298.89032 297.82602 298.97873 296.56647Q299.05606 295.51688 299.87366 294.69928Q300.77963 293.79327 301.95078 293.8154Q303.12192 293.8154 304.17154 294.865Q305.02228 295.71573 305.2543 296.456Q305.4863 297.19623 305.26535 297.96964Q305.04437 298.72095 304.46985 299.29547Q303.55283 300.2125 302.39273 300.20145Q301.23264 300.1683 300.11673 299.0524ZM300.87906 298.29004Q301.71875 299.12973 302.5032 299.18497Q303.2987 299.2292 303.85114 298.67676Q304.4146 298.11328 304.35938 297.32883Q304.3041 296.54437 303.44232 295.6826Q302.62473 294.865 301.82925 294.8208Q301.0448 294.76556 300.49237 295.318Q299.93994 295.87042 299.98413 296.66592Q300.02832 297.4393 300.87906 298.29004ZM307.54135 296.0251L303.144 291.62778L303.80695 290.96487L304.42566 291.5836Q304.19363 290.3793 305.11066 289.46225Q305.50842 289.0645 305.9835 288.87668Q306.46964 288.67783 306.86737 288.7441Q307.26514 288.8104 307.64078 289.05347Q307.88385 289.23026 308.40314 289.7495L311.11002 292.45642L310.36978 293.19666L307.696 290.52292Q307.232 290.05887 306.92264 289.9263Q306.61325 289.7937 306.2597 289.8821Q305.8951 289.95944 305.5968 290.25775Q305.1217 290.73285 305.0775 291.39575Q305.03333 292.03656 305.87302 292.87625L308.2816 295.28485L307.54135 296.0251ZM314.0821 286.65594L314.94388 285.97092Q315.44104 286.82166 315.31952 287.6945Q315.19797 288.56732 314.43564 289.32968Q313.4744 290.2909 312.30325 290.2688Q311.14316 290.23566 310.07147 289.16394Q308.9666 288.05908 308.93347 286.8769Q308.88925 285.68365 309.79526 284.77768Q310.67914 283.8938 311.8282 283.938Q312.98828 283.97113 314.0821 285.06494Q314.14838 285.13123 314.28094 285.26382L310.99954 288.54523Q311.77295 289.23026 312.52423 289.25235Q313.2645 289.2634 313.81693 288.71097Q314.2257 288.30215 314.30304 287.805Q314.3804 287.2857 314.0821 286.65594ZM310.43607 287.89337L312.88882 285.44058Q312.28116 284.9213 311.77295 284.8771Q310.97745 284.81082 310.41397 285.3743Q309.89468 285.8936 309.88364 286.58963Q309.88364 287.27466 310.43607 287.89337Z" />
	<path class="txt" fill="#000000" d="M308.13733 336.23074L302.06064 330.15402L304.75647 327.4582Q305.57407 326.6406 306.15964 326.38647Q306.7452 326.13235 307.41916 326.2981Q308.0821 326.45276 308.57925 326.94995Q309.23114 327.6018 309.25323 328.4636Q309.27533 329.32538 308.52402 330.31976Q308.9991 330.15402 309.30847 330.13193Q309.98242 330.0988 310.77792 330.27557L313.49588 330.8722L312.4794 331.88864L310.42438 331.42462Q309.5184 331.22574 308.9991 331.1705Q308.49088 331.10422 308.19257 331.18155Q307.89426 331.2368 307.65118 331.3694Q307.49652 331.47986 307.18713 331.7892L306.24802 332.72833L308.94388 335.4242L308.13733 336.23074ZM305.55197 332.0323L307.2866 330.29767Q307.82797 329.7563 308.02682 329.33646Q308.2257 328.8945 308.13733 328.49677Q308.04892 328.0769 307.7506 327.7786Q307.31973 327.34772 306.7231 327.3919Q306.13754 327.42505 305.46356 328.099L303.54114 330.02145L305.55197 332.0323ZM315.99283 325.54678L316.8546 324.8618Q317.3518 325.71252 317.2303 326.58536Q317.10873 327.4582 316.3464 328.22055Q315.38516 329.18176 314.21402 329.15967Q313.05392 329.12653 311.9822 328.0548Q310.87735 326.94995 310.8442 325.76776Q310.80002 324.57452 311.706 323.66855Q312.58987 322.78467 313.73892 322.82886Q314.89902 322.862 315.99283 323.9558Q316.05914 324.0221 316.1917 324.15466L312.9103 327.4361Q313.6837 328.1211 314.435 328.1432Q315.17523 328.15424 315.72766 327.6018Q316.13647 327.19302 316.2138 326.69583Q316.29114 326.17654 315.99283 325.54678ZM312.34683 326.78424L314.7996 324.33145Q314.19193 323.81216 313.6837 323.76797Q312.88818 323.7017 312.3247 324.26517Q311.80545 324.78445 311.7944 325.4805Q311.7944 326.1655 312.34683 326.78424ZM321.68283 321.60245Q321.61655 322.37585 321.37347 322.9062Q321.14145 323.42548 320.69952 323.8674Q319.9703 324.59662 319.23007 324.62976Q318.4898 324.6629 317.93738 324.11047Q317.61697 323.79007 317.49545 323.3813Q317.36285 322.96143 317.45123 322.5637Q317.5286 322.15488 317.74954 321.77924Q317.8932 321.50302 318.29092 320.99478Q319.08643 320.00043 319.36264 319.41486Q319.20798 319.26016 319.1748 319.22702Q318.7108 318.763 318.31302 318.7851Q317.7827 318.82928 317.21924 319.39276Q316.69995 319.91205 316.63367 320.35397Q316.5563 320.78488 316.8988 321.37045L316.0702 322.0002Q315.70557 321.43674 315.65033 320.91745Q315.5951 320.39816 315.8713 319.8126Q316.14752 319.22702 316.711 318.66354Q317.27448 318.10007 317.7606 317.8791Q318.24673 317.65814 318.61133 317.69128Q318.97595 317.72443 319.3516 317.9675Q319.57257 318.12216 320.06976 318.61935L321.06412 319.6137Q322.1027 320.65228 322.4231 320.8843Q322.75455 321.1053 323.15228 321.21576L322.36786 322.0002Q322.02533 321.87866 321.68283 321.60245ZM319.9482 320.00043Q319.70514 320.57495 319.02014 321.50302Q318.6224 322.03336 318.52295 322.30957Q318.41248 322.57474 318.45667 322.8399Q318.5119 323.09402 318.7108 323.29288Q319.0091 323.5912 319.42892 323.5691Q319.85983 323.53595 320.2907 323.10507Q320.72162 322.67416 320.86523 322.15488Q321.01993 321.62457 320.84314 321.13843Q320.71057 320.7628 320.22443 320.27664L319.9482 320.00043ZM325.56088 315.581L326.38953 314.95123Q327.0193 315.82407 326.953 316.75214Q326.8867 317.68024 326.16855 318.39838Q325.26257 319.30435 324.12457 319.2712Q322.98657 319.21597 321.8817 318.1111Q321.1746 317.40402 320.87628 316.64166Q320.57797 315.8572 320.7879 315.11697Q321.00888 314.36566 321.5834 313.79114Q322.2905 313.08405 323.1081 312.99564Q323.9257 312.88516 324.73224 313.42654L324.11353 314.26624Q323.57214 313.92374 323.086 313.96793Q322.5888 314.00107 322.21317 314.3767Q321.6497 314.9402 321.70493 315.70255Q321.7491 316.45383 322.62198 317.32666Q323.5169 318.22162 324.25714 318.27686Q324.9974 318.3321 325.5388 317.7907Q325.9807 317.3488 326.0028 316.79636Q326.03595 316.23288 325.56088 315.581ZM329.50522 313.53702L330.26755 314.0784Q330.01343 314.4651 329.7704 314.70816Q329.36157 315.11697 329.01907 315.2164Q328.66553 315.30478 328.35617 315.1943Q328.05786 315.07278 327.38388 314.3988L324.85376 311.86868L324.31238 312.41006L323.73785 311.83554L324.27924 311.29416L323.18542 310.20038L323.48376 309.01816L325.0195 310.55392L325.7708 309.8026L326.34534 310.37714L325.59402 311.12845L328.16833 313.70276Q328.48874 314.02316 328.61026 314.0784Q328.74286 314.1226 328.88647 314.08945Q329.03012 314.0563 329.19586 313.89056Q329.32843 313.758 329.50522 313.53702ZM328.54398 312.17804L327.7927 311.42676L330.0908 309.12866L330.84207 309.87994L328.54398 312.17804ZM333.59317 310.7749L327.51648 304.69818L330.2123 302.00235Q331.0299 301.18475 331.61548 300.93063Q332.20105 300.6765 332.875 300.84225Q333.53793 300.99692 334.0351 301.4941Q334.68698 302.14597 334.70908 303.00775Q334.73117 303.86954 333.97986 304.86392Q334.45496 304.69818 334.7643 304.6761Q335.43826 304.64294 336.23376 304.81973L338.95172 305.41635L337.93524 306.4328L335.88022 305.96878Q334.97424 305.7699 334.45496 305.71466Q333.94672 305.64838 333.6484 305.7257Q333.3501 305.78094 333.10703 305.91354Q332.95236 306.02402 332.643 306.33337L331.70386 307.2725L334.39972 309.96835L333.59317 310.7749ZM331.0078 306.57645L332.74243 304.84183Q333.2838 304.30045 333.4827 303.88058Q333.68155 303.43866 333.59317 303.0409Q333.5048 302.62106 333.20648 302.32275Q332.77557 301.89185 332.17896 301.93607Q331.59338 301.9692 330.91943 302.64316L328.99698 304.5656L331.0078 306.57645ZM341.44867 300.09094L342.31046 299.40594Q342.80765 300.25668 342.68613 301.12952Q342.56458 302.00235 341.80225 302.7647Q340.841 303.72592 339.66986 303.70383Q338.50977 303.6707 337.43805 302.59897Q336.3332 301.4941 336.30005 300.31192Q336.25586 299.11868 337.16183 298.2127Q338.04572 297.3288 339.1948 297.37302Q340.3549 297.40616 341.44867 298.49997Q341.51498 298.56625 341.64755 298.69882L338.36615 301.98026Q339.13953 302.66525 339.89084 302.68735Q340.6311 302.6984 341.1835 302.14597Q341.59232 301.73718 341.66965 301.24Q341.74698 300.7207 341.44867 300.09094ZM337.80267 301.32837L340.25543 298.8756Q339.64777 298.35632 339.13953 298.31213Q338.34406 298.24585 337.78058 298.80933Q337.2613 299.32858 337.25024 300.02466Q337.25024 300.70966 337.80267 301.32837ZM347.65796 296.71008L347.10553 296.15765Q347.33755 297.22937 346.531 298.03592Q346.00067 298.56625 345.27148 298.72092Q344.53122 298.86456 343.7689 298.58835Q343.00653 298.31213 342.33255 297.63818Q341.6807 296.9863 341.3603 296.22397Q341.0399 295.4616 341.20563 294.74344Q341.3603 294.01425 341.90167 293.47287Q342.2994 293.07513 342.7745 292.9315Q343.2496 292.78787 343.71362 292.85416L341.53708 290.67758L342.2773 289.93735L348.35403 296.01404L347.65796 296.71008ZM343.10596 296.86478Q343.9567 297.7155 344.7301 297.7818Q345.49246 297.83704 345.97858 297.35092Q346.46472 296.86478 346.4095 296.1245Q346.35425 295.38428 345.53665 294.56668Q344.63068 293.6607 343.85727 293.5944Q343.0949 293.51706 342.58667 294.0253Q342.0895 294.5225 342.16684 295.26273Q342.23312 295.99194 343.10596 296.86478ZM352.64087 291.7272L351.98898 291.07535Q352.221 292.34592 351.33713 293.2298Q350.95044 293.6165 350.4643 293.81537Q349.97815 293.99216 349.59146 293.93692Q349.19373 293.8706 348.79596 293.60544Q348.54184 293.43973 348.05573 292.95358L345.33777 290.23566L346.08908 289.48434L348.5308 291.9261Q349.10532 292.5006 349.35944 292.66632Q349.71298 292.8873 350.11075 292.8431Q350.50848 292.77682 350.85098 292.4343Q351.18243 292.10284 351.304 291.64987Q351.4255 291.17477 351.24875 290.7549Q351.083 290.32404 350.51953 289.76056L348.1662 287.40723L348.90646 286.66696L353.30377 291.0643L352.64087 291.7272ZM354.20975 290.1583L353.52475 286.26923L349.93396 285.63947L350.86203 284.71136L352.5635 285.06494Q353.04965 285.1754 353.37006 285.25275Q353.27063 284.79977 353.2154 284.43515L352.91708 282.65634L353.812 281.7614L354.3534 285.3522L358.3198 286.04825L357.41382 286.95422L355.13782 286.4902L354.53015 286.36865L355.10468 289.26337L354.20975 290.1583Z" />
	<path class="txt" fill="#000000" d="M376.51608 308.65356L370.4394 302.57687L373.13525 299.88104Q373.95282 299.06345 374.53842 298.80933Q375.124 298.5552 375.79794 298.72095Q376.46085 298.8756 376.95804 299.3728Q377.6099 300.02466 377.632 300.88644Q377.65408 301.74823 376.9028 302.7426Q377.37787 302.57687 377.68726 302.55478Q378.3612 302.52164 379.1567 302.69843L381.87463 303.29504L380.8582 304.3115L378.80313 303.84747Q377.89716 303.6486 377.37787 303.59335Q376.86966 303.52707 376.57135 303.6044Q376.27304 303.65964 376.02997 303.7922Q375.87527 303.9027 375.56592 304.21207L374.6268 305.15118L377.32263 307.84705L376.51608 308.65356ZM373.93073 304.45514L375.66534 302.72052Q376.20673 302.17914 376.4056 301.75928Q376.6045 301.31735 376.51608 300.9196Q376.4277 300.49976 376.1294 300.20145Q375.69852 299.77054 375.1019 299.81476Q374.5163 299.8479 373.84235 300.52185L371.9199 302.4443L373.93073 304.45514ZM384.3716 297.96964L385.2334 297.28464Q385.7306 298.13538 385.60904 299.0082Q385.48752 299.88104 384.72516 300.64337Q383.76395 301.6046 382.5928 301.58252Q381.4327 301.54938 380.361 300.47766Q379.25613 299.3728 379.223 298.1906Q379.1788 296.99738 380.08478 296.09137Q380.96866 295.2075 382.1177 295.2517Q383.2778 295.28485 384.3716 296.37863Q384.4379 296.44495 384.5705 296.5775L381.28906 299.85895Q382.06247 300.54395 382.81378 300.56604Q383.55402 300.5771 384.10645 300.02466Q384.51523 299.61588 384.5926 299.11868Q384.66992 298.5994 384.3716 297.96964ZM380.7256 299.20706L383.17838 296.7543Q382.5707 296.23502 382.06247 296.19083Q381.26697 296.12454 380.7035 296.68802Q380.1842 297.20728 380.17316 297.90335Q380.17316 298.58835 380.7256 299.20706ZM390.0616 294.0253Q389.99533 294.7987 389.75226 295.32904Q389.52023 295.84833 389.07828 296.29025Q388.3491 297.01947 387.60883 297.0526Q386.8686 297.08575 386.31616 296.53333Q385.99576 296.21292 385.8742 295.8041Q385.74164 295.38428 385.83002 294.98654Q385.90735 294.57773 386.12833 294.2021Q386.27197 293.92587 386.6697 293.41763Q387.4652 292.42328 387.74142 291.8377Q387.58673 291.683 387.5536 291.64987Q387.08954 291.18582 386.6918 291.20792Q386.16147 291.25214 385.598 291.8156Q385.0787 292.33487 385.01242 292.77682Q384.9351 293.2077 385.2776 293.79327L384.44894 294.42307Q384.08435 293.8596 384.0291 293.3403Q383.97388 292.821 384.2501 292.23544Q384.5263 291.64987 385.08975 291.0864Q385.65323 290.52292 386.13937 290.30194Q386.62552 290.08096 386.9901 290.11414Q387.3547 290.14728 387.73038 290.39035Q387.95132 290.545 388.44852 291.0422L389.4429 292.03656Q390.48145 293.07513 390.80185 293.30716Q391.13333 293.52814 391.53107 293.6386L390.7466 294.42307Q390.4041 294.3015 390.0616 294.0253ZM388.327 292.42328Q388.08392 292.9978 387.39893 293.92587Q387.00116 294.4562 386.90173 294.73242Q386.79123 294.9976 386.83545 295.26276Q386.8907 295.51685 387.08954 295.71573Q387.38788 296.01404 387.8077 295.99194Q388.23862 295.9588 388.6695 295.52792Q389.1004 295.09702 389.24402 294.57773Q389.3987 294.0474 389.22192 293.56128Q389.08932 293.1856 388.6032 292.6995L388.327 292.42328ZM393.93964 288.00385L394.76828 287.37408Q395.39807 288.24692 395.33176 289.175Q395.26547 290.1031 394.54733 290.82123Q393.64133 291.7272 392.50333 291.69406Q391.36533 291.63882 390.2605 290.53397Q389.55338 289.82687 389.25507 289.0645Q388.95676 288.28006 389.1667 287.53983Q389.38766 286.7885 389.9622 286.214Q390.66928 285.50687 391.48688 285.4185Q392.30447 285.308 393.11102 285.8494L392.49228 286.6891Q391.9509 286.34656 391.46478 286.39078Q390.9676 286.42392 390.59195 286.79956Q390.02847 287.36304 390.0837 288.1254Q390.1279 288.87668 391.00073 289.7495Q391.89566 290.64444 392.63593 290.6997Q393.37616 290.75494 393.91754 290.21356Q394.3595 289.7716 394.3816 289.21918Q394.41473 288.6557 393.93964 288.00385ZM397.88397 285.95987L398.64633 286.50125Q398.3922 286.88794 398.14914 287.131Q397.74036 287.53983 397.39786 287.63925Q397.04428 287.72763 396.73492 287.61716Q396.4366 287.4956 395.76266 286.82166L393.23254 284.29153L392.69116 284.83292L392.11664 284.2584L392.65802 283.717L391.5642 282.6232L391.86252 281.441L393.3983 282.97678L394.14957 282.22546L394.7241 282.8L393.9728 283.5513L396.54712 286.1256Q396.86752 286.446 396.98904 286.50125Q397.12164 286.54544 397.26526 286.5123Q397.4089 286.47916 397.57462 286.31342Q397.7072 286.18085 397.88397 285.95987Z" />
	<path class="txt" fill="#000000" d="M409.5727 316.3986L405.82724 307.99066L406.68903 307.12888L415.25165 310.71964L414.34567 311.6256L411.7824 310.4987L409.2523 313.02878L410.42343 315.54785L409.5727 316.3986ZM408.83246 312.1449L410.88748 310.08987L408.57834 309.04025Q407.51767 308.57623 406.8879 308.21164Q407.35193 308.91873 407.71655 309.7032L408.83246 312.1449ZM415.097 310.87433L410.69965 306.477L411.36255 305.8141L411.9813 306.4328Q411.74927 305.22852 412.6663 304.3115Q413.06403 303.91373 413.53912 303.72592Q414.02527 303.52704 414.423 303.59332Q414.82077 303.65964 415.1964 303.90268Q415.43948 304.07947 415.95877 304.59875L418.66565 307.30563L417.92538 308.0459L415.25165 305.37216Q414.7876 304.9081 414.47824 304.77554Q414.16888 304.64294 413.81534 304.73132Q413.45074 304.8087 413.15244 305.107Q412.67734 305.58206 412.63315 306.245Q412.58896 306.8858 413.42865 307.7255L415.83722 310.13406L415.097 310.87433ZM420.2677 306.4328L421.1074 305.8141Q421.48303 306.10135 421.84763 306.0461Q422.33377 305.97983 422.80887 305.50473Q423.32812 304.98544 423.39444 304.49933Q423.47177 304.00214 423.2066 303.5381Q423.04086 303.23978 422.30063 302.52164Q422.389 303.58228 421.65982 304.3115Q420.7538 305.21747 419.60477 305.0628Q418.44467 304.89706 417.5387 303.9911Q416.90894 303.36133 416.59958 302.61002Q416.29022 301.8366 416.43384 301.11847Q416.57748 300.4003 417.16306 299.81473Q417.9475 299.03027 419.0855 299.15182L418.55518 298.6215L419.24017 297.9365L423.04086 301.73718Q424.0684 302.76468 424.28937 303.40552Q424.5103 304.04633 424.3004 304.74237Q424.10153 305.4495 423.43863 306.1124Q422.65417 306.89685 421.81448 307.02942Q420.9748 307.16202 420.2677 306.4328ZM418.24582 303.1735Q419.1076 304.03528 419.84784 304.0905Q420.5881 304.14575 421.1074 303.62646Q421.62665 303.1072 421.5714 302.36694Q421.52722 301.61563 420.68753 300.77597Q419.88098 299.96942 419.1076 299.92523Q418.34525 299.86996 417.837 300.3782Q417.3398 300.8754 417.39508 301.63776Q417.45032 302.378 418.24582 303.1735ZM427.88013 298.09116L427.22827 297.4393Q427.4603 298.70987 426.57642 299.59375Q426.1897 299.98047 425.70358 300.17932Q425.21744 300.3561 424.83075 300.30087Q424.43298 300.2346 424.03525 299.96942Q423.78113 299.80368 423.29498 299.31754L420.57706 296.5996L421.32834 295.8483L423.77008 298.29004Q424.3446 298.86456 424.59872 299.03027Q424.95227 299.25125 425.35 299.20706Q425.74777 299.14078 426.09027 298.79828Q426.42172 298.4668 426.54327 298.01382Q426.6648 297.53873 426.488 297.1189Q426.3223 296.688 425.75882 296.1245L423.4055 293.77118L424.14572 293.0309L428.54306 297.42825L427.88013 298.09116ZM429.9241 296.04718L423.8474 289.9705L424.59872 289.21918L430.6754 295.29587L429.9241 296.04718ZM434.39877 290.48978Q434.3325 291.26315 434.08942 291.7935Q433.8574 292.31277 433.41547 292.7547Q432.68625 293.48392 431.946 293.51706Q431.20575 293.5502 430.65332 292.99777Q430.33292 292.67737 430.21136 292.2686Q430.0788 291.84872 430.16718 291.451Q430.24454 291.04218 430.46548 290.66653Q430.60913 290.39032 431.00687 289.88208Q431.80237 288.88773 432.07858 288.30215Q431.9239 288.14746 431.89075 288.11432Q431.42673 287.6503 431.02896 287.6724Q430.49863 287.71658 429.93515 288.28006Q429.4159 288.79935 429.34958 289.24127Q429.27225 289.67218 429.61475 290.25775L428.7861 290.8875Q428.4215 290.32404 428.36627 289.80475Q428.31104 289.28546 428.58725 288.6999Q428.86346 288.11432 429.42694 287.55084Q429.99042 286.98737 430.47653 286.7664Q430.96268 286.54544 431.32727 286.57858Q431.6919 286.61172 432.06754 286.8548Q432.2885 287.00946 432.78568 287.50665L433.78006 288.50104Q434.81863 289.53958 435.13904 289.7716Q435.4705 289.99258 435.86823 290.10306L435.08377 290.8875Q434.74127 290.76596 434.39877 290.48978ZM432.66415 288.88773Q432.42108 289.46225 431.73608 290.39032Q431.33832 290.92065 431.2389 291.19687Q431.12842 291.46204 431.1726 291.7272Q431.22784 291.98132 431.42673 292.18018Q431.72504 292.4785 432.14487 292.4564Q432.57578 292.42325 433.00665 291.99237Q433.43756 291.56146 433.58118 291.04218Q433.73587 290.51187 433.55908 290.02573Q433.4265 289.6501 432.94037 289.16394L432.66415 288.88773ZM437.00623 288.96506L432.60892 284.56775L433.28287 283.89377L433.9458 284.5567Q433.73587 283.83853 433.80215 283.485Q433.86844 283.10934 434.1336 282.84418Q434.50925 282.4685 435.128 282.31384L435.56992 283.264Q435.128 283.3745 434.86282 283.63968Q434.6087 283.89377 434.5645 284.24734Q434.52032 284.5788 434.70813 284.9213Q434.9733 285.45163 435.43735 285.91565L437.7465 288.22482L437.00623 288.96506Z" />
	<path class="txt" fill="#000000" d="M425.6035 341.16943L419.52676 335.09274L423.91306 330.70648L424.6312 331.42462L421.05148 335.00436L422.90762 336.8605L426.2664 333.50174L426.98453 334.2199L423.6258 337.57867L425.69186 339.64474L429.41522 335.9214L430.13336 336.63953L425.6035 341.16943ZM429.0175 333.84427L429.70248 333.02667Q430.22177 333.43546 430.70792 333.52383Q431.19403 333.61224 431.79065 333.39127Q432.38727 333.1482 432.90656 332.6289Q433.35956 332.17593 433.58054 331.6898Q433.79044 331.1926 433.72415 330.79486Q433.65787 330.375 433.38165 330.0988Q433.0944 329.81152 432.71875 329.76733Q432.33203 329.7121 431.81274 329.94412Q431.4592 330.0988 430.42062 330.73962Q429.39313 331.3694 428.8849 331.52405Q428.21094 331.73398 427.66956 331.61246Q427.11713 331.47986 426.69727 331.06003Q426.2443 330.60703 426.10065 329.95517Q425.95703 329.28122 426.25534 328.58514Q426.55365 327.867 427.16132 327.25934Q427.83527 326.58536 428.57553 326.28705Q429.30475 325.9777 430.01184 326.1324Q430.70792 326.276 431.2603 326.78424L430.54218 327.61288Q429.90137 327.10464 429.24948 327.18198Q428.59763 327.2372 427.90158 327.9333Q427.17236 328.66248 427.10608 329.25912Q427.0398 329.85574 427.41544 330.23138Q427.7469 330.56284 428.18884 330.54074Q428.63077 330.51865 429.824 329.76733Q431.02832 329.005 431.55862 328.80612Q432.34308 328.5299 432.97284 328.65143Q433.59158 328.76193 434.08875 329.25912Q434.5749 329.74524 434.72958 330.45236Q434.8732 331.1484 434.597 331.91077Q434.30972 332.66205 433.65787 333.31393Q432.82922 334.14258 432.03372 334.47403Q431.23822 334.7834 430.4317 334.61765Q429.6362 334.4409 429.0175 333.84427ZM435.87863 321.724L435.1936 322.5195Q434.65222 322.177 434.27658 322.1549Q433.64682 322.14386 433.20486 322.5858Q432.85132 322.93933 432.774 323.41443Q432.69662 324.0221 432.9839 324.72922Q433.27115 325.4142 434.1661 326.33124Q434.02246 325.6573 434.2103 325.07172Q434.40915 324.4751 434.84006 324.0442Q435.58032 323.30396 436.652 323.3371Q437.73477 323.3592 438.59656 324.22098Q439.17108 324.7955 439.41415 325.5468Q439.65723 326.276 439.4915 326.97208Q439.31473 327.65707 438.77335 328.19846Q437.8342 329.13757 436.56363 329.03815Q435.29306 328.9387 433.72415 327.3698Q431.9564 325.60205 431.81274 324.1547Q431.68018 322.89514 432.6414 321.93393Q433.35956 321.21576 434.22134 321.17157Q435.08313 321.1053 435.87863 321.724ZM435.45877 327.38086Q435.84546 327.76755 436.3537 327.96643Q436.86194 328.14322 437.33704 328.04376Q437.82315 327.9333 438.15463 327.60184Q438.61865 327.1378 438.5855 326.41965Q438.54132 325.69043 437.88947 325.03857Q437.25967 324.4088 436.55258 324.3867Q435.85654 324.35355 435.3483 324.8618Q434.84006 325.37003 434.8511 326.08817Q434.8732 326.7953 435.45877 327.38086ZM439.63513 323.49176L438.88382 322.74048L441.18192 320.44238L441.93323 321.19366L439.63513 323.49176ZM445.73392 321.039L438.04413 316.57538L438.87277 315.74673L443.78937 318.8072Q444.55173 319.2823 445.28094 319.7905Q444.54068 318.5862 444.4302 318.38733L441.48022 313.13928L442.4525 312.16702L446.39682 314.36566Q447.8663 315.1943 449.0264 316.04504Q448.56235 315.36005 447.99887 314.42093L445.04892 309.57062L445.85547 308.76407L450.27487 316.49805L449.49042 317.2825L443.5905 313.92374Q442.85025 313.51492 442.6845 313.4155Q443.00494 313.9127 443.21484 314.29938L446.56256 320.21036L445.73392 321.039ZM453.95404 309.99045L454.81583 309.30545Q455.31302 310.1562 455.19147 311.02902Q455.06995 311.90186 454.3076 312.66418Q453.34637 313.62543 452.17523 313.60333Q451.01514 313.5702 449.94342 312.49847Q448.83856 311.39362 448.80542 310.21143Q448.76123 309.0182 449.6672 308.1122Q450.5511 307.2283 451.70013 307.27252Q452.86023 307.30566 453.95404 308.39948Q454.02032 308.46576 454.15292 308.59833L450.8715 311.87976Q451.6449 312.56476 452.39618 312.58685Q453.13644 312.5979 453.68887 312.04547Q454.09766 311.6367 454.17502 311.1395Q454.25235 310.6202 453.95404 309.99045ZM450.308 311.22787L452.7608 308.77512Q452.15314 308.25583 451.6449 308.21164Q450.8494 308.14536 450.28592 308.70883Q449.76663 309.2281 449.75558 309.92416Q449.75558 310.60916 450.308 311.22787ZM457.9978 308.77512L457.30176 309.47116L451.22504 303.39447L451.97635 302.64316L454.14188 304.8087Q454.03137 303.74802 454.7606 303.01883Q455.16937 302.61002 455.68866 302.4222Q456.20795 302.21228 456.73828 302.27856Q457.27966 302.3338 457.83206 302.62106Q458.3845 302.90833 458.8596 303.38342Q459.98654 304.51038 460.04178 305.69257Q460.09702 306.87476 459.32364 307.64816Q458.53918 308.43262 457.44537 308.2227L457.9978 308.77512ZM455.75494 306.55435Q456.5394 307.3388 457.11392 307.47137Q458.042 307.69235 458.6386 307.09573Q459.12476 306.6096 459.05847 305.8362Q459.00323 305.05176 458.1525 304.20102Q457.2907 303.33923 456.5394 303.27295Q455.7881 303.20663 455.30197 303.69278Q454.81583 304.17892 454.8821 304.97443Q454.9484 305.7478 455.75494 306.55435ZM463.95297 306.2008L457.86523 300.11307L458.53918 299.4391L459.10266 300.00256Q459.01428 299.42804 459.14685 298.964Q459.2905 298.48892 459.72137 298.058Q460.28485 297.49454 461.00302 297.35092Q461.72116 297.20728 462.46143 297.52768Q463.2127 297.83707 463.84247 298.46683Q464.51645 299.14078 464.81476 299.92523Q465.1241 300.69864 464.94733 301.44992Q464.77057 302.20123 464.26233 302.70947Q463.8867 303.0851 463.4337 303.22873Q462.96964 303.36133 462.5498 303.31714L464.6932 305.46054L463.95297 306.2008ZM460.75995 301.65985Q461.6107 302.5106 462.36197 302.57687Q463.10223 302.6321 463.58838 302.146Q464.08554 301.6488 464.01926 300.8754Q463.95297 300.102 463.0691 299.2181Q462.2294 298.37842 461.4781 298.31213Q460.71576 298.2348 460.2296 298.72095Q459.75452 299.196 459.83185 300.00256Q459.9092 300.8091 460.75995 301.65985ZM469.54352 296.14664Q469.47723 296.92 469.23416 297.45035Q469.00217 297.96964 468.5602 298.4116Q467.831 299.14078 467.09076 299.17392Q466.3505 299.20706 465.79807 298.65463Q465.47766 298.33423 465.35614 297.92545Q465.22354 297.50558 465.31195 297.10785Q465.38928 296.69907 465.61026 296.3234Q465.75388 296.04718 466.15164 295.53897Q466.9471 294.5446 467.22333 293.959Q467.06866 293.80432 467.03552 293.77118Q466.57147 293.30716 466.17374 293.32925Q465.6434 293.37344 465.07993 293.93692Q464.56064 294.4562 464.49435 294.89813Q464.417 295.32904 464.75952 295.9146L463.93088 296.54437Q463.56628 295.9809 463.51102 295.4616Q463.45578 294.94232 463.732 294.35675Q464.0082 293.77118 464.5717 293.2077Q465.13516 292.64423 465.6213 292.42328Q466.10742 292.2023 466.47205 292.23544Q466.83664 292.2686 467.21228 292.51166Q467.43326 292.66632 467.93045 293.1635L468.9248 294.1579Q469.96338 295.19644 470.28378 295.42847Q470.61523 295.64944 471.013 295.75992L470.22855 296.54437Q469.88605 296.42285 469.54352 296.14664ZM467.8089 294.5446Q467.56586 295.1191 466.88083 296.04718Q466.4831 296.5775 466.38364 296.85373Q466.27316 297.1189 466.31735 297.38406Q466.3726 297.63818 466.57147 297.83707Q466.86978 298.13538 467.28964 298.11328Q467.72052 298.0801 468.15143 297.64923Q468.5823 297.21832 468.72595 296.69907Q468.8806 296.16873 468.70383 295.6826Q468.57126 295.30695 468.0851 294.8208L467.8089 294.5446ZM473.42157 290.12518L474.2502 289.4954Q474.87997 290.36823 474.8137 291.29633Q474.7474 292.2244 474.02924 292.94254Q473.12326 293.84854 471.98526 293.81537Q470.84726 293.76013 469.7424 292.65527Q469.0353 291.94818 468.737 291.18582Q468.4387 290.4014 468.6486 289.66113Q468.86957 288.90982 469.4441 288.3353Q470.1512 287.6282 470.96878 287.53983Q471.78638 287.42932 472.59293 287.9707L471.9742 288.8104Q471.43283 288.4679 470.9467 288.5121Q470.44952 288.54523 470.07385 288.92087Q469.51038 289.48434 469.56564 290.2467Q469.60983 290.99802 470.48267 291.87085Q471.3776 292.76578 472.11783 292.821Q472.8581 292.87625 473.39948 292.33487Q473.8414 291.89294 473.86353 291.3405Q473.89667 290.77704 473.42157 290.12518ZM476.40466 290.36823L470.32797 284.29153L471.07928 283.54025L474.54852 287.0095L474.51538 283.4629L475.48764 282.49063L475.42136 285.80518L480.0507 286.72223L479.13367 287.63925L475.42136 286.84375L475.4103 287.87128L477.15598 289.61694L476.40466 290.36823Z" />
	<path class="txt" fill="#000000" d="M505.29596 302.27856L499.21927 296.20187L503.60553 291.8156L504.32367 292.53375L500.74396 296.1135L502.6001 297.96964L505.95886 294.6109L506.67703 295.32904L503.31827 298.6878L505.38434 300.75388L509.1077 297.03052L509.82587 297.7487L505.29596 302.27856ZM508.70996 294.9534L509.39496 294.1358Q509.91425 294.5446 510.4004 294.633Q510.8865 294.72137 511.48315 294.5004Q512.0798 294.25732 512.59906 293.73807Q513.05206 293.28506 513.273 292.79892Q513.4829 292.30176 513.4166 291.904Q513.35034 291.48416 513.07416 291.20795Q512.78687 290.9207 512.4112 290.8765Q512.02454 290.82123 511.50525 291.05325Q511.15167 291.20795 510.11313 291.84875Q509.0856 292.47852 508.57736 292.6332Q507.9034 292.8431 507.36203 292.7216Q506.8096 292.58902 506.38977 292.16916Q505.93677 291.71616 505.79315 291.0643Q505.6495 290.39035 505.9478 289.69427Q506.24612 288.97614 506.8538 288.36847Q507.52777 287.6945 508.268 287.39618Q508.99722 287.08682 509.7043 287.24152Q510.4004 287.38513 510.95282 287.89337L510.23465 288.72202Q509.59384 288.21378 508.942 288.2911Q508.2901 288.34637 507.59406 289.04242Q506.86484 289.77164 506.79855 290.36826Q506.73227 290.96487 507.1079 291.3405Q507.43936 291.67197 507.88132 291.64987Q508.32324 291.62778 509.5165 290.8765Q510.7208 290.11414 511.25113 289.91525Q512.0356 289.63904 512.66534 289.7606Q513.28406 289.87106 513.78125 290.36826Q514.2674 290.85437 514.42206 291.5615Q514.5657 292.25754 514.2895 293.0199Q514.0022 293.7712 513.35034 294.42307Q512.5217 295.2517 511.7262 295.58316Q510.93073 295.89252 510.12418 295.72678Q509.32867 295.55002 508.70996 294.9534ZM514.69824 289.69427L515.41644 288.84354Q516.07935 289.32968 516.67596 289.3076Q517.2836 289.27444 517.73663 288.82144Q518.26697 288.2911 518.2338 287.50668Q518.2007 286.72223 517.5377 286.05933Q516.8969 285.4185 516.1677 285.4185Q515.43854 285.3964 514.85297 285.98196Q514.4994 286.33554 514.3668 286.79956Q514.2453 287.25256 514.3337 287.6724L513.5492 288.28006L511.0191 284.5788L514.0464 281.5515L514.75354 282.2586L512.3228 284.6893L513.63763 286.6449Q513.7923 285.7168 514.3889 285.12018Q515.1844 284.3247 516.2782 284.33575Q517.38306 284.33575 518.2559 285.2086Q519.0735 286.02618 519.20605 287.10892Q519.34973 288.4237 518.3443 289.4291Q517.5156 290.25775 516.5213 290.32407Q515.53796 290.3793 514.69824 289.69427Z" />
	<path class="txt" fill="#000000" d="M532.2869 305.68152L531.41406 304.8087L532.16534 304.05737L533.0382 304.9302L532.2869 305.68152ZM538.26416 313.53702L537.7559 312.76364Q538.0432 312.58685 538.16473 312.46533Q538.3967 312.2333 538.35254 311.96814Q538.3194 311.71402 537.71173 311.10635L533.09344 306.48807L533.8447 305.73676L538.48517 310.37714Q539.2917 311.1837 539.40216 311.71402Q539.5458 312.4101 538.92706 313.0288Q538.61774 313.33817 538.26416 313.53702ZM543.66693 303.40552Q544.61707 303.22873 545.2579 302.94147L545.58936 303.73697Q544.6944 304.14578 543.5343 304.2894Q543.236 305.33902 542.4184 306.15662Q541.5898 306.98526 540.51807 307.26144Q539.4574 307.5266 538.37463 307.17307Q537.2919 306.81952 536.3859 305.91354Q535.49097 305.01862 535.11536 303.91376Q534.7397 302.8089 535.0269 301.74823Q535.3142 300.68756 536.1428 299.85895Q536.98254 299.01926 538.0653 298.7541Q539.1481 298.46683 540.2198 298.83142Q541.29144 299.196 542.19745 300.102Q542.9487 300.8533 543.31335 301.68195Q543.689 302.49954 543.66693 303.40552ZM540.87164 304.14578Q541.76654 303.6486 542.60626 303.5823Q542.6615 302.22333 541.36884 300.93063Q540.62854 300.1904 539.822 299.8921Q539.01544 299.59378 538.231 299.7816Q537.4466 299.94733 536.85 300.54395Q535.944 301.44992 535.96606 302.66525Q535.98816 303.85852 537.21454 305.0849Q538.3967 306.2671 539.62317 306.32233Q540.8385 306.36652 541.7555 305.4495Q542.1864 305.01862 542.3963 304.47723Q541.7776 304.6098 541.2583 304.9302L540.87164 304.14578ZM548.8708 299.50537L548.21893 298.85352Q548.4509 300.1241 547.567 301.008Q547.18036 301.39468 546.6942 301.59357Q546.20807 301.77032 545.82135 301.7151Q545.42365 301.6488 545.0259 301.38364Q544.7718 301.2179 544.28564 300.73178L541.5677 298.01382L542.319 297.2625L544.76074 299.70425Q545.33527 300.27878 545.58936 300.44452Q545.94293 300.66547 546.34064 300.62128Q546.7384 300.555 547.08093 300.2125Q547.41235 299.88104 547.5339 299.42804Q547.65546 298.95294 547.47864 298.5331Q547.3129 298.1022 546.74945 297.53873L544.3961 295.1854L545.13635 294.44516L549.5337 298.84247L548.8708 299.50537ZM552.52783 293.0199L553.38965 292.33487Q553.88684 293.1856 553.76526 294.05844Q553.64374 294.93127 552.8814 295.69363Q551.92017 296.65485 550.749 296.63275Q549.5889 296.5996 548.5172 295.5279Q547.41235 294.42307 547.3792 293.24084Q547.335 292.0476 548.241 291.14163Q549.1249 290.25775 550.2739 290.30194Q551.434 290.33508 552.52783 291.4289Q552.5941 291.49518 552.7267 291.62778L549.4453 294.90918Q550.2187 295.5942 550.97 295.6163Q551.71027 295.62735 552.2627 295.07492Q552.67145 294.6661 552.74884 294.16895Q552.8262 293.64966 552.52783 293.0199ZM548.88184 294.25732L551.3346 291.80453Q550.7269 291.28528 550.2187 291.24106Q549.4232 291.17477 548.85974 291.73825Q548.34045 292.25754 548.3294 292.95358Q548.3294 293.6386 548.88184 294.25732ZM555.87555 292.5006L551.4782 288.10327L552.15216 287.42932L552.8151 288.09222Q552.60516 287.37408 552.67145 287.02054Q552.73773 286.64487 553.0029 286.3797Q553.3786 286.00406 553.9973 285.8494L554.4392 286.79956Q553.9973 286.91003 553.7321 287.1752Q553.478 287.42932 553.43384 287.78287Q553.38965 288.11432 553.57745 288.45685Q553.8426 288.98718 554.30664 289.4512L556.6158 291.76035L555.87555 292.5006ZM560.3723 291.3847L559.5878 290.77704Q559.8972 290.60025 560.085 290.41245Q560.3281 290.16937 560.38336 289.93735Q560.4607 289.70532 560.4165 289.46225Q560.36127 289.27444 560.085 288.66675Q560.04083 288.60046 559.97455 288.4237L553.88684 285.6947L554.69336 284.88815L558.15155 286.5123Q558.81445 286.82166 559.49945 287.2194Q559.1128 286.56754 558.8034 285.90463L557.17926 282.40222L557.91956 281.662L560.7258 287.80496Q561.1678 288.79935 561.30035 289.21918Q561.4772 289.7937 561.37775 290.2246Q561.30035 290.6555 560.94684 291.00906Q560.7369 291.21896 560.3723 291.3847Z" />
	<path fill="#4285f4" d="M197.5 20.55C197.5 19.997715 197.94771 19.55 198.5 19.55L208.5 19.55C209.05229 19.55 209.5 19.997715 209.5 20.55L209.5 30.55C209.5 31.102285 209.05229 31.55 208.5 31.55L198.5 31.55C197.94771 31.55 197.5 31.102285 197.5 30.55Z" />
	<path class="title" fill="#1a1a1a" d="M224.5625 26.534374L225.6875 26.83125Q225.32812 28.221874 224.40625 28.95625Q223.48438 29.690624 222.14062 29.690624Q220.75 29.690624 219.875 29.128124Q219.0 28.565624 218.54688 27.503124Q218.09375 26.425 218.09375 25.190624Q218.09375 23.846874 218.60938 22.846874Q219.125 21.846874 220.0625 21.33125Q221.01562 20.815624 222.15625 20.815624Q223.4375 20.815624 224.3125 21.471874Q225.20312 22.128124 225.54688 23.315624L224.42188 23.58125Q224.125 22.64375 223.54688 22.221874Q222.98438 21.784374 222.125 21.784374Q221.14062 21.784374 220.46875 22.26875Q219.8125 22.7375 219.53125 23.534374Q219.26562 24.33125 219.26562 25.190624Q219.26562 26.284374 219.57812 27.096874Q219.90625 27.909374 220.57812 28.315624Q221.25 28.721874 222.04688 28.721874Q223.0 28.721874 223.65625 28.175Q224.32812 27.628124 224.5625 26.534374ZM227.29688 29.55L227.29688 20.95625L228.34375 20.95625L228.34375 24.034374Q229.07812 23.190624 230.20312 23.190624Q230.90625 23.190624 231.40625 23.471874Q231.92188 23.7375 232.14062 24.221874Q232.35938 24.690624 232.35938 25.6125L232.35938 29.55L231.3125 29.55L231.3125 25.6125Q231.3125 24.815624 230.96875 24.45625Q230.625 24.096874 230.0 24.096874Q229.53125 24.096874 229.10938 24.346874Q228.70312 24.58125 228.51562 25.003124Q228.34375 25.409374 228.34375 26.14375L228.34375 29.55L227.29688 29.55ZM234.28125 29.55L234.28125 23.33125L235.23438 23.33125L235.23438 24.26875Q235.59375 23.6125 235.89062 23.409374Q236.20312 23.190624 236.57812 23.190624Q237.10938 23.190624 237.65625 23.51875L237.29688 24.503124Q236.90625 24.26875 236.53125 24.26875Q236.17188 24.26875 235.89062 24.4875Q235.625 24.690624 235.51562 25.065624Q235.32812 25.628124 235.32812 26.284374L235.32812 29.55L234.28125 29.55ZM237.90625 26.440624Q237.90625 24.70625 238.85938 23.878124Q239.65625 23.190624 240.8125 23.190624Q242.09375 23.190624 242.90625 24.034374Q243.73438 24.8625 243.73438 26.346874Q243.73438 27.55 243.375 28.2375Q243.01562 28.925 242.3125 29.315624Q241.625 29.690624 240.8125 29.690624Q239.51562 29.690624 238.70312 28.8625Q237.90625 28.01875 237.90625 26.440624ZM238.98438 26.440624Q238.98438 27.628124 239.5 28.221874Q240.03125 28.815624 240.8125 28.815624Q241.60938 28.815624 242.125 28.221874Q242.64062 27.628124 242.64062 26.409374Q242.64062 25.253124 242.10938 24.659374Q241.59375 24.065624 240.8125 24.065624Q240.03125 24.065624 239.5 24.659374Q238.98438 25.2375 238.98438 26.440624ZM245.29688 29.55L245.29688 23.33125L246.23438 23.33125L246.23438 24.20625Q246.53125 23.7375 247.01562 23.471874Q247.5 23.190624 248.125 23.190624Q248.8125 23.190624 249.25 23.471874Q249.70312 23.753124 249.875 24.26875Q250.625 23.190624 251.79688 23.190624Q252.73438 23.190624 253.21875 23.70625Q253.71875 24.20625 253.71875 25.284374L253.71875 29.55L252.67188 29.55L252.67188 25.628124Q252.67188 25.003124 252.5625 24.721874Q252.46875 24.440624 252.20312 24.26875Q251.9375 24.096874 251.5625 24.096874Q250.90625 24.096874 250.46875 24.534374Q250.04688 24.971874 250.04688 25.940624L250.04688 29.55L248.98438 29.55L248.98438 25.503124Q248.98438 24.8 248.71875 24.45625Q248.46875 24.096874 247.89062 24.096874Q247.4375 24.096874 247.0625 24.33125Q246.6875 24.565624 246.51562 25.01875Q246.34375 25.471874 246.34375 26.315624L246.34375 29.55L245.29688 29.55ZM260.54688 27.55L261.64062 27.675Q261.39062 28.628124 260.6875 29.159374Q259.98438 29.690624 258.90625 29.690624Q257.54688 29.690624 256.73438 28.846874Q255.9375 28.003124 255.9375 26.4875Q255.9375 24.925 256.75 24.065624Q257.5625 23.190624 258.84375 23.190624Q260.09375 23.190624 260.875 24.034374Q261.67188 24.878124 261.67188 26.425Q261.67188 26.51875 261.67188 26.70625L257.03125 26.70625Q257.09375 27.7375 257.60938 28.284374Q258.125 28.815624 258.90625 28.815624Q259.48438 28.815624 259.89062 28.51875Q260.3125 28.20625 260.54688 27.55ZM257.09375 25.846874L260.5625 25.846874Q260.5 25.05 260.17188 24.659374Q259.65625 24.05 258.85938 24.05Q258.125 24.05 257.625 24.534374Q257.14062 25.01875 257.09375 25.846874Z" />
	<path fill="#ea4335" d="M278.5 20.55C278.5 19.997715 278.94772 19.55 279.5 19.55L289.5 19.55C290.05228 19.55 290.5 19.997715 290.5 20.55L290.5 30.55C290.5 31.102285 290.05228 31.55 289.5 31.55L279.5 31.55C278.94772 31.55 278.5 31.102285 278.5 30.55Z" />
	<path class="title" fill="#1a1a1a" d="M299.48438 29.55L299.48438 20.95625L305.28125 20.95625L305.28125 21.971874L300.625 21.971874L300.625 24.628124L304.65625 24.628124L304.65625 25.64375L300.625 25.64375L300.625 29.55L299.48438 29.55ZM306.29688 22.175L306.29688 20.95625L307.35938 20.95625L307.35938 22.175L306.29688 22.175ZM306.29688 29.55L306.29688 23.33125L307.35938 23.33125L307.35938 29.55L306.29688 29.55ZM309.28125 29.55L309.28125 23.33125L310.23438 23.33125L310.23438 24.26875Q310.59375 23.6125 310.89062 23.409374Q311.20312 23.190624 311.57812 23.190624Q312.10938 23.190624 312.65625 23.51875L312.29688 24.503124Q311.90625 24.26875 311.53125 24.26875Q311.17188 24.26875 310.89062 24.4875Q310.625 24.690624 310.51562 25.065624Q310.32812 25.628124 310.32812 26.284374L310.32812 29.55L309.28125 29.55ZM317.54688 27.55L318.64062 27.675Q318.39062 28.628124 317.6875 29.159374Q316.98438 29.690624 315.90625 29.690624Q314.54688 29.690624 313.73438 28.846874Q312.9375 28.003124 312.9375 26.4875Q312.9375 24.925 313.75 24.065624Q314.5625 23.190624 315.84375 23.190624Q317.09375 23.190624 317.875 24.034374Q318.67188 24.878124 318.67188 26.425Q318.67188 26.51875 318.67188 26.70625L314.03125 26.70625Q314.09375 27.7375 314.60938 28.284374Q315.125 28.815624 315.90625 28.815624Q316.48438 28.815624 316.89062 28.51875Q317.3125 28.20625 317.54688 27.55ZM314.09375 25.846874L317.5625 25.846874Q317.5 25.05 317.17188 24.659374Q316.65625 24.05 315.85938 24.05Q315.125 24.05 314.625 24.534374Q314.14062 25.01875 314.09375 25.846874ZM320.54688 29.55L320.54688 24.14375L319.60938 24.14375L319.60938 23.33125L320.54688 23.33125L320.54688 22.659374Q320.54688 22.034374 320.65625 21.7375Q320.8125 21.315624 321.1875 21.065624Q321.57812 20.815624 322.26562 20.815624Q322.71875 20.815624 323.25 20.925L323.09375 21.83125Q322.76562 21.784374 322.46875 21.784374Q321.98438 21.784374 321.78125 21.9875Q321.59375 22.190624 321.59375 22.753124L321.59375 23.33125L322.8125 23.33125L322.8125 24.14375L321.59375 24.14375L321.59375 29.55L320.54688 29.55ZM322.90625 26.440624Q322.90625 24.70625 323.85938 23.878124Q324.65625 23.190624 325.8125 23.190624Q327.09375 23.190624 327.90625 24.034374Q328.73438 24.8625 328.73438 26.346874Q328.73438 27.55 328.375 28.2375Q328.01562 28.925 327.3125 29.315624Q326.625 29.690624 325.8125 29.690624Q324.51562 29.690624 323.70312 28.8625Q322.90625 28.01875 322.90625 26.440624ZM323.98438 26.440624Q323.98438 27.628124 324.5 28.221874Q325.03125 28.815624 325.8125 28.815624Q326.60938 28.815624 327.125 28.221874Q327.64062 27.628124 327.64062 26.409374Q327.64062 25.253124 327.10938 24.659374Q326.59375 24.065624 325.8125 24.065624Q325.03125 24.065624 324.5 24.659374Q323.98438 25.2375 323.98438 26.440624ZM329.59375 29.55L331.85938 26.315624L329.76562 23.33125L331.07812 23.33125L332.03125 24.784374Q332.29688 25.20625 332.46875 25.4875Q332.71875 25.096874 332.9375 24.8L333.98438 23.33125L335.25 23.33125L333.09375 26.253124L335.40625 29.55L334.125 29.55L332.84375 27.6125L332.5 27.096874L330.85938 29.55L329.59375 29.55Z" />
	<path fill="#fbbc04" d="M350.5 20.55C350.5 19.997715 350.94772 19.55 351.5 19.55L361.5 19.55C362.05228 19.55 362.5 19.997715 362.5 20.55L362.5 30.55C362.5 31.102285 362.05228 31.55 361.5 31.55L351.5 31.55C350.94772 31.55 350.5 31.102285 350.5 30.55Z" />
	<path class="title" fill="#1a1a1a" d="M371.04688 26.784374L372.10938 26.690624Q372.1875 27.346874 372.46875 27.753124Q372.75 28.159374 373.32812 28.425Q373.92188 28.675 374.65625 28.675Q375.29688 28.675 375.79688 28.4875Q376.29688 28.284374 376.53125 27.95625Q376.78125 27.6125 376.78125 27.221874Q376.78125 26.815624 376.54688 26.51875Q376.3125 26.20625 375.78125 26.003124Q375.42188 25.8625 374.23438 25.58125Q373.0625 25.3 372.59375 25.05Q371.96875 24.721874 371.67188 24.253124Q371.375 23.76875 371.375 23.175Q371.375 22.534374 371.73438 21.971874Q372.10938 21.39375 372.8125 21.1125Q373.53125 20.815624 374.39062 20.815624Q375.34375 20.815624 376.07812 21.128124Q376.8125 21.425 377.20312 22.034374Q377.59375 22.628124 377.625 23.378124L376.53125 23.45625Q376.4375 22.64375 375.92188 22.2375Q375.42188 21.815624 374.4375 21.815624Q373.40625 21.815624 372.9375 22.190624Q372.46875 22.565624 372.46875 23.096874Q372.46875 23.565624 372.79688 23.8625Q373.125 24.159374 374.5 24.471874Q375.89062 24.784374 376.40625 25.01875Q377.15625 25.378124 377.51562 25.909374Q377.875 26.425 377.875 27.128124Q377.875 27.815624 377.48438 28.425Q377.09375 29.01875 376.35938 29.3625Q375.625 29.690624 374.70312 29.690624Q373.53125 29.690624 372.73438 29.3625Q371.95312 29.01875 371.5 28.33125Q371.0625 27.64375 371.04688 26.784374ZM383.35938 28.784374Q382.76562 29.284374 382.21875 29.4875Q381.6875 29.690624 381.0625 29.690624Q380.03125 29.690624 379.48438 29.190624Q378.9375 28.690624 378.9375 27.909374Q378.9375 27.45625 379.14062 27.08125Q379.34375 26.690624 379.6875 26.471874Q380.03125 26.2375 380.45312 26.128124Q380.75 26.034374 381.39062 25.95625Q382.65625 25.815624 383.26562 25.596874Q383.26562 25.378124 383.26562 25.33125Q383.26562 24.675 382.96875 24.409374Q382.5625 24.065624 381.76562 24.065624Q381.03125 24.065624 380.67188 24.33125Q380.3125 24.58125 380.14062 25.2375L379.10938 25.096874Q379.25 24.440624 379.57812 24.034374Q379.90625 23.628124 380.51562 23.409374Q381.125 23.190624 381.92188 23.190624Q382.71875 23.190624 383.21875 23.378124Q383.71875 23.565624 383.95312 23.846874Q384.1875 24.128124 384.28125 24.565624Q384.32812 24.83125 384.32812 25.534374L384.32812 26.940624Q384.32812 28.409374 384.39062 28.8Q384.46875 29.190624 384.67188 29.55L383.5625 29.55Q383.40625 29.221874 383.35938 28.784374ZM383.26562 26.425Q382.6875 26.659374 381.54688 26.83125Q380.89062 26.925 380.625 27.05Q380.35938 27.159374 380.20312 27.378124Q380.0625 27.596874 380.0625 27.878124Q380.0625 28.3 380.375 28.58125Q380.70312 28.8625 381.3125 28.8625Q381.92188 28.8625 382.39062 28.596874Q382.875 28.33125 383.09375 27.8625Q383.26562 27.503124 383.26562 26.815624L383.26562 26.425ZM386.54688 29.55L386.54688 24.14375L385.60938 24.14375L385.60938 23.33125L386.54688 23.33125L386.54688 22.659374Q386.54688 22.034374 386.65625 21.7375Q386.8125 21.315624 387.1875 21.065624Q387.57812 20.815624 388.26562 20.815624Q388.71875 20.815624 389.25 20.925L389.09375 21.83125Q388.76562 21.784374 388.46875 21.784374Q387.98438 21.784374 387.78125 21.9875Q387.59375 22.190624 387.59375 22.753124L387.59375 23.33125L388.8125 23.33125L388.8125 24.14375L387.59375 24.14375L387.59375 29.55L386.54688 29.55ZM393.35938 28.784374Q392.76562 29.284374 392.21875 29.4875Q391.6875 29.690624 391.0625 29.690624Q390.03125 29.690624 389.48438 29.190624Q388.9375 28.690624 388.9375 27.909374Q388.9375 27.45625 389.14062 27.08125Q389.34375 26.690624 389.6875 26.471874Q390.03125 26.2375 390.45312 26.128124Q390.75 26.034374 391.39062 25.95625Q392.65625 25.815624 393.26562 25.596874Q393.26562 25.378124 393.26562 25.33125Q393.26562 24.675 392.96875 24.409374Q392.5625 24.065624 391.76562 24.065624Q391.03125 24.065624 390.67188 24.33125Q390.3125 24.58125 390.14062 25.2375L389.10938 25.096874Q389.25 24.440624 389.57812 24.034374Q389.90625 23.628124 390.51562 23.409374Q391.125 23.190624 391.92188 23.190624Q392.71875 23.190624 393.21875 23.378124Q393.71875 23.565624 393.95312 23.846874Q394.1875 24.128124 394.28125 24.565624Q394.32812 24.83125 394.32812 25.534374L394.32812 26.940624Q394.32812 28.409374 394.39062 28.8Q394.46875 29.190624 394.67188 29.55L393.5625 29.55Q393.40625 29.221874 393.35938 28.784374ZM393.26562 26.425Q392.6875 26.659374 391.54688 26.83125Q390.89062 26.925 390.625 27.05Q390.35938 27.159374 390.20312 27.378124Q390.0625 27.596874 390.0625 27.878124Q390.0625 28.3 390.375 28.58125Q390.70312 28.8625 391.3125 28.8625Q391.92188 28.8625 392.39062 28.596874Q392.875 28.33125 393.09375 27.8625Q393.26562 27.503124 393.26562 26.815624L393.26562 26.425ZM396.28125 29.55L396.28125 23.33125L397.23438 23.33125L397.23438 24.26875Q397.59375 23.6125 397.89062 23.409374Q398.20312 23.190624 398.57812 23.190624Q399.10938 23.190624 399.65625 23.51875L399.29688 24.503124Q398.90625 24.26875 398.53125 24.26875Q398.17188 24.26875 397.89062 24.4875Q397.625 24.690624 397.51562 25.065624Q397.32812 25.628124 397.32812 26.284374L397.32812 29.55L396.28125 29.55ZM400.29688 22.175L400.29688 20.95625L401.35938 20.95625L401.35938 22.175L400.29688 22.175ZM400.29688 29.55L400.29688 23.33125L401.35938 23.33125L401.35938 29.55L400.29688 29.55Z" />
	<style>
		#bkg { fill: #ffedd5; }
		.txt { fill: #0f172a; }
		.title { fill: #171717; }
		.divide { stroke: #fed7aa; }
		@media (prefers-color-scheme: dark) {
		#bkg { fill: #0f172a; }
		.txt { fill: #f1f5f9; }
		.title { fill: #ffedd5; }
		.divide { stroke: #1e293b; }
		}
	</style>
</svg>
