<svg version="1.1" viewBox="0.0 0.0 600.0 371.0" fill="none" stroke="none" stroke-linecap="square" stroke-miterlimit="10" xmlns:xlink="http://www.w3.org/1999/xlink" xmlns="http://www.w3.org/2000/svg">
	<path id="bkg" fill="#ffedd5" d="M0 0L600.0 0L600.0 371.0L0 371.0L0 0Z" />
	<path class="divide" stroke="#333333" stroke-width="1.0" d="M77.5 272.5L581.5 272.5" />
	<path class="divide" stroke="#cccccc" stroke-width="1.0" d="M77.5 217.5L581.5 217.5" />
	<path class="divide" stroke="#cccccc" stroke-width="1.0" d="M77.5 162.5L581.5 162.5" />
	<path class="divide" stroke="#cccccc" stroke-width="1.0" d="M77.5 107.5L581.5 107.5" />
	<path class="divide" stroke="#cccccc" stroke-width="1.0" d="M77.5 51.5L581.5 51.5" />
	<clipPath id="id_0">
		<path d="M77.55 51.916668L581.45 51.916668L581.45 272.9109L77.55 272.9109L77.55 51.916668Z" clip-rule="nonzero" />
	</clipPath>
	<path fill="#4285f4" clip-path="url(#id_0)" d="M100.0 273.0L93.0 273.0L93.0 259.0C93.0 257.89542 93.89543 257.0 95.0 257.0L98.0 257.0C99.10457 257.0 100.0 257.89542 100.0 259.0Z" />
	<path fill="#4285f4" clip-path="url(#id_0)" d="M141.0 273.0L134.0 273.0L134.0 258.0C134.0 256.89542 134.89543 256.0 136.0 256.0L139.0 256.0C140.10457 256.0 141.0 256.89542 141.0 258.0Z" />
	<path fill="#4285f4" clip-path="url(#id_0)" d="M182.0 273.0L175.0 273.0L175.0 256.0C175.0 254.89543 175.89543 254.0 177.0 254.0L180.0 254.0C181.10457 254.0 182.0 254.89543 182.0 256.0Z" />
	<path fill="#4285f4" clip-path="url(#id_0)" d="M222.0 273.0L215.0 273.0L215.0 254.0C215.0 252.89543 215.89543 252.0 217.0 252.0L220.0 252.0C221.10457 252.0 222.0 252.89543 222.0 254.0Z" />
	<path fill="#4285f4" clip-path="url(#id_0)" d="M263.0 273.0L256.0 273.0L256.0 250.0C256.0 248.89543 256.89542 248.0 258.0 248.0L261.0 248.0C262.10458 248.0 263.0 248.89543 263.0 250.0Z" />
	<path fill="#4285f4" clip-path="url(#id_0)" d="M304.0 273.0L297.0 273.0L297.0 247.0C297.0 245.89543 297.89542 245.0 299.0 245.0L302.0 245.0C303.10458 245.0 304.0 245.89543 304.0 247.0Z" />
	<path fill="#4285f4" clip-path="url(#id_0)" d="M345.0 273.0L338.0 273.0L338.0 238.0C338.0 236.89543 338.89542 236.0 340.0 236.0L343.0 236.0C344.10458 236.0 345.0 236.89543 345.0 238.0Z" />
	<path fill="#4285f4" clip-path="url(#id_0)" d="M386.0 273.0L379.0 273.0L379.0 236.0C379.0 234.89543 379.89542 234.0 381.0 234.0L384.0 234.0C385.10458 234.0 386.0 234.89543 386.0 236.0Z" />
	<path fill="#4285f4" clip-path="url(#id_0)" d="M427.0 273.0L420.0 273.0L420.0 235.0C420.0 233.89543 420.89542 233.0 422.0 233.0L425.0 233.0C426.10458 233.0 427.0 233.89543 427.0 235.0Z" />
	<path fill="#4285f4" clip-path="url(#id_0)" d="M467.0 273.0L460.0 273.0L460.0 219.0C460.0 217.89543 460.89542 217.0 462.0 217.0L465.0 217.0C466.10458 217.0 467.0 217.89543 467.0 219.0Z" />
	<path fill="#4285f4" clip-path="url(#id_0)" d="M508.0 273.0L501.0 273.0L501.0 209.0C501.0 207.89543 501.89542 207.0 503.0 207.0L506.0 207.0C507.10458 207.0 508.0 207.89543 508.0 209.0Z" />
	<path fill="#4285f4" clip-path="url(#id_0)" d="M549.0 273.0L542.0 273.0L542.0 137.0C542.0 135.89543 542.89545 135.0 544.0 135.0L547.0 135.0C548.10455 135.0 549.0 135.89543 549.0 137.0Z" />
	<path fill="#ea4335" clip-path="url(#id_0)" d="M109.0 273.0L102.0 273.0L102.0 255.0C102.0 253.89543 102.89543 253.0 104.0 253.0L107.0 253.0C108.10457 253.0 109.0 253.89543 109.0 255.0Z" />
	<path fill="#ea4335" clip-path="url(#id_0)" d="M150.0 273.0L143.0 273.0L143.0 256.0C143.0 254.89543 143.89543 254.0 145.0 254.0L148.0 254.0C149.10457 254.0 150.0 254.89543 150.0 256.0Z" />
	<path fill="#ea4335" clip-path="url(#id_0)" d="M191.0 273.0L184.0 273.0L184.0 251.0C184.0 249.89543 184.89543 249.0 186.0 249.0L189.0 249.0C190.10457 249.0 191.0 249.89543 191.0 251.0Z" />
	<path fill="#ea4335" clip-path="url(#id_0)" d="M231.0 273.0L224.0 273.0L224.0 250.0C224.0 248.89543 224.89543 248.0 226.0 248.0L229.0 248.0C230.10457 248.0 231.0 248.89543 231.0 250.0Z" />
	<path fill="#ea4335" clip-path="url(#id_0)" d="M272.0 273.0L265.0 273.0L265.0 245.0C265.0 243.89543 265.89542 243.0 267.0 243.0L270.0 243.0C271.10458 243.0 272.0 243.89543 272.0 245.0Z" />
	<path fill="#ea4335" clip-path="url(#id_0)" d="M313.0 273.0L306.0 273.0L306.0 239.0C306.0 237.89543 306.89542 237.0 308.0 237.0L311.0 237.0C312.10458 237.0 313.0 237.89543 313.0 239.0Z" />
	<path fill="#ea4335" clip-path="url(#id_0)" d="M354.0 273.0L347.0 273.0L347.0 226.0C347.0 224.89543 347.89542 224.0 349.0 224.0L352.0 224.0C353.10458 224.0 354.0 224.89543 354.0 226.0Z" />
	<path fill="#ea4335" clip-path="url(#id_0)" d="M395.0 273.0L388.0 273.0L388.0 228.0C388.0 226.89543 388.89542 226.0 390.0 226.0L393.0 226.0C394.10458 226.0 395.0 226.89543 395.0 228.0Z" />
	<path fill="#ea4335" clip-path="url(#id_0)" d="M436.0 273.0L429.0 273.0L429.0 206.0C429.0 204.89543 429.89542 204.0 431.0 204.0L434.0 204.0C435.10458 204.0 436.0 204.89543 436.0 206.0Z" />
	<path fill="#ea4335" clip-path="url(#id_0)" d="M476.0 273.0L469.0 273.0L469.0 223.0C469.0 221.89543 469.89542 221.0 471.0 221.0L474.0 221.0C475.10458 221.0 476.0 221.89543 476.0 223.0Z" />
	<path fill="#ea4335" clip-path="url(#id_0)" d="M517.0 273.0L510.0 273.0L510.0 210.0C510.0 208.89543 510.89542 208.0 512.0 208.0L515.0 208.0C516.10455 208.0 517.0 208.89543 517.0 210.0Z" />
	<path fill="#ea4335" clip-path="url(#id_0)" d="M558.0 273.0L551.0 273.0L551.0 99.0C551.0 97.89543 551.89545 97.0 553.0 97.0L556.0 97.0C557.10455 97.0 558.0 97.89543 558.0 99.0Z" />
	<path fill="#fbbc04" clip-path="url(#id_0)" d="M118.0 273.0L111.0 273.0L111.0 260.0C111.0 258.89542 111.89543 258.0 113.0 258.0L116.0 258.0C117.10457 258.0 118.0 258.89542 118.0 260.0Z" />
	<path fill="#fbbc04" clip-path="url(#id_0)" d="M159.0 273.0L152.0 273.0L152.0 257.0C152.0 255.89543 152.89543 255.0 154.0 255.0L157.0 255.0C158.10457 255.0 159.0 255.89543 159.0 257.0Z" />
	<path fill="#fbbc04" clip-path="url(#id_0)" d="M200.0 273.0L193.0 273.0L193.0 257.0C193.0 255.89543 193.89543 255.0 195.0 255.0L198.0 255.0C199.10457 255.0 200.0 255.89543 200.0 257.0Z" />
	<path fill="#fbbc04" clip-path="url(#id_0)" d="M240.0 273.0L233.0 273.0L233.0 253.0C233.0 251.89543 233.89543 251.0 235.0 251.0L238.0 251.0C239.10457 251.0 240.0 251.89543 240.0 253.0Z" />
	<path fill="#fbbc04" clip-path="url(#id_0)" d="M281.0 273.0L274.0 273.0L274.0 248.0C274.0 246.89543 274.89542 246.0 276.0 246.0L279.0 246.0C280.10458 246.0 281.0 246.89543 281.0 248.0Z" />
	<path fill="#fbbc04" clip-path="url(#id_0)" d="M322.0 273.0L315.0 273.0L315.0 242.0C315.0 240.89543 315.89542 240.0 317.0 240.0L320.0 240.0C321.10458 240.0 322.0 240.89543 322.0 242.0Z" />
	<path fill="#fbbc04" clip-path="url(#id_0)" d="M363.0 273.0L356.0 273.0L356.0 232.0C356.0 230.89543 356.89542 230.0 358.0 230.0L361.0 230.0C362.10458 230.0 363.0 230.89543 363.0 232.0Z" />
	<path fill="#fbbc04" clip-path="url(#id_0)" d="M404.0 273.0L397.0 273.0L397.0 236.0C397.0 234.89543 397.89542 234.0 399.0 234.0L402.0 234.0C403.10458 234.0 404.0 234.89543 404.0 236.0Z" />
	<path fill="#fbbc04" clip-path="url(#id_0)" d="M445.0 273.0L438.0 273.0L438.0 231.0C438.0 229.89543 438.89542 229.0 440.0 229.0L443.0 229.0C444.10458 229.0 445.0 229.89543 445.0 231.0Z" />
	<path fill="#fbbc04" clip-path="url(#id_0)" d="M485.0 273.0L478.0 273.0L478.0 239.0C478.0 237.89543 478.89542 237.0 480.0 237.0L483.0 237.0C484.10458 237.0 485.0 237.89543 485.0 239.0Z" />
	<path fill="#fbbc04" clip-path="url(#id_0)" d="M526.0 273.0L519.0 273.0L519.0 221.0C519.0 219.89543 519.89545 219.0 521.0 219.0L524.0 219.0C525.10455 219.0 526.0 219.89543 526.0 221.0Z" />
	<path fill="#fbbc04" clip-path="url(#id_0)" d="M567.0 273.0L560.0 273.0L560.0 158.0C560.0 156.89543 560.89545 156.0 562.0 156.0L565.0 156.0C566.10455 156.0 567.0 156.89543 567.0 158.0Z" />
	<path class="title" fill="#000000" d="M30.065638 224.58958L30.221888 223.55833Q30.690638 223.49583 30.909388 223.19896Q31.206263 222.80833 31.206263 222.13646Q31.206263 221.40208 30.909388 221.01146Q30.612513 220.60521 30.096888 220.46458Q29.768763 220.37083 28.737513 220.38646Q29.550013 221.07396 29.550013 222.10521Q29.550013 223.38646 28.628138 224.08958Q27.690638 224.79271 26.409388 224.79271Q25.518763 224.79271 24.768763 224.48021Q24.003138 224.15208 23.596888 223.54271Q23.190638 222.93333 23.190638 222.10521Q23.190638 220.99583 24.081263 220.27708L23.331263 220.27708L23.331263 219.30833L28.706263 219.30833Q30.159388 219.30833 30.768763 219.60521Q31.378138 219.90208 31.721888 220.54271Q32.08126 221.18333 32.08126 222.12083Q32.08126 223.23021 31.581263 223.91771Q31.081263 224.60521 30.065638 224.58958ZM26.331263 223.71458Q27.550013 223.71458 28.112513 223.23021Q28.675013 222.74583 28.675013 222.01146Q28.675013 221.27708 28.112513 220.79271Q27.550013 220.29271 26.362513 220.29271Q25.221888 220.29271 24.643763 220.80833Q24.065638 221.30833 24.065638 222.02708Q24.065638 222.73021 24.643763 223.23021Q25.206263 223.71458 26.331263 223.71458ZM27.550013 213.13646L27.675013 212.04271Q28.628138 212.29271 29.159388 212.99583Q29.690638 213.69896 29.690638 214.77708Q29.690638 216.13646 28.846888 216.94896Q28.003138 217.74583 26.487513 217.74583Q24.925013 217.74583 24.065638 216.93333Q23.190638 216.12083 23.190638 214.83958Q23.190638 213.58958 24.034388 212.80833Q24.878138 212.01146 26.425013 212.01146Q26.518763 212.01146 26.706263 212.01146L26.706263 216.65208Q27.737513 216.58958 28.284388 216.07396Q28.815638 215.55833 28.815638 214.77708Q28.815638 214.19896 28.518763 213.79271Q28.206263 213.37083 27.550013 213.13646ZM25.846888 216.58958L25.846888 213.12083Q25.050013 213.18333 24.659388 213.51146Q24.050013 214.02708 24.050013 214.82396Q24.050013 215.55833 24.534388 216.05833Q25.018763 216.54271 25.846888 216.58958ZM26.440638 210.77708Q24.706263 210.77708 23.878138 209.82396Q23.190638 209.02708 23.190638 207.87083Q23.190638 206.58958 24.034388 205.77708Q24.862513 204.94896 26.346888 204.94896Q27.550013 204.94896 28.237513 205.30833Q28.925013 205.66771 29.315638 206.37083Q29.690638 207.05833 29.690638 207.87083Q29.690638 209.16771 28.862513 209.98021Q28.018763 210.77708 26.440638 210.77708ZM26.440638 209.69896Q27.628138 209.69896 28.221888 209.18333Q28.815638 208.65208 28.815638 207.87083Q28.815638 207.07396 28.221888 206.55833Q27.628138 206.04271 26.409388 206.04271Q25.253138 206.04271 24.659388 206.57396Q24.065638 207.08958 24.065638 207.87083Q24.065638 208.65208 24.659388 209.18333Q25.237513 209.69896 26.440638 209.69896ZM29.550013 203.38646L23.331263 203.38646L23.331263 202.44896L24.206263 202.44896Q23.737513 202.15208 23.471888 201.66771Q23.190638 201.18333 23.190638 200.55833Q23.190638 199.87083 23.471888 199.43333Q23.753138 198.98021 24.268763 198.80833Q23.190638 198.05833 23.190638 196.88646Q23.190638 195.94896 23.706263 195.46458Q24.206263 194.96458 25.284388 194.96458L29.550013 194.96458L29.550013 196.01146L25.628138 196.01146Q25.003138 196.01146 24.721888 196.12083Q24.440638 196.21458 24.268763 196.48021Q24.096888 196.74583 24.096888 197.12083Q24.096888 197.77708 24.534388 198.21458Q24.971888 198.63646 25.940638 198.63646L29.550013 198.63646L29.550013 199.69896L25.503138 199.69896Q24.800013 199.69896 24.456263 199.96458Q24.096888 200.21458 24.096888 200.79271Q24.096888 201.24583 24.331263 201.62083Q24.565638 201.99583 25.018763 202.16771Q25.471888 202.33958 26.315638 202.33958L29.550013 202.33958L29.550013 203.38646ZM27.550013 188.13646L27.675013 187.04271Q28.628138 187.29271 29.159388 187.99583Q29.690638 188.69896 29.690638 189.77708Q29.690638 191.13646 28.846888 191.94896Q28.003138 192.74583 26.487513 192.74583Q24.925013 192.74583 24.065638 191.93333Q23.190638 191.12083 23.190638 189.83958Q23.190638 188.58958 24.034388 187.80833Q24.878138 187.01146 26.425013 187.01146Q26.518763 187.01146 26.706263 187.01146L26.706263 191.65208Q27.737513 191.58958 28.284388 191.07396Q28.815638 190.55833 28.815638 189.77708Q28.815638 189.19896 28.518763 188.79271Q28.206263 188.37083 27.550013 188.13646ZM25.846888 191.58958L25.846888 188.12083Q25.050013 188.18333 24.659388 188.51146Q24.050013 189.02708 24.050013 189.82396Q24.050013 190.55833 24.534388 191.05833Q25.018763 191.54271 25.846888 191.58958ZM28.784388 181.32396Q29.284388 181.91771 29.487513 182.46458Q29.690638 182.99583 29.690638 183.62083Q29.690638 184.65208 29.190638 185.19896Q28.690638 185.74583 27.909388 185.74583Q27.456263 185.74583 27.081263 185.54271Q26.690638 185.33958 26.471888 184.99583Q26.237513 184.65208 26.128138 184.23021Q26.034388 183.93333 25.956263 183.29271Q25.815638 182.02708 25.596888 181.41771Q25.378138 181.41771 25.331263 181.41771Q24.675013 181.41771 24.409388 181.71458Q24.065638 182.12083 24.065638 182.91771Q24.065638 183.65208 24.331263 184.01146Q24.581263 184.37083 25.237513 184.54271L25.096888 185.57396Q24.440638 185.43333 24.034388 185.10521Q23.628138 184.77708 23.409388 184.16771Q23.190638 183.55833 23.190638 182.76146Q23.190638 181.96458 23.378138 181.46458Q23.565638 180.96458 23.846888 180.73021Q24.128138 180.49583 24.565638 180.40208Q24.831263 180.35521 25.534388 180.35521L26.940638 180.35521Q28.409388 180.35521 28.800013 180.29271Q29.190638 180.21458 29.550013 180.01146L29.550013 181.12083Q29.221888 181.27708 28.784388 181.32396ZM26.425013 181.41771Q26.659388 181.99583 26.831263 183.13646Q26.925013 183.79271 27.050013 184.05833Q27.159388 184.32396 27.378138 184.48021Q27.596888 184.62083 27.878138 184.62083Q28.300013 184.62083 28.581263 184.30833Q28.862513 183.98021 28.862513 183.37083Q28.862513 182.76146 28.596888 182.29271Q28.331263 181.80833 27.862513 181.58958Q27.503138 181.41771 26.815638 181.41771L26.425013 181.41771ZM29.550013 178.38646L23.331263 178.38646L23.331263 177.44896L24.206263 177.44896Q23.190638 176.76146 23.190638 175.46458Q23.190638 174.90208 23.393763 174.43333Q23.596888 173.94896 23.925013 173.71458Q24.253138 173.48021 24.690638 173.38646Q24.987513 173.33958 25.721888 173.33958L29.550013 173.33958L29.550013 174.38646L25.768763 174.38646Q25.112513 174.38646 24.800013 174.51146Q24.487513 174.63646 24.300013 174.94896Q24.096888 175.26146 24.096888 175.68333Q24.096888 176.35521 24.534388 176.85521Q24.956263 177.33958 26.143763 177.33958L29.550013 177.33958L29.550013 178.38646Z" />
	<path class="txt" fill="#000000" d="M65.05 272.6765Q65.05 271.14526 65.3625 270.2234Q65.675 269.2859 66.28438 268.7859Q66.90938 268.2859 67.84688 268.2859Q68.53438 268.2859 69.05 268.56714Q69.58125 268.8484 69.925 269.37964Q70.26875 269.89526 70.45625 270.64526Q70.64375 271.39526 70.64375 272.6765Q70.64375 274.19214 70.33125 275.114Q70.03438 276.0359 69.40938 276.5515Q68.8 277.0515 67.84688 277.0515Q66.6125 277.0515 65.89375 276.1609Q65.05 275.0984 65.05 272.6765ZM66.12813 272.6765Q66.12813 274.7859 66.62813 275.489Q67.12813 276.19214 67.84688 276.19214Q68.58125 276.19214 69.06563 275.489Q69.56563 274.7859 69.56563 272.6765Q69.56563 270.5515 69.06563 269.864Q68.58125 269.1609 67.83125 269.1609Q67.1125 269.1609 66.675 269.77026Q66.12813 270.5515 66.12813 272.6765Z" />
	<path class="txt" fill="#000000" d="M58.05 219.41234L59.159374 219.31859Q59.284374 220.13109 59.721874 220.53734Q60.175 220.94359 60.815624 220.94359Q61.565624 220.94359 62.096874 220.36546Q62.628124 219.78734 62.628124 218.84984Q62.628124 217.94359 62.1125 217.42796Q61.6125 216.89671 60.784374 216.89671Q60.284374 216.89671 59.8625 217.13109Q59.45625 217.36546 59.221874 217.72484L58.2375 217.59984L59.065624 213.19359L63.346874 213.19359L63.346874 214.19359L59.909374 214.19359L59.45625 216.50609Q60.221874 215.95921 61.065624 215.95921Q62.190624 215.95921 62.95625 216.74046Q63.7375 217.52171 63.7375 218.75609Q63.7375 219.91234 63.065624 220.77171Q62.2375 221.80296 60.815624 221.80296Q59.64375 221.80296 58.89375 221.14671Q58.159374 220.49046 58.05 219.41234ZM65.05 217.42796Q65.05 215.89671 65.3625 214.97484Q65.675 214.03734 66.28438 213.53734Q66.90938 213.03734 67.84688 213.03734Q68.53438 213.03734 69.05 213.31859Q69.58125 213.59984 69.925 214.13109Q70.26875 214.64671 70.45625 215.39671Q70.64375 216.14671 70.64375 217.42796Q70.64375 218.94359 70.33125 219.86546Q70.03438 220.78734 69.40938 221.30296Q68.8 221.80296 67.84688 221.80296Q66.6125 221.80296 65.89375 220.91234Q65.05 219.84984 65.05 217.42796ZM66.12813 217.42796Q66.12813 219.53734 66.62813 220.24046Q67.12813 220.94359 67.84688 220.94359Q68.58125 220.94359 69.06563 220.24046Q69.56563 219.53734 69.56563 217.42796Q69.56563 215.30296 69.06563 214.61546Q68.58125 213.91234 67.83125 213.91234Q67.1125 213.91234 66.675 214.52171Q66.12813 215.30296 66.12813 217.42796Z" />
	<path class="txt" fill="#000000" d="M55.01875 166.41379L53.971874 166.41379L53.971874 159.69504Q53.58125 160.05441 52.95625 160.42941Q52.346874 160.78879 51.8625 160.96066L51.8625 159.94504Q52.7375 159.52316 53.39375 158.94504Q54.065624 158.35129 54.346874 157.78879L55.01875 157.78879L55.01875 166.41379ZM58.05 162.17941Q58.05 160.64816 58.3625 159.72629Q58.675 158.78879 59.284374 158.28879Q59.909374 157.78879 60.846874 157.78879Q61.534374 157.78879 62.05 158.07004Q62.58125 158.35129 62.925 158.88254Q63.26875 159.39816 63.45625 160.14816Q63.64375 160.89816 63.64375 162.17941Q63.64375 163.69504 63.33125 164.61691Q63.034374 165.53879 62.409374 166.05441Q61.8 166.55441 60.846874 166.55441Q59.6125 166.55441 58.89375 165.66379Q58.05 164.60129 58.05 162.17941ZM59.128124 162.17941Q59.128124 164.28879 59.628124 164.99191Q60.128124 165.69504 60.846874 165.69504Q61.58125 165.69504 62.065624 164.99191Q62.565624 164.28879 62.565624 162.17941Q62.565624 160.05441 62.065624 159.36691Q61.58125 158.66379 60.83125 158.66379Q60.1125 158.66379 59.675 159.27316Q59.128124 160.05441 59.128124 162.17941ZM65.05 162.17941Q65.05 160.64816 65.3625 159.72629Q65.675 158.78879 66.28438 158.28879Q66.90938 157.78879 67.84688 157.78879Q68.53438 157.78879 69.05 158.07004Q69.58125 158.35129 69.925 158.88254Q70.26875 159.39816 70.45625 160.14816Q70.64375 160.89816 70.64375 162.17941Q70.64375 163.69504 70.33125 164.61691Q70.03438 165.53879 69.40938 166.05441Q68.8 166.55441 67.84688 166.55441Q66.6125 166.55441 65.89375 165.66379Q65.05 164.60129 65.05 162.17941ZM66.12813 162.17941Q66.12813 164.28879 66.62813 164.99191Q67.12813 165.69504 67.84688 165.69504Q68.58125 165.69504 69.06563 164.99191Q69.56563 164.28879 69.56563 162.17941Q69.56563 160.05441 69.06563 159.36691Q68.58125 158.66379 67.83125 158.66379Q67.1125 158.66379 66.675 159.27316Q66.12813 160.05441 66.12813 162.17941Z" />
	<path class="txt" fill="#000000" d="M55.01875 111.16522L53.971874 111.16522L53.971874 104.44647Q53.58125 104.80585 52.95625 105.18085Q52.346874 105.54022 51.8625 105.7121L51.8625 104.69647Q52.7375 104.2746 53.39375 103.69647Q54.065624 103.10272 54.346874 102.54022L55.01875 102.54022L55.01875 111.16522ZM58.05 108.91522L59.159374 108.82147Q59.284374 109.63397 59.721874 110.04022Q60.175 110.44647 60.815624 110.44647Q61.565624 110.44647 62.096874 109.86835Q62.628124 109.29022 62.628124 108.35272Q62.628124 107.44647 62.1125 106.93085Q61.6125 106.3996 60.784374 106.3996Q60.284374 106.3996 59.8625 106.63397Q59.45625 106.86835 59.221874 107.22772L58.2375 107.10272L59.065624 102.69647L63.346874 102.69647L63.346874 103.69647L59.909374 103.69647L59.45625 106.00897Q60.221874 105.4621 61.065624 105.4621Q62.190624 105.4621 62.95625 106.24335Q63.7375 107.0246 63.7375 108.25897Q63.7375 109.41522 63.065624 110.2746Q62.2375 111.30585 60.815624 111.30585Q59.64375 111.30585 58.89375 110.6496Q58.159374 109.99335 58.05 108.91522ZM65.05 106.93085Q65.05 105.3996 65.3625 104.47772Q65.675 103.54022 66.28438 103.04022Q66.90938 102.54022 67.84688 102.54022Q68.53438 102.54022 69.05 102.82147Q69.58125 103.10272 69.925 103.63397Q70.26875 104.1496 70.45625 104.8996Q70.64375 105.6496 70.64375 106.93085Q70.64375 108.44647 70.33125 109.36835Q70.03438 110.29022 69.40938 110.80585Q68.8 111.30585 67.84688 111.30585Q66.6125 111.30585 65.89375 110.41522Q65.05 109.35272 65.05 106.93085ZM66.12813 106.93085Q66.12813 109.04022 66.62813 109.74335Q67.12813 110.44647 67.84688 110.44647Q68.58125 110.44647 69.06563 109.74335Q69.56563 109.04022 69.56563 106.93085Q69.56563 104.80585 69.06563 104.11835Q68.58125 103.41522 67.83125 103.41522Q67.1125 103.41522 66.675 104.0246Q66.12813 104.80585 66.12813 106.93085Z" />
	<path class="txt" fill="#000000" d="M56.596874 54.901043L56.596874 55.916668L50.909374 55.916668Q50.909374 55.541668 51.034374 55.182293Q51.253124 54.604168 51.721874 54.041668Q52.20625 53.479168 53.1125 52.744793Q54.51875 51.588543 55.003124 50.916668Q55.503124 50.244793 55.503124 49.651043Q55.503124 49.026043 55.05 48.604168Q54.596874 48.166668 53.878124 48.166668Q53.1125 48.166668 52.659374 48.619793Q52.20625 49.072918 52.190624 49.885418L51.1125 49.776043Q51.221874 48.557293 51.940624 47.932293Q52.675 47.291668 53.909374 47.291668Q55.14375 47.291668 55.8625 47.979168Q56.58125 48.666668 56.58125 49.682293Q56.58125 50.197918 56.3625 50.697918Q56.159374 51.182293 55.659374 51.744793Q55.175 52.291668 54.05 53.244793Q53.096874 54.041668 52.815624 54.338543Q52.55 54.619793 52.378124 54.901043L56.596874 54.901043ZM58.05 51.682293Q58.05 50.151043 58.3625 49.229168Q58.675 48.291668 59.284374 47.791668Q59.909374 47.291668 60.846874 47.291668Q61.534374 47.291668 62.05 47.572918Q62.58125 47.854168 62.925 48.385418Q63.26875 48.901043 63.45625 49.651043Q63.64375 50.401043 63.64375 51.682293Q63.64375 53.197918 63.33125 54.119793Q63.034374 55.041668 62.409374 55.557293Q61.8 56.057293 60.846874 56.057293Q59.6125 56.057293 58.89375 55.166668Q58.05 54.104168 58.05 51.682293ZM59.128124 51.682293Q59.128124 53.791668 59.628124 54.494793Q60.128124 55.197918 60.846874 55.197918Q61.58125 55.197918 62.065624 54.494793Q62.565624 53.791668 62.565624 51.682293Q62.565624 49.557293 62.065624 48.869793Q61.58125 48.166668 60.83125 48.166668Q60.1125 48.166668 59.675 48.776043Q59.128124 49.557293 59.128124 51.682293ZM65.05 51.682293Q65.05 50.151043 65.3625 49.229168Q65.675 48.291668 66.28438 47.791668Q66.90938 47.291668 67.84688 47.291668Q68.53438 47.291668 69.05 47.572918Q69.58125 47.854168 69.925 48.385418Q70.26875 48.901043 70.45625 49.651043Q70.64375 50.401043 70.64375 51.682293Q70.64375 53.197918 70.33125 54.119793Q70.03438 55.041668 69.40938 55.557293Q68.8 56.057293 67.84688 56.057293Q66.6125 56.057293 65.89375 55.166668Q65.05 54.104168 65.05 51.682293ZM66.12813 51.682293Q66.12813 53.791668 66.62813 54.494793Q67.12813 55.197918 67.84688 55.197918Q68.58125 55.197918 69.06563 54.494793Q69.56563 53.791668 69.56563 51.682293Q69.56563 49.557293 69.06563 48.869793Q68.58125 48.166668 67.83125 48.166668Q67.1125 48.166668 66.675 48.776043Q66.12813 49.557293 66.12813 51.682293Z" />
	<path class="txt" fill="#000000" d="M87.96585 307.6813L88.65086 306.8637Q89.17014 307.2725 89.65628 307.3609Q90.14242 307.44928 90.73904 307.2283Q91.33566 306.98523 91.85494 306.46597Q92.30793 306.01297 92.5289 305.52682Q92.73882 305.02966 92.67253 304.6319Q92.60624 304.21207 92.33003 303.93585Q92.04277 303.6486 91.667114 303.6044Q91.28042 303.54913 90.76114 303.78116Q90.407585 303.93585 89.36902 304.57666Q88.34151 305.20642 87.833275 305.3611Q87.15931 305.571 86.617935 305.4495Q86.065506 305.31693 85.64566 304.89706Q85.19267 304.4441 85.04904 303.7922Q84.90541 303.11826 85.20372 302.42218Q85.50203 301.70404 86.109695 301.09637Q86.78366 300.4224 87.52391 300.12408Q88.25311 299.81473 88.96022 299.96942Q89.65628 300.11304 90.20871 300.62128L89.490555 301.44992Q88.84974 300.94168 88.197876 301.01904Q87.54601 301.07428 86.84995 301.77032Q86.12075 302.49954 86.05446 303.09616Q85.98817 303.69278 86.363815 304.06842Q86.695274 304.39987 87.137215 304.37778Q87.579155 304.35568 88.7724 303.6044Q89.97669 302.84204 90.50702 302.64316Q91.291466 302.36694 91.921234 302.4885Q92.53995 302.59897 93.03713 303.09616Q93.52327 303.5823 93.67795 304.2894Q93.82158 304.98544 93.54537 305.7478Q93.25811 306.4991 92.60624 307.15097Q91.7776 307.9796 90.98211 308.31107Q90.186615 308.62042 89.380066 308.4547Q88.58457 308.27792 87.96585 307.6813ZM96.97041 302.58792L90.90477 299.85892L91.68922 299.0745L95.26894 300.75388Q95.84347 301.04114 96.42904 301.36154Q96.185974 300.9196 95.87661 300.25668L94.17513 296.58856L94.937485 295.8262L97.66647 301.89188L96.97041 302.58792ZM100.8816 295.8483L101.743385 295.1633Q102.24057 296.01404 102.11904 296.88687Q101.997505 297.7597 101.23515 298.52206Q100.27393 299.48328 99.10278 299.46118Q97.94269 299.42804 96.87098 298.35632Q95.76613 297.25146 95.73298 296.06927Q95.68879 294.87604 96.594765 293.97006Q97.47865 293.08618 98.6277 293.13037Q99.787796 293.1635 100.8816 294.25732Q100.94789 294.3236 101.080475 294.4562L97.79906 297.7376Q98.57246 298.4226 99.32375 298.44473Q100.06401 298.45578 100.61644 297.90335Q101.02523 297.49454 101.10257 296.99734Q101.17991 296.4781 100.8816 295.8483ZM97.23558 297.08575L99.68836 294.63297Q99.08069 294.11368 98.57246 294.0695Q97.77696 294.0032 97.213486 294.56668Q96.69421 295.08597 96.68315 295.782Q96.68315 296.46704 97.23558 297.08575ZM104.21826 295.3401L98.14156 289.26337L98.89286 288.5121L104.96956 294.58878L104.21826 295.3401ZM107.3229 290.9096L108.08525 291.451Q107.83114 291.83768 107.588066 292.08075Q107.17927 292.48956 106.83677 292.589Q106.483215 292.67737 106.17385 292.5669Q105.87554 292.44537 105.201584 291.7714L102.67146 289.24127L102.13009 289.78265L101.555565 289.20813L102.09694 288.66675L101.003136 287.57294L101.301445 286.39075L102.8372 287.9265L103.58849 287.1752L104.16302 287.74973L103.41172 288.50104L105.98603 291.07535Q106.306435 291.39575 106.42797 291.451Q106.560555 291.49518 106.704185 291.46204Q106.84782 291.4289 107.01354 291.26315Q107.146126 291.13058 107.3229 290.9096ZM110.07399 286.6559L110.935776 285.97092Q111.43296 286.82166 111.311424 287.6945Q111.189896 288.56732 110.42754 289.32968Q109.46632 290.2909 108.29517 290.2688Q107.13508 290.23566 106.06337 289.16394Q104.95851 288.05908 104.92537 286.8769Q104.88117 285.68365 105.787155 284.77768Q106.671036 283.8938 107.82008 283.938Q108.98019 283.97113 110.07399 285.06494Q110.14028 285.13123 110.272865 285.2638L106.99145 288.54523Q107.76485 289.23022 108.51614 289.25232Q109.2564 289.26337 109.80882 288.71094Q110.21762 288.30215 110.29496 287.80496Q110.3723 287.28568 110.07399 286.6559ZM106.42797 287.89337L108.880745 285.44058Q108.27308 284.9213 107.76485 284.8771Q106.969345 284.81082 106.405876 285.3743Q105.88659 285.8936 105.87554 286.58963Q105.87554 287.27463 106.42797 287.89337Z" />
	<path class="txt" fill="#000000" d="M129.57402 310.78595L123.49732 304.70923L125.79542 302.41113Q126.39204 301.8145 126.767685 301.54935Q127.29802 301.1737 127.80625 301.08533Q128.32553 300.98587 128.87796 301.18475Q129.44144 301.3726 129.89442 301.82556Q130.66782 302.59897 130.71202 303.63754Q130.75621 304.654 129.46353 305.9467L127.905685 307.50452L130.38055 309.9794L129.57402 310.78595ZM127.19858 306.79742L128.76747 305.22852Q129.55193 304.4441 129.58507 303.8364Q129.61821 303.20663 129.08788 302.6763Q128.71223 302.30066 128.2482 302.23438Q127.78416 302.14597 127.386406 302.36694Q127.12124 302.52164 126.579865 303.06302L125.02202 304.62085L127.19858 306.79742ZM135.13144 305.22852L130.73412 300.8312L131.40808 300.15726L132.07098 300.82016Q131.86107 300.102 131.92735 299.74844Q131.99365 299.3728 132.25882 299.10764Q132.63446 298.732 133.25319 298.5773L133.69513 299.52747Q133.25319 299.63797 132.98802 299.90314Q132.7339 300.15726 132.68971 300.5108Q132.64551 300.84225 132.83334 301.18475Q133.09851 301.7151 133.56255 302.17914L135.87169 304.48828L135.13144 305.22852ZM139.5619 297.96964L140.42369 297.2846Q140.92087 298.13535 140.79933 299.00818Q140.67781 299.88104 139.91545 300.64337Q138.95424 301.6046 137.78308 301.58252Q136.62299 301.54935 135.55128 300.47766Q134.44643 299.3728 134.41328 298.1906Q134.36908 296.99734 135.27507 296.09137Q136.15895 295.2075 137.308 295.25168Q138.4681 295.28482 139.5619 296.37863Q139.62819 296.44495 139.76077 296.5775L136.47935 299.85892Q137.25276 300.54395 138.00406 300.56604Q138.74431 300.5771 139.29674 300.02466Q139.70554 299.61588 139.78287 299.11868Q139.86021 298.5994 139.5619 297.96964ZM135.91588 299.20706L138.36865 296.7543Q137.76099 296.23502 137.25276 296.19083Q136.45726 296.1245 135.89378 296.688Q135.3745 297.20728 135.36345 297.90335Q135.36345 298.58835 135.91588 299.20706ZM145.2519 294.0253Q145.18561 294.7987 144.94254 295.32904Q144.71053 295.8483 144.26859 296.29025Q143.53938 297.01947 142.79912 297.0526Q142.05887 297.08575 141.50644 296.53333Q141.18604 296.21292 141.0645 295.8041Q140.93192 295.38428 141.02031 294.9865Q141.09766 294.57773 141.31862 294.2021Q141.46225 293.92587 141.86 293.41763Q142.65549 292.42325 142.9317 291.83768Q142.77702 291.683 142.74388 291.64987Q142.27985 291.18582 141.8821 291.20792Q141.35176 291.2521 140.78828 291.81558Q140.26901 292.33487 140.20271 292.77682Q140.12538 293.2077 140.46788 293.79327L139.63924 294.42303Q139.27464 293.85956 139.21939 293.3403Q139.16415 292.821 139.44037 292.23544Q139.71658 291.64987 140.28006 291.0864Q140.84354 290.52292 141.32967 290.30194Q141.81581 290.08096 142.1804 290.1141Q142.54501 290.14725 142.92065 290.39032Q143.14163 290.545 143.63881 291.0422L144.63318 292.03656Q145.67175 293.07513 145.99216 293.30716Q146.32361 293.5281 146.72136 293.6386L145.9369 294.42303Q145.5944 294.3015 145.2519 294.0253ZM143.51727 292.42325Q143.27422 292.99777 142.5892 293.92587Q142.19145 294.4562 142.09201 294.73242Q141.98154 294.99756 142.02573 295.26273Q142.08096 295.51685 142.27985 295.71573Q142.57816 296.01404 142.998 295.99194Q143.4289 295.9588 143.85979 295.5279Q144.29068 295.09702 144.43431 294.57773Q144.58899 294.0474 144.41222 293.56125Q144.27963 293.1856 143.79349 292.69946L143.51727 292.42325ZM149.12994 288.00385L149.95859 287.37408Q150.58835 288.24692 150.52205 289.175Q150.45576 290.10306 149.73761 290.82123Q148.83163 291.7272 147.69363 291.69406Q146.55563 291.63882 145.45078 290.53397Q144.74367 289.82684 144.44536 289.0645Q144.14705 288.28006 144.35696 287.5398Q144.57794 286.7885 145.15247 286.214Q145.85957 285.50687 146.67717 285.4185Q147.49475 285.308 148.3013 285.84937L147.68259 286.68906Q147.1412 286.34656 146.65506 286.39075Q146.15788 286.4239 145.78223 286.79956Q145.21875 287.36304 145.274 288.12537Q145.31819 288.87668 146.19102 289.7495Q147.08595 290.64444 147.82622 290.69968Q148.56647 290.75494 149.10785 290.21356Q149.54979 289.7716 149.57188 289.21918Q149.60503 288.6557 149.12994 288.00385ZM153.07426 285.95987L153.83662 286.50125Q153.5825 286.88794 153.33943 287.131Q152.93063 287.5398 152.58813 287.63925Q152.23457 287.72763 151.92522 287.61716Q151.6269 287.4956 150.95296 286.82166L148.42284 284.29153L147.88145 284.83292L147.30693 284.2584L147.84831 283.717L146.7545 282.6232L147.05281 281.441L148.58856 282.97675L149.33986 282.22546L149.91438 282.8L149.16309 283.55127L151.7374 286.12558Q152.0578 286.446 152.17934 286.50125Q152.31192 286.54544 152.45555 286.5123Q152.59918 286.47916 152.76491 286.31342Q152.89749 286.18085 153.07426 285.95987Z" />
	<path class="txt" fill="#000000" d="M127.59567 353.56592L119.90588 349.1023L120.73453 348.27365L125.65113 351.3341Q126.413475 351.80917 127.142685 352.3174Q126.40243 351.11313 126.29195 350.91425L123.34198 345.6662L124.314255 344.69394L128.25859 346.89258Q129.72804 347.72122 130.88814 348.57196Q130.4241 347.88696 129.86063 346.9478L126.91067 342.0975L127.71721 341.29095L132.13663 349.02496L131.35217 349.8094L125.452255 346.45065Q124.712006 346.04184 124.54627 345.9424Q124.866684 346.4396 125.07661 346.8263L128.42432 352.73727L127.59567 353.56592ZM135.8158 342.51736L136.67758 341.83234Q137.17476 342.68307 137.05324 343.5559Q136.9317 344.42874 136.16934 345.1911Q135.20813 346.1523 134.03697 346.13022Q132.87688 346.09708 131.80518 345.0254Q130.70032 343.92053 130.66718 342.73834Q130.62299 341.54507 131.52896 340.6391Q132.41284 339.75522 133.56189 339.7994Q134.72198 339.83255 135.8158 340.92636Q135.88208 340.99265 136.01466 341.12524L132.73325 344.40665Q133.50665 345.09167 134.25795 345.11377Q134.9982 345.12482 135.55063 344.5724Q135.95943 344.1636 136.03676 343.6664Q136.1141 343.14713 135.8158 342.51736ZM132.16977 343.7548L134.62256 341.30203Q134.01488 340.78275 133.50665 340.73856Q132.71115 340.67224 132.14767 341.23572Q131.6284 341.755 131.61734 342.45108Q131.61734 343.13608 132.16977 343.7548ZM139.85956 341.30203L139.1635 341.99808L133.0868 335.9214L133.8381 335.17007L136.00362 337.3356Q135.89313 336.27493 136.62234 335.54572Q137.03113 335.13693 137.55042 334.9491Q138.0697 334.7392 138.60002 334.80548Q139.1414 334.86072 139.69383 335.14798Q140.24626 335.43524 140.72134 335.91034Q141.8483 337.0373 141.90355 338.21948Q141.95879 339.40167 141.18538 340.17508Q140.40094 340.9595 139.30713 340.7496L139.85956 341.30203ZM137.6167 339.08127Q138.40115 339.8657 138.97568 339.9983Q139.90376 340.21927 140.50038 339.62265Q140.98651 339.1365 140.92023 338.3631Q140.86497 337.57864 140.01424 336.7279Q139.15245 335.86612 138.40115 335.79984Q137.64986 335.73355 137.16371 336.2197Q136.67758 336.7058 136.74387 337.5013Q136.81017 338.27472 137.6167 339.08127ZM146.4224 330.47446L147.42781 329.8889Q148.15701 331.1263 148.02443 332.29745Q147.89185 333.4686 146.94168 334.41876Q145.95836 335.4021 144.9419 335.62308Q143.92543 335.84402 142.85371 335.41315Q141.77097 334.9712 140.89812 334.09836Q139.94795 333.1482 139.60544 332.07648Q139.26294 331.00476 139.56125 329.97726Q139.8706 328.9387 140.67715 328.13214Q141.58313 327.22617 142.6659 327.0715Q143.75969 326.90576 144.84245 327.50238L144.23479 328.48572Q143.36195 328.0327 142.65485 328.1432Q141.94774 328.2316 141.34007 328.83926Q140.64401 329.5353 140.51143 330.3529Q140.37885 331.1484 140.74344 331.91077Q141.1191 332.66205 141.72676 333.2697Q142.50017 334.04312 143.29565 334.39667Q144.1022 334.7392 144.86455 334.55136Q145.6269 334.36353 146.19038 333.80005Q146.86433 333.1261 146.94168 332.27536Q147.03006 331.41357 146.4224 330.47446ZM148.01338 328.7509Q146.787 327.52448 146.87538 326.26495Q146.95273 325.21533 147.77032 324.39774Q148.6763 323.49176 149.84744 323.51385Q151.01859 323.51385 152.0682 324.56348Q152.91895 325.4142 153.15096 326.15445Q153.38298 326.8947 153.162 327.66812Q152.94104 328.4194 152.36652 328.99393Q151.44948 329.91098 150.28938 329.89993Q149.12929 329.86676 148.01338 328.7509ZM148.77574 327.98853Q149.61542 328.82822 150.39987 328.88345Q151.19537 328.92764 151.74779 328.3752Q152.31126 327.81174 152.25603 327.0273Q152.20079 326.24286 151.339 325.38107Q150.52141 324.56348 149.7259 324.5193Q148.94147 324.46405 148.38904 325.01648Q147.83661 325.56888 147.8808 326.36438Q147.925 327.1378 148.77574 327.98853ZM155.438 325.72357L151.04068 321.32626L151.7036 320.66333L152.32231 321.28204Q152.20079 320.7407 152.35547 320.21036Q152.4991 319.66898 152.94104 319.22702Q153.42717 318.7409 153.93541 318.6304Q154.45468 318.50888 154.94083 318.75195Q154.7088 317.45926 155.53745 316.6306Q156.20036 315.9677 156.90747 315.9898Q157.61456 315.9898 158.37692 316.75217L161.39317 319.7684L160.65292 320.50867L157.87973 317.73547Q157.43779 317.29352 157.16158 317.172Q156.89641 317.03943 156.58705 317.1057Q156.2777 317.172 156.01253 317.43716Q155.5485 317.9012 155.5485 318.51993Q155.55954 319.1276 156.24455 319.8126L158.79677 322.3648L158.04547 323.11612L155.18388 320.25455Q154.6867 319.75735 154.25581 319.70212Q153.82492 319.6248 153.41612 320.03357Q153.09572 320.35397 152.99628 320.78488Q152.89684 321.21576 153.09572 321.6577Q153.29459 322.09964 153.8912 322.69626L156.17825 324.9833L155.438 325.72357ZM164.90662 319.63583L158.81886 313.54807L159.49283 312.8741L160.0563 313.4376Q159.96791 312.86307 160.1005 312.39902Q160.24413 311.92395 160.67502 311.49304Q161.2385 310.92957 161.95665 310.78595Q162.6748 310.6423 163.41505 310.9627Q164.16635 311.27206 164.79613 311.90186Q165.47008 312.5758 165.7684 313.36026Q166.07776 314.13364 165.90097 314.88495Q165.7242 315.63626 165.21597 316.14447Q164.84032 316.52014 164.38733 316.66376Q163.9233 316.79636 163.50345 316.75217L165.64687 318.89557L164.90662 319.63583ZM161.71358 315.09488Q162.56432 315.94562 163.31561 316.0119Q164.05588 316.06714 164.542 315.581Q165.03918 315.08383 164.9729 314.31042Q164.90662 313.53702 164.02272 312.65314Q163.18303 311.81345 162.43173 311.74716Q161.66939 311.66983 161.18324 312.15594Q160.70816 312.63104 160.7855 313.4376Q160.86284 314.24414 161.71358 315.09488ZM165.69106 311.0732Q164.46466 309.8468 164.55305 308.58728Q164.6304 307.53766 165.44798 306.72006Q166.35397 305.8141 167.52512 305.83618Q168.69626 305.83618 169.74586 306.8858Q170.5966 307.73654 170.82863 308.4768Q171.06065 309.21704 170.83968 309.99045Q170.61871 310.74176 170.04417 311.31628Q169.12715 312.2333 167.96706 312.22226Q166.80696 312.18912 165.69106 311.0732ZM166.4534 310.31085Q167.29309 311.15054 168.07755 311.20578Q168.87303 311.24997 169.42546 310.69754Q169.98894 310.13406 169.9337 309.34964Q169.87845 308.5652 169.01666 307.7034Q168.19908 306.8858 167.40358 306.8416Q166.61914 306.78638 166.06671 307.3388Q165.51428 307.89124 165.55847 308.6867Q165.60266 309.4601 166.4534 310.31085ZM173.11568 308.0459L168.71835 303.6486L169.38127 302.98566L169.99998 303.6044Q169.76797 302.4001 170.685 301.48306Q171.08275 301.08533 171.55783 300.8975Q172.04396 300.6986 172.44171 300.76492Q172.83946 300.8312 173.21512 301.07428Q173.45818 301.25104 173.97746 301.77032L176.68436 304.47723L175.9441 305.21747L173.27036 302.54373Q172.80632 302.07968 172.49696 301.9471Q172.1876 301.8145 171.83405 301.90292Q171.46944 301.98026 171.17113 302.27856Q170.69604 302.75366 170.65186 303.41656Q170.60765 304.05737 171.44734 304.89706L173.85593 307.30566L173.11568 308.0459ZM179.65642 298.67673L180.5182 297.99173Q181.01538 298.84247 180.89384 299.7153Q180.77232 300.58813 180.00996 301.3505Q179.04875 302.3117 177.8776 302.2896Q176.7175 302.25647 175.6458 301.18475Q174.54094 300.0799 174.5078 298.8977Q174.4636 297.70447 175.36958 296.7985Q176.25346 295.9146 177.40251 295.9588Q178.5626 295.99194 179.65642 297.08575Q179.7227 297.15204 179.85529 297.2846L176.57387 300.56604Q177.34727 301.25104 178.09857 301.27313Q178.83882 301.28418 179.39125 300.73178Q179.80005 300.32297 179.87738 299.82578Q179.95473 299.30652 179.65642 298.67673ZM176.01039 299.91418L178.46317 297.4614Q177.8555 296.9421 177.34727 296.89792Q176.55177 296.83163 175.9883 297.3951Q175.46901 297.9144 175.45796 298.61044Q175.45796 299.29544 176.01039 299.91418ZM183.01517 298.1464L178.61786 293.74908L179.28076 293.08618L179.89948 293.7049Q179.66747 292.5006 180.58449 291.58356Q180.98224 291.18582 181.45732 290.998Q181.94347 290.79913 182.34122 290.86542Q182.73895 290.9317 183.11461 291.17477Q183.35768 291.35156 183.87695 291.87082L186.58385 294.57773L185.8436 295.318L183.16985 292.64423Q182.70581 292.1802 182.39645 292.0476Q182.0871 291.91504 181.73354 292.00342Q181.36894 292.08075 181.07063 292.37906Q180.59554 292.85416 180.55135 293.51706Q180.50716 294.15787 181.34685 294.99756L183.75542 297.40616L183.01517 298.1464ZM188.92615 290.9096L189.68849 291.451Q189.43437 291.83768 189.19131 292.08075Q188.78252 292.48956 188.44 292.589Q188.08646 292.67737 187.7771 292.5669Q187.47879 292.44534 186.80482 291.7714L184.2747 289.24127L183.73332 289.78265L183.1588 289.20813L183.70018 288.66675L182.60637 287.57294L182.9047 286.39075L184.44043 287.9265L185.19174 287.1752L185.76627 287.74973L185.01495 288.50104L187.58926 291.07535Q187.90968 291.39575 188.0312 291.451Q188.16379 291.49518 188.30742 291.46204Q188.45105 291.4289 188.61679 291.26315Q188.74936 291.13058 188.92615 290.9096ZM188.47316 290.05887L189.09187 289.21918Q189.6001 289.59485 190.10834 289.55063Q190.62762 289.4954 191.1469 288.9761Q191.65514 288.4679 191.69933 288.02594Q191.74352 287.5619 191.45625 287.27463Q191.20215 287.02054 190.83754 287.09787Q190.58342 287.1531 189.82108 287.6061Q188.79356 288.21378 188.32953 288.39053Q187.86548 288.54523 187.43459 288.44577Q187.0037 288.34634 186.67224 288.0149Q186.38498 287.72763 186.26344 287.34094Q186.1419 286.95422 186.2082 286.5565Q186.26344 286.25818 186.47337 285.87146Q186.68329 285.48477 187.03683 285.13123Q187.54507 284.623 188.08646 284.39096Q188.62784 284.13684 189.06978 284.20316Q189.51172 284.26944 189.99785 284.623L189.36809 285.45163Q188.99243 285.16437 188.56154 285.2196Q188.13065 285.25275 187.6887 285.6947Q187.18047 286.20294 187.13628 286.60068Q187.08104 286.98737 187.31305 287.2194Q187.45668 287.36304 187.65556 287.38513Q187.87653 287.40723 188.1417 287.29672Q188.29637 287.23044 188.99243 286.82166Q190.0089 286.24713 190.45084 286.07034Q190.89278 285.8936 191.32367 285.97092Q191.75456 286.04825 192.14127 286.43494Q192.51692 286.8106 192.62741 287.36304Q192.73788 287.89337 192.51692 288.49Q192.2849 289.07556 191.76562 289.59485Q190.90384 290.45663 190.09729 290.55606Q189.29074 290.6334 188.47316 290.05887Z" />
	<path class="txt" fill="#000000" d="M226.70045 295.26273L220.62376 289.18604L221.43031 288.3795L226.78885 293.73804L229.783 290.7439L230.50116 291.46204L226.70045 295.26273ZM226.38005 285.15332L225.51826 284.29153L226.26956 283.54022L227.13135 284.402L226.38005 285.15332ZM231.59497 290.36823L227.19765 285.97092L227.94894 285.2196L232.34627 289.61694L231.59497 290.36823ZM234.6775 285.95987L235.43985 286.50125Q235.18573 286.88794 234.94266 287.131Q234.53387 287.53983 234.19138 287.63925Q233.83781 287.72763 233.52846 287.61716Q233.23015 287.4956 232.55618 286.82166L230.02608 284.29153L229.4847 284.83292L228.91017 284.2584L229.45155 283.717L228.35774 282.6232L228.65604 281.441L230.19179 282.97678L230.94308 282.22546L231.51761 282.8L230.76631 283.5513L233.34062 286.1256Q233.66103 286.446 233.78256 286.50125Q233.91515 286.54544 234.05878 286.5123Q234.20241 286.47916 234.36813 286.31342Q234.50072 286.18085 234.6775 285.95987Z" />
	<path class="txt" fill="#000000" d="M263.613 299.15182L255.18295 295.42847L256.0558 294.55563L262.05515 297.3951Q262.77332 297.7376 263.36993 298.06906Q263.0164 297.42825 262.707 296.74323L259.9228 290.68863L260.7404 289.87103L264.44165 298.32318L263.613 299.15182ZM269.6234 293.14142L268.97153 292.48956Q269.20355 293.76013 268.31967 294.644Q267.93298 295.0307 267.44684 295.22958Q266.9607 295.40637 266.574 295.35114Q266.17627 295.28482 265.7785 295.01965Q265.52438 294.85394 265.03827 294.3678L262.3203 291.64987L263.07162 290.89856L265.51334 293.3403Q266.08786 293.91483 266.34198 294.08054Q266.69553 294.3015 267.0933 294.25732Q267.49103 294.19104 267.83353 293.8485Q268.165 293.51706 268.28653 293.0641Q268.40805 292.589 268.2313 292.16913Q268.06555 291.73825 267.50208 291.17477L265.14874 288.82144L265.889 288.08118L270.28632 292.47852L269.6234 293.14142ZM273.28046 286.6559L274.14224 285.97092Q274.63943 286.82166 274.5179 287.6945Q274.39636 288.56732 273.63403 289.32968Q272.6728 290.2909 271.50165 290.2688Q270.34155 290.23566 269.26984 289.16394Q268.165 288.05908 268.13184 286.8769Q268.08765 285.68365 268.99362 284.77768Q269.87753 283.8938 271.02658 283.938Q272.18668 283.97113 273.28046 285.06494Q273.34677 285.13123 273.47934 285.2638L270.19794 288.54523Q270.9713 289.23022 271.72263 289.25232Q272.4629 289.26337 273.01532 288.71094Q273.4241 288.30215 273.50143 287.80496Q273.57877 287.28568 273.28046 286.6559ZM269.63446 287.89337L272.08722 285.44058Q271.47955 284.9213 270.9713 284.8771Q270.17584 284.81082 269.61237 285.3743Q269.09308 285.8936 269.08203 286.58963Q269.08203 287.27463 269.63446 287.89337Z" />
	<path class="txt" fill="#000000" d="M278.6052 324.96124L272.5285 318.88452L274.81555 316.59747Q275.51163 315.90143 276.1193 315.6694Q276.72696 315.43738 277.34567 315.59207Q277.9644 315.72464 278.38425 316.1445Q278.77094 316.5312 278.9035 317.08362Q279.0361 317.63605 278.81512 318.27686Q279.5333 317.89017 280.2183 318.00064Q280.9033 318.08905 281.43362 318.61935Q281.8535 319.0392 282.05234 319.59164Q282.24017 320.13303 282.1739 320.59705Q282.1076 321.0611 281.79825 321.56934Q281.49994 322.0665 280.9254 322.64102L278.6052 324.96124ZM275.88727 320.6302L277.20203 319.31543Q277.73236 318.7851 277.8981 318.4868Q278.11908 318.08905 278.06384 317.72443Q277.99753 317.3488 277.67712 317.02838Q277.3788 316.73007 277.00317 316.64166Q276.6275 316.55328 276.27396 316.75217Q275.9204 316.92892 275.26855 317.5808L274.0532 318.79614L275.88727 320.6302ZM278.6936 323.43652L280.20724 321.92288Q280.59393 321.5362 280.71548 321.34836Q280.95856 321.0169 281.02484 320.72964Q281.09113 320.4203 280.9917 320.07776Q280.89224 319.73526 280.60498 319.448Q280.26248 319.1055 279.8316 319.02817Q279.41174 318.9398 279.00296 319.1497Q278.59415 319.35962 278.00858 319.9452L276.6054 321.34836L278.6936 323.43652ZM286.53806 315.94562Q286.47177 316.71902 286.2287 317.24936Q285.99667 317.76862 285.55475 318.21057Q284.82553 318.9398 284.0853 318.97293Q283.34503 319.00607 282.7926 318.45364Q282.4722 318.13324 282.35068 317.72443Q282.21808 317.3046 282.30646 316.90683Q282.38382 316.49805 282.60477 316.1224Q282.7484 315.8462 283.14615 315.33795Q283.94165 314.34357 284.21786 313.758Q284.0632 313.60333 284.03003 313.5702Q283.566 313.10614 283.16824 313.12823Q282.63794 313.17242 282.07446 313.7359Q281.55518 314.2552 281.4889 314.69714Q281.41153 315.12802 281.75403 315.7136L280.9254 316.34335Q280.5608 315.77988 280.50555 315.26062Q280.45032 314.74133 280.72653 314.15576Q281.00275 313.5702 281.56622 313.0067Q282.1297 312.44324 282.6158 312.22226Q283.10196 312.00128 283.46655 312.03442Q283.83118 312.06757 284.20682 312.31064Q284.4278 312.46533 284.925 312.96252L285.91934 313.95688Q286.95792 314.99545 287.27832 315.22748Q287.60977 315.44843 288.0075 315.55893L287.22308 316.34335Q286.88055 316.22183 286.53806 315.94562ZM284.80344 314.34357Q284.56036 314.9181 283.87537 315.8462Q283.4776 316.37653 283.37817 316.65274Q283.2677 316.91788 283.3119 317.18304Q283.36713 317.43716 283.566 317.63605Q283.86432 317.93436 284.28415 317.91226Q284.71506 317.87912 285.14594 317.4482Q285.57684 317.01733 285.72046 316.49805Q285.87515 315.9677 285.69836 315.48157Q285.5658 315.10593 285.07965 314.61978L284.80344 314.34357ZM290.4161 309.92416L291.24475 309.2944Q291.8745 310.16724 291.80823 311.0953Q291.7419 312.02338 291.02377 312.74155Q290.1178 313.64752 288.9798 313.61438Q287.8418 313.55914 286.73694 312.45428Q286.02982 311.74716 285.7315 310.98483Q285.4332 310.20038 285.64313 309.4601Q285.8641 308.70883 286.43863 308.1343Q287.14572 307.4272 287.96332 307.3388Q288.7809 307.22833 289.58746 307.76968L288.96875 308.60938Q288.42737 308.26688 287.94122 308.31107Q287.44403 308.3442 287.0684 308.71988Q286.5049 309.28336 286.56015 310.0457Q286.60434 310.797 287.47717 311.66983Q288.37213 312.56476 289.11237 312.62Q289.85263 312.67526 290.394 312.13388Q290.83594 311.69193 290.85803 311.1395Q290.89117 310.57602 290.4161 309.92416ZM293.3992 310.16724L287.3225 304.09055L288.07382 303.33923L291.54306 306.80847L291.50992 303.2619L292.48218 302.2896L292.4159 305.6042L297.04523 306.5212L296.1282 307.43823L292.4159 306.64273L292.40485 307.67026L294.1505 309.41592L293.3992 310.16724ZM298.32684 305.2396L297.6308 305.93564L291.5541 299.85895L292.3054 299.10764L294.47092 301.27316Q294.36044 300.2125 295.08963 299.48328Q295.49844 299.0745 296.0177 298.88666Q296.537 298.67676 297.06732 298.74304Q297.6087 298.79828 298.16113 299.08554Q298.71356 299.3728 299.18863 299.8479Q300.31558 300.97485 300.37085 302.15704Q300.4261 303.33923 299.65268 304.11264Q298.86823 304.89706 297.77444 304.68716L298.32684 305.2396ZM296.084 303.01883Q296.86844 303.80328 297.44296 303.93585Q298.37106 304.15683 298.96768 303.5602Q299.4538 303.07407 299.3875 302.30066Q299.33228 301.51624 298.48154 300.6655Q297.61975 299.8037 296.86844 299.7374Q296.11716 299.6711 295.631 300.15726Q295.14487 300.64337 295.21118 301.43887Q295.27747 302.21228 296.084 303.01883ZM300.11673 299.0524Q298.89032 297.82602 298.97873 296.56647Q299.05606 295.51688 299.87366 294.69928Q300.77963 293.79327 301.95078 293.8154Q303.12192 293.8154 304.17154 294.865Q305.02228 295.71573 305.2543 296.456Q305.4863 297.19623 305.26535 297.96964Q305.04437 298.72095 304.46985 299.29547Q303.55283 300.2125 302.39273 300.20145Q301.23264 300.1683 300.11673 299.0524ZM300.87906 298.29004Q301.71875 299.12973 302.5032 299.18497Q303.2987 299.2292 303.85114 298.67676Q304.4146 298.11328 304.35938 297.32883Q304.3041 296.54437 303.44232 295.6826Q302.62473 294.865 301.82925 294.8208Q301.0448 294.76556 300.49237 295.318Q299.93994 295.87042 299.98413 296.66592Q300.02832 297.4393 300.87906 298.29004ZM307.54135 296.0251L303.144 291.62778L303.80695 290.96487L304.42566 291.5836Q304.19363 290.3793 305.11066 289.46225Q305.50842 289.0645 305.9835 288.87668Q306.46964 288.67783 306.86737 288.7441Q307.26514 288.8104 307.64078 289.05347Q307.88385 289.23026 308.40314 289.7495L311.11002 292.45642L310.36978 293.19666L307.696 290.52292Q307.232 290.05887 306.92264 289.9263Q306.61325 289.7937 306.2597 289.8821Q305.8951 289.95944 305.5968 290.25775Q305.1217 290.73285 305.0775 291.39575Q305.03333 292.03656 305.87302 292.87625L308.2816 295.28485L307.54135 296.0251ZM314.0821 286.65594L314.94388 285.97092Q315.44104 286.82166 315.31952 287.6945Q315.19797 288.56732 314.43564 289.32968Q313.4744 290.2909 312.30325 290.2688Q311.14316 290.23566 310.07147 289.16394Q308.9666 288.05908 308.93347 286.8769Q308.88925 285.68365 309.79526 284.77768Q310.67914 283.8938 311.8282 283.938Q312.98828 283.97113 314.0821 285.06494Q314.14838 285.13123 314.28094 285.26382L310.99954 288.54523Q311.77295 289.23026 312.52423 289.25235Q313.2645 289.2634 313.81693 288.71097Q314.2257 288.30215 314.30304 287.805Q314.3804 287.2857 314.0821 286.65594ZM310.43607 287.89337L312.88882 285.44058Q312.28116 284.9213 311.77295 284.8771Q310.97745 284.81082 310.41397 285.3743Q309.89468 285.8936 309.88364 286.58963Q309.88364 287.27466 310.43607 287.89337Z" />
	<path class="txt" fill="#000000" d="M327.96945 316.3986L324.224 307.99066L325.0858 307.12888L333.6484 310.71964L332.74243 311.62564L330.17917 310.4987L327.64905 313.02878L328.8202 315.54785L327.96945 316.3986ZM327.22922 312.1449L329.28424 310.08987L326.9751 309.04025Q325.91443 308.57623 325.28467 308.21164Q325.7487 308.91873 326.1133 309.7032L327.22922 312.1449ZM333.49374 310.87433L329.0964 306.47702L329.7593 305.8141L330.37805 306.4328Q330.14603 305.22852 331.06305 304.3115Q331.4608 303.91376 331.93588 303.72592Q332.42203 303.52704 332.81976 303.59332Q333.21753 303.65964 333.59317 303.9027Q333.83624 304.07947 334.35553 304.59875L337.0624 307.30563L336.32214 308.0459L333.6484 305.37216Q333.18436 304.9081 332.875 304.77554Q332.56564 304.64294 332.2121 304.73132Q331.8475 304.8087 331.5492 305.107Q331.0741 305.58206 331.0299 306.245Q330.98572 306.8858 331.8254 307.7255L334.23398 310.13406L333.49374 310.87433ZM338.66446 306.4328L339.50415 305.8141Q339.8798 306.10135 340.2444 306.0461Q340.73053 305.97983 341.20563 305.50473Q341.72488 304.98544 341.7912 304.49933Q341.86853 304.00214 341.60336 303.5381Q341.43762 303.23978 340.6974 302.52164Q340.78577 303.58228 340.05658 304.3115Q339.15057 305.21747 338.00153 305.0628Q336.84143 304.89706 335.93546 303.9911Q335.3057 303.36133 334.99634 302.61002Q334.68698 301.8366 334.8306 301.11847Q334.97424 300.4003 335.5598 299.81473Q336.34427 299.03027 337.48227 299.15182L336.95193 298.6215L337.63693 297.9365L341.43762 301.73718Q342.46515 302.7647 342.68613 303.40552Q342.9071 304.04633 342.69717 304.74237Q342.4983 305.4495 341.8354 306.1124Q341.05093 306.89685 340.21124 307.02942Q339.37155 307.16202 338.66446 306.4328ZM336.64258 303.1735Q337.50436 304.03528 338.2446 304.0905Q338.98486 304.14575 339.50415 303.6265Q340.0234 303.1072 339.96817 302.36694Q339.92398 301.61563 339.0843 300.77597Q338.27774 299.96942 337.50436 299.92523Q336.742 299.86996 336.23376 300.3782Q335.73657 300.8754 335.79184 301.63776Q335.84708 302.378 336.64258 303.1735ZM346.2769 298.09116L345.62503 297.4393Q345.85706 298.70987 344.97318 299.59375Q344.58646 299.98047 344.10034 300.17932Q343.6142 300.3561 343.2275 300.30087Q342.82974 300.2346 342.432 299.96942Q342.1779 299.80368 341.69174 299.31754L338.97382 296.5996L339.7251 295.8483L342.16684 298.29004Q342.74136 298.86456 342.99548 299.03027Q343.34903 299.25125 343.74677 299.20706Q344.14453 299.14078 344.48703 298.79828Q344.81848 298.4668 344.94003 298.01382Q345.06155 297.53873 344.88477 297.1189Q344.71906 296.688 344.15558 296.1245L341.80225 293.77118L342.54248 293.0309L346.93982 297.42825L346.2769 298.09116ZM348.32086 296.04718L342.24417 289.9705L342.99548 289.21918L349.07217 295.29587L348.32086 296.04718ZM352.79553 290.48978Q352.72925 291.26315 352.48618 291.7935Q352.25415 292.31277 351.81223 292.7547Q351.083 293.48392 350.34277 293.51706Q349.6025 293.5502 349.05008 292.99777Q348.72968 292.67737 348.60812 292.2686Q348.47556 291.84872 348.56393 291.451Q348.6413 291.04218 348.86224 290.66653Q349.0059 290.39032 349.40363 289.88208Q350.19913 288.88773 350.47534 288.30215Q350.32065 288.14746 350.2875 288.11432Q349.8235 287.6503 349.42572 287.6724Q348.8954 287.71658 348.3319 288.28006Q347.81265 288.79935 347.74634 289.24127Q347.669 289.67218 348.0115 290.25775L347.18286 290.8875Q346.81827 290.32404 346.76303 289.80475Q346.7078 289.28546 346.984 288.6999Q347.26022 288.11432 347.8237 287.55084Q348.38718 286.98737 348.8733 286.76642Q349.35944 286.54544 349.72403 286.57858Q350.08865 286.61172 350.4643 286.8548Q350.68527 287.00946 351.18243 287.50665L352.17682 288.50104Q353.2154 289.53958 353.5358 289.7716Q353.86725 289.99258 354.26498 290.10306L353.48056 290.8875Q353.13803 290.766 352.79553 290.48978ZM351.0609 288.88773Q350.81784 289.46225 350.13284 290.39032Q349.73508 290.92065 349.63565 291.19687Q349.52518 291.46204 349.56937 291.7272Q349.6246 291.98132 349.8235 292.18018Q350.1218 292.47852 350.54163 292.4564Q350.97253 292.42325 351.4034 291.99237Q351.83432 291.56146 351.97794 291.04218Q352.13263 290.51187 351.95584 290.02573Q351.82327 289.6501 351.33713 289.16394L351.0609 288.88773ZM355.40298 288.96506L351.00568 284.56775L351.67963 283.89377L352.34256 284.5567Q352.13263 283.83853 352.1989 283.485Q352.2652 283.10934 352.53036 282.84418Q352.90604 282.4685 353.52475 282.31384L353.96667 283.264Q353.52475 283.3745 353.25958 283.63968Q353.00546 283.89377 352.96127 284.24734Q352.91708 284.5788 353.1049 284.9213Q353.37006 285.45163 353.8341 285.91568L356.14325 288.22482L355.40298 288.96506Z" />
	<path class="txt" fill="#000000" d="M348.93893 336.23074L342.86224 330.15405L345.55807 327.4582Q346.37567 326.6406 346.96124 326.3865Q347.5468 326.1324 348.22076 326.2981Q348.8837 326.4528 349.38086 326.94998Q350.03275 327.60184 350.05484 328.46362Q350.07693 329.3254 349.32562 330.31976Q349.80072 330.15405 350.11008 330.13196Q350.78403 330.09882 351.57953 330.27557L354.2975 330.8722L353.281 331.88867L351.22598 331.42462Q350.32 331.22574 349.80072 331.1705Q349.29248 331.10422 348.99417 331.18155Q348.69586 331.23682 348.4528 331.3694Q348.29813 331.47986 347.98877 331.7892L347.04962 332.72836L349.74548 335.4242L348.93893 336.23074ZM346.35358 332.0323L348.0882 330.29767Q348.62958 329.7563 348.82846 329.33646Q349.0273 328.8945 348.93893 328.49677Q348.85056 328.0769 348.55225 327.7786Q348.12134 327.34772 347.52472 327.3919Q346.93915 327.42505 346.2652 328.09903L344.34274 330.02145L346.35358 332.0323ZM356.79443 325.5468L357.65622 324.8618Q358.1534 325.71252 358.0319 326.58536Q357.91034 327.4582 357.148 328.22055Q356.18677 329.18176 355.01562 329.15967Q353.85553 329.12653 352.7838 328.0548Q351.679 326.94998 351.6458 325.76776Q351.60162 324.57452 352.5076 323.66855Q353.3915 322.78467 354.54056 322.82886Q355.70065 322.862 356.79443 323.9558Q356.86075 324.0221 356.99332 324.1547L353.7119 327.4361Q354.4853 328.12112 355.2366 328.14322Q355.97687 328.15427 356.5293 327.60184Q356.93808 327.19302 357.0154 326.69586Q357.09274 326.17657 356.79443 325.5468ZM353.14844 326.78424L355.6012 324.33145Q354.99353 323.8122 354.4853 323.76797Q353.68982 323.7017 353.12634 324.26517Q352.60706 324.78445 352.596 325.4805Q352.596 326.16553 353.14844 326.78424ZM362.48444 321.60248Q362.41815 322.37585 362.17508 322.9062Q361.94305 323.42548 361.50113 323.86743Q360.7719 324.59662 360.03168 324.62976Q359.2914 324.6629 358.73898 324.1105Q358.41858 323.79007 358.29706 323.3813Q358.16446 322.96146 358.25287 322.5637Q358.3302 322.1549 358.55118 321.77924Q358.6948 321.50302 359.09253 320.9948Q359.88803 320.00043 360.16425 319.41486Q360.00958 319.2602 359.97644 319.22702Q359.5124 318.763 359.11465 318.7851Q358.58432 318.82928 358.02084 319.39276Q357.50156 319.91205 357.43527 320.35397Q357.3579 320.78488 357.70044 321.37045L356.8718 322.0002Q356.50717 321.43674 356.45193 320.91745Q356.3967 320.3982 356.6729 319.81262Q356.94913 319.22702 357.5126 318.66354Q358.07608 318.1001 358.56223 317.87912Q359.04834 317.65814 359.41296 317.69128Q359.77756 317.72443 360.1532 317.9675Q360.37418 318.1222 360.87137 318.61935L361.86572 319.61374Q362.9043 320.65228 363.2247 320.8843Q363.55615 321.1053 363.9539 321.21576L363.16946 322.0002Q362.82697 321.8787 362.48444 321.60248ZM360.74982 320.00043Q360.50674 320.57495 359.82175 321.50302Q359.424 322.03336 359.32455 322.30957Q359.21408 322.57474 359.25827 322.8399Q359.3135 323.09402 359.5124 323.2929Q359.8107 323.59122 360.23053 323.56912Q360.66144 323.53598 361.09232 323.10507Q361.52322 322.6742 361.66684 322.1549Q361.82153 321.62457 361.64474 321.13843Q361.51218 320.7628 361.02603 320.27664L360.74982 320.00043ZM366.3625 315.58102L367.19113 314.95126Q367.8209 315.8241 367.7546 316.75217Q367.68832 317.68024 366.97015 318.3984Q366.06418 319.30438 364.92618 319.27124Q363.78818 319.21597 362.68332 318.11115Q361.97623 317.40402 361.67792 316.64166Q361.37958 315.85724 361.5895 315.11697Q361.8105 314.36566 362.385 313.79114Q363.0921 313.08405 363.9097 312.99567Q364.7273 312.88516 365.53384 313.42654L364.91513 314.26624Q364.37375 313.92374 363.8876 313.96793Q363.39044 314.00107 363.01477 314.3767Q362.4513 314.9402 362.50653 315.70255Q362.55075 316.45386 363.42358 317.3267Q364.3185 318.22162 365.05875 318.27686Q365.799 318.3321 366.3404 317.7907Q366.78232 317.3488 366.8044 316.79636Q366.8376 316.23288 366.3625 315.58102ZM370.30682 313.53705L371.06915 314.0784Q370.81506 314.46512 370.572 314.7082Q370.16318 315.11697 369.82068 315.2164Q369.46713 315.3048 369.15778 315.1943Q368.85947 315.07278 368.1855 314.39883L365.65536 311.8687L365.114 312.4101L364.5395 311.83557L365.08084 311.2942L363.98706 310.20038L364.28537 309.0182L365.8211 310.55392L366.57242 309.8026L367.14694 310.37714L366.39563 311.12845L368.96994 313.70276Q369.29034 314.02316 369.4119 314.0784Q369.54446 314.12262 369.6881 314.08945Q369.83173 314.0563 369.99747 313.8906Q370.13004 313.758 370.30682 313.53705ZM369.34558 312.17807L368.5943 311.42676L370.8924 309.12866L371.64368 309.87997L369.34558 312.17807ZM374.39478 310.7749L368.31808 304.6982L371.01392 302.00235Q371.8315 301.18475 372.41708 300.93063Q373.00266 300.67654 373.67664 300.84225Q374.33954 300.99695 374.83673 301.4941Q375.4886 302.146 375.51068 303.00778Q375.53278 303.86957 374.78146 304.86392Q375.25656 304.6982 375.56592 304.67612Q376.2399 304.64294 377.03537 304.81973L379.75333 305.41635L378.73685 306.43283L376.68182 305.96878Q375.77585 305.7699 375.25656 305.71466Q374.74832 305.64838 374.45 305.7257Q374.1517 305.78094 373.90863 305.91354Q373.75397 306.02402 373.4446 306.33337L372.50546 307.27252L375.20132 309.96835L374.39478 310.7749ZM371.80942 306.57645L373.54404 304.84183Q374.08542 304.30045 374.2843 303.8806Q374.48315 303.43866 374.39478 303.04092Q374.3064 302.62106 374.0081 302.32275Q373.57718 301.89188 372.98056 301.93607Q372.395 301.9692 371.72104 302.64316L369.79858 304.5656L371.80942 306.57645ZM382.2503 300.09094L383.1121 299.40594Q383.60925 300.25668 383.48773 301.12952Q383.36618 302.00235 382.60385 302.7647Q381.6426 303.72592 380.47147 303.70383Q379.31137 303.6707 378.2397 302.59897Q377.13483 301.4941 377.10168 300.31192Q377.05746 299.11868 377.96347 298.2127Q378.84735 297.32883 379.9964 297.37302Q381.1565 297.40616 382.2503 298.49997Q382.3166 298.56625 382.44916 298.69885L379.16776 301.98026Q379.94113 302.66528 380.69244 302.68738Q381.4327 302.69843 381.98514 302.146Q382.39392 301.73718 382.47125 301.24002Q382.5486 300.72073 382.2503 300.09094ZM378.60428 301.3284L381.05704 298.8756Q380.44937 298.35632 379.94113 298.31213Q379.14566 298.24585 378.58218 298.80933Q378.0629 299.3286 378.05185 300.02466Q378.05185 300.7097 378.60428 301.3284ZM388.45956 296.7101L387.90714 296.15768Q388.13916 297.22937 387.3326 298.03592Q386.80228 298.56625 386.0731 298.72095Q385.33282 298.86456 384.5705 298.58835Q383.80814 298.31213 383.1342 297.63818Q382.4823 296.98633 382.1619 296.22397Q381.8415 295.4616 382.00723 294.74347Q382.1619 294.01425 382.70328 293.47287Q383.10104 293.07513 383.5761 292.9315Q384.0512 292.78787 384.51523 292.85416L382.33868 290.6776L383.07892 289.93735L389.15564 296.01404L388.45956 296.7101ZM383.90756 296.86478Q384.7583 297.7155 385.5317 297.7818Q386.29407 297.83707 386.78018 297.35092Q387.26633 296.86478 387.2111 296.12454Q387.15585 295.38428 386.33826 294.56668Q385.43228 293.6607 384.65887 293.59442Q383.8965 293.51706 383.3883 294.0253Q382.8911 294.5225 382.96844 295.26276Q383.03473 295.99194 383.90756 296.86478ZM393.44247 291.7272L392.7906 291.07535Q393.0226 292.34592 392.13873 293.2298Q391.75204 293.61652 391.2659 293.8154Q390.77975 293.99216 390.39307 293.93692Q389.99533 293.87064 389.59756 293.60547Q389.34344 293.43973 388.85733 292.9536L386.13937 290.23566L386.8907 289.48434L389.3324 291.9261Q389.90692 292.5006 390.16104 292.66635Q390.5146 292.8873 390.91235 292.8431Q391.3101 292.77682 391.6526 292.43433Q391.98407 292.10287 392.1056 291.64987Q392.2271 291.17477 392.05035 290.75494Q391.8846 290.32404 391.32114 289.76056L388.9678 287.40723L389.70807 286.667L394.10538 291.0643L393.44247 291.7272ZM395.01135 290.15833L394.32635 286.26923L390.73557 285.63947L391.66364 284.7114L393.3651 285.06494Q393.85126 285.1754 394.17166 285.25278Q394.07224 284.79977 394.017 284.43518L393.7187 282.65634L394.61362 281.7614L395.155 285.3522L399.12143 286.04825L398.21542 286.95425L395.93942 286.4902L395.33176 286.36865L395.90628 289.2634L395.01135 290.15833Z" />
	<path class="txt" fill="#000000" d="M417.31772 308.65356L411.24103 302.57687L413.93686 299.881Q414.75446 299.06345 415.34003 298.80933Q415.9256 298.5552 416.59958 298.72092Q417.26248 298.8756 417.75967 299.3728Q418.41153 300.02466 418.43362 300.88644Q418.45572 301.74823 417.70444 302.74258Q418.1795 302.57687 418.48886 302.55478Q419.16284 302.52164 419.95834 302.6984L422.67627 303.295L421.65982 304.3115L419.60477 303.84744Q418.6988 303.6486 418.1795 303.59332Q417.6713 303.52704 417.373 303.60437Q417.07465 303.65964 416.8316 303.7922Q416.6769 303.90268 416.36755 304.21207L415.42844 305.15118L418.12427 307.84702L417.31772 308.65356ZM414.73236 304.4551L416.46698 302.7205Q417.00836 302.1791 417.20724 301.75928Q417.40613 301.31732 417.31772 300.9196Q417.22934 300.49976 416.93103 300.20142Q416.50012 299.77054 415.9035 299.81473Q415.31793 299.84787 414.64398 300.52185L412.72153 302.44427L414.73236 304.4551ZM425.17325 297.96964L426.03503 297.2846Q426.53223 298.13535 426.41068 299.00818Q426.28915 299.881 425.5268 300.64337Q424.56558 301.60458 423.39444 301.5825Q422.23434 301.54935 421.16263 300.47763Q420.05777 299.3728 420.02463 298.19058Q419.98044 296.99734 420.8864 296.09137Q421.7703 295.2075 422.91934 295.25168Q424.07944 295.28482 425.17325 296.37863Q425.23953 296.44492 425.37213 296.5775L422.0907 299.85892Q422.8641 300.54395 423.6154 300.56604Q424.35565 300.5771 424.90808 300.02466Q425.31686 299.61584 425.39423 299.11868Q425.47156 298.5994 425.17325 297.96964ZM421.52722 299.20706L423.98 296.75427Q423.37234 296.23502 422.8641 296.1908Q422.0686 296.1245 421.50513 296.688Q420.98584 297.20728 420.9748 297.90332Q420.9748 298.58835 421.52722 299.20706ZM430.86325 294.0253Q430.79694 294.7987 430.5539 295.329Q430.32187 295.8483 429.8799 296.29025Q429.15073 297.01944 428.41046 297.05258Q427.67023 297.08575 427.1178 296.53333Q426.79736 296.21292 426.67584 295.8041Q426.54327 295.38428 426.63165 294.9865Q426.70898 294.57773 426.92996 294.2021Q427.07358 293.92587 427.47134 293.41763Q428.26685 292.42325 428.54306 291.83768Q428.38837 291.683 428.35522 291.64987Q427.89117 291.18582 427.49344 291.20792Q426.9631 291.2521 426.39963 291.81558Q425.88034 292.33487 425.81406 292.77682Q425.73672 293.2077 426.07922 293.79327L425.25058 294.42303Q424.886 293.85956 424.83075 293.34027Q424.77548 292.821 425.0517 292.23544Q425.3279 291.64987 425.8914 291.0864Q426.45486 290.52292 426.941 290.30194Q427.42715 290.08096 427.79175 290.1141Q428.15634 290.14725 428.532 290.39032Q428.75296 290.545 429.25015 291.04218L430.24454 292.03656Q431.28308 293.07513 431.6035 293.30713Q431.93494 293.5281 432.3327 293.6386L431.54825 294.42303Q431.20575 294.3015 430.86325 294.0253ZM429.12863 292.42325Q428.88556 292.99777 428.20053 293.92587Q427.8028 294.45618 427.70337 294.7324Q427.59286 294.99756 427.63705 295.26273Q427.69232 295.51685 427.89117 295.71573Q428.18948 296.01404 428.60934 295.99194Q429.04022 295.9588 429.47113 295.5279Q429.902 295.09702 430.04565 294.57773Q430.20032 294.0474 430.02356 293.56125Q429.89096 293.1856 429.40485 292.69946L429.12863 292.42325ZM434.74127 288.00385L435.56992 287.37408Q436.19968 288.24692 436.1334 289.175Q436.0671 290.10306 435.34894 290.82123Q434.44296 291.7272 433.30496 291.69406Q432.16696 291.63882 431.0621 290.53397Q430.355 289.82684 430.0567 289.0645Q429.7584 288.28006 429.96832 287.5398Q430.18927 286.7885 430.7638 286.214Q431.47092 285.50687 432.2885 285.4185Q433.1061 285.30798 433.91263 285.84937L433.2939 286.68906Q432.75253 286.34656 432.26642 286.39075Q431.76923 286.4239 431.3936 286.79956Q430.8301 287.36304 430.88535 288.12537Q430.92953 288.87668 431.80237 289.7495Q432.6973 290.64444 433.43756 290.69968Q434.1778 290.7549 434.71918 290.21356Q435.16113 289.7716 435.18323 289.21918Q435.21637 288.6557 434.74127 288.00385ZM438.6856 285.95987L439.44797 286.50125Q439.19385 286.88794 438.95078 287.131Q438.542 287.5398 438.19946 287.63925Q437.84592 287.72763 437.53656 287.61713Q437.23825 287.4956 436.5643 286.82166L434.03418 284.29153L433.4928 284.83292L432.91827 284.2584L433.45966 283.717L432.36584 282.6232L432.66415 281.441L434.1999 282.97675L434.9512 282.22546L435.52573 282.8L434.7744 283.55127L437.34872 286.12558Q437.66916 286.44598 437.79068 286.50125Q437.92325 286.54544 438.0669 286.5123Q438.2105 286.47913 438.37625 286.31342Q438.50882 286.18082 438.6856 285.95987Z" />
	<path class="txt" fill="#000000" d="M464.49435 302.27856L458.41763 296.20187L462.80392 291.81558L463.52206 292.53375L459.94235 296.1135L461.7985 297.96964L465.15726 294.61087L465.87543 295.32904L462.51666 298.6878L464.58273 300.75388L468.3061 297.03052L469.02426 297.74866L464.49435 302.27856ZM467.90836 294.95337L468.59335 294.1358Q469.11264 294.5446 469.5988 294.63297Q470.0849 294.72137 470.68152 294.5004Q471.27817 294.25732 471.79742 293.73804Q472.25043 293.28506 472.4714 292.79892Q472.6813 292.30173 472.61502 291.904Q472.54874 291.48413 472.27252 291.20792Q471.98526 290.92065 471.60962 290.87646Q471.2229 290.82123 470.7036 291.05325Q470.35007 291.20792 469.31152 291.84875Q468.284 292.47852 467.77576 292.63318Q467.1018 292.8431 466.56042 292.7216Q466.008 292.589 465.58817 292.16916Q465.13516 291.71616 464.99155 291.0643Q464.8479 290.39032 465.1462 289.69427Q465.44452 288.97614 466.0522 288.36844Q466.72617 287.6945 467.4664 287.39618Q468.19562 287.08682 468.9027 287.2415Q469.5988 287.38513 470.1512 287.89337L469.43304 288.72202Q468.79224 288.21378 468.14038 288.2911Q467.4885 288.34634 466.79245 289.04242Q466.06323 289.7716 465.99695 290.36823Q465.93066 290.96484 466.3063 291.3405Q466.63776 291.67197 467.0797 291.64987Q467.52164 291.62778 468.7149 290.87646Q469.9192 290.11414 470.44952 289.91525Q471.23395 289.63904 471.86374 289.76056Q472.48245 289.87106 472.9796 290.36823Q473.46576 290.85437 473.62045 291.5615Q473.76407 292.25754 473.48785 293.0199Q473.2006 293.77118 472.54874 294.42307Q471.7201 295.2517 470.9246 295.58316Q470.1291 295.89252 469.32257 295.72678Q468.52707 295.55002 467.90836 294.95337ZM473.89667 289.69427L474.6148 288.84354Q475.27774 289.32968 475.87436 289.3076Q476.48203 289.27444 476.935 288.82144Q477.46533 288.2911 477.4322 287.50665Q477.39905 286.72223 476.73615 286.0593Q476.0953 285.4185 475.36612 285.4185Q474.6369 285.3964 474.05133 285.98196Q473.69778 286.3355 473.56522 286.79956Q473.44366 287.25256 473.53204 287.6724L472.74762 288.28006L470.2175 284.5788L473.24478 281.5515L473.9519 282.2586L471.5212 284.6893L472.836 286.64487Q472.9907 285.7168 473.5873 285.12018Q474.38278 284.32468 475.4766 284.33572Q476.58145 284.33572 477.45428 285.20856Q478.27188 286.02615 478.40445 287.10892Q478.5481 288.4237 477.54266 289.4291Q476.71405 290.25775 475.71967 290.32404Q474.73636 290.37927 473.89667 289.69427Z" />
	<path class="txt" fill="#000000" d="M505.29596 302.27856L499.21927 296.20187L503.60553 291.8156L504.32367 292.53375L500.74396 296.1135L502.6001 297.96964L505.95886 294.6109L506.67703 295.32904L503.31827 298.6878L505.38434 300.75388L509.1077 297.03052L509.82587 297.7487L505.29596 302.27856ZM508.70996 294.9534L509.39496 294.1358Q509.91425 294.5446 510.4004 294.633Q510.8865 294.72137 511.48315 294.5004Q512.0798 294.25732 512.59906 293.73807Q513.05206 293.28506 513.273 292.79892Q513.4829 292.30176 513.4166 291.904Q513.35034 291.48416 513.07416 291.20795Q512.78687 290.9207 512.4112 290.8765Q512.02454 290.82123 511.50525 291.05325Q511.15167 291.20795 510.11313 291.84875Q509.0856 292.47852 508.57736 292.6332Q507.9034 292.8431 507.36203 292.7216Q506.8096 292.58902 506.38977 292.16916Q505.93677 291.71616 505.79315 291.0643Q505.6495 290.39035 505.9478 289.69427Q506.24612 288.97614 506.8538 288.36847Q507.52777 287.6945 508.268 287.39618Q508.99722 287.08682 509.7043 287.24152Q510.4004 287.38513 510.95282 287.89337L510.23465 288.72202Q509.59384 288.21378 508.942 288.2911Q508.2901 288.34637 507.59406 289.04242Q506.86484 289.77164 506.79855 290.36826Q506.73227 290.96487 507.1079 291.3405Q507.43936 291.67197 507.88132 291.64987Q508.32324 291.62778 509.5165 290.8765Q510.7208 290.11414 511.25113 289.91525Q512.0356 289.63904 512.66534 289.7606Q513.28406 289.87106 513.78125 290.36826Q514.2674 290.85437 514.42206 291.5615Q514.5657 292.25754 514.2895 293.0199Q514.0022 293.7712 513.35034 294.42307Q512.5217 295.2517 511.7262 295.58316Q510.93073 295.89252 510.12418 295.72678Q509.32867 295.55002 508.70996 294.9534ZM515.5711 282.83313L514.8861 283.62863Q514.3447 283.28613 513.96906 283.26404Q513.3393 283.253 512.89734 283.69492Q512.5438 284.0485 512.46643 284.52356Q512.3891 285.13123 512.6764 285.83835Q512.9636 286.52335 513.8586 287.44037Q513.71497 286.76642 513.9028 286.18085Q514.1016 285.58423 514.53253 285.15332Q515.27277 284.4131 516.3445 284.44623Q517.42725 284.46832 518.28906 285.3301Q518.8636 285.90463 519.1066 286.65594Q519.34973 287.38513 519.18396 288.0812Q519.0072 288.7662 518.4658 289.3076Q517.5267 290.2467 516.2561 290.14728Q514.98553 290.04785 513.4166 288.47894Q511.64886 286.71118 511.50525 285.26382Q511.37265 284.00427 512.33386 283.04306Q513.05206 282.32492 513.9138 282.2807Q514.77563 282.21442 515.5711 282.83313ZM515.15125 288.49Q515.53796 288.8767 516.0462 289.07556Q516.55444 289.25235 517.0295 289.1529Q517.5156 289.04242 517.8471 288.71097Q518.31116 288.24692 518.278 287.52878Q518.2338 286.79956 517.5819 286.1477Q516.95215 285.51794 516.24506 285.49585Q515.549 285.4627 515.0408 285.97092Q514.53253 286.47916 514.5436 287.19733Q514.5657 287.90442 515.15125 288.49Z" />
	<path class="txt" fill="#000000" d="M532.2869 305.68152L531.41406 304.8087L532.16534 304.05737L533.0382 304.9302L532.2869 305.68152ZM538.26416 313.53702L537.7559 312.76364Q538.0432 312.58685 538.16473 312.46533Q538.3967 312.2333 538.35254 311.96814Q538.3194 311.71402 537.71173 311.10635L533.09344 306.48807L533.8447 305.73676L538.48517 310.37714Q539.2917 311.1837 539.40216 311.71402Q539.5458 312.4101 538.92706 313.0288Q538.61774 313.33817 538.26416 313.53702ZM543.66693 303.40552Q544.61707 303.22873 545.2579 302.94147L545.58936 303.73697Q544.6944 304.14578 543.5343 304.2894Q543.236 305.33902 542.4184 306.15662Q541.5898 306.98526 540.51807 307.26144Q539.4574 307.5266 538.37463 307.17307Q537.2919 306.81952 536.3859 305.91354Q535.49097 305.01862 535.11536 303.91376Q534.7397 302.8089 535.0269 301.74823Q535.3142 300.68756 536.1428 299.85895Q536.98254 299.01926 538.0653 298.7541Q539.1481 298.46683 540.2198 298.83142Q541.29144 299.196 542.19745 300.102Q542.9487 300.8533 543.31335 301.68195Q543.689 302.49954 543.66693 303.40552ZM540.87164 304.14578Q541.76654 303.6486 542.60626 303.5823Q542.6615 302.22333 541.36884 300.93063Q540.62854 300.1904 539.822 299.8921Q539.01544 299.59378 538.231 299.7816Q537.4466 299.94733 536.85 300.54395Q535.944 301.44992 535.96606 302.66525Q535.98816 303.85852 537.21454 305.0849Q538.3967 306.2671 539.62317 306.32233Q540.8385 306.36652 541.7555 305.4495Q542.1864 305.01862 542.3963 304.47723Q541.7776 304.6098 541.2583 304.9302L540.87164 304.14578ZM548.8708 299.50537L548.21893 298.85352Q548.4509 300.1241 547.567 301.008Q547.18036 301.39468 546.6942 301.59357Q546.20807 301.77032 545.82135 301.7151Q545.42365 301.6488 545.0259 301.38364Q544.7718 301.2179 544.28564 300.73178L541.5677 298.01382L542.319 297.2625L544.76074 299.70425Q545.33527 300.27878 545.58936 300.44452Q545.94293 300.66547 546.34064 300.62128Q546.7384 300.555 547.08093 300.2125Q547.41235 299.88104 547.5339 299.42804Q547.65546 298.95294 547.47864 298.5331Q547.3129 298.1022 546.74945 297.53873L544.3961 295.1854L545.13635 294.44516L549.5337 298.84247L548.8708 299.50537ZM552.52783 293.0199L553.38965 292.33487Q553.88684 293.1856 553.76526 294.05844Q553.64374 294.93127 552.8814 295.69363Q551.92017 296.65485 550.749 296.63275Q549.5889 296.5996 548.5172 295.5279Q547.41235 294.42307 547.3792 293.24084Q547.335 292.0476 548.241 291.14163Q549.1249 290.25775 550.2739 290.30194Q551.434 290.33508 552.52783 291.4289Q552.5941 291.49518 552.7267 291.62778L549.4453 294.90918Q550.2187 295.5942 550.97 295.6163Q551.71027 295.62735 552.2627 295.07492Q552.67145 294.6661 552.74884 294.16895Q552.8262 293.64966 552.52783 293.0199ZM548.88184 294.25732L551.3346 291.80453Q550.7269 291.28528 550.2187 291.24106Q549.4232 291.17477 548.85974 291.73825Q548.34045 292.25754 548.3294 292.95358Q548.3294 293.6386 548.88184 294.25732ZM555.87555 292.5006L551.4782 288.10327L552.15216 287.42932L552.8151 288.09222Q552.60516 287.37408 552.67145 287.02054Q552.73773 286.64487 553.0029 286.3797Q553.3786 286.00406 553.9973 285.8494L554.4392 286.79956Q553.9973 286.91003 553.7321 287.1752Q553.478 287.42932 553.43384 287.78287Q553.38965 288.11432 553.57745 288.45685Q553.8426 288.98718 554.30664 289.4512L556.6158 291.76035L555.87555 292.5006ZM560.3723 291.3847L559.5878 290.77704Q559.8972 290.60025 560.085 290.41245Q560.3281 290.16937 560.38336 289.93735Q560.4607 289.70532 560.4165 289.46225Q560.36127 289.27444 560.085 288.66675Q560.04083 288.60046 559.97455 288.4237L553.88684 285.6947L554.69336 284.88815L558.15155 286.5123Q558.81445 286.82166 559.49945 287.2194Q559.1128 286.56754 558.8034 285.90463L557.17926 282.40222L557.91956 281.662L560.7258 287.80496Q561.1678 288.79935 561.30035 289.21918Q561.4772 289.7937 561.37775 290.2246Q561.30035 290.6555 560.94684 291.00906Q560.7369 291.21896 560.3723 291.3847Z" />
	<path fill="#4285f4" d="M197.5 20.55C197.5 19.997715 197.94771 19.55 198.5 19.55L208.5 19.55C209.05229 19.55 209.5 19.997715 209.5 20.55L209.5 30.55C209.5 31.102285 209.05229 31.55 208.5 31.55L198.5 31.55C197.94771 31.55 197.5 31.102285 197.5 30.55Z" />
	<path class="title" fill="#1a1a1a" d="M224.5625 26.534374L225.6875 26.83125Q225.32812 28.221874 224.40625 28.95625Q223.48438 29.690624 222.14062 29.690624Q220.75 29.690624 219.875 29.128124Q219.0 28.565624 218.54688 27.503124Q218.09375 26.425 218.09375 25.190624Q218.09375 23.846874 218.60938 22.846874Q219.125 21.846874 220.0625 21.33125Q221.01562 20.815624 222.15625 20.815624Q223.4375 20.815624 224.3125 21.471874Q225.20312 22.128124 225.54688 23.315624L224.42188 23.58125Q224.125 22.64375 223.54688 22.221874Q222.98438 21.784374 222.125 21.784374Q221.14062 21.784374 220.46875 22.26875Q219.8125 22.7375 219.53125 23.534374Q219.26562 24.33125 219.26562 25.190624Q219.26562 26.284374 219.57812 27.096874Q219.90625 27.909374 220.57812 28.315624Q221.25 28.721874 222.04688 28.721874Q223.0 28.721874 223.65625 28.175Q224.32812 27.628124 224.5625 26.534374ZM227.29688 29.55L227.29688 20.95625L228.34375 20.95625L228.34375 24.034374Q229.07812 23.190624 230.20312 23.190624Q230.90625 23.190624 231.40625 23.471874Q231.92188 23.7375 232.14062 24.221874Q232.35938 24.690624 232.35938 25.6125L232.35938 29.55L231.3125 29.55L231.3125 25.6125Q231.3125 24.815624 230.96875 24.45625Q230.625 24.096874 230.0 24.096874Q229.53125 24.096874 229.10938 24.346874Q228.70312 24.58125 228.51562 25.003124Q228.34375 25.409374 228.34375 26.14375L228.34375 29.55L227.29688 29.55ZM234.28125 29.55L234.28125 23.33125L235.23438 23.33125L235.23438 24.26875Q235.59375 23.6125 235.89062 23.409374Q236.20312 23.190624 236.57812 23.190624Q237.10938 23.190624 237.65625 23.51875L237.29688 24.503124Q236.90625 24.26875 236.53125 24.26875Q236.17188 24.26875 235.89062 24.4875Q235.625 24.690624 235.51562 25.065624Q235.32812 25.628124 235.32812 26.284374L235.32812 29.55L234.28125 29.55ZM237.90625 26.440624Q237.90625 24.70625 238.85938 23.878124Q239.65625 23.190624 240.8125 23.190624Q242.09375 23.190624 242.90625 24.034374Q243.73438 24.8625 243.73438 26.346874Q243.73438 27.55 243.375 28.2375Q243.01562 28.925 242.3125 29.315624Q241.625 29.690624 240.8125 29.690624Q239.51562 29.690624 238.70312 28.8625Q237.90625 28.01875 237.90625 26.440624ZM238.98438 26.440624Q238.98438 27.628124 239.5 28.221874Q240.03125 28.815624 240.8125 28.815624Q241.60938 28.815624 242.125 28.221874Q242.64062 27.628124 242.64062 26.409374Q242.64062 25.253124 242.10938 24.659374Q241.59375 24.065624 240.8125 24.065624Q240.03125 24.065624 239.5 24.659374Q238.98438 25.2375 238.98438 26.440624ZM245.29688 29.55L245.29688 23.33125L246.23438 23.33125L246.23438 24.20625Q246.53125 23.7375 247.01562 23.471874Q247.5 23.190624 248.125 23.190624Q248.8125 23.190624 249.25 23.471874Q249.70312 23.753124 249.875 24.26875Q250.625 23.190624 251.79688 23.190624Q252.73438 23.190624 253.21875 23.70625Q253.71875 24.20625 253.71875 25.284374L253.71875 29.55L252.67188 29.55L252.67188 25.628124Q252.67188 25.003124 252.5625 24.721874Q252.46875 24.440624 252.20312 24.26875Q251.9375 24.096874 251.5625 24.096874Q250.90625 24.096874 250.46875 24.534374Q250.04688 24.971874 250.04688 25.940624L250.04688 29.55L248.98438 29.55L248.98438 25.503124Q248.98438 24.8 248.71875 24.45625Q248.46875 24.096874 247.89062 24.096874Q247.4375 24.096874 247.0625 24.33125Q246.6875 24.565624 246.51562 25.01875Q246.34375 25.471874 246.34375 26.315624L246.34375 29.55L245.29688 29.55ZM260.54688 27.55L261.64062 27.675Q261.39062 28.628124 260.6875 29.159374Q259.98438 29.690624 258.90625 29.690624Q257.54688 29.690624 256.73438 28.846874Q255.9375 28.003124 255.9375 26.4875Q255.9375 24.925 256.75 24.065624Q257.5625 23.190624 258.84375 23.190624Q260.09375 23.190624 260.875 24.034374Q261.67188 24.878124 261.67188 26.425Q261.67188 26.51875 261.67188 26.70625L257.03125 26.70625Q257.09375 27.7375 257.60938 28.284374Q258.125 28.815624 258.90625 28.815624Q259.48438 28.815624 259.89062 28.51875Q260.3125 28.20625 260.54688 27.55ZM257.09375 25.846874L260.5625 25.846874Q260.5 25.05 260.17188 24.659374Q259.65625 24.05 258.85938 24.05Q258.125 24.05 257.625 24.534374Q257.14062 25.01875 257.09375 25.846874Z" />
	<path fill="#ea4335" d="M278.5 20.55C278.5 19.997715 278.94772 19.55 279.5 19.55L289.5 19.55C290.05228 19.55 290.5 19.997715 290.5 20.55L290.5 30.55C290.5 31.102285 290.05228 31.55 289.5 31.55L279.5 31.55C278.94772 31.55 278.5 31.102285 278.5 30.55Z" />
	<path class="title" fill="#1a1a1a" d="M299.48438 29.55L299.48438 20.95625L305.28125 20.95625L305.28125 21.971874L300.625 21.971874L300.625 24.628124L304.65625 24.628124L304.65625 25.64375L300.625 25.64375L300.625 29.55L299.48438 29.55ZM306.29688 22.175L306.29688 20.95625L307.35938 20.95625L307.35938 22.175L306.29688 22.175ZM306.29688 29.55L306.29688 23.33125L307.35938 23.33125L307.35938 29.55L306.29688 29.55ZM309.28125 29.55L309.28125 23.33125L310.23438 23.33125L310.23438 24.26875Q310.59375 23.6125 310.89062 23.409374Q311.20312 23.190624 311.57812 23.190624Q312.10938 23.190624 312.65625 23.51875L312.29688 24.503124Q311.90625 24.26875 311.53125 24.26875Q311.17188 24.26875 310.89062 24.4875Q310.625 24.690624 310.51562 25.065624Q310.32812 25.628124 310.32812 26.284374L310.32812 29.55L309.28125 29.55ZM317.54688 27.55L318.64062 27.675Q318.39062 28.628124 317.6875 29.159374Q316.98438 29.690624 315.90625 29.690624Q314.54688 29.690624 313.73438 28.846874Q312.9375 28.003124 312.9375 26.4875Q312.9375 24.925 313.75 24.065624Q314.5625 23.190624 315.84375 23.190624Q317.09375 23.190624 317.875 24.034374Q318.67188 24.878124 318.67188 26.425Q318.67188 26.51875 318.67188 26.70625L314.03125 26.70625Q314.09375 27.7375 314.60938 28.284374Q315.125 28.815624 315.90625 28.815624Q316.48438 28.815624 316.89062 28.51875Q317.3125 28.20625 317.54688 27.55ZM314.09375 25.846874L317.5625 25.846874Q317.5 25.05 317.17188 24.659374Q316.65625 24.05 315.85938 24.05Q315.125 24.05 314.625 24.534374Q314.14062 25.01875 314.09375 25.846874ZM320.54688 29.55L320.54688 24.14375L319.60938 24.14375L319.60938 23.33125L320.54688 23.33125L320.54688 22.659374Q320.54688 22.034374 320.65625 21.7375Q320.8125 21.315624 321.1875 21.065624Q321.57812 20.815624 322.26562 20.815624Q322.71875 20.815624 323.25 20.925L323.09375 21.83125Q322.76562 21.784374 322.46875 21.784374Q321.98438 21.784374 321.78125 21.9875Q321.59375 22.190624 321.59375 22.753124L321.59375 23.33125L322.8125 23.33125L322.8125 24.14375L321.59375 24.14375L321.59375 29.55L320.54688 29.55ZM322.90625 26.440624Q322.90625 24.70625 323.85938 23.878124Q324.65625 23.190624 325.8125 23.190624Q327.09375 23.190624 327.90625 24.034374Q328.73438 24.8625 328.73438 26.346874Q328.73438 27.55 328.375 28.2375Q328.01562 28.925 327.3125 29.315624Q326.625 29.690624 325.8125 29.690624Q324.51562 29.690624 323.70312 28.8625Q322.90625 28.01875 322.90625 26.440624ZM323.98438 26.440624Q323.98438 27.628124 324.5 28.221874Q325.03125 28.815624 325.8125 28.815624Q326.60938 28.815624 327.125 28.221874Q327.64062 27.628124 327.64062 26.409374Q327.64062 25.253124 327.10938 24.659374Q326.59375 24.065624 325.8125 24.065624Q325.03125 24.065624 324.5 24.659374Q323.98438 25.2375 323.98438 26.440624ZM329.59375 29.55L331.85938 26.315624L329.76562 23.33125L331.07812 23.33125L332.03125 24.784374Q332.29688 25.20625 332.46875 25.4875Q332.71875 25.096874 332.9375 24.8L333.98438 23.33125L335.25 23.33125L333.09375 26.253124L335.40625 29.55L334.125 29.55L332.84375 27.6125L332.5 27.096874L330.85938 29.55L329.59375 29.55Z" />
	<path fill="#fbbc04" d="M350.5 20.55C350.5 19.997715 350.94772 19.55 351.5 19.55L361.5 19.55C362.05228 19.55 362.5 19.997715 362.5 20.55L362.5 30.55C362.5 31.102285 362.05228 31.55 361.5 31.55L351.5 31.55C350.94772 31.55 350.5 31.102285 350.5 30.55Z" />
	<path class="title" fill="#1a1a1a" d="M371.04688 26.784374L372.10938 26.690624Q372.1875 27.346874 372.46875 27.753124Q372.75 28.159374 373.32812 28.425Q373.92188 28.675 374.65625 28.675Q375.29688 28.675 375.79688 28.4875Q376.29688 28.284374 376.53125 27.95625Q376.78125 27.6125 376.78125 27.221874Q376.78125 26.815624 376.54688 26.51875Q376.3125 26.20625 375.78125 26.003124Q375.42188 25.8625 374.23438 25.58125Q373.0625 25.3 372.59375 25.05Q371.96875 24.721874 371.67188 24.253124Q371.375 23.76875 371.375 23.175Q371.375 22.534374 371.73438 21.971874Q372.10938 21.39375 372.8125 21.1125Q373.53125 20.815624 374.39062 20.815624Q375.34375 20.815624 376.07812 21.128124Q376.8125 21.425 377.20312 22.034374Q377.59375 22.628124 377.625 23.378124L376.53125 23.45625Q376.4375 22.64375 375.92188 22.2375Q375.42188 21.815624 374.4375 21.815624Q373.40625 21.815624 372.9375 22.190624Q372.46875 22.565624 372.46875 23.096874Q372.46875 23.565624 372.79688 23.8625Q373.125 24.159374 374.5 24.471874Q375.89062 24.784374 376.40625 25.01875Q377.15625 25.378124 377.51562 25.909374Q377.875 26.425 377.875 27.128124Q377.875 27.815624 377.48438 28.425Q377.09375 29.01875 376.35938 29.3625Q375.625 29.690624 374.70312 29.690624Q373.53125 29.690624 372.73438 29.3625Q371.95312 29.01875 371.5 28.33125Q371.0625 27.64375 371.04688 26.784374ZM383.35938 28.784374Q382.76562 29.284374 382.21875 29.4875Q381.6875 29.690624 381.0625 29.690624Q380.03125 29.690624 379.48438 29.190624Q378.9375 28.690624 378.9375 27.909374Q378.9375 27.45625 379.14062 27.08125Q379.34375 26.690624 379.6875 26.471874Q380.03125 26.2375 380.45312 26.128124Q380.75 26.034374 381.39062 25.95625Q382.65625 25.815624 383.26562 25.596874Q383.26562 25.378124 383.26562 25.33125Q383.26562 24.675 382.96875 24.409374Q382.5625 24.065624 381.76562 24.065624Q381.03125 24.065624 380.67188 24.33125Q380.3125 24.58125 380.14062 25.2375L379.10938 25.096874Q379.25 24.440624 379.57812 24.034374Q379.90625 23.628124 380.51562 23.409374Q381.125 23.190624 381.92188 23.190624Q382.71875 23.190624 383.21875 23.378124Q383.71875 23.565624 383.95312 23.846874Q384.1875 24.128124 384.28125 24.565624Q384.32812 24.83125 384.32812 25.534374L384.32812 26.940624Q384.32812 28.409374 384.39062 28.8Q384.46875 29.190624 384.67188 29.55L383.5625 29.55Q383.40625 29.221874 383.35938 28.784374ZM383.26562 26.425Q382.6875 26.659374 381.54688 26.83125Q380.89062 26.925 380.625 27.05Q380.35938 27.159374 380.20312 27.378124Q380.0625 27.596874 380.0625 27.878124Q380.0625 28.3 380.375 28.58125Q380.70312 28.8625 381.3125 28.8625Q381.92188 28.8625 382.39062 28.596874Q382.875 28.33125 383.09375 27.8625Q383.26562 27.503124 383.26562 26.815624L383.26562 26.425ZM386.54688 29.55L386.54688 24.14375L385.60938 24.14375L385.60938 23.33125L386.54688 23.33125L386.54688 22.659374Q386.54688 22.034374 386.65625 21.7375Q386.8125 21.315624 387.1875 21.065624Q387.57812 20.815624 388.26562 20.815624Q388.71875 20.815624 389.25 20.925L389.09375 21.83125Q388.76562 21.784374 388.46875 21.784374Q387.98438 21.784374 387.78125 21.9875Q387.59375 22.190624 387.59375 22.753124L387.59375 23.33125L388.8125 23.33125L388.8125 24.14375L387.59375 24.14375L387.59375 29.55L386.54688 29.55ZM393.35938 28.784374Q392.76562 29.284374 392.21875 29.4875Q391.6875 29.690624 391.0625 29.690624Q390.03125 29.690624 389.48438 29.190624Q388.9375 28.690624 388.9375 27.909374Q388.9375 27.45625 389.14062 27.08125Q389.34375 26.690624 389.6875 26.471874Q390.03125 26.2375 390.45312 26.128124Q390.75 26.034374 391.39062 25.95625Q392.65625 25.815624 393.26562 25.596874Q393.26562 25.378124 393.26562 25.33125Q393.26562 24.675 392.96875 24.409374Q392.5625 24.065624 391.76562 24.065624Q391.03125 24.065624 390.67188 24.33125Q390.3125 24.58125 390.14062 25.2375L389.10938 25.096874Q389.25 24.440624 389.57812 24.034374Q389.90625 23.628124 390.51562 23.409374Q391.125 23.190624 391.92188 23.190624Q392.71875 23.190624 393.21875 23.378124Q393.71875 23.565624 393.95312 23.846874Q394.1875 24.128124 394.28125 24.565624Q394.32812 24.83125 394.32812 25.534374L394.32812 26.940624Q394.32812 28.409374 394.39062 28.8Q394.46875 29.190624 394.67188 29.55L393.5625 29.55Q393.40625 29.221874 393.35938 28.784374ZM393.26562 26.425Q392.6875 26.659374 391.54688 26.83125Q390.89062 26.925 390.625 27.05Q390.35938 27.159374 390.20312 27.378124Q390.0625 27.596874 390.0625 27.878124Q390.0625 28.3 390.375 28.58125Q390.70312 28.8625 391.3125 28.8625Q391.92188 28.8625 392.39062 28.596874Q392.875 28.33125 393.09375 27.8625Q393.26562 27.503124 393.26562 26.815624L393.26562 26.425ZM396.28125 29.55L396.28125 23.33125L397.23438 23.33125L397.23438 24.26875Q397.59375 23.6125 397.89062 23.409374Q398.20312 23.190624 398.57812 23.190624Q399.10938 23.190624 399.65625 23.51875L399.29688 24.503124Q398.90625 24.26875 398.53125 24.26875Q398.17188 24.26875 397.89062 24.4875Q397.625 24.690624 397.51562 25.065624Q397.32812 25.628124 397.32812 26.284374L397.32812 29.55L396.28125 29.55ZM400.29688 22.175L400.29688 20.95625L401.35938 20.95625L401.35938 22.175L400.29688 22.175ZM400.29688 29.55L400.29688 23.33125L401.35938 23.33125L401.35938 29.55L400.29688 29.55Z" />
	<style>
		#bkg { fill: #ffedd5; }
		.txt { fill: #0f172a; }
		.title { fill: #171717; }
		.divide { stroke: #fed7aa; }
		@media (prefers-color-scheme: dark) {
		#bkg { fill: #0f172a; }
		.txt { fill: #f1f5f9; }
		.title { fill: #ffedd5; }
		.divide { stroke: #1e293b; }
		}
	</style>
</svg>
