<svg version="1.1" viewBox="0.0 0.0 600.0 371.0" fill="none" stroke="none" stroke-linecap="square" stroke-miterlimit="10" xmlns:xlink="http://www.w3.org/1999/xlink" xmlns="http://www.w3.org/2000/svg">
	<path id="bkg" fill="#ffffff" d="M0 0L600.0 0L600.0 371.0L0 371.0L0 0Z" />
	<path class="divide" stroke="#333333" stroke-width="1.0" d="M77.5 272.5L581.5 272.5" />
	<path class="divide" stroke="#cccccc" stroke-width="1.0" d="M77.5 217.5L581.5 217.5" />
	<path class="divide" stroke="#cccccc" stroke-width="1.0" d="M77.5 162.5L581.5 162.5" />
	<path class="divide" stroke="#cccccc" stroke-width="1.0" d="M77.5 107.5L581.5 107.5" />
	<path class="divide" stroke="#cccccc" stroke-width="1.0" d="M77.5 51.5L581.5 51.5" />
	<clipPath id="id_0">
		<path d="M77.55 51.916668L581.45 51.916668L581.45 272.9109L77.55 272.9109L77.55 51.916668Z" clip-rule="nonzero" />
	</clipPath>
	<path fill="#4285f4" clip-path="url(#id_0)" d="M100.0 273.0L93.0 273.0L93.0 264.0C93.0 262.89542 93.89543 262.0 95.0 262.0L98.0 262.0C99.10457 262.0 100.0 262.89542 100.0 264.0Z" />
	<path fill="#4285f4" clip-path="url(#id_0)" d="M141.0 273.0L134.0 273.0L134.0 263.0C134.0 261.89542 134.89543 261.0 136.0 261.0L139.0 261.0C140.10457 261.0 141.0 261.89542 141.0 263.0Z" />
	<path fill="#4285f4" clip-path="url(#id_0)" d="M182.0 273.0L175.0 273.0L175.0 261.0C175.0 259.89542 175.89543 259.0 177.0 259.0L180.0 259.0C181.10457 259.0 182.0 259.89542 182.0 261.0Z" />
	<path fill="#4285f4" clip-path="url(#id_0)" d="M222.0 273.0L215.0 273.0L215.0 261.0C215.0 259.89542 215.89543 259.0 217.0 259.0L220.0 259.0C221.10457 259.0 222.0 259.89542 222.0 261.0Z" />
	<path fill="#4285f4" clip-path="url(#id_0)" d="M263.0 273.0L256.0 273.0L256.0 260.0C256.0 258.89542 256.89542 258.0 258.0 258.0L261.0 258.0C262.10458 258.0 263.0 258.89542 263.0 260.0Z" />
	<path fill="#4285f4" clip-path="url(#id_0)" d="M304.0 273.0L297.0 273.0L297.0 258.0C297.0 256.89542 297.89542 256.0 299.0 256.0L302.0 256.0C303.10458 256.0 304.0 256.89542 304.0 258.0Z" />
	<path fill="#4285f4" clip-path="url(#id_0)" d="M345.0 273.0L338.0 273.0L338.0 256.0C338.0 254.89543 338.89542 254.0 340.0 254.0L343.0 254.0C344.10458 254.0 345.0 254.89543 345.0 256.0Z" />
	<path fill="#4285f4" clip-path="url(#id_0)" d="M386.0 273.0L379.0 273.0L379.0 251.0C379.0 249.89543 379.89542 249.0 381.0 249.0L384.0 249.0C385.10458 249.0 386.0 249.89543 386.0 251.0Z" />
	<path fill="#4285f4" clip-path="url(#id_0)" d="M427.0 273.0L420.0 273.0L420.0 246.0C420.0 244.89543 420.89542 244.0 422.0 244.0L425.0 244.0C426.10458 244.0 427.0 244.89543 427.0 246.0Z" />
	<path fill="#4285f4" clip-path="url(#id_0)" d="M467.0 273.0L460.0 273.0L460.0 245.0C460.0 243.89543 460.89542 243.0 462.0 243.0L465.0 243.0C466.10458 243.0 467.0 243.89543 467.0 245.0Z" />
	<path fill="#4285f4" clip-path="url(#id_0)" d="M508.0 273.0L501.0 273.0L501.0 225.0C501.0 223.89543 501.89542 223.0 503.0 223.0L506.0 223.0C507.10458 223.0 508.0 223.89543 508.0 225.0Z" />
	<path fill="#4285f4" clip-path="url(#id_0)" d="M549.0 273.0L542.0 273.0L542.0 134.0C542.0 132.89543 542.89545 132.0 544.0 132.0L547.0 132.0C548.10455 132.0 549.0 132.89543 549.0 134.0Z" />
	<path fill="#ea4335" clip-path="url(#id_0)" d="M109.0 273.0L102.0 273.0L102.0 264.0C102.0 262.89542 102.89543 262.0 104.0 262.0L107.0 262.0C108.10457 262.0 109.0 262.89542 109.0 264.0Z" />
	<path fill="#ea4335" clip-path="url(#id_0)" d="M150.0 273.0L143.0 273.0L143.0 264.0C143.0 262.89542 143.89543 262.0 145.0 262.0L148.0 262.0C149.10457 262.0 150.0 262.89542 150.0 264.0Z" />
	<path fill="#ea4335" clip-path="url(#id_0)" d="M191.0 273.0L184.0 273.0L184.0 263.0C184.0 261.89542 184.89543 261.0 186.0 261.0L189.0 261.0C190.10457 261.0 191.0 261.89542 191.0 263.0Z" />
	<path fill="#ea4335" clip-path="url(#id_0)" d="M231.0 273.0L224.0 273.0L224.0 260.0C224.0 258.89542 224.89543 258.0 226.0 258.0L229.0 258.0C230.10457 258.0 231.0 258.89542 231.0 260.0Z" />
	<path fill="#ea4335" clip-path="url(#id_0)" d="M272.0 273.0L265.0 273.0L265.0 261.0C265.0 259.89542 265.89542 259.0 267.0 259.0L270.0 259.0C271.10458 259.0 272.0 259.89542 272.0 261.0Z" />
	<path fill="#ea4335" clip-path="url(#id_0)" d="M313.0 273.0L306.0 273.0L306.0 254.0C306.0 252.89543 306.89542 252.0 308.0 252.0L311.0 252.0C312.10458 252.0 313.0 252.89543 313.0 254.0Z" />
	<path fill="#ea4335" clip-path="url(#id_0)" d="M354.0 273.0L347.0 273.0L347.0 251.0C347.0 249.89543 347.89542 249.0 349.0 249.0L352.0 249.0C353.10458 249.0 354.0 249.89543 354.0 251.0Z" />
	<path fill="#ea4335" clip-path="url(#id_0)" d="M395.0 273.0L388.0 273.0L388.0 253.0C388.0 251.89543 388.89542 251.0 390.0 251.0L393.0 251.0C394.10458 251.0 395.0 251.89543 395.0 253.0Z" />
	<path fill="#ea4335" clip-path="url(#id_0)" d="M436.0 273.0L429.0 273.0L429.0 244.0C429.0 242.89543 429.89542 242.0 431.0 242.0L434.0 242.0C435.10458 242.0 436.0 242.89543 436.0 244.0Z" />
	<path fill="#ea4335" clip-path="url(#id_0)" d="M476.0 273.0L469.0 273.0L469.0 242.0C469.0 240.89543 469.89542 240.0 471.0 240.0L474.0 240.0C475.10458 240.0 476.0 240.89543 476.0 242.0Z" />
	<path fill="#ea4335" clip-path="url(#id_0)" d="M517.0 273.0L510.0 273.0L510.0 240.0C510.0 238.89543 510.89542 238.0 512.0 238.0L515.0 238.0C516.10455 238.0 517.0 238.89543 517.0 240.0Z" />
	<path fill="#ea4335" clip-path="url(#id_0)" d="M558.0 273.0L551.0 273.0L551.0 97.0C551.0 95.89543 551.89545 95.0 553.0 95.0L556.0 95.0C557.10455 95.0 558.0 95.89543 558.0 97.0Z" />
	<path fill="#fbbc04" clip-path="url(#id_0)" d="M118.0 273.0L111.0 273.0L111.0 267.0C111.0 265.89542 111.89543 265.0 113.0 265.0L116.0 265.0C117.10457 265.0 118.0 265.89542 118.0 267.0Z" />
	<path fill="#fbbc04" clip-path="url(#id_0)" d="M159.0 273.0L152.0 273.0L152.0 267.0C152.0 265.89542 152.89543 265.0 154.0 265.0L157.0 265.0C158.10457 265.0 159.0 265.89542 159.0 267.0Z" />
	<path fill="#fbbc04" clip-path="url(#id_0)" d="M200.0 273.0L193.0 273.0L193.0 262.0C193.0 260.89542 193.89543 260.0 195.0 260.0L198.0 260.0C199.10457 260.0 200.0 260.89542 200.0 262.0Z" />
	<path fill="#fbbc04" clip-path="url(#id_0)" d="M240.0 273.0L233.0 273.0L233.0 262.0C233.0 260.89542 233.89543 260.0 235.0 260.0L238.0 260.0C239.10457 260.0 240.0 260.89542 240.0 262.0Z" />
	<path fill="#fbbc04" clip-path="url(#id_0)" d="M281.0 273.0L274.0 273.0L274.0 264.0C274.0 262.89542 274.89542 262.0 276.0 262.0L279.0 262.0C280.10458 262.0 281.0 262.89542 281.0 264.0Z" />
	<path fill="#fbbc04" clip-path="url(#id_0)" d="M322.0 273.0L315.0 273.0L315.0 257.0C315.0 255.89543 315.89542 255.0 317.0 255.0L320.0 255.0C321.10458 255.0 322.0 255.89543 322.0 257.0Z" />
	<path fill="#fbbc04" clip-path="url(#id_0)" d="M363.0 273.0L356.0 273.0L356.0 257.0C356.0 255.89543 356.89542 255.0 358.0 255.0L361.0 255.0C362.10458 255.0 363.0 255.89543 363.0 257.0Z" />
	<path fill="#fbbc04" clip-path="url(#id_0)" d="M404.0 273.0L397.0 273.0L397.0 260.0C397.0 258.89542 397.89542 258.0 399.0 258.0L402.0 258.0C403.10458 258.0 404.0 258.89542 404.0 260.0Z" />
	<path fill="#fbbc04" clip-path="url(#id_0)" d="M445.0 273.0L438.0 273.0L438.0 250.0C438.0 248.89543 438.89542 248.0 440.0 248.0L443.0 248.0C444.10458 248.0 445.0 248.89543 445.0 250.0Z" />
	<path fill="#fbbc04" clip-path="url(#id_0)" d="M485.0 273.0L478.0 273.0L478.0 250.0C478.0 248.89543 478.89542 248.0 480.0 248.0L483.0 248.0C484.10458 248.0 485.0 248.89543 485.0 250.0Z" />
	<path fill="#fbbc04" clip-path="url(#id_0)" d="M526.0 273.0L519.0 273.0L519.0 242.0C519.0 240.89543 519.89545 240.0 521.0 240.0L524.0 240.0C525.10455 240.0 526.0 240.89543 526.0 242.0Z" />
	<path fill="#fbbc04" clip-path="url(#id_0)" d="M567.0 273.0L560.0 273.0L560.0 165.0C560.0 163.89543 560.89545 163.0 562.0 163.0L565.0 163.0C566.10455 163.0 567.0 163.89543 567.0 165.0Z" />
	<path class="title" fill="#000000" d="M30.065638 224.58958L30.221888 223.55833Q30.690638 223.49583 30.909388 223.19896Q31.206263 222.80833 31.206263 222.13646Q31.206263 221.40208 30.909388 221.01146Q30.612513 220.60521 30.096888 220.46458Q29.768763 220.37083 28.737513 220.38646Q29.550013 221.07396 29.550013 222.10521Q29.550013 223.38646 28.628138 224.08958Q27.690638 224.79271 26.409388 224.79271Q25.518763 224.79271 24.768763 224.48021Q24.003138 224.15208 23.596888 223.54271Q23.190638 222.93333 23.190638 222.10521Q23.190638 220.99583 24.081263 220.27708L23.331263 220.27708L23.331263 219.30833L28.706263 219.30833Q30.159388 219.30833 30.768763 219.60521Q31.378138 219.90208 31.721888 220.54271Q32.08126 221.18333 32.08126 222.12083Q32.08126 223.23021 31.581263 223.91771Q31.081263 224.60521 30.065638 224.58958ZM26.331263 223.71458Q27.550013 223.71458 28.112513 223.23021Q28.675013 222.74583 28.675013 222.01146Q28.675013 221.27708 28.112513 220.79271Q27.550013 220.29271 26.362513 220.29271Q25.221888 220.29271 24.643763 220.80833Q24.065638 221.30833 24.065638 222.02708Q24.065638 222.73021 24.643763 223.23021Q25.206263 223.71458 26.331263 223.71458ZM27.550013 213.13646L27.675013 212.04271Q28.628138 212.29271 29.159388 212.99583Q29.690638 213.69896 29.690638 214.77708Q29.690638 216.13646 28.846888 216.94896Q28.003138 217.74583 26.487513 217.74583Q24.925013 217.74583 24.065638 216.93333Q23.190638 216.12083 23.190638 214.83958Q23.190638 213.58958 24.034388 212.80833Q24.878138 212.01146 26.425013 212.01146Q26.518763 212.01146 26.706263 212.01146L26.706263 216.65208Q27.737513 216.58958 28.284388 216.07396Q28.815638 215.55833 28.815638 214.77708Q28.815638 214.19896 28.518763 213.79271Q28.206263 213.37083 27.550013 213.13646ZM25.846888 216.58958L25.846888 213.12083Q25.050013 213.18333 24.659388 213.51146Q24.050013 214.02708 24.050013 214.82396Q24.050013 215.55833 24.534388 216.05833Q25.018763 216.54271 25.846888 216.58958ZM26.440638 210.77708Q24.706263 210.77708 23.878138 209.82396Q23.190638 209.02708 23.190638 207.87083Q23.190638 206.58958 24.034388 205.77708Q24.862513 204.94896 26.346888 204.94896Q27.550013 204.94896 28.237513 205.30833Q28.925013 205.66771 29.315638 206.37083Q29.690638 207.05833 29.690638 207.87083Q29.690638 209.16771 28.862513 209.98021Q28.018763 210.77708 26.440638 210.77708ZM26.440638 209.69896Q27.628138 209.69896 28.221888 209.18333Q28.815638 208.65208 28.815638 207.87083Q28.815638 207.07396 28.221888 206.55833Q27.628138 206.04271 26.409388 206.04271Q25.253138 206.04271 24.659388 206.57396Q24.065638 207.08958 24.065638 207.87083Q24.065638 208.65208 24.659388 209.18333Q25.237513 209.69896 26.440638 209.69896ZM29.550013 203.38646L23.331263 203.38646L23.331263 202.44896L24.206263 202.44896Q23.737513 202.15208 23.471888 201.66771Q23.190638 201.18333 23.190638 200.55833Q23.190638 199.87083 23.471888 199.43333Q23.753138 198.98021 24.268763 198.80833Q23.190638 198.05833 23.190638 196.88646Q23.190638 195.94896 23.706263 195.46458Q24.206263 194.96458 25.284388 194.96458L29.550013 194.96458L29.550013 196.01146L25.628138 196.01146Q25.003138 196.01146 24.721888 196.12083Q24.440638 196.21458 24.268763 196.48021Q24.096888 196.74583 24.096888 197.12083Q24.096888 197.77708 24.534388 198.21458Q24.971888 198.63646 25.940638 198.63646L29.550013 198.63646L29.550013 199.69896L25.503138 199.69896Q24.800013 199.69896 24.456263 199.96458Q24.096888 200.21458 24.096888 200.79271Q24.096888 201.24583 24.331263 201.62083Q24.565638 201.99583 25.018763 202.16771Q25.471888 202.33958 26.315638 202.33958L29.550013 202.33958L29.550013 203.38646ZM27.550013 188.13646L27.675013 187.04271Q28.628138 187.29271 29.159388 187.99583Q29.690638 188.69896 29.690638 189.77708Q29.690638 191.13646 28.846888 191.94896Q28.003138 192.74583 26.487513 192.74583Q24.925013 192.74583 24.065638 191.93333Q23.190638 191.12083 23.190638 189.83958Q23.190638 188.58958 24.034388 187.80833Q24.878138 187.01146 26.425013 187.01146Q26.518763 187.01146 26.706263 187.01146L26.706263 191.65208Q27.737513 191.58958 28.284388 191.07396Q28.815638 190.55833 28.815638 189.77708Q28.815638 189.19896 28.518763 188.79271Q28.206263 188.37083 27.550013 188.13646ZM25.846888 191.58958L25.846888 188.12083Q25.050013 188.18333 24.659388 188.51146Q24.050013 189.02708 24.050013 189.82396Q24.050013 190.55833 24.534388 191.05833Q25.018763 191.54271 25.846888 191.58958ZM28.784388 181.32396Q29.284388 181.91771 29.487513 182.46458Q29.690638 182.99583 29.690638 183.62083Q29.690638 184.65208 29.190638 185.19896Q28.690638 185.74583 27.909388 185.74583Q27.456263 185.74583 27.081263 185.54271Q26.690638 185.33958 26.471888 184.99583Q26.237513 184.65208 26.128138 184.23021Q26.034388 183.93333 25.956263 183.29271Q25.815638 182.02708 25.596888 181.41771Q25.378138 181.41771 25.331263 181.41771Q24.675013 181.41771 24.409388 181.71458Q24.065638 182.12083 24.065638 182.91771Q24.065638 183.65208 24.331263 184.01146Q24.581263 184.37083 25.237513 184.54271L25.096888 185.57396Q24.440638 185.43333 24.034388 185.10521Q23.628138 184.77708 23.409388 184.16771Q23.190638 183.55833 23.190638 182.76146Q23.190638 181.96458 23.378138 181.46458Q23.565638 180.96458 23.846888 180.73021Q24.128138 180.49583 24.565638 180.40208Q24.831263 180.35521 25.534388 180.35521L26.940638 180.35521Q28.409388 180.35521 28.800013 180.29271Q29.190638 180.21458 29.550013 180.01146L29.550013 181.12083Q29.221888 181.27708 28.784388 181.32396ZM26.425013 181.41771Q26.659388 181.99583 26.831263 183.13646Q26.925013 183.79271 27.050013 184.05833Q27.159388 184.32396 27.378138 184.48021Q27.596888 184.62083 27.878138 184.62083Q28.300013 184.62083 28.581263 184.30833Q28.862513 183.98021 28.862513 183.37083Q28.862513 182.76146 28.596888 182.29271Q28.331263 181.80833 27.862513 181.58958Q27.503138 181.41771 26.815638 181.41771L26.425013 181.41771ZM29.550013 178.38646L23.331263 178.38646L23.331263 177.44896L24.206263 177.44896Q23.190638 176.76146 23.190638 175.46458Q23.190638 174.90208 23.393763 174.43333Q23.596888 173.94896 23.925013 173.71458Q24.253138 173.48021 24.690638 173.38646Q24.987513 173.33958 25.721888 173.33958L29.550013 173.33958L29.550013 174.38646L25.768763 174.38646Q25.112513 174.38646 24.800013 174.51146Q24.487513 174.63646 24.300013 174.94896Q24.096888 175.26146 24.096888 175.68333Q24.096888 176.35521 24.534388 176.85521Q24.956263 177.33958 26.143763 177.33958L29.550013 177.33958L29.550013 178.38646Z" />
	<path class="txt" fill="#000000" d="M65.05 272.6765Q65.05 271.14526 65.3625 270.2234Q65.675 269.2859 66.28438 268.7859Q66.90938 268.2859 67.84688 268.2859Q68.53438 268.2859 69.05 268.56714Q69.58125 268.8484 69.925 269.37964Q70.26875 269.89526 70.45625 270.64526Q70.64375 271.39526 70.64375 272.6765Q70.64375 274.19214 70.33125 275.114Q70.03438 276.0359 69.40938 276.5515Q68.8 277.0515 67.84688 277.0515Q66.6125 277.0515 65.89375 276.1609Q65.05 275.0984 65.05 272.6765ZM66.12813 272.6765Q66.12813 274.7859 66.62813 275.489Q67.12813 276.19214 67.84688 276.19214Q68.58125 276.19214 69.06563 275.489Q69.56563 274.7859 69.56563 272.6765Q69.56563 270.5515 69.06563 269.864Q68.58125 269.1609 67.83125 269.1609Q67.1125 269.1609 66.675 269.77026Q66.12813 270.5515 66.12813 272.6765Z" />
	<path class="txt" fill="#000000" d="M63.596874 220.64671L63.596874 221.66234L57.909374 221.66234Q57.909374 221.28734 58.034374 220.92796Q58.253124 220.34984 58.721874 219.78734Q59.20625 219.22484 60.1125 218.49046Q61.51875 217.33421 62.003124 216.66234Q62.503124 215.99046 62.503124 215.39671Q62.503124 214.77171 62.05 214.34984Q61.596874 213.91234 60.878124 213.91234Q60.1125 213.91234 59.659374 214.36546Q59.20625 214.81859 59.190624 215.63109L58.1125 215.52171Q58.221874 214.30296 58.940624 213.67796Q59.675 213.03734 60.909374 213.03734Q62.14375 213.03734 62.8625 213.72484Q63.58125 214.41234 63.58125 215.42796Q63.58125 215.94359 63.3625 216.44359Q63.159374 216.92796 62.659374 217.49046Q62.175 218.03734 61.05 218.99046Q60.096874 219.78734 59.815624 220.08421Q59.55 220.36546 59.378124 220.64671L63.596874 220.64671ZM65.05 219.41234L66.15938 219.31859Q66.28438 220.13109 66.72188 220.53734Q67.175 220.94359 67.81563 220.94359Q68.56563 220.94359 69.09688 220.36546Q69.62813 219.78734 69.62813 218.84984Q69.62813 217.94359 69.1125 217.42796Q68.6125 216.89671 67.78438 216.89671Q67.28438 216.89671 66.8625 217.13109Q66.45625 217.36546 66.22188 217.72484L65.2375 217.59984L66.06563 213.19359L70.34688 213.19359L70.34688 214.19359L66.90938 214.19359L66.45625 216.50609Q67.22188 215.95921 68.06563 215.95921Q69.19063 215.95921 69.95625 216.74046Q70.7375 217.52171 70.7375 218.75609Q70.7375 219.91234 70.06563 220.77171Q69.2375 221.80296 67.81563 221.80296Q66.64375 221.80296 65.89375 221.14671Q65.15938 220.49046 65.05 219.41234Z" />
	<path class="txt" fill="#000000" d="M58.05 164.16379L59.159374 164.07004Q59.284374 164.88254 59.721874 165.28879Q60.175 165.69504 60.815624 165.69504Q61.565624 165.69504 62.096874 165.11691Q62.628124 164.53879 62.628124 163.60129Q62.628124 162.69504 62.1125 162.17941Q61.6125 161.64816 60.784374 161.64816Q60.284374 161.64816 59.8625 161.88254Q59.45625 162.11691 59.221874 162.47629L58.2375 162.35129L59.065624 157.94504L63.346874 157.94504L63.346874 158.94504L59.909374 158.94504L59.45625 161.25754Q60.221874 160.71066 61.065624 160.71066Q62.190624 160.71066 62.95625 161.49191Q63.7375 162.27316 63.7375 163.50754Q63.7375 164.66379 63.065624 165.52316Q62.2375 166.55441 60.815624 166.55441Q59.64375 166.55441 58.89375 165.89816Q58.159374 165.24191 58.05 164.16379ZM65.05 162.17941Q65.05 160.64816 65.3625 159.72629Q65.675 158.78879 66.28438 158.28879Q66.90938 157.78879 67.84688 157.78879Q68.53438 157.78879 69.05 158.07004Q69.58125 158.35129 69.925 158.88254Q70.26875 159.39816 70.45625 160.14816Q70.64375 160.89816 70.64375 162.17941Q70.64375 163.69504 70.33125 164.61691Q70.03438 165.53879 69.40938 166.05441Q68.8 166.55441 67.84688 166.55441Q66.6125 166.55441 65.89375 165.66379Q65.05 164.60129 65.05 162.17941ZM66.12813 162.17941Q66.12813 164.28879 66.62813 164.99191Q67.12813 165.69504 67.84688 165.69504Q68.58125 165.69504 69.06563 164.99191Q69.56563 164.28879 69.56563 162.17941Q69.56563 160.05441 69.06563 159.36691Q68.58125 158.66379 67.83125 158.66379Q67.1125 158.66379 66.675 159.27316Q66.12813 160.05441 66.12813 162.17941Z" />
	<path class="txt" fill="#000000" d="M58.1125 103.69647L58.1125 102.68085L63.675 102.68085L63.675 103.50897Q62.8625 104.38397 62.05 105.8371Q61.253124 107.2746 60.815624 108.80585Q60.4875 109.88397 60.409374 111.16522L59.315624 111.16522Q59.33125 110.1496 59.70625 108.7121Q60.096874 107.2746 60.8 105.94647Q61.51875 104.61835 62.33125 103.69647L58.1125 103.69647ZM65.05 108.91522L66.15938 108.82147Q66.28438 109.63397 66.72188 110.04022Q67.175 110.44647 67.81563 110.44647Q68.56563 110.44647 69.09688 109.86835Q69.62813 109.29022 69.62813 108.35272Q69.62813 107.44647 69.1125 106.93085Q68.6125 106.3996 67.78438 106.3996Q67.28438 106.3996 66.8625 106.63397Q66.45625 106.86835 66.22188 107.22772L65.2375 107.10272L66.06563 102.69647L70.34688 102.69647L70.34688 103.69647L66.90938 103.69647L66.45625 106.00897Q67.22188 105.4621 68.06563 105.4621Q69.19063 105.4621 69.95625 106.24335Q70.7375 107.0246 70.7375 108.25897Q70.7375 109.41522 70.06563 110.2746Q69.2375 111.30585 67.81563 111.30585Q66.64375 111.30585 65.89375 110.6496Q65.15938 109.99335 65.05 108.91522Z" />
	<path class="txt" fill="#000000" d="M55.01875 55.916668L53.971874 55.916668L53.971874 49.197918Q53.58125 49.557293 52.95625 49.932293Q52.346874 50.291668 51.8625 50.463543L51.8625 49.447918Q52.7375 49.026043 53.39375 48.447918Q54.065624 47.854168 54.346874 47.291668L55.01875 47.291668L55.01875 55.916668ZM58.05 51.682293Q58.05 50.151043 58.3625 49.229168Q58.675 48.291668 59.284374 47.791668Q59.909374 47.291668 60.846874 47.291668Q61.534374 47.291668 62.05 47.572918Q62.58125 47.854168 62.925 48.385418Q63.26875 48.901043 63.45625 49.651043Q63.64375 50.401043 63.64375 51.682293Q63.64375 53.197918 63.33125 54.119793Q63.034374 55.041668 62.409374 55.557293Q61.8 56.057293 60.846874 56.057293Q59.6125 56.057293 58.89375 55.166668Q58.05 54.104168 58.05 51.682293ZM59.128124 51.682293Q59.128124 53.791668 59.628124 54.494793Q60.128124 55.197918 60.846874 55.197918Q61.58125 55.197918 62.065624 54.494793Q62.565624 53.791668 62.565624 51.682293Q62.565624 49.557293 62.065624 48.869793Q61.58125 48.166668 60.83125 48.166668Q60.1125 48.166668 59.675 48.776043Q59.128124 49.557293 59.128124 51.682293ZM65.05 51.682293Q65.05 50.151043 65.3625 49.229168Q65.675 48.291668 66.28438 47.791668Q66.90938 47.291668 67.84688 47.291668Q68.53438 47.291668 69.05 47.572918Q69.58125 47.854168 69.925 48.385418Q70.26875 48.901043 70.45625 49.651043Q70.64375 50.401043 70.64375 51.682293Q70.64375 53.197918 70.33125 54.119793Q70.03438 55.041668 69.40938 55.557293Q68.8 56.057293 67.84688 56.057293Q66.6125 56.057293 65.89375 55.166668Q65.05 54.104168 65.05 51.682293ZM66.12813 51.682293Q66.12813 53.791668 66.62813 54.494793Q67.12813 55.197918 67.84688 55.197918Q68.58125 55.197918 69.06563 54.494793Q69.56563 53.791668 69.56563 51.682293Q69.56563 49.557293 69.06563 48.869793Q68.58125 48.166668 67.83125 48.166668Q67.1125 48.166668 66.675 48.776043Q66.12813 49.557293 66.12813 51.682293Z" />
	<path class="txt" fill="#000000" d="M45.992435 353.56592L38.30265 349.1023L39.13129 348.27365L44.04789 351.3341Q44.81024 351.80917 45.539444 352.3174Q44.79919 351.11313 44.688705 350.91425L41.738747 345.6662L42.711018 344.69394L46.655346 346.89258Q48.124805 347.72122 49.2849 348.57196Q48.82086 347.88696 48.257385 346.9478L45.307426 342.0975L46.113968 341.291L50.533386 349.02496L49.74894 349.8094L43.84902 346.45065Q43.108765 346.04184 42.943035 345.9424Q43.263443 346.4396 43.473366 346.8263L46.821075 352.73727L45.992435 353.56592ZM54.21255 342.51736L55.074337 341.83234Q55.57152 342.68307 55.44999 343.55594Q55.328453 344.42877 54.566105 345.1911Q53.60488 346.15234 52.433735 346.13025Q51.27364 346.09708 50.20193 345.0254Q49.097076 343.92053 49.06393 342.73834Q49.019737 341.54507 49.925716 340.6391Q50.8096 339.75522 51.95865 339.7994Q53.118744 339.83255 54.21255 340.92636Q54.278843 340.99268 54.411427 341.12524L51.13001 344.40668Q51.903404 345.09167 52.654705 345.11377Q53.39496 345.12482 53.947388 344.5724Q54.356182 344.1636 54.43352 343.6664Q54.51086 343.14713 54.21255 342.51736ZM50.566532 343.7548L53.01931 341.30203Q52.41164 340.78275 51.903404 340.73856Q51.10791 340.67224 50.544434 341.23572Q50.025154 341.755 50.014103 342.45108Q50.014103 343.13608 50.566532 343.7548ZM58.256317 341.30203L57.56026 341.99808L51.483562 335.9214L52.234863 335.17007L54.400375 337.3356Q54.28989 336.27493 55.019096 335.54572Q55.42789 335.13693 55.947174 334.9491Q56.466454 334.7392 56.996784 334.80548Q57.538162 334.86072 58.09059 335.14798Q58.643017 335.43524 59.118103 335.91034Q60.245056 337.0373 60.300297 338.21948Q60.35554 339.40167 59.58214 340.17508Q58.797695 340.9595 57.70389 340.7496L58.256317 341.30203ZM56.013462 339.08127Q56.79791 339.86572 57.372433 339.9983Q58.30051 340.21927 58.897133 339.62265Q59.38327 339.1365 59.31698 338.3631Q59.261734 337.57867 58.411 336.72794Q57.54921 335.86615 56.79791 335.79984Q56.046608 335.73355 55.560474 336.2197Q55.074337 336.70584 55.14063 337.5013Q55.20692 338.27472 56.013462 339.08127ZM64.81915 330.47446L65.82457 329.8889Q66.55378 331.1263 66.421196 332.29745Q66.28861 333.4686 65.33844 334.41876Q64.35512 335.4021 63.33865 335.62308Q62.322186 335.84402 61.250473 335.41315Q60.167717 334.9712 59.29488 334.09836Q58.344707 333.1482 58.0022 332.07648Q57.6597 331.0048 57.95801 329.97726Q58.26737 328.9387 59.073914 328.13214Q59.979893 327.22617 61.062653 327.0715Q62.156456 326.90576 63.239212 327.50238L62.631542 328.48572Q61.75871 328.0327 61.0516 328.1432Q60.344494 328.2316 59.736824 328.83926Q59.040768 329.5353 58.908184 330.3529Q58.7756 331.1484 59.140205 331.91077Q59.515854 332.66205 60.123524 333.2697Q60.896923 334.04312 61.692417 334.39667Q62.498962 334.7392 63.26131 334.55136Q64.02366 334.36353 64.587135 333.80005Q65.2611 333.1261 65.33844 332.27536Q65.42683 331.41357 64.81915 330.47446ZM66.41015 328.7509Q65.183754 327.52448 65.27215 326.26495Q65.34949 325.21533 66.167076 324.39774Q67.07306 323.49176 68.2442 323.51385Q69.41535 323.51385 70.46496 324.56348Q71.3157 325.4142 71.54772 326.15448Q71.77974 326.8947 71.55877 327.66812Q71.3378 328.4194 70.763275 328.99393Q69.846245 329.91098 68.68614 329.89993Q67.52605 329.8668 66.41015 328.7509ZM67.17249 327.98853Q68.012184 328.82822 68.79663 328.88345Q69.592125 328.92764 70.144554 328.3752Q70.70803 327.81174 70.65279 327.0273Q70.59754 326.24286 69.735756 325.38107Q68.91817 324.56348 68.12267 324.5193Q67.33823 324.46405 66.7858 325.01648Q66.23337 325.56888 66.277565 326.36438Q66.321754 327.1378 67.17249 327.98853ZM73.83477 325.72357L69.43745 321.32626L70.10036 320.66333L70.71908 321.28204Q70.59754 320.7407 70.75222 320.21036Q70.89585 319.66898 71.3378 319.22702Q71.82393 318.7409 72.33217 318.6304Q72.85145 318.50888 73.337585 318.75195Q73.10556 317.45926 73.934204 316.6306Q74.597115 315.9677 75.30422 315.9898Q76.01133 315.9898 76.77368 316.75217L79.78993 319.7684L79.04968 320.50867L76.2765 317.73547Q75.83456 317.29355 75.55834 317.172Q75.293175 317.03943 74.98382 317.1057Q74.67445 317.172 74.409294 317.43716Q73.94525 317.9012 73.94525 318.51993Q73.9563 319.1276 74.64131 319.8126L77.19353 322.3648L76.44222 323.11612L73.58065 320.25455Q73.083466 319.75735 72.65257 319.70212Q72.22168 319.6248 71.81288 320.03357Q71.49248 320.35397 71.393036 320.78488Q71.2936 321.21576 71.49248 321.6577Q71.69135 322.09964 72.28797 322.69626L74.57502 324.9833L73.83477 325.72357ZM83.30337 319.63583L77.21562 313.54807L77.88958 312.8741L78.45306 313.4376Q78.36467 312.86307 78.49725 312.39902Q78.640884 311.92395 79.07178 311.49304Q79.635254 310.92957 80.35341 310.78595Q81.07156 310.6423 81.81181 310.9627Q82.56312 311.27206 83.19289 311.90186Q83.866844 312.5758 84.16515 313.36026Q84.47452 314.13364 84.29774 314.88495Q84.120964 315.63626 83.612724 316.14447Q83.237076 316.52014 82.78409 316.66376Q82.320045 316.79636 81.90021 316.75217L84.043625 318.89557L83.30337 319.63583ZM80.11034 315.09488Q80.961075 315.94562 81.71238 316.0119Q82.45263 316.06714 82.93877 315.58102Q83.43595 315.08383 83.36966 314.31042Q83.30337 313.53702 82.41949 312.65314Q81.579796 311.81345 80.82849 311.74716Q80.06615 311.66983 79.58001 312.15598Q79.10492 312.63104 79.18226 313.4376Q79.259605 314.24414 80.11034 315.09488ZM84.087814 311.0732Q82.86143 309.8468 82.949814 308.58728Q83.02715 307.53766 83.84475 306.7201Q84.750725 305.8141 85.921875 305.83618Q87.09302 305.83618 88.14263 306.8858Q88.99337 307.73654 89.22539 308.4768Q89.457405 309.21704 89.236435 309.99045Q89.015465 310.74176 88.44094 311.31628Q87.52391 312.2333 86.363815 312.22226Q85.20372 312.18912 84.087814 311.0732ZM84.85017 310.31085Q85.68986 311.15054 86.474304 311.20578Q87.2698 311.24997 87.82222 310.69754Q88.3857 310.13406 88.33046 309.34964Q88.275215 308.5652 87.41343 307.7034Q86.59583 306.8858 85.80034 306.8416Q85.01589 306.78638 84.46346 307.3388Q83.91104 307.89124 83.95523 308.6867Q83.99943 309.4601 84.85017 310.31085ZM91.512436 308.0459L87.11512 303.6486L87.77803 302.98566L88.39674 303.6044Q88.16473 302.4001 89.08176 301.48306Q89.47951 301.08533 89.95459 300.8975Q90.44073 300.6986 90.83848 300.76492Q91.23622 300.8312 91.61187 301.07428Q91.85494 301.25104 92.37422 301.77032L95.081116 304.47723L94.340866 305.21747L91.667114 302.54373Q91.20308 302.07968 90.893715 301.9471Q90.58436 301.8145 90.230804 301.90292Q89.8662 301.98026 89.567894 302.27856Q89.092804 302.75366 89.048615 303.41656Q89.00442 304.05737 89.84411 304.89706L92.252686 307.30566L91.512436 308.0459ZM98.05318 298.67673L98.91496 297.99173Q99.41215 298.84247 99.29061 299.7153Q99.169075 300.58813 98.40673 301.3505Q97.4455 302.3117 96.27436 302.2896Q95.114265 302.25647 94.04256 301.18475Q92.9377 300.0799 92.90456 298.8977Q92.86036 297.70447 93.76634 296.7985Q94.65022 295.9146 95.79927 295.9588Q96.959366 295.99194 98.05318 297.08575Q98.11947 297.15204 98.252045 297.2846L94.970634 300.56604Q95.744026 301.25104 96.49533 301.27313Q97.23558 301.28418 97.78801 300.73178Q98.19681 300.32297 98.27415 299.82578Q98.35149 299.30652 98.05318 298.67673ZM94.40716 299.91418L96.85993 297.4614Q96.25226 296.9421 95.744026 296.89792Q94.94853 296.83163 94.385056 297.3951Q93.865776 297.9144 93.85473 298.61044Q93.85473 299.29547 94.40716 299.91418ZM101.411934 298.14642L97.01461 293.74908L97.67752 293.08618L98.29624 293.7049Q98.064224 292.5006 98.981255 291.5836Q99.379 291.18582 99.85409 290.998Q100.340225 290.79913 100.73797 290.86542Q101.13572 290.9317 101.51137 291.17477Q101.75443 291.35156 102.27372 291.87085L104.98061 294.57773L104.24036 295.318L101.56661 292.64423Q101.10257 292.1802 100.79321 292.0476Q100.48386 291.91504 100.1303 292.00342Q99.7657 292.08075 99.467384 292.37906Q98.9923 292.85416 98.948105 293.51706Q98.903915 294.1579 99.7436 294.99756L102.15218 297.40616L101.411934 298.14642ZM107.3229 290.9096L108.08525 291.451Q107.83114 291.83768 107.588066 292.08075Q107.17927 292.48956 106.83677 292.589Q106.483215 292.67737 106.17385 292.5669Q105.87554 292.44537 105.201584 291.7714L102.67146 289.24127L102.13009 289.78265L101.555565 289.20813L102.09694 288.66675L101.003136 287.57294L101.301445 286.39075L102.8372 287.9265L103.58849 287.1752L104.16302 287.74973L103.41172 288.50104L105.98603 291.07535Q106.306435 291.39575 106.42797 291.451Q106.560555 291.49518 106.704185 291.46204Q106.84782 291.4289 107.01354 291.26315Q107.146126 291.13058 107.3229 290.9096ZM106.86991 290.05887L107.48863 289.21918Q107.996864 289.59485 108.5051 289.55063Q109.024376 289.4954 109.54366 288.9761Q110.051895 288.4679 110.096085 288.02594Q110.14028 287.5619 109.85302 287.27463Q109.5989 287.02054 109.2343 287.09787Q108.98019 287.1531 108.217834 287.6061Q107.19032 288.21378 106.72628 288.39053Q106.262245 288.54523 105.83135 288.4458Q105.40046 288.34634 105.069 288.0149Q104.78174 287.72763 104.6602 287.34094Q104.538666 286.95422 104.60496 286.5565Q104.6602 286.25818 104.870125 285.8715Q105.08005 285.48477 105.4336 285.13123Q105.94183 284.623 106.483215 284.39096Q107.02459 284.13684 107.46653 284.20316Q107.90848 284.26944 108.39461 284.623L107.76485 285.45163Q107.38919 285.16437 106.9583 285.2196Q106.527405 285.25275 106.085464 285.6947Q105.57723 286.20294 105.533035 286.60068Q105.4778 286.98737 105.709816 287.2194Q105.85345 287.36304 106.05232 287.38513Q106.27329 287.40723 106.53845 287.29675Q106.69314 287.23044 107.38919 286.82166Q108.40566 286.24713 108.8476 286.07034Q109.28954 285.8936 109.720436 285.97092Q110.15133 286.04825 110.538025 286.43497Q110.91368 286.8106 111.02416 287.36304Q111.13465 287.89337 110.91368 288.49Q110.681656 289.07556 110.16238 289.59485Q109.30059 290.45663 108.49405 290.55606Q107.68751 290.6334 106.86991 290.05887Z" />
	<path class="txt" fill="#000000" d="M128.76747 307.6813L129.45248 306.8637Q129.97177 307.2725 130.4579 307.3609Q130.94403 307.44928 131.54066 307.2283Q132.13728 306.98523 132.65656 306.46597Q133.10956 306.01297 133.33052 305.52682Q133.54045 305.02966 133.47415 304.6319Q133.40787 304.21207 133.13165 303.93585Q132.84439 303.6486 132.46873 303.6044Q132.08203 303.54913 131.56276 303.78116Q131.2092 303.93585 130.17064 304.57666Q129.14313 305.20642 128.63489 305.3611Q127.96093 305.571 127.419556 305.4495Q126.86713 305.31693 126.44728 304.89706Q125.99429 304.4441 125.85066 303.7922Q125.70703 303.11826 126.00534 302.42218Q126.30365 301.70404 126.911316 301.09637Q127.58528 300.4224 128.32553 300.12408Q129.05473 299.81473 129.76184 299.96942Q130.4579 300.11304 131.01033 300.62128L130.29218 301.44992Q129.65135 300.94168 128.9995 301.01904Q128.34763 301.07428 127.65157 301.77032Q126.92237 302.49954 126.85608 303.09616Q126.78979 303.69278 127.165436 304.06842Q127.496895 304.39987 127.938835 304.37778Q128.38077 304.35568 129.57402 303.6044Q130.7783 302.84204 131.30864 302.64316Q132.09308 302.36694 132.72285 302.4885Q133.34157 302.59897 133.83876 303.09616Q134.32489 303.5823 134.47957 304.2894Q134.6232 304.98544 134.34698 305.7478Q134.05972 306.4991 133.40787 307.15097Q132.57922 307.9796 131.78372 308.31107Q130.98824 308.62042 130.18169 308.4547Q129.3862 308.27792 128.76747 307.6813ZM137.77203 302.58792L131.70639 299.85892L132.49083 299.0745L136.07056 300.75388Q136.64508 301.04114 137.23065 301.36154Q136.9876 300.9196 136.67824 300.25668L134.97676 296.58856L135.7391 295.8262L138.4681 301.89188L137.77203 302.58792ZM141.68323 295.8483L142.54501 295.1633Q143.04219 296.01404 142.92065 296.88687Q142.79912 297.7597 142.03677 298.52206Q141.07555 299.48328 139.9044 299.46118Q138.74431 299.42804 137.6726 298.35632Q136.56775 297.25146 136.5346 296.06927Q136.4904 294.87604 137.3964 293.97006Q138.28027 293.08618 139.42932 293.13037Q140.58942 293.1635 141.68323 294.25732Q141.74951 294.3236 141.8821 294.4562L138.60068 297.7376Q139.37407 298.4226 140.12538 298.44473Q140.86563 298.45578 141.41806 297.90335Q141.82686 297.49454 141.90419 296.99734Q141.98154 296.4781 141.68323 295.8483ZM138.0372 297.08575L140.48997 294.63297Q139.88231 294.11368 139.37407 294.0695Q138.57858 294.0032 138.0151 294.56668Q137.49582 295.08597 137.48477 295.782Q137.48477 296.46704 138.0372 297.08575ZM145.01988 295.3401L138.94318 289.26337L139.69449 288.5121L145.77118 294.58878L145.01988 295.3401ZM148.12453 290.9096L148.88687 291.451Q148.63275 291.83768 148.3897 292.08075Q147.9809 292.48956 147.63838 292.589Q147.28484 292.67737 146.97548 292.5669Q146.67717 292.44537 146.0032 291.7714L143.47308 289.24127L142.9317 289.78265L142.35718 289.20813L142.89856 288.66675L141.80475 287.57294L142.10307 286.39075L143.63881 287.9265L144.39012 287.1752L144.96465 287.74973L144.21333 288.50104L146.78764 291.07535Q147.10806 291.39575 147.22958 291.451Q147.36217 291.49518 147.5058 291.46204Q147.64943 291.4289 147.81517 291.26315Q147.94774 291.13058 148.12453 290.9096ZM150.87561 286.6559L151.7374 285.97092Q152.23457 286.82166 152.11305 287.6945Q151.99152 288.56732 151.22916 289.32968Q150.26794 290.2909 149.0968 290.2688Q147.93669 290.23566 146.86499 289.16394Q145.76013 288.05908 145.72699 286.8769Q145.6828 285.68365 146.58878 284.77768Q147.47266 283.8938 148.6217 283.938Q149.7818 283.97113 150.87561 285.06494Q150.9419 285.13123 151.07448 285.2638L147.79306 288.54523Q148.56647 289.23022 149.31776 289.25232Q150.05801 289.26337 150.61044 288.71094Q151.01924 288.30215 151.09659 287.80496Q151.17392 287.28568 150.87561 286.6559ZM147.22958 287.89337L149.68237 285.44058Q149.07469 284.9213 148.56647 284.8771Q147.77097 284.81082 147.20749 285.3743Q146.68822 285.8936 146.67717 286.58963Q146.67717 287.27463 147.22958 287.89337Z" />
	<path class="txt" fill="#000000" d="M170.37564 310.78595L164.29893 304.70923L166.59703 302.41113Q167.19366 301.8145 167.5693 301.54935Q168.09964 301.1737 168.60786 301.08533Q169.12715 300.98587 169.67958 301.18475Q170.24306 301.3726 170.69604 301.82556Q171.46944 302.59897 171.51364 303.63754Q171.55783 304.654 170.26515 305.9467L168.7073 307.50452L171.18217 309.9794L170.37564 310.78595ZM168.0002 306.79742L169.56909 305.22852Q170.35355 304.44406 170.38669 303.8364Q170.41983 303.20663 169.8895 302.6763Q169.51385 302.30066 169.04982 302.23438Q168.58577 302.14597 168.18803 302.36694Q167.92287 302.52164 167.38148 303.06302L165.82364 304.62085L168.0002 306.79742ZM175.93306 305.22852L171.53574 300.8312L172.2097 300.15723L172.8726 300.82016Q172.66269 300.102 172.72897 299.74844Q172.79527 299.3728 173.06044 299.10764Q173.43608 298.732 174.05481 298.5773L174.49675 299.52747Q174.05481 299.63797 173.78964 299.90314Q173.53552 300.15723 173.49133 300.5108Q173.44713 300.84225 173.63496 301.18475Q173.90012 301.7151 174.36417 302.17914L176.67331 304.48828L175.93306 305.22852ZM180.36353 297.96964L181.22531 297.2846Q181.72249 298.13535 181.60095 299.00818Q181.47943 299.88104 180.71707 300.64337Q179.75584 301.6046 178.5847 301.5825Q177.4246 301.54935 176.3529 300.47766Q175.24805 299.3728 175.2149 298.1906Q175.1707 296.99734 176.07669 296.09137Q176.96057 295.2075 178.10962 295.25168Q179.26971 295.28482 180.36353 296.37863Q180.42981 296.44492 180.5624 296.5775L177.28098 299.85892Q178.05438 300.54395 178.80568 300.56604Q179.54593 300.5771 180.09836 300.02466Q180.50716 299.61588 180.58449 299.11868Q180.66183 298.5994 180.36353 297.96964ZM176.7175 299.20706L179.17027 296.7543Q178.5626 296.23502 178.05438 296.19083Q177.25888 296.1245 176.6954 296.688Q176.17612 297.20728 176.16507 297.90335Q176.16507 298.58835 176.7175 299.20706ZM186.05353 294.0253Q185.98723 294.7987 185.74416 295.32904Q185.51215 295.8483 185.0702 296.29025Q184.341 297.01947 183.60074 297.0526Q182.86049 297.08575 182.30806 296.53333Q181.98766 296.21292 181.86612 295.8041Q181.73354 295.38428 181.82193 294.9865Q181.89926 294.57773 182.12024 294.2021Q182.26387 293.92587 182.66162 293.41763Q183.4571 292.42325 183.73332 291.83768Q183.57864 291.683 183.5455 291.64987Q183.08147 291.18582 182.68372 291.20792Q182.15338 291.2521 181.5899 291.81558Q181.07063 292.33487 181.00433 292.77682Q180.927 293.2077 181.2695 293.79327L180.44086 294.42303Q180.07626 293.85956 180.02101 293.3403Q179.96577 292.821 180.24199 292.23544Q180.5182 291.64987 181.08168 291.0864Q181.64516 290.52292 182.13129 290.30194Q182.61743 290.08096 182.98203 290.1141Q183.34663 290.14725 183.72227 290.39032Q183.94325 290.545 184.44043 291.0422L185.4348 292.03656Q186.47337 293.07513 186.79378 293.30716Q187.12523 293.5281 187.52298 293.6386L186.73853 294.42303Q186.39603 294.3015 186.05353 294.0253ZM184.3189 292.42325Q184.07584 292.99777 183.39082 293.92587Q182.99307 294.4562 182.89363 294.73242Q182.78316 294.99756 182.82735 295.26273Q182.88258 295.51685 183.08147 295.71573Q183.37978 296.01404 183.79962 295.99194Q184.23051 295.9588 184.6614 295.5279Q185.0923 295.09702 185.23593 294.57773Q185.39061 294.0474 185.21384 293.56125Q185.08125 293.1856 184.59511 292.69946L184.3189 292.42325ZM189.93156 288.00385L190.76021 287.37408Q191.38997 288.24692 191.32367 289.175Q191.25739 290.10306 190.53923 290.82123Q189.63326 291.7272 188.49525 291.69406Q187.35725 291.63882 186.2524 290.53397Q185.54529 289.82684 185.24698 289.0645Q184.94867 288.28006 185.15858 287.5398Q185.37956 286.7885 185.95409 286.214Q186.6612 285.50687 187.47879 285.4185Q188.29637 285.308 189.10292 285.84937L188.4842 286.68906Q187.94283 286.34656 187.45668 286.39075Q186.9595 286.4239 186.58385 286.79956Q186.02037 287.36304 186.07562 288.12537Q186.11981 288.87668 186.99265 289.7495Q187.88757 290.64444 188.62784 290.69968Q189.36809 290.75494 189.90947 290.21356Q190.35141 289.7716 190.3735 289.21918Q190.40665 288.6557 189.93156 288.00385ZM193.87589 285.95987L194.63824 286.50125Q194.38412 286.88794 194.14105 287.131Q193.73225 287.5398 193.38976 287.63925Q193.0362 287.72763 192.72684 287.61716Q192.42853 287.4956 191.75456 286.82166L189.22446 284.29153L188.68307 284.83292L188.10855 284.2584L188.64993 283.717L187.55612 282.6232L187.85443 281.441L189.39018 282.97675L190.14148 282.22546L190.716 282.8L189.9647 283.55127L192.53902 286.12558Q192.85942 286.44598 192.98096 286.50125Q193.11354 286.54544 193.25717 286.5123Q193.4008 286.47916 193.56653 286.31342Q193.69911 286.18085 193.87589 285.95987Z" />
	<path class="txt" fill="#000000" d="M222.81137 299.15182L214.38133 295.42847L215.25417 294.55563L221.25352 297.3951Q221.97168 297.7376 222.56831 298.06906Q222.21475 297.42825 221.9054 296.74326L219.12115 290.68863L219.93875 289.87103L223.64001 298.32318L222.81137 299.15182ZM228.82178 293.14142L228.16992 292.48956Q228.40193 293.76013 227.51805 294.644Q227.13135 295.03073 226.64522 295.22958Q226.15909 295.40637 225.77238 295.35114Q225.37463 295.28482 224.97688 295.01965Q224.72278 294.85394 224.23663 294.3678L221.51869 291.64987L222.26999 290.89856L224.71173 293.3403Q225.28625 293.91483 225.54036 294.08054Q225.89392 294.3015 226.29167 294.25732Q226.6894 294.19104 227.03192 293.8485Q227.36337 293.51706 227.48491 293.0641Q227.60645 292.589 227.42967 292.16916Q227.26393 291.73825 226.70045 291.17477L224.34712 288.82144L225.08737 288.08118L229.4847 292.47852L228.82178 293.14142ZM232.47885 286.6559L233.34062 285.97092Q233.83781 286.82166 233.7163 287.6945Q233.59476 288.56732 232.8324 289.32968Q231.87119 290.2909 230.70003 290.2688Q229.53993 290.23566 228.46823 289.16394Q227.36337 288.05908 227.33023 286.8769Q227.28604 285.68365 228.19202 284.77768Q229.0759 283.8938 230.22495 283.938Q231.38504 283.97113 232.47884 285.06494Q232.54514 285.13123 232.67772 285.26382L229.3963 288.54523Q230.16971 289.23022 230.921 289.25232Q231.66125 289.26337 232.21368 288.71094Q232.62248 288.30215 232.69981 287.80496Q232.77716 287.28568 232.47885 286.6559ZM228.83282 287.89337L231.28561 285.44058Q230.67793 284.9213 230.16971 284.8771Q229.3742 284.81082 228.81073 285.3743Q228.29146 285.8936 228.28041 286.58963Q228.28041 287.27463 228.83282 287.89337Z" />
	<path class="txt" fill="#000000" d="M267.50208 295.26273L261.42538 289.18604L262.23193 288.3795L267.59048 293.73804L270.58463 290.74387L271.3028 291.46204L267.50208 295.26273ZM267.18167 285.15332L266.3199 284.29153L267.0712 283.54022L267.93298 284.402L267.18167 285.15332ZM272.39658 290.36823L267.99927 285.97092L268.75058 285.2196L273.1479 289.61694L272.39658 290.36823ZM275.47913 285.95987L276.2415 286.50125Q275.98737 286.88794 275.7443 287.131Q275.3355 287.5398 274.99298 287.63925Q274.63943 287.72763 274.33008 287.61716Q274.03177 287.4956 273.35782 286.82166L270.8277 284.29153L270.28632 284.83292L269.7118 284.2584L270.25317 283.717L269.15936 282.6232L269.45767 281.441L270.9934 282.97675L271.74472 282.22546L272.31924 282.8L271.56793 283.55127L274.14224 286.12558Q274.46268 286.44598 274.5842 286.50125Q274.71677 286.54544 274.8604 286.5123Q275.00403 286.47916 275.16977 286.31342Q275.30237 286.18085 275.47913 285.95987Z" />
	<path class="txt" fill="#000000" d="M278.6052 324.96124L272.5285 318.88452L274.81555 316.59747Q275.51163 315.90143 276.1193 315.6694Q276.72696 315.43738 277.34567 315.59207Q277.9644 315.72464 278.38425 316.1445Q278.77094 316.5312 278.9035 317.08362Q279.0361 317.63605 278.81512 318.27686Q279.5333 317.89017 280.2183 318.00064Q280.9033 318.08905 281.43362 318.61935Q281.8535 319.0392 282.05234 319.59164Q282.24017 320.13303 282.1739 320.59705Q282.1076 321.0611 281.79825 321.56934Q281.49994 322.0665 280.9254 322.64102L278.6052 324.96124ZM275.88727 320.6302L277.20203 319.31543Q277.73236 318.7851 277.8981 318.4868Q278.11908 318.08905 278.06384 317.72443Q277.99753 317.3488 277.67712 317.02838Q277.3788 316.73007 277.00317 316.64166Q276.6275 316.55328 276.27396 316.75217Q275.9204 316.92892 275.26855 317.5808L274.0532 318.79614L275.88727 320.6302ZM278.6936 323.43652L280.20724 321.92288Q280.59393 321.5362 280.71548 321.34836Q280.95856 321.0169 281.02484 320.72964Q281.09113 320.4203 280.9917 320.07776Q280.89224 319.73526 280.60498 319.448Q280.26248 319.1055 279.8316 319.02817Q279.41174 318.9398 279.00296 319.1497Q278.59415 319.35962 278.00858 319.9452L276.6054 321.34836L278.6936 323.43652ZM286.53806 315.94562Q286.47177 316.71902 286.2287 317.24936Q285.99667 317.76862 285.55475 318.21057Q284.82553 318.9398 284.0853 318.97293Q283.34503 319.00607 282.7926 318.45364Q282.4722 318.13324 282.35068 317.72443Q282.21808 317.3046 282.30646 316.90683Q282.38382 316.49805 282.60477 316.1224Q282.7484 315.8462 283.14615 315.33795Q283.94165 314.34357 284.21786 313.758Q284.0632 313.60333 284.03003 313.5702Q283.566 313.10614 283.16824 313.12823Q282.63794 313.17242 282.07446 313.7359Q281.55518 314.2552 281.4889 314.69714Q281.41153 315.12802 281.75403 315.7136L280.9254 316.34335Q280.5608 315.77988 280.50555 315.26062Q280.45032 314.74133 280.72653 314.15576Q281.00275 313.5702 281.56622 313.0067Q282.1297 312.44324 282.6158 312.22226Q283.10196 312.00128 283.46655 312.03442Q283.83118 312.06757 284.20682 312.31064Q284.4278 312.46533 284.925 312.96252L285.91934 313.95688Q286.95792 314.99545 287.27832 315.22748Q287.60977 315.44843 288.0075 315.55893L287.22308 316.34335Q286.88055 316.22183 286.53806 315.94562ZM284.80344 314.34357Q284.56036 314.9181 283.87537 315.8462Q283.4776 316.37653 283.37817 316.65274Q283.2677 316.91788 283.3119 317.18304Q283.36713 317.43716 283.566 317.63605Q283.86432 317.93436 284.28415 317.91226Q284.71506 317.87912 285.14594 317.4482Q285.57684 317.01733 285.72046 316.49805Q285.87515 315.9677 285.69836 315.48157Q285.5658 315.10593 285.07965 314.61978L284.80344 314.34357ZM290.4161 309.92416L291.24475 309.2944Q291.8745 310.16724 291.80823 311.0953Q291.7419 312.02338 291.02377 312.74155Q290.1178 313.64752 288.9798 313.61438Q287.8418 313.55914 286.73694 312.45428Q286.02982 311.74716 285.7315 310.98483Q285.4332 310.20038 285.64313 309.4601Q285.8641 308.70883 286.43863 308.1343Q287.14572 307.4272 287.96332 307.3388Q288.7809 307.22833 289.58746 307.76968L288.96875 308.60938Q288.42737 308.26688 287.94122 308.31107Q287.44403 308.3442 287.0684 308.71988Q286.5049 309.28336 286.56015 310.0457Q286.60434 310.797 287.47717 311.66983Q288.37213 312.56476 289.11237 312.62Q289.85263 312.67526 290.394 312.13388Q290.83594 311.69193 290.85803 311.1395Q290.89117 310.57602 290.4161 309.92416ZM293.3992 310.16724L287.3225 304.09055L288.07382 303.33923L291.54306 306.80847L291.50992 303.2619L292.48218 302.2896L292.4159 305.6042L297.04523 306.5212L296.1282 307.43823L292.4159 306.64273L292.40485 307.67026L294.1505 309.41592L293.3992 310.16724ZM298.32684 305.2396L297.6308 305.93564L291.5541 299.85895L292.3054 299.10764L294.47092 301.27316Q294.36044 300.2125 295.08963 299.48328Q295.49844 299.0745 296.0177 298.88666Q296.537 298.67676 297.06732 298.74304Q297.6087 298.79828 298.16113 299.08554Q298.71356 299.3728 299.18863 299.8479Q300.31558 300.97485 300.37085 302.15704Q300.4261 303.33923 299.65268 304.11264Q298.86823 304.89706 297.77444 304.68716L298.32684 305.2396ZM296.084 303.01883Q296.86844 303.80328 297.44296 303.93585Q298.37106 304.15683 298.96768 303.5602Q299.4538 303.07407 299.3875 302.30066Q299.33228 301.51624 298.48154 300.6655Q297.61975 299.8037 296.86844 299.7374Q296.11716 299.6711 295.631 300.15726Q295.14487 300.64337 295.21118 301.43887Q295.27747 302.21228 296.084 303.01883ZM300.11673 299.0524Q298.89032 297.82602 298.97873 296.56647Q299.05606 295.51688 299.87366 294.69928Q300.77963 293.79327 301.95078 293.8154Q303.12192 293.8154 304.17154 294.865Q305.02228 295.71573 305.2543 296.456Q305.4863 297.19623 305.26535 297.96964Q305.04437 298.72095 304.46985 299.29547Q303.55283 300.2125 302.39273 300.20145Q301.23264 300.1683 300.11673 299.0524ZM300.87906 298.29004Q301.71875 299.12973 302.5032 299.18497Q303.2987 299.2292 303.85114 298.67676Q304.4146 298.11328 304.35938 297.32883Q304.3041 296.54437 303.44232 295.6826Q302.62473 294.865 301.82925 294.8208Q301.0448 294.76556 300.49237 295.318Q299.93994 295.87042 299.98413 296.66592Q300.02832 297.4393 300.87906 298.29004ZM307.54135 296.0251L303.144 291.62778L303.80695 290.96487L304.42566 291.5836Q304.19363 290.3793 305.11066 289.46225Q305.50842 289.0645 305.9835 288.87668Q306.46964 288.67783 306.86737 288.7441Q307.26514 288.8104 307.64078 289.05347Q307.88385 289.23026 308.40314 289.7495L311.11002 292.45642L310.36978 293.19666L307.696 290.52292Q307.232 290.05887 306.92264 289.9263Q306.61325 289.7937 306.2597 289.8821Q305.8951 289.95944 305.5968 290.25775Q305.1217 290.73285 305.0775 291.39575Q305.03333 292.03656 305.87302 292.87625L308.2816 295.28485L307.54135 296.0251ZM314.0821 286.65594L314.94388 285.97092Q315.44104 286.82166 315.31952 287.6945Q315.19797 288.56732 314.43564 289.32968Q313.4744 290.2909 312.30325 290.2688Q311.14316 290.23566 310.07147 289.16394Q308.9666 288.05908 308.93347 286.8769Q308.88925 285.68365 309.79526 284.77768Q310.67914 283.8938 311.8282 283.938Q312.98828 283.97113 314.0821 285.06494Q314.14838 285.13123 314.28094 285.26382L310.99954 288.54523Q311.77295 289.23026 312.52423 289.25235Q313.2645 289.2634 313.81693 288.71097Q314.2257 288.30215 314.30304 287.805Q314.3804 287.2857 314.0821 286.65594ZM310.43607 287.89337L312.88882 285.44058Q312.28116 284.9213 311.77295 284.8771Q310.97745 284.81082 310.41397 285.3743Q309.89468 285.8936 309.88364 286.58963Q309.88364 287.27466 310.43607 287.89337Z" />
	<path class="txt" fill="#000000" d="M327.96945 316.3986L324.224 307.99066L325.0858 307.12888L333.6484 310.71964L332.74243 311.62564L330.17917 310.4987L327.64905 313.02878L328.8202 315.54785L327.96945 316.3986ZM327.22922 312.1449L329.28424 310.08987L326.9751 309.04025Q325.91443 308.57623 325.28467 308.21164Q325.7487 308.91873 326.1133 309.7032L327.22922 312.1449ZM333.49374 310.87433L329.0964 306.47702L329.7593 305.8141L330.37805 306.4328Q330.14603 305.22852 331.06305 304.3115Q331.4608 303.91376 331.93588 303.72592Q332.42203 303.52704 332.81976 303.59332Q333.21753 303.65964 333.59317 303.9027Q333.83624 304.07947 334.35553 304.59875L337.0624 307.30563L336.32214 308.0459L333.6484 305.37216Q333.18436 304.9081 332.875 304.77554Q332.56564 304.64294 332.2121 304.73132Q331.8475 304.8087 331.5492 305.107Q331.0741 305.58206 331.0299 306.245Q330.98572 306.8858 331.8254 307.7255L334.23398 310.13406L333.49374 310.87433ZM338.66446 306.4328L339.50415 305.8141Q339.8798 306.10135 340.2444 306.0461Q340.73053 305.97983 341.20563 305.50473Q341.72488 304.98544 341.7912 304.49933Q341.86853 304.00214 341.60336 303.5381Q341.43762 303.23978 340.6974 302.52164Q340.78577 303.58228 340.05658 304.3115Q339.15057 305.21747 338.00153 305.0628Q336.84143 304.89706 335.93546 303.9911Q335.3057 303.36133 334.99634 302.61002Q334.68698 301.8366 334.8306 301.11847Q334.97424 300.4003 335.5598 299.81473Q336.34427 299.03027 337.48227 299.15182L336.95193 298.6215L337.63693 297.9365L341.43762 301.73718Q342.46515 302.7647 342.68613 303.40552Q342.9071 304.04633 342.69717 304.74237Q342.4983 305.4495 341.8354 306.1124Q341.05093 306.89685 340.21124 307.02942Q339.37155 307.16202 338.66446 306.4328ZM336.64258 303.1735Q337.50436 304.03528 338.2446 304.0905Q338.98486 304.14575 339.50415 303.6265Q340.0234 303.1072 339.96817 302.36694Q339.92398 301.61563 339.0843 300.77597Q338.27774 299.96942 337.50436 299.92523Q336.742 299.86996 336.23376 300.3782Q335.73657 300.8754 335.79184 301.63776Q335.84708 302.378 336.64258 303.1735ZM346.2769 298.09116L345.62503 297.4393Q345.85706 298.70987 344.97318 299.59375Q344.58646 299.98047 344.10034 300.17932Q343.6142 300.3561 343.2275 300.30087Q342.82974 300.2346 342.432 299.96942Q342.1779 299.80368 341.69174 299.31754L338.97382 296.5996L339.7251 295.8483L342.16684 298.29004Q342.74136 298.86456 342.99548 299.03027Q343.34903 299.25125 343.74677 299.20706Q344.14453 299.14078 344.48703 298.79828Q344.81848 298.4668 344.94003 298.01382Q345.06155 297.53873 344.88477 297.1189Q344.71906 296.688 344.15558 296.1245L341.80225 293.77118L342.54248 293.0309L346.93982 297.42825L346.2769 298.09116ZM348.32086 296.04718L342.24417 289.9705L342.99548 289.21918L349.07217 295.29587L348.32086 296.04718ZM352.79553 290.48978Q352.72925 291.26315 352.48618 291.7935Q352.25415 292.31277 351.81223 292.7547Q351.083 293.48392 350.34277 293.51706Q349.6025 293.5502 349.05008 292.99777Q348.72968 292.67737 348.60812 292.2686Q348.47556 291.84872 348.56393 291.451Q348.6413 291.04218 348.86224 290.66653Q349.0059 290.39032 349.40363 289.88208Q350.19913 288.88773 350.47534 288.30215Q350.32065 288.14746 350.2875 288.11432Q349.8235 287.6503 349.42572 287.6724Q348.8954 287.71658 348.3319 288.28006Q347.81265 288.79935 347.74634 289.24127Q347.669 289.67218 348.0115 290.25775L347.18286 290.8875Q346.81827 290.32404 346.76303 289.80475Q346.7078 289.28546 346.984 288.6999Q347.26022 288.11432 347.8237 287.55084Q348.38718 286.98737 348.8733 286.76642Q349.35944 286.54544 349.72403 286.57858Q350.08865 286.61172 350.4643 286.8548Q350.68527 287.00946 351.18243 287.50665L352.17682 288.50104Q353.2154 289.53958 353.5358 289.7716Q353.86725 289.99258 354.26498 290.10306L353.48056 290.8875Q353.13803 290.766 352.79553 290.48978ZM351.0609 288.88773Q350.81784 289.46225 350.13284 290.39032Q349.73508 290.92065 349.63565 291.19687Q349.52518 291.46204 349.56937 291.7272Q349.6246 291.98132 349.8235 292.18018Q350.1218 292.47852 350.54163 292.4564Q350.97253 292.42325 351.4034 291.99237Q351.83432 291.56146 351.97794 291.04218Q352.13263 290.51187 351.95584 290.02573Q351.82327 289.6501 351.33713 289.16394L351.0609 288.88773ZM355.40298 288.96506L351.00568 284.56775L351.67963 283.89377L352.34256 284.5567Q352.13263 283.83853 352.1989 283.485Q352.2652 283.10934 352.53036 282.84418Q352.90604 282.4685 353.52475 282.31384L353.96667 283.264Q353.52475 283.3745 353.25958 283.63968Q353.00546 283.89377 352.96127 284.24734Q352.91708 284.5788 353.1049 284.9213Q353.37006 285.45163 353.8341 285.91568L356.14325 288.22482L355.40298 288.96506Z" />
	<path class="txt" fill="#000000" d="M382.8911 302.27856L376.81442 296.20187L381.20068 291.8156L381.91882 292.53375L378.3391 296.1135L380.19525 297.96964L383.55402 294.61087L384.2722 295.32904L380.91342 298.6878L382.9795 300.75388L386.70285 297.03052L387.42102 297.74866L382.8911 302.27856ZM386.3051 294.9534L386.9901 294.1358Q387.5094 294.5446 387.99554 294.63297Q388.48166 294.72137 389.07828 294.5004Q389.67493 294.25732 390.19418 293.73804Q390.6472 293.28506 390.86816 292.79892Q391.07806 292.30173 391.01178 291.904Q390.9455 291.48413 390.66928 291.20792Q390.38202 290.92065 390.00638 290.87646Q389.61966 290.82123 389.1004 291.05325Q388.74683 291.20792 387.70828 291.84875Q386.68076 292.47852 386.17252 292.63318Q385.49857 292.8431 384.95718 292.7216Q384.40475 292.589 383.98492 292.16916Q383.53192 291.71616 383.3883 291.0643Q383.24466 290.39035 383.54297 289.69427Q383.84128 288.97614 384.44894 288.36844Q385.12292 287.6945 385.86316 287.39618Q386.59238 287.08682 387.29947 287.24152Q387.99554 287.38513 388.54797 287.89337L387.8298 288.72202Q387.189 288.21378 386.53714 288.2911Q385.88525 288.34634 385.1892 289.04242Q384.46 289.7716 384.3937 290.36823Q384.32742 290.96487 384.70306 291.3405Q385.03452 291.67197 385.47647 291.64987Q385.9184 291.62778 387.11166 290.87646Q388.31595 290.11414 388.84628 289.91525Q389.6307 289.63904 390.2605 289.76056Q390.8792 289.87106 391.37637 290.36823Q391.86252 290.85437 392.0172 291.5615Q392.16083 292.25754 391.8846 293.0199Q391.59735 293.77118 390.9455 294.42307Q390.11685 295.2517 389.32135 295.58316Q388.52588 295.89252 387.71933 295.72678Q386.92383 295.55002 386.3051 294.9534ZM392.29343 289.69427L393.01157 288.84354Q393.6745 289.32968 394.27112 289.3076Q394.87878 289.27444 395.33176 288.82144Q395.8621 288.2911 395.82895 287.50665Q395.7958 286.72223 395.1329 286.0593Q394.49207 285.4185 393.76288 285.4185Q393.03366 285.3964 392.4481 285.98196Q392.09454 286.3355 391.96198 286.79956Q391.84042 287.25256 391.9288 287.6724L391.14438 288.28006L388.61426 284.5788L391.64154 281.5515L392.34866 282.2586L389.91797 284.6893L391.23276 286.64487Q391.38745 285.7168 391.98407 285.12018Q392.77954 284.32468 393.87335 284.33572Q394.9782 284.33572 395.85104 285.20856Q396.66864 286.02615 396.8012 287.10892Q396.94485 288.4237 395.93942 289.4291Q395.1108 290.25775 394.11642 290.32404Q393.13312 290.37927 392.29343 289.69427Z" />
	<path class="txt" fill="#000000" d="M417.31772 308.65356L411.24103 302.57687L413.93686 299.881Q414.75446 299.06345 415.34003 298.80933Q415.9256 298.5552 416.59958 298.72092Q417.26248 298.8756 417.75967 299.3728Q418.41153 300.02466 418.43362 300.88644Q418.45572 301.74823 417.70444 302.74258Q418.1795 302.57687 418.48886 302.55478Q419.16284 302.52164 419.95834 302.6984L422.67627 303.295L421.65982 304.3115L419.60477 303.84744Q418.6988 303.6486 418.1795 303.59332Q417.6713 303.52704 417.373 303.60437Q417.07465 303.65964 416.8316 303.7922Q416.6769 303.90268 416.36755 304.21207L415.42844 305.15118L418.12427 307.84702L417.31772 308.65356ZM414.73236 304.4551L416.46698 302.7205Q417.00836 302.1791 417.20724 301.75928Q417.40613 301.31732 417.31772 300.9196Q417.22934 300.49976 416.93103 300.20142Q416.50012 299.77054 415.9035 299.81473Q415.31793 299.84787 414.64398 300.52185L412.72153 302.44427L414.73236 304.4551ZM425.17325 297.96964L426.03503 297.2846Q426.53223 298.13535 426.41068 299.00818Q426.28915 299.881 425.5268 300.64337Q424.56558 301.60458 423.39444 301.5825Q422.23434 301.54935 421.16263 300.47763Q420.05777 299.3728 420.02463 298.19058Q419.98044 296.99734 420.8864 296.09137Q421.7703 295.2075 422.91934 295.25168Q424.07944 295.28482 425.17325 296.37863Q425.23953 296.44492 425.37213 296.5775L422.0907 299.85892Q422.8641 300.54395 423.6154 300.56604Q424.35565 300.5771 424.90808 300.02466Q425.31686 299.61584 425.39423 299.11868Q425.47156 298.5994 425.17325 297.96964ZM421.52722 299.20706L423.98 296.75427Q423.37234 296.23502 422.8641 296.1908Q422.0686 296.1245 421.50513 296.688Q420.98584 297.20728 420.9748 297.90332Q420.9748 298.58835 421.52722 299.20706ZM430.86325 294.0253Q430.79694 294.7987 430.5539 295.329Q430.32187 295.8483 429.8799 296.29025Q429.15073 297.01944 428.41046 297.05258Q427.67023 297.08575 427.1178 296.53333Q426.79736 296.21292 426.67584 295.8041Q426.54327 295.38428 426.63165 294.9865Q426.70898 294.57773 426.92996 294.2021Q427.07358 293.92587 427.47134 293.41763Q428.26685 292.42325 428.54306 291.83768Q428.38837 291.683 428.35522 291.64987Q427.89117 291.18582 427.49344 291.20792Q426.9631 291.2521 426.39963 291.81558Q425.88034 292.33487 425.81406 292.77682Q425.73672 293.2077 426.07922 293.79327L425.25058 294.42303Q424.886 293.85956 424.83075 293.34027Q424.77548 292.821 425.0517 292.23544Q425.3279 291.64987 425.8914 291.0864Q426.45486 290.52292 426.941 290.30194Q427.42715 290.08096 427.79175 290.1141Q428.15634 290.14725 428.532 290.39032Q428.75296 290.545 429.25015 291.04218L430.24454 292.03656Q431.28308 293.07513 431.6035 293.30713Q431.93494 293.5281 432.3327 293.6386L431.54825 294.42303Q431.20575 294.3015 430.86325 294.0253ZM429.12863 292.42325Q428.88556 292.99777 428.20053 293.92587Q427.8028 294.45618 427.70337 294.7324Q427.59286 294.99756 427.63705 295.26273Q427.69232 295.51685 427.89117 295.71573Q428.18948 296.01404 428.60934 295.99194Q429.04022 295.9588 429.47113 295.5279Q429.902 295.09702 430.04565 294.57773Q430.20032 294.0474 430.02356 293.56125Q429.89096 293.1856 429.40485 292.69946L429.12863 292.42325ZM434.74127 288.00385L435.56992 287.37408Q436.19968 288.24692 436.1334 289.175Q436.0671 290.10306 435.34894 290.82123Q434.44296 291.7272 433.30496 291.69406Q432.16696 291.63882 431.0621 290.53397Q430.355 289.82684 430.0567 289.0645Q429.7584 288.28006 429.96832 287.5398Q430.18927 286.7885 430.7638 286.214Q431.47092 285.50687 432.2885 285.4185Q433.1061 285.30798 433.91263 285.84937L433.2939 286.68906Q432.75253 286.34656 432.26642 286.39075Q431.76923 286.4239 431.3936 286.79956Q430.8301 287.36304 430.88535 288.12537Q430.92953 288.87668 431.80237 289.7495Q432.6973 290.64444 433.43756 290.69968Q434.1778 290.7549 434.71918 290.21356Q435.16113 289.7716 435.18323 289.21918Q435.21637 288.6557 434.74127 288.00385ZM438.6856 285.95987L439.44797 286.50125Q439.19385 286.88794 438.95078 287.131Q438.542 287.5398 438.19946 287.63925Q437.84592 287.72763 437.53656 287.61713Q437.23825 287.4956 436.5643 286.82166L434.03418 284.29153L433.4928 284.83292L432.91827 284.2584L433.45966 283.717L432.36584 282.6232L432.66415 281.441L434.1999 282.97675L434.9512 282.22546L435.52573 282.8L434.7744 283.55127L437.34872 286.12558Q437.66916 286.44598 437.79068 286.50125Q437.92325 286.54544 438.0669 286.5123Q438.2105 286.47913 438.37625 286.31342Q438.50882 286.18082 438.6856 285.95987Z" />
	<path class="txt" fill="#000000" d="M430.54218 336.23074L424.46548 330.15405L427.16132 327.4582Q427.9789 326.6406 428.56448 326.38647Q429.15005 326.1324 429.824 326.2981Q430.48694 326.4528 430.9841 326.94995Q431.636 327.60184 431.65808 328.46362Q431.68018 329.3254 430.92886 330.31976Q431.40396 330.15405 431.71332 330.13196Q432.38727 330.0988 433.18277 330.27557L435.90073 330.8722L434.88425 331.88867L432.82922 331.42462Q431.92325 331.22574 431.40396 331.1705Q430.89572 331.10422 430.5974 331.18155Q430.2991 331.2368 430.05603 331.3694Q429.90137 331.47986 429.592 331.7892L428.65286 332.72836L431.34872 335.4242L430.54218 336.23074ZM427.95682 332.0323L429.69144 330.29767Q430.23282 329.7563 430.4317 329.33646Q430.63055 328.8945 430.54218 328.49677Q430.4538 328.0769 430.1555 327.7786Q429.72458 327.34772 429.12796 327.3919Q428.5424 327.42505 427.86844 328.099L425.94598 330.02145L427.95682 332.0323ZM438.39767 325.5468L439.25946 324.8618Q439.75665 325.71252 439.63513 326.58536Q439.51358 327.4582 438.75125 328.22055Q437.79 329.18176 436.61887 329.15967Q435.45877 329.12653 434.38705 328.0548Q433.28223 326.94995 433.24905 325.76776Q433.20486 324.57452 434.11084 323.66855Q434.99475 322.78467 436.1438 322.82886Q437.3039 322.862 438.39767 323.9558Q438.464 324.0221 438.59656 324.1547L435.31516 327.4361Q436.08853 328.12112 436.83984 328.14322Q437.5801 328.15427 438.1325 327.60184Q438.54132 327.19302 438.61865 326.69586Q438.69598 326.17657 438.39767 325.5468ZM434.75168 326.78424L437.20444 324.33145Q436.59677 323.81216 436.08853 323.76797Q435.29306 323.7017 434.72958 324.26517Q434.2103 324.78445 434.19925 325.4805Q434.19925 326.16553 434.75168 326.78424ZM444.08768 321.60248Q444.0214 322.37585 443.77832 322.9062Q443.5463 323.42548 443.10437 323.86743Q442.37515 324.59662 441.63492 324.62976Q440.89465 324.6629 440.34222 324.1105Q440.02182 323.79007 439.9003 323.3813Q439.7677 322.96143 439.8561 322.5637Q439.93344 322.1549 440.15442 321.77924Q440.29803 321.50302 440.69577 320.9948Q441.49127 320.00043 441.7675 319.41486Q441.61282 319.2602 441.57968 319.22702Q441.11563 318.763 440.7179 318.7851Q440.18756 318.82928 439.62408 319.39276Q439.1048 319.91205 439.0385 320.35397Q438.96115 320.78488 439.30368 321.37045L438.47504 322.0002Q438.1104 321.43674 438.05518 320.91745Q437.99994 320.3982 438.27615 319.8126Q438.55237 319.22702 439.11584 318.66354Q439.67932 318.10007 440.16547 317.87912Q440.65158 317.65814 441.0162 317.69128Q441.3808 317.72443 441.75644 317.9675Q441.97742 318.1222 442.4746 318.61935L443.46896 319.61374Q444.50754 320.65228 444.82794 320.8843Q445.1594 321.1053 445.55713 321.21576L444.7727 322.0002Q444.4302 321.8787 444.08768 321.60248ZM442.35306 320.00043Q442.11 320.57495 441.425 321.50302Q441.02725 322.03336 440.9278 322.30957Q440.81732 322.57474 440.8615 322.8399Q440.91675 323.09402 441.11563 323.2929Q441.41394 323.59122 441.83377 323.56912Q442.26468 323.53598 442.69556 323.10507Q443.12646 322.67416 443.27008 322.1549Q443.42477 321.62457 443.248 321.13843Q443.11542 320.7628 442.62927 320.27664L442.35306 320.00043ZM447.96573 315.58102L448.79437 314.95123Q449.42413 315.8241 449.35785 316.75217Q449.29156 317.68024 448.5734 318.3984Q447.66742 319.30438 446.52942 319.27124Q445.39142 319.21597 444.28656 318.11115Q443.57947 317.40402 443.28116 316.64166Q442.98282 315.85724 443.19275 315.11697Q443.41373 314.36566 443.98825 313.79114Q444.69534 313.08405 445.51294 312.99567Q446.33054 312.88516 447.1371 313.42654L446.51837 314.26624Q445.977 313.92374 445.49084 313.96793Q444.99368 314.00107 444.618 314.3767Q444.05453 314.9402 444.10977 315.70255Q444.154 316.45386 445.02682 317.3267Q445.92175 318.22162 446.662 318.27686Q447.40225 318.3321 447.94363 317.7907Q448.38556 317.3488 448.40765 316.79636Q448.44083 316.23288 447.96573 315.58102ZM451.91006 313.53705L452.6724 314.0784Q452.41827 314.46512 452.17523 314.7082Q451.76642 315.11697 451.42392 315.2164Q451.07037 315.3048 450.76102 315.1943Q450.4627 315.07278 449.78873 314.39883L447.2586 311.8687L446.71725 312.4101L446.14273 311.83557L446.68408 311.2942L445.5903 310.20038L445.8886 309.0182L447.42435 310.55392L448.17566 309.8026L448.75018 310.37714L447.99887 311.12845L450.57318 313.70276Q450.8936 314.02316 451.01514 314.0784Q451.1477 314.12262 451.29135 314.08945Q451.43497 314.0563 451.6007 313.8906Q451.73328 313.758 451.91006 313.53705ZM450.94882 312.17807L450.19754 311.42676L452.49564 309.12866L453.24692 309.87997L450.94882 312.17807ZM455.99802 310.7749L449.92133 304.6982L452.61716 302.00235Q453.43475 301.18475 454.02032 300.93063Q454.6059 300.6765 455.27988 300.84225Q455.94278 300.99695 456.43997 301.4941Q457.09183 302.146 457.11392 303.00778Q457.13602 303.86957 456.3847 304.86392Q456.8598 304.6982 457.16916 304.6761Q457.8431 304.64294 458.6386 304.81973L461.35657 305.41635L460.3401 306.43283L458.28506 305.96878Q457.3791 305.7699 456.8598 305.71466Q456.35156 305.64838 456.05325 305.7257Q455.75494 305.78094 455.51187 305.91354Q455.3572 306.02402 455.04785 306.33337L454.1087 307.27252L456.80457 309.96835L455.99802 310.7749ZM453.41266 306.57645L455.14728 304.84183Q455.68866 304.30045 455.88754 303.8806Q456.0864 303.43866 455.99802 303.04092Q455.90964 302.62106 455.61133 302.32275Q455.18042 301.89188 454.5838 301.93607Q453.99823 301.9692 453.32428 302.64316L451.40182 304.5656L453.41266 306.57645ZM463.85355 300.09094L464.71533 299.40594Q465.2125 300.25668 465.09097 301.12952Q464.96942 302.00235 464.2071 302.7647Q463.24585 303.72592 462.0747 303.70383Q460.9146 303.6707 459.8429 302.59897Q458.73807 301.4941 458.7049 300.31192Q458.6607 299.11868 459.5667 298.2127Q460.4506 297.32883 461.59964 297.37302Q462.75974 297.40616 463.85355 298.49997Q463.91983 298.56625 464.0524 298.69885L460.771 301.98026Q461.54437 302.66525 462.2957 302.68738Q463.03595 302.69843 463.58838 302.146Q463.99716 301.73718 464.0745 301.24Q464.15186 300.72073 463.85355 300.09094ZM460.20752 301.3284L462.66028 298.8756Q462.0526 298.35632 461.54437 298.31213Q460.7489 298.24585 460.18542 298.80933Q459.66614 299.3286 459.6551 300.02466Q459.6551 300.7097 460.20752 301.3284ZM470.0628 296.7101L469.51038 296.15768Q469.7424 297.22937 468.93585 298.03592Q468.40552 298.56625 467.67633 298.72095Q466.93607 298.86456 466.17374 298.58835Q465.41138 298.31213 464.73743 297.63818Q464.08554 296.98633 463.76514 296.22397Q463.44473 295.4616 463.61047 294.74347Q463.76514 294.01425 464.30652 293.47287Q464.70425 293.07513 465.17935 292.9315Q465.65445 292.78787 466.11847 292.85416L463.94193 290.67758L464.68216 289.93735L470.75888 296.01404L470.0628 296.7101ZM465.5108 296.86478Q466.36154 297.7155 467.13495 297.7818Q467.8973 297.83707 468.38342 297.35092Q468.86957 296.86478 468.81433 296.12454Q468.7591 295.38428 467.9415 294.56668Q467.03552 293.6607 466.26212 293.59442Q465.49976 293.51706 464.99155 294.0253Q464.49435 294.5225 464.5717 295.26276Q464.63797 295.99194 465.5108 296.86478ZM475.04572 291.7272L474.39383 291.07535Q474.62585 292.34592 473.74197 293.2298Q473.3553 293.61652 472.86914 293.81537Q472.383 293.99216 471.9963 293.93692Q471.59857 293.87064 471.2008 293.60547Q470.9467 293.43973 470.46057 292.95358L467.7426 290.23566L468.49393 289.48434L470.93564 291.9261Q471.51016 292.5006 471.76428 292.66632Q472.11783 292.8873 472.5156 292.8431Q472.91333 292.77682 473.25583 292.43433Q473.5873 292.10284 473.70883 291.64987Q473.83035 291.17477 473.6536 290.75494Q473.48785 290.32404 472.92438 289.76056L470.57104 287.40723L471.3113 286.66696L475.70862 291.0643L475.04572 291.7272ZM476.6146 290.15833L475.9296 286.26923L472.3388 285.63947L473.26688 284.7114L474.96835 285.06494Q475.4545 285.1754 475.7749 285.25278Q475.67548 284.79977 475.62024 284.43518L475.32193 282.65634L476.21686 281.7614L476.75824 285.3522L480.72467 286.04825L479.81866 286.95422L477.54266 286.4902L476.935 286.36865L477.50952 289.2634L476.6146 290.15833Z" />
	<path class="txt" fill="#000000" d="M466.4051 341.16943L460.3284 335.09274L464.7147 330.70645L465.43283 331.42462L461.85312 335.00433L463.70926 336.8605L467.06802 333.50174L467.78616 334.2199L464.42743 337.57864L466.4935 339.64474L470.21686 335.92136L470.935 336.63953L466.4051 341.16943ZM469.8191 333.84424L470.50412 333.02664Q471.0234 333.43546 471.50952 333.52383Q471.99567 333.6122 472.5923 333.39127Q473.1889 333.1482 473.7082 332.6289Q474.1612 332.1759 474.38214 331.6898Q474.59207 331.1926 474.5258 330.79486Q474.4595 330.375 474.1833 330.0988Q473.89603 329.81152 473.52036 329.76733Q473.13367 329.7121 472.61438 329.94412Q472.26083 330.0988 471.22226 330.7396Q470.19476 331.3694 469.68652 331.52405Q469.01257 331.73398 468.4712 331.61243Q467.91876 331.47986 467.4989 331.06Q467.04593 330.60703 466.90228 329.95517Q466.75867 329.2812 467.05698 328.58514Q467.3553 327.86697 467.96295 327.2593Q468.6369 326.58536 469.37717 326.28705Q470.10635 325.9777 470.81348 326.13235Q471.50952 326.276 472.06195 326.7842L471.3438 327.61285Q470.703 327.10464 470.05112 327.18198Q469.39926 327.2372 468.70322 327.9333Q467.974 328.66248 467.9077 329.2591Q467.84143 329.8557 468.21707 330.23138Q468.54852 330.56284 468.99048 330.54074Q469.4324 330.51865 470.62564 329.76733Q471.82993 329.00497 472.36026 328.80612Q473.1447 328.5299 473.77448 328.65143Q474.3932 328.7619 474.89038 329.2591Q475.37653 329.74524 475.5312 330.45233Q475.67484 331.1484 475.39862 331.91074Q475.11136 332.66205 474.4595 333.3139Q473.63086 334.14255 472.83536 334.474Q472.03986 334.78336 471.2333 334.61765Q470.43784 334.44086 469.8191 333.84424ZM476.68024 321.724L475.99524 322.5195Q475.45386 322.17697 475.07822 322.15488Q474.44846 322.14383 474.0065 322.5858Q473.65295 322.93933 473.57562 323.41443Q473.49826 324.0221 473.78552 324.7292Q474.07278 325.4142 474.9677 326.33124Q474.8241 325.6573 475.01193 325.07172Q475.2108 324.47507 475.6417 324.0442Q476.38193 323.30392 477.45364 323.33707Q478.5364 323.3592 479.3982 324.22098Q479.97272 324.7955 480.2158 325.54678Q480.45886 326.276 480.29312 326.97205Q480.11633 327.65707 479.57498 328.19843Q478.63583 329.13757 477.36526 329.03812Q476.09467 328.9387 474.5258 327.3698Q472.75803 325.60202 472.61438 324.15466Q472.4818 322.89514 473.44302 321.93393Q474.1612 321.21576 475.02298 321.17157Q475.88477 321.1053 476.68024 321.724ZM476.2604 327.38086Q476.6471 327.76755 477.15533 327.96643Q477.66357 328.1432 478.13867 328.04376Q478.6248 327.9333 478.95624 327.6018Q479.4203 327.1378 479.38715 326.41962Q479.34296 325.69043 478.69107 325.03854Q478.0613 324.40878 477.35422 324.3867Q476.65814 324.35355 476.14993 324.8618Q475.6417 325.37003 475.65274 326.08817Q475.67484 326.7953 476.2604 327.38086ZM480.43677 323.49176L479.68546 322.74045L481.98355 320.44235L482.73486 321.19366L480.43677 323.49176ZM486.53555 321.03897L478.84576 316.57538L479.6744 315.74673L484.591 318.8072Q485.35336 319.28226 486.08255 319.7905Q485.34232 318.5862 485.2318 318.38733L482.28186 313.13928L483.25412 312.167L487.19846 314.36566Q488.6679 315.1943 489.828 316.04504Q489.36398 315.36005 488.8005 314.4209L485.85056 309.5706L486.65707 308.76404L491.0765 316.49802L490.29205 317.28247L484.39212 313.9237Q483.6519 313.51492 483.48615 313.4155Q483.80655 313.91266 484.01648 314.29938L487.3642 320.21033L486.53555 321.03897ZM494.75568 309.99045L495.61746 309.30542Q496.11462 310.15616 495.9931 311.029Q495.87158 311.90182 495.10922 312.66418Q494.148 313.6254 492.97684 313.6033Q491.81674 313.57016 490.74506 312.49844Q489.6402 311.39362 489.60706 310.2114Q489.56287 309.01816 490.46884 308.11218Q491.35272 307.2283 492.50177 307.2725Q493.66187 307.30563 494.75568 308.39944Q494.82196 308.46573 494.95453 308.59833L491.67313 311.87973Q492.44653 312.56476 493.1978 312.58685Q493.93808 312.5979 494.4905 312.04547Q494.8993 311.63666 494.97662 311.1395Q495.054 310.6202 494.75568 309.99045ZM491.10965 311.22787L493.56244 308.7751Q492.95474 308.25583 492.44653 308.2116Q491.65103 308.14532 491.08755 308.7088Q490.56827 309.2281 490.55722 309.92413Q490.55722 310.60916 491.10965 311.22787ZM498.79944 308.7751L498.10336 309.47116L492.02667 303.39447L492.77798 302.64316L494.94348 304.8087Q494.83304 303.748 495.56223 303.0188Q495.97104 302.61 496.4903 302.42218Q497.00958 302.21225 497.53992 302.27853Q498.0813 302.33377 498.63373 302.62103Q499.18616 302.9083 499.66125 303.3834Q500.7882 304.51035 500.84344 305.69254Q500.89868 306.87473 500.12527 307.64813Q499.34082 308.4326 498.247 308.2227L498.79944 308.7751ZM496.55658 306.55435Q497.34103 307.33878 497.91556 307.47137Q498.84366 307.69232 499.44028 307.0957Q499.92642 306.60956 499.8601 305.83615Q499.80487 305.05173 498.95413 304.201Q498.09235 303.3392 497.34103 303.2729Q496.58975 303.2066 496.1036 303.69275Q495.61746 304.1789 495.68378 304.97437Q495.75003 305.7478 496.55658 306.55435ZM504.7546 306.20078L498.66687 300.113L499.34082 299.43906L499.9043 300.00253Q499.81592 299.428 499.94852 298.96396Q500.09213 298.4889 500.52304 298.05798Q501.08652 297.4945 501.80466 297.3509Q502.52283 297.20724 503.26306 297.52765Q504.01437 297.837 504.64413 298.4668Q505.31808 299.14075 505.6164 299.9252Q505.92578 300.69858 505.749 301.4499Q505.5722 302.2012 505.064 302.70944Q504.68832 303.08508 504.23535 303.2287Q503.7713 303.3613 503.35147 303.3171L505.49487 305.4605L504.7546 306.20078ZM501.56158 301.65982Q502.41232 302.51056 503.16364 302.57684Q503.90387 302.63208 504.39 302.14597Q504.8872 301.64877 504.82092 300.87537Q504.7546 300.10196 503.87073 299.21808Q503.03104 298.3784 502.27975 298.3121Q501.5174 298.23477 501.03125 298.72092Q500.55618 299.19598 500.6335 300.00253Q500.71085 300.80908 501.56158 301.65982ZM510.34518 296.1466Q510.2789 296.91998 510.03583 297.45032Q509.8038 297.9696 509.36188 298.41153Q508.63266 299.14075 507.8924 299.1739Q507.15216 299.20703 506.59973 298.6546Q506.27933 298.3342 506.15778 297.9254Q506.0252 297.50555 506.1136 297.10782Q506.19092 296.699 506.4119 296.32336Q506.55554 296.04715 506.95328 295.5389Q507.74878 294.54456 508.025 293.95898Q507.8703 293.8043 507.83716 293.77115Q507.37314 293.30713 506.97537 293.32922Q506.44504 293.3734 505.88156 293.9369Q505.3623 294.45618 505.296 294.8981Q505.21866 295.329 505.56116 295.91458L504.7325 296.54434Q504.36792 295.98087 504.31268 295.46158Q504.25745 294.9423 504.53366 294.35672Q504.80988 293.77115 505.37335 293.20767Q505.93683 292.6442 506.42294 292.42325Q506.9091 292.20227 507.27368 292.2354Q507.6383 292.26855 508.01395 292.51163Q508.23492 292.6663 508.7321 293.16348L509.72647 294.15787Q510.765 295.1964 511.08545 295.42844Q511.4169 295.6494 511.81464 295.7599L511.03018 296.54434Q510.68768 296.42282 510.34518 296.1466ZM508.61057 294.54456Q508.3675 295.11908 507.6825 296.04715Q507.28473 296.57748 507.1853 296.8537Q507.07483 297.11887 507.11902 297.38403Q507.17426 297.63815 507.37314 297.837Q507.67145 298.13535 508.09128 298.11322Q508.5222 298.08008 508.95306 297.6492Q509.38397 297.2183 509.5276 296.699Q509.68228 296.1687 509.5055 295.68256Q509.37292 295.30692 508.88678 294.82077L508.61057 294.54456ZM514.2232 290.12512L515.0519 289.49536Q515.68164 290.3682 515.61536 291.2963Q515.5491 292.22437 514.8309 292.9425Q513.9249 293.8485 512.7869 293.81534Q511.64893 293.7601 510.54407 292.65524Q509.83694 291.94815 509.53864 291.1858Q509.24033 290.40134 509.45026 289.6611Q509.67123 288.9098 510.24576 288.33527Q510.95285 287.62817 511.77045 287.53976Q512.588 287.4293 513.3946 287.97067L512.7759 288.81036Q512.2345 288.46786 511.74835 288.51205Q511.25116 288.5452 510.87552 288.92084Q510.31204 289.4843 510.36728 290.24667Q510.41147 290.998 511.2843 291.87082Q512.17926 292.76575 512.9195 292.82098Q513.6597 292.87622 514.2011 292.33484Q514.64307 291.8929 514.66516 291.34048Q514.6983 290.777 514.2232 290.12512ZM517.20636 290.3682L511.12964 284.2915L511.88092 283.5402L515.35016 287.00946L515.317 283.46286L516.2893 282.4906L516.223 285.80515L520.85236 286.7222L519.9353 287.63922L516.223 286.84372L516.212 287.87125L517.95764 289.6169L517.20636 290.3682Z" />
	<path class="txt" fill="#000000" d="M532.2869 305.68152L531.41406 304.8087L532.16534 304.05737L533.0382 304.9302L532.2869 305.68152ZM538.26416 313.53702L537.7559 312.76364Q538.0432 312.58685 538.16473 312.46533Q538.3967 312.2333 538.35254 311.96814Q538.3194 311.71402 537.71173 311.10635L533.09344 306.48807L533.8447 305.73676L538.48517 310.37714Q539.2917 311.1837 539.40216 311.71402Q539.5458 312.4101 538.92706 313.0288Q538.61774 313.33817 538.26416 313.53702ZM543.66693 303.40552Q544.61707 303.22873 545.2579 302.94147L545.58936 303.73697Q544.6944 304.14578 543.5343 304.2894Q543.236 305.33902 542.4184 306.15662Q541.5898 306.98526 540.51807 307.26144Q539.4574 307.5266 538.37463 307.17307Q537.2919 306.81952 536.3859 305.91354Q535.49097 305.01862 535.11536 303.91376Q534.7397 302.8089 535.0269 301.74823Q535.3142 300.68756 536.1428 299.85895Q536.98254 299.01926 538.0653 298.7541Q539.1481 298.46683 540.2198 298.83142Q541.29144 299.196 542.19745 300.102Q542.9487 300.8533 543.31335 301.68195Q543.689 302.49954 543.66693 303.40552ZM540.87164 304.14578Q541.76654 303.6486 542.60626 303.5823Q542.6615 302.22333 541.36884 300.93063Q540.62854 300.1904 539.822 299.8921Q539.01544 299.59378 538.231 299.7816Q537.4466 299.94733 536.85 300.54395Q535.944 301.44992 535.96606 302.66525Q535.98816 303.85852 537.21454 305.0849Q538.3967 306.2671 539.62317 306.32233Q540.8385 306.36652 541.7555 305.4495Q542.1864 305.01862 542.3963 304.47723Q541.7776 304.6098 541.2583 304.9302L540.87164 304.14578ZM548.8708 299.50537L548.21893 298.85352Q548.4509 300.1241 547.567 301.008Q547.18036 301.39468 546.6942 301.59357Q546.20807 301.77032 545.82135 301.7151Q545.42365 301.6488 545.0259 301.38364Q544.7718 301.2179 544.28564 300.73178L541.5677 298.01382L542.319 297.2625L544.76074 299.70425Q545.33527 300.27878 545.58936 300.44452Q545.94293 300.66547 546.34064 300.62128Q546.7384 300.555 547.08093 300.2125Q547.41235 299.88104 547.5339 299.42804Q547.65546 298.95294 547.47864 298.5331Q547.3129 298.1022 546.74945 297.53873L544.3961 295.1854L545.13635 294.44516L549.5337 298.84247L548.8708 299.50537ZM552.52783 293.0199L553.38965 292.33487Q553.88684 293.1856 553.76526 294.05844Q553.64374 294.93127 552.8814 295.69363Q551.92017 296.65485 550.749 296.63275Q549.5889 296.5996 548.5172 295.5279Q547.41235 294.42307 547.3792 293.24084Q547.335 292.0476 548.241 291.14163Q549.1249 290.25775 550.2739 290.30194Q551.434 290.33508 552.52783 291.4289Q552.5941 291.49518 552.7267 291.62778L549.4453 294.90918Q550.2187 295.5942 550.97 295.6163Q551.71027 295.62735 552.2627 295.07492Q552.67145 294.6661 552.74884 294.16895Q552.8262 293.64966 552.52783 293.0199ZM548.88184 294.25732L551.3346 291.80453Q550.7269 291.28528 550.2187 291.24106Q549.4232 291.17477 548.85974 291.73825Q548.34045 292.25754 548.3294 292.95358Q548.3294 293.6386 548.88184 294.25732ZM555.87555 292.5006L551.4782 288.10327L552.15216 287.42932L552.8151 288.09222Q552.60516 287.37408 552.67145 287.02054Q552.73773 286.64487 553.0029 286.3797Q553.3786 286.00406 553.9973 285.8494L554.4392 286.79956Q553.9973 286.91003 553.7321 287.1752Q553.478 287.42932 553.43384 287.78287Q553.38965 288.11432 553.57745 288.45685Q553.8426 288.98718 554.30664 289.4512L556.6158 291.76035L555.87555 292.5006ZM560.3723 291.3847L559.5878 290.77704Q559.8972 290.60025 560.085 290.41245Q560.3281 290.16937 560.38336 289.93735Q560.4607 289.70532 560.4165 289.46225Q560.36127 289.27444 560.085 288.66675Q560.04083 288.60046 559.97455 288.4237L553.88684 285.6947L554.69336 284.88815L558.15155 286.5123Q558.81445 286.82166 559.49945 287.2194Q559.1128 286.56754 558.8034 285.90463L557.17926 282.40222L557.91956 281.662L560.7258 287.80496Q561.1678 288.79935 561.30035 289.21918Q561.4772 289.7937 561.37775 290.2246Q561.30035 290.6555 560.94684 291.00906Q560.7369 291.21896 560.3723 291.3847Z" />
	<path fill="#4285f4" d="M197.5 20.55C197.5 19.997715 197.94771 19.55 198.5 19.55L208.5 19.55C209.05229 19.55 209.5 19.997715 209.5 20.55L209.5 30.55C209.5 31.102285 209.05229 31.55 208.5 31.55L198.5 31.55C197.94771 31.55 197.5 31.102285 197.5 30.55Z" />
	<path class="title" fill="#1a1a1a" d="M224.5625 26.534374L225.6875 26.83125Q225.32812 28.221874 224.40625 28.95625Q223.48438 29.690624 222.14062 29.690624Q220.75 29.690624 219.875 29.128124Q219.0 28.565624 218.54688 27.503124Q218.09375 26.425 218.09375 25.190624Q218.09375 23.846874 218.60938 22.846874Q219.125 21.846874 220.0625 21.33125Q221.01562 20.815624 222.15625 20.815624Q223.4375 20.815624 224.3125 21.471874Q225.20312 22.128124 225.54688 23.315624L224.42188 23.58125Q224.125 22.64375 223.54688 22.221874Q222.98438 21.784374 222.125 21.784374Q221.14062 21.784374 220.46875 22.26875Q219.8125 22.7375 219.53125 23.534374Q219.26562 24.33125 219.26562 25.190624Q219.26562 26.284374 219.57812 27.096874Q219.90625 27.909374 220.57812 28.315624Q221.25 28.721874 222.04688 28.721874Q223.0 28.721874 223.65625 28.175Q224.32812 27.628124 224.5625 26.534374ZM227.29688 29.55L227.29688 20.95625L228.34375 20.95625L228.34375 24.034374Q229.07812 23.190624 230.20312 23.190624Q230.90625 23.190624 231.40625 23.471874Q231.92188 23.7375 232.14062 24.221874Q232.35938 24.690624 232.35938 25.6125L232.35938 29.55L231.3125 29.55L231.3125 25.6125Q231.3125 24.815624 230.96875 24.45625Q230.625 24.096874 230.0 24.096874Q229.53125 24.096874 229.10938 24.346874Q228.70312 24.58125 228.51562 25.003124Q228.34375 25.409374 228.34375 26.14375L228.34375 29.55L227.29688 29.55ZM234.28125 29.55L234.28125 23.33125L235.23438 23.33125L235.23438 24.26875Q235.59375 23.6125 235.89062 23.409374Q236.20312 23.190624 236.57812 23.190624Q237.10938 23.190624 237.65625 23.51875L237.29688 24.503124Q236.90625 24.26875 236.53125 24.26875Q236.17188 24.26875 235.89062 24.4875Q235.625 24.690624 235.51562 25.065624Q235.32812 25.628124 235.32812 26.284374L235.32812 29.55L234.28125 29.55ZM237.90625 26.440624Q237.90625 24.70625 238.85938 23.878124Q239.65625 23.190624 240.8125 23.190624Q242.09375 23.190624 242.90625 24.034374Q243.73438 24.8625 243.73438 26.346874Q243.73438 27.55 243.375 28.2375Q243.01562 28.925 242.3125 29.315624Q241.625 29.690624 240.8125 29.690624Q239.51562 29.690624 238.70312 28.8625Q237.90625 28.01875 237.90625 26.440624ZM238.98438 26.440624Q238.98438 27.628124 239.5 28.221874Q240.03125 28.815624 240.8125 28.815624Q241.60938 28.815624 242.125 28.221874Q242.64062 27.628124 242.64062 26.409374Q242.64062 25.253124 242.10938 24.659374Q241.59375 24.065624 240.8125 24.065624Q240.03125 24.065624 239.5 24.659374Q238.98438 25.2375 238.98438 26.440624ZM245.29688 29.55L245.29688 23.33125L246.23438 23.33125L246.23438 24.20625Q246.53125 23.7375 247.01562 23.471874Q247.5 23.190624 248.125 23.190624Q248.8125 23.190624 249.25 23.471874Q249.70312 23.753124 249.875 24.26875Q250.625 23.190624 251.79688 23.190624Q252.73438 23.190624 253.21875 23.70625Q253.71875 24.20625 253.71875 25.284374L253.71875 29.55L252.67188 29.55L252.67188 25.628124Q252.67188 25.003124 252.5625 24.721874Q252.46875 24.440624 252.20312 24.26875Q251.9375 24.096874 251.5625 24.096874Q250.90625 24.096874 250.46875 24.534374Q250.04688 24.971874 250.04688 25.940624L250.04688 29.55L248.98438 29.55L248.98438 25.503124Q248.98438 24.8 248.71875 24.45625Q248.46875 24.096874 247.89062 24.096874Q247.4375 24.096874 247.0625 24.33125Q246.6875 24.565624 246.51562 25.01875Q246.34375 25.471874 246.34375 26.315624L246.34375 29.55L245.29688 29.55ZM260.54688 27.55L261.64062 27.675Q261.39062 28.628124 260.6875 29.159374Q259.98438 29.690624 258.90625 29.690624Q257.54688 29.690624 256.73438 28.846874Q255.9375 28.003124 255.9375 26.4875Q255.9375 24.925 256.75 24.065624Q257.5625 23.190624 258.84375 23.190624Q260.09375 23.190624 260.875 24.034374Q261.67188 24.878124 261.67188 26.425Q261.67188 26.51875 261.67188 26.70625L257.03125 26.70625Q257.09375 27.7375 257.60938 28.284374Q258.125 28.815624 258.90625 28.815624Q259.48438 28.815624 259.89062 28.51875Q260.3125 28.20625 260.54688 27.55ZM257.09375 25.846874L260.5625 25.846874Q260.5 25.05 260.17188 24.659374Q259.65625 24.05 258.85938 24.05Q258.125 24.05 257.625 24.534374Q257.14062 25.01875 257.09375 25.846874Z" />
	<path fill="#ea4335" d="M278.5 20.55C278.5 19.997715 278.94772 19.55 279.5 19.55L289.5 19.55C290.05228 19.55 290.5 19.997715 290.5 20.55L290.5 30.55C290.5 31.102285 290.05228 31.55 289.5 31.55L279.5 31.55C278.94772 31.55 278.5 31.102285 278.5 30.55Z" />
	<path class="title" fill="#1a1a1a" d="M299.48438 29.55L299.48438 20.95625L305.28125 20.95625L305.28125 21.971874L300.625 21.971874L300.625 24.628124L304.65625 24.628124L304.65625 25.64375L300.625 25.64375L300.625 29.55L299.48438 29.55ZM306.29688 22.175L306.29688 20.95625L307.35938 20.95625L307.35938 22.175L306.29688 22.175ZM306.29688 29.55L306.29688 23.33125L307.35938 23.33125L307.35938 29.55L306.29688 29.55ZM309.28125 29.55L309.28125 23.33125L310.23438 23.33125L310.23438 24.26875Q310.59375 23.6125 310.89062 23.409374Q311.20312 23.190624 311.57812 23.190624Q312.10938 23.190624 312.65625 23.51875L312.29688 24.503124Q311.90625 24.26875 311.53125 24.26875Q311.17188 24.26875 310.89062 24.4875Q310.625 24.690624 310.51562 25.065624Q310.32812 25.628124 310.32812 26.284374L310.32812 29.55L309.28125 29.55ZM317.54688 27.55L318.64062 27.675Q318.39062 28.628124 317.6875 29.159374Q316.98438 29.690624 315.90625 29.690624Q314.54688 29.690624 313.73438 28.846874Q312.9375 28.003124 312.9375 26.4875Q312.9375 24.925 313.75 24.065624Q314.5625 23.190624 315.84375 23.190624Q317.09375 23.190624 317.875 24.034374Q318.67188 24.878124 318.67188 26.425Q318.67188 26.51875 318.67188 26.70625L314.03125 26.70625Q314.09375 27.7375 314.60938 28.284374Q315.125 28.815624 315.90625 28.815624Q316.48438 28.815624 316.89062 28.51875Q317.3125 28.20625 317.54688 27.55ZM314.09375 25.846874L317.5625 25.846874Q317.5 25.05 317.17188 24.659374Q316.65625 24.05 315.85938 24.05Q315.125 24.05 314.625 24.534374Q314.14062 25.01875 314.09375 25.846874ZM320.54688 29.55L320.54688 24.14375L319.60938 24.14375L319.60938 23.33125L320.54688 23.33125L320.54688 22.659374Q320.54688 22.034374 320.65625 21.7375Q320.8125 21.315624 321.1875 21.065624Q321.57812 20.815624 322.26562 20.815624Q322.71875 20.815624 323.25 20.925L323.09375 21.83125Q322.76562 21.784374 322.46875 21.784374Q321.98438 21.784374 321.78125 21.9875Q321.59375 22.190624 321.59375 22.753124L321.59375 23.33125L322.8125 23.33125L322.8125 24.14375L321.59375 24.14375L321.59375 29.55L320.54688 29.55ZM322.90625 26.440624Q322.90625 24.70625 323.85938 23.878124Q324.65625 23.190624 325.8125 23.190624Q327.09375 23.190624 327.90625 24.034374Q328.73438 24.8625 328.73438 26.346874Q328.73438 27.55 328.375 28.2375Q328.01562 28.925 327.3125 29.315624Q326.625 29.690624 325.8125 29.690624Q324.51562 29.690624 323.70312 28.8625Q322.90625 28.01875 322.90625 26.440624ZM323.98438 26.440624Q323.98438 27.628124 324.5 28.221874Q325.03125 28.815624 325.8125 28.815624Q326.60938 28.815624 327.125 28.221874Q327.64062 27.628124 327.64062 26.409374Q327.64062 25.253124 327.10938 24.659374Q326.59375 24.065624 325.8125 24.065624Q325.03125 24.065624 324.5 24.659374Q323.98438 25.2375 323.98438 26.440624ZM329.59375 29.55L331.85938 26.315624L329.76562 23.33125L331.07812 23.33125L332.03125 24.784374Q332.29688 25.20625 332.46875 25.4875Q332.71875 25.096874 332.9375 24.8L333.98438 23.33125L335.25 23.33125L333.09375 26.253124L335.40625 29.55L334.125 29.55L332.84375 27.6125L332.5 27.096874L330.85938 29.55L329.59375 29.55Z" />
	<path fill="#fbbc04" d="M350.5 20.55C350.5 19.997715 350.94772 19.55 351.5 19.55L361.5 19.55C362.05228 19.55 362.5 19.997715 362.5 20.55L362.5 30.55C362.5 31.102285 362.05228 31.55 361.5 31.55L351.5 31.55C350.94772 31.55 350.5 31.102285 350.5 30.55Z" />
	<path class="title" fill="#1a1a1a" d="M371.04688 26.784374L372.10938 26.690624Q372.1875 27.346874 372.46875 27.753124Q372.75 28.159374 373.32812 28.425Q373.92188 28.675 374.65625 28.675Q375.29688 28.675 375.79688 28.4875Q376.29688 28.284374 376.53125 27.95625Q376.78125 27.6125 376.78125 27.221874Q376.78125 26.815624 376.54688 26.51875Q376.3125 26.20625 375.78125 26.003124Q375.42188 25.8625 374.23438 25.58125Q373.0625 25.3 372.59375 25.05Q371.96875 24.721874 371.67188 24.253124Q371.375 23.76875 371.375 23.175Q371.375 22.534374 371.73438 21.971874Q372.10938 21.39375 372.8125 21.1125Q373.53125 20.815624 374.39062 20.815624Q375.34375 20.815624 376.07812 21.128124Q376.8125 21.425 377.20312 22.034374Q377.59375 22.628124 377.625 23.378124L376.53125 23.45625Q376.4375 22.64375 375.92188 22.2375Q375.42188 21.815624 374.4375 21.815624Q373.40625 21.815624 372.9375 22.190624Q372.46875 22.565624 372.46875 23.096874Q372.46875 23.565624 372.79688 23.8625Q373.125 24.159374 374.5 24.471874Q375.89062 24.784374 376.40625 25.01875Q377.15625 25.378124 377.51562 25.909374Q377.875 26.425 377.875 27.128124Q377.875 27.815624 377.48438 28.425Q377.09375 29.01875 376.35938 29.3625Q375.625 29.690624 374.70312 29.690624Q373.53125 29.690624 372.73438 29.3625Q371.95312 29.01875 371.5 28.33125Q371.0625 27.64375 371.04688 26.784374ZM383.35938 28.784374Q382.76562 29.284374 382.21875 29.4875Q381.6875 29.690624 381.0625 29.690624Q380.03125 29.690624 379.48438 29.190624Q378.9375 28.690624 378.9375 27.909374Q378.9375 27.45625 379.14062 27.08125Q379.34375 26.690624 379.6875 26.471874Q380.03125 26.2375 380.45312 26.128124Q380.75 26.034374 381.39062 25.95625Q382.65625 25.815624 383.26562 25.596874Q383.26562 25.378124 383.26562 25.33125Q383.26562 24.675 382.96875 24.409374Q382.5625 24.065624 381.76562 24.065624Q381.03125 24.065624 380.67188 24.33125Q380.3125 24.58125 380.14062 25.2375L379.10938 25.096874Q379.25 24.440624 379.57812 24.034374Q379.90625 23.628124 380.51562 23.409374Q381.125 23.190624 381.92188 23.190624Q382.71875 23.190624 383.21875 23.378124Q383.71875 23.565624 383.95312 23.846874Q384.1875 24.128124 384.28125 24.565624Q384.32812 24.83125 384.32812 25.534374L384.32812 26.940624Q384.32812 28.409374 384.39062 28.8Q384.46875 29.190624 384.67188 29.55L383.5625 29.55Q383.40625 29.221874 383.35938 28.784374ZM383.26562 26.425Q382.6875 26.659374 381.54688 26.83125Q380.89062 26.925 380.625 27.05Q380.35938 27.159374 380.20312 27.378124Q380.0625 27.596874 380.0625 27.878124Q380.0625 28.3 380.375 28.58125Q380.70312 28.8625 381.3125 28.8625Q381.92188 28.8625 382.39062 28.596874Q382.875 28.33125 383.09375 27.8625Q383.26562 27.503124 383.26562 26.815624L383.26562 26.425ZM386.54688 29.55L386.54688 24.14375L385.60938 24.14375L385.60938 23.33125L386.54688 23.33125L386.54688 22.659374Q386.54688 22.034374 386.65625 21.7375Q386.8125 21.315624 387.1875 21.065624Q387.57812 20.815624 388.26562 20.815624Q388.71875 20.815624 389.25 20.925L389.09375 21.83125Q388.76562 21.784374 388.46875 21.784374Q387.98438 21.784374 387.78125 21.9875Q387.59375 22.190624 387.59375 22.753124L387.59375 23.33125L388.8125 23.33125L388.8125 24.14375L387.59375 24.14375L387.59375 29.55L386.54688 29.55ZM393.35938 28.784374Q392.76562 29.284374 392.21875 29.4875Q391.6875 29.690624 391.0625 29.690624Q390.03125 29.690624 389.48438 29.190624Q388.9375 28.690624 388.9375 27.909374Q388.9375 27.45625 389.14062 27.08125Q389.34375 26.690624 389.6875 26.471874Q390.03125 26.2375 390.45312 26.128124Q390.75 26.034374 391.39062 25.95625Q392.65625 25.815624 393.26562 25.596874Q393.26562 25.378124 393.26562 25.33125Q393.26562 24.675 392.96875 24.409374Q392.5625 24.065624 391.76562 24.065624Q391.03125 24.065624 390.67188 24.33125Q390.3125 24.58125 390.14062 25.2375L389.10938 25.096874Q389.25 24.440624 389.57812 24.034374Q389.90625 23.628124 390.51562 23.409374Q391.125 23.190624 391.92188 23.190624Q392.71875 23.190624 393.21875 23.378124Q393.71875 23.565624 393.95312 23.846874Q394.1875 24.128124 394.28125 24.565624Q394.32812 24.83125 394.32812 25.534374L394.32812 26.940624Q394.32812 28.409374 394.39062 28.8Q394.46875 29.190624 394.67188 29.55L393.5625 29.55Q393.40625 29.221874 393.35938 28.784374ZM393.26562 26.425Q392.6875 26.659374 391.54688 26.83125Q390.89062 26.925 390.625 27.05Q390.35938 27.159374 390.20312 27.378124Q390.0625 27.596874 390.0625 27.878124Q390.0625 28.3 390.375 28.58125Q390.70312 28.8625 391.3125 28.8625Q391.92188 28.8625 392.39062 28.596874Q392.875 28.33125 393.09375 27.8625Q393.26562 27.503124 393.26562 26.815624L393.26562 26.425ZM396.28125 29.55L396.28125 23.33125L397.23438 23.33125L397.23438 24.26875Q397.59375 23.6125 397.89062 23.409374Q398.20312 23.190624 398.57812 23.190624Q399.10938 23.190624 399.65625 23.51875L399.29688 24.503124Q398.90625 24.26875 398.53125 24.26875Q398.17188 24.26875 397.89062 24.4875Q397.625 24.690624 397.51562 25.065624Q397.32812 25.628124 397.32812 26.284374L397.32812 29.55L396.28125 29.55ZM400.29688 22.175L400.29688 20.95625L401.35938 20.95625L401.35938 22.175L400.29688 22.175ZM400.29688 29.55L400.29688 23.33125L401.35938 23.33125L401.35938 29.55L400.29688 29.55Z" />
	<style>
		#bkg { fill: #ffedd5; }
		.txt { fill: #0f172a; }
		.title { fill: #171717; }
		.divide { stroke: #fed7aa; }
		@media (prefers-color-scheme: dark) {
		#bkg { fill: #0f172a; }
		.txt { fill: #f1f5f9; }
		.title { fill: #ffedd5; }
		.divide { stroke: #1e293b; }
		}
	</style>
</svg>
