<svg version="1.1" viewBox="0.0 0.0 600.0 371.0" fill="none" stroke="none" stroke-linecap="square" stroke-miterlimit="10" xmlns:xlink="http://www.w3.org/1999/xlink" xmlns="http://www.w3.org/2000/svg">
	<path id="bkg" fill="#ffffff" d="M0 0L600.0 0L600.0 371.0L0 371.0L0 0Z" />
	<path class="divide" stroke="#333333" stroke-width="1.0" d="M77.5 272.5L581.5 272.5" />
	<path class="divide" stroke="#cccccc" stroke-width="1.0" d="M77.5 217.5L581.5 217.5" />
	<path class="divide" stroke="#cccccc" stroke-width="1.0" d="M77.5 162.5L581.5 162.5" />
	<path class="divide" stroke="#cccccc" stroke-width="1.0" d="M77.5 107.5L581.5 107.5" />
	<path class="divide" stroke="#cccccc" stroke-width="1.0" d="M77.5 51.5L581.5 51.5" />
	<clipPath id="id_0">
		<path d="M77.55 51.916668L581.45 51.916668L581.45 272.9109L77.55 272.9109L77.55 51.916668Z" clip-rule="nonzero" />
	</clipPath>
	<path fill="#4285f4" clip-path="url(#id_0)" d="M100.0 273.0L93.0 273.0L93.0 266.0C93.0 264.89542 93.89543 264.0 95.0 264.0L98.0 264.0C99.10457 264.0 100.0 264.89542 100.0 266.0Z" />
	<path fill="#4285f4" clip-path="url(#id_0)" d="M141.0 273.0L134.0 273.0L134.0 266.0C134.0 264.89542 134.89543 264.0 136.0 264.0L139.0 264.0C140.10457 264.0 141.0 264.89542 141.0 266.0Z" />
	<path fill="#4285f4" clip-path="url(#id_0)" d="M182.0 273.0L175.0 273.0L175.0 263.0C175.0 261.89542 175.89543 261.0 177.0 261.0L180.0 261.0C181.10457 261.0 182.0 261.89542 182.0 263.0Z" />
	<path fill="#4285f4" clip-path="url(#id_0)" d="M222.0 273.0L215.0 273.0L215.0 258.0C215.0 256.89542 215.89543 256.0 217.0 256.0L220.0 256.0C221.10457 256.0 222.0 256.89542 222.0 258.0Z" />
	<path fill="#4285f4" clip-path="url(#id_0)" d="M263.0 273.0L256.0 273.0L256.0 252.0C256.0 250.89543 256.89542 250.0 258.0 250.0L261.0 250.0C262.10458 250.0 263.0 250.89543 263.0 252.0Z" />
	<path fill="#4285f4" clip-path="url(#id_0)" d="M304.0 273.0L297.0 273.0L297.0 251.0C297.0 249.89543 297.89542 249.0 299.0 249.0L302.0 249.0C303.10458 249.0 304.0 249.89543 304.0 251.0Z" />
	<path fill="#4285f4" clip-path="url(#id_0)" d="M345.0 273.0L338.0 273.0L338.0 247.0C338.0 245.89543 338.89542 245.0 340.0 245.0L343.0 245.0C344.10458 245.0 345.0 245.89543 345.0 247.0Z" />
	<path fill="#4285f4" clip-path="url(#id_0)" d="M386.0 273.0L379.0 273.0L379.0 240.0C379.0 238.89543 379.89542 238.0 381.0 238.0L384.0 238.0C385.10458 238.0 386.0 238.89543 386.0 240.0Z" />
	<path fill="#4285f4" clip-path="url(#id_0)" d="M427.0 273.0L420.0 273.0L420.0 239.0C420.0 237.89543 420.89542 237.0 422.0 237.0L425.0 237.0C426.10458 237.0 427.0 237.89543 427.0 239.0Z" />
	<path fill="#4285f4" clip-path="url(#id_0)" d="M467.0 273.0L460.0 273.0L460.0 237.0C460.0 235.89543 460.89542 235.0 462.0 235.0L465.0 235.0C466.10458 235.0 467.0 235.89543 467.0 237.0Z" />
	<path fill="#4285f4" clip-path="url(#id_0)" d="M508.0 273.0L501.0 273.0L501.0 186.0C501.0 184.89543 501.89542 184.0 503.0 184.0L506.0 184.0C507.10458 184.0 508.0 184.89543 508.0 186.0Z" />
	<path fill="#4285f4" clip-path="url(#id_0)" d="M549.0 273.0L542.0 273.0L542.0 126.0C542.0 124.89543 542.89545 124.0 544.0 124.0L547.0 124.0C548.10455 124.0 549.0 124.89543 549.0 126.0Z" />
	<path fill="#ea4335" clip-path="url(#id_0)" d="M109.0 273.0L102.0 273.0L102.0 254.0C102.0 252.89543 102.89543 252.0 104.0 252.0L107.0 252.0C108.10457 252.0 109.0 252.89543 109.0 254.0Z" />
	<path fill="#ea4335" clip-path="url(#id_0)" d="M150.0 273.0L143.0 273.0L143.0 256.0C143.0 254.89543 143.89543 254.0 145.0 254.0L148.0 254.0C149.10457 254.0 150.0 254.89543 150.0 256.0Z" />
	<path fill="#ea4335" clip-path="url(#id_0)" d="M191.0 273.0L184.0 273.0L184.0 250.0C184.0 248.89543 184.89543 248.0 186.0 248.0L189.0 248.0C190.10457 248.0 191.0 248.89543 191.0 250.0Z" />
	<path fill="#ea4335" clip-path="url(#id_0)" d="M231.0 273.0L224.0 273.0L224.0 250.0C224.0 248.89543 224.89543 248.0 226.0 248.0L229.0 248.0C230.10457 248.0 231.0 248.89543 231.0 250.0Z" />
	<path fill="#ea4335" clip-path="url(#id_0)" d="M272.0 273.0L265.0 273.0L265.0 245.0C265.0 243.89543 265.89542 243.0 267.0 243.0L270.0 243.0C271.10458 243.0 272.0 243.89543 272.0 245.0Z" />
	<path fill="#ea4335" clip-path="url(#id_0)" d="M313.0 273.0L306.0 273.0L306.0 246.0C306.0 244.89543 306.89542 244.0 308.0 244.0L311.0 244.0C312.10458 244.0 313.0 244.89543 313.0 246.0Z" />
	<path fill="#ea4335" clip-path="url(#id_0)" d="M354.0 273.0L347.0 273.0L347.0 224.0C347.0 222.89543 347.89542 222.0 349.0 222.0L352.0 222.0C353.10458 222.0 354.0 222.89543 354.0 224.0Z" />
	<path fill="#ea4335" clip-path="url(#id_0)" d="M395.0 273.0L388.0 273.0L388.0 208.0C388.0 206.89543 388.89542 206.0 390.0 206.0L393.0 206.0C394.10458 206.0 395.0 206.89543 395.0 208.0Z" />
	<path fill="#ea4335" clip-path="url(#id_0)" d="M436.0 273.0L429.0 273.0L429.0 240.0C429.0 238.89543 429.89542 238.0 431.0 238.0L434.0 238.0C435.10458 238.0 436.0 238.89543 436.0 240.0Z" />
	<path fill="#ea4335" clip-path="url(#id_0)" d="M476.0 273.0L469.0 273.0L469.0 227.0C469.0 225.89543 469.89542 225.0 471.0 225.0L474.0 225.0C475.10458 225.0 476.0 225.89543 476.0 227.0Z" />
	<path fill="#ea4335" clip-path="url(#id_0)" d="M517.0 273.0L510.0 273.0L510.0 202.0C510.0 200.89543 510.89542 200.0 512.0 200.0L515.0 200.0C516.10455 200.0 517.0 200.89543 517.0 202.0Z" />
	<path fill="#ea4335" clip-path="url(#id_0)" d="M558.0 273.0L551.0 273.0L551.0 67.0C551.0 65.89543 551.89545 65.0 553.0 65.0L556.0 65.0C557.10455 65.0 558.0 65.89543 558.0 67.0Z" />
	<path fill="#fbbc04" clip-path="url(#id_0)" d="M118.0 273.0L111.0 273.0L111.0 256.0C111.0 254.89543 111.89543 254.0 113.0 254.0L116.0 254.0C117.10457 254.0 118.0 254.89543 118.0 256.0Z" />
	<path fill="#fbbc04" clip-path="url(#id_0)" d="M159.0 273.0L152.0 273.0L152.0 257.0C152.0 255.89543 152.89543 255.0 154.0 255.0L157.0 255.0C158.10457 255.0 159.0 255.89543 159.0 257.0Z" />
	<path fill="#fbbc04" clip-path="url(#id_0)" d="M200.0 273.0L193.0 273.0L193.0 254.0C193.0 252.89543 193.89543 252.0 195.0 252.0L198.0 252.0C199.10457 252.0 200.0 252.89543 200.0 254.0Z" />
	<path fill="#fbbc04" clip-path="url(#id_0)" d="M240.0 273.0L233.0 273.0L233.0 253.0C233.0 251.89543 233.89543 251.0 235.0 251.0L238.0 251.0C239.10457 251.0 240.0 251.89543 240.0 253.0Z" />
	<path fill="#fbbc04" clip-path="url(#id_0)" d="M281.0 273.0L274.0 273.0L274.0 245.0C274.0 243.89543 274.89542 243.0 276.0 243.0L279.0 243.0C280.10458 243.0 281.0 243.89543 281.0 245.0Z" />
	<path fill="#fbbc04" clip-path="url(#id_0)" d="M322.0 273.0L315.0 273.0L315.0 238.0C315.0 236.89543 315.89542 236.0 317.0 236.0L320.0 236.0C321.10458 236.0 322.0 236.89543 322.0 238.0Z" />
	<path fill="#fbbc04" clip-path="url(#id_0)" d="M363.0 273.0L356.0 273.0L356.0 233.0C356.0 231.89543 356.89542 231.0 358.0 231.0L361.0 231.0C362.10458 231.0 363.0 231.89543 363.0 233.0Z" />
	<path fill="#fbbc04" clip-path="url(#id_0)" d="M404.0 273.0L397.0 273.0L397.0 230.0C397.0 228.89543 397.89542 228.0 399.0 228.0L402.0 228.0C403.10458 228.0 404.0 228.89543 404.0 230.0Z" />
	<path fill="#fbbc04" clip-path="url(#id_0)" d="M445.0 273.0L438.0 273.0L438.0 248.0C438.0 246.89543 438.89542 246.0 440.0 246.0L443.0 246.0C444.10458 246.0 445.0 246.89543 445.0 248.0Z" />
	<path fill="#fbbc04" clip-path="url(#id_0)" d="M485.0 273.0L478.0 273.0L478.0 241.0C478.0 239.89543 478.89542 239.0 480.0 239.0L483.0 239.0C484.10458 239.0 485.0 239.89543 485.0 241.0Z" />
	<path fill="#fbbc04" clip-path="url(#id_0)" d="M526.0 273.0L519.0 273.0L519.0 206.0C519.0 204.89543 519.89545 204.0 521.0 204.0L524.0 204.0C525.10455 204.0 526.0 204.89543 526.0 206.0Z" />
	<path fill="#fbbc04" clip-path="url(#id_0)" d="M567.0 273.0L560.0 273.0L560.0 136.0C560.0 134.89543 560.89545 134.0 562.0 134.0L565.0 134.0C566.10455 134.0 567.0 134.89543 567.0 136.0Z" />
	<path class="title" fill="#000000" d="M30.065638 224.58958L30.221888 223.55833Q30.690638 223.49583 30.909388 223.19896Q31.206263 222.80833 31.206263 222.13646Q31.206263 221.40208 30.909388 221.01146Q30.612513 220.60521 30.096888 220.46458Q29.768763 220.37083 28.737513 220.38646Q29.550013 221.07396 29.550013 222.10521Q29.550013 223.38646 28.628138 224.08958Q27.690638 224.79271 26.409388 224.79271Q25.518763 224.79271 24.768763 224.48021Q24.003138 224.15208 23.596888 223.54271Q23.190638 222.93333 23.190638 222.10521Q23.190638 220.99583 24.081263 220.27708L23.331263 220.27708L23.331263 219.30833L28.706263 219.30833Q30.159388 219.30833 30.768763 219.60521Q31.378138 219.90208 31.721888 220.54271Q32.08126 221.18333 32.08126 222.12083Q32.08126 223.23021 31.581263 223.91771Q31.081263 224.60521 30.065638 224.58958ZM26.331263 223.71458Q27.550013 223.71458 28.112513 223.23021Q28.675013 222.74583 28.675013 222.01146Q28.675013 221.27708 28.112513 220.79271Q27.550013 220.29271 26.362513 220.29271Q25.221888 220.29271 24.643763 220.80833Q24.065638 221.30833 24.065638 222.02708Q24.065638 222.73021 24.643763 223.23021Q25.206263 223.71458 26.331263 223.71458ZM27.550013 213.13646L27.675013 212.04271Q28.628138 212.29271 29.159388 212.99583Q29.690638 213.69896 29.690638 214.77708Q29.690638 216.13646 28.846888 216.94896Q28.003138 217.74583 26.487513 217.74583Q24.925013 217.74583 24.065638 216.93333Q23.190638 216.12083 23.190638 214.83958Q23.190638 213.58958 24.034388 212.80833Q24.878138 212.01146 26.425013 212.01146Q26.518763 212.01146 26.706263 212.01146L26.706263 216.65208Q27.737513 216.58958 28.284388 216.07396Q28.815638 215.55833 28.815638 214.77708Q28.815638 214.19896 28.518763 213.79271Q28.206263 213.37083 27.550013 213.13646ZM25.846888 216.58958L25.846888 213.12083Q25.050013 213.18333 24.659388 213.51146Q24.050013 214.02708 24.050013 214.82396Q24.050013 215.55833 24.534388 216.05833Q25.018763 216.54271 25.846888 216.58958ZM26.440638 210.77708Q24.706263 210.77708 23.878138 209.82396Q23.190638 209.02708 23.190638 207.87083Q23.190638 206.58958 24.034388 205.77708Q24.862513 204.94896 26.346888 204.94896Q27.550013 204.94896 28.237513 205.30833Q28.925013 205.66771 29.315638 206.37083Q29.690638 207.05833 29.690638 207.87083Q29.690638 209.16771 28.862513 209.98021Q28.018763 210.77708 26.440638 210.77708ZM26.440638 209.69896Q27.628138 209.69896 28.221888 209.18333Q28.815638 208.65208 28.815638 207.87083Q28.815638 207.07396 28.221888 206.55833Q27.628138 206.04271 26.409388 206.04271Q25.253138 206.04271 24.659388 206.57396Q24.065638 207.08958 24.065638 207.87083Q24.065638 208.65208 24.659388 209.18333Q25.237513 209.69896 26.440638 209.69896ZM29.550013 203.38646L23.331263 203.38646L23.331263 202.44896L24.206263 202.44896Q23.737513 202.15208 23.471888 201.66771Q23.190638 201.18333 23.190638 200.55833Q23.190638 199.87083 23.471888 199.43333Q23.753138 198.98021 24.268763 198.80833Q23.190638 198.05833 23.190638 196.88646Q23.190638 195.94896 23.706263 195.46458Q24.206263 194.96458 25.284388 194.96458L29.550013 194.96458L29.550013 196.01146L25.628138 196.01146Q25.003138 196.01146 24.721888 196.12083Q24.440638 196.21458 24.268763 196.48021Q24.096888 196.74583 24.096888 197.12083Q24.096888 197.77708 24.534388 198.21458Q24.971888 198.63646 25.940638 198.63646L29.550013 198.63646L29.550013 199.69896L25.503138 199.69896Q24.800013 199.69896 24.456263 199.96458Q24.096888 200.21458 24.096888 200.79271Q24.096888 201.24583 24.331263 201.62083Q24.565638 201.99583 25.018763 202.16771Q25.471888 202.33958 26.315638 202.33958L29.550013 202.33958L29.550013 203.38646ZM27.550013 188.13646L27.675013 187.04271Q28.628138 187.29271 29.159388 187.99583Q29.690638 188.69896 29.690638 189.77708Q29.690638 191.13646 28.846888 191.94896Q28.003138 192.74583 26.487513 192.74583Q24.925013 192.74583 24.065638 191.93333Q23.190638 191.12083 23.190638 189.83958Q23.190638 188.58958 24.034388 187.80833Q24.878138 187.01146 26.425013 187.01146Q26.518763 187.01146 26.706263 187.01146L26.706263 191.65208Q27.737513 191.58958 28.284388 191.07396Q28.815638 190.55833 28.815638 189.77708Q28.815638 189.19896 28.518763 188.79271Q28.206263 188.37083 27.550013 188.13646ZM25.846888 191.58958L25.846888 188.12083Q25.050013 188.18333 24.659388 188.51146Q24.050013 189.02708 24.050013 189.82396Q24.050013 190.55833 24.534388 191.05833Q25.018763 191.54271 25.846888 191.58958ZM28.784388 181.32396Q29.284388 181.91771 29.487513 182.46458Q29.690638 182.99583 29.690638 183.62083Q29.690638 184.65208 29.190638 185.19896Q28.690638 185.74583 27.909388 185.74583Q27.456263 185.74583 27.081263 185.54271Q26.690638 185.33958 26.471888 184.99583Q26.237513 184.65208 26.128138 184.23021Q26.034388 183.93333 25.956263 183.29271Q25.815638 182.02708 25.596888 181.41771Q25.378138 181.41771 25.331263 181.41771Q24.675013 181.41771 24.409388 181.71458Q24.065638 182.12083 24.065638 182.91771Q24.065638 183.65208 24.331263 184.01146Q24.581263 184.37083 25.237513 184.54271L25.096888 185.57396Q24.440638 185.43333 24.034388 185.10521Q23.628138 184.77708 23.409388 184.16771Q23.190638 183.55833 23.190638 182.76146Q23.190638 181.96458 23.378138 181.46458Q23.565638 180.96458 23.846888 180.73021Q24.128138 180.49583 24.565638 180.40208Q24.831263 180.35521 25.534388 180.35521L26.940638 180.35521Q28.409388 180.35521 28.800013 180.29271Q29.190638 180.21458 29.550013 180.01146L29.550013 181.12083Q29.221888 181.27708 28.784388 181.32396ZM26.425013 181.41771Q26.659388 181.99583 26.831263 183.13646Q26.925013 183.79271 27.050013 184.05833Q27.159388 184.32396 27.378138 184.48021Q27.596888 184.62083 27.878138 184.62083Q28.300013 184.62083 28.581263 184.30833Q28.862513 183.98021 28.862513 183.37083Q28.862513 182.76146 28.596888 182.29271Q28.331263 181.80833 27.862513 181.58958Q27.503138 181.41771 26.815638 181.41771L26.425013 181.41771ZM29.550013 178.38646L23.331263 178.38646L23.331263 177.44896L24.206263 177.44896Q23.190638 176.76146 23.190638 175.46458Q23.190638 174.90208 23.393763 174.43333Q23.596888 173.94896 23.925013 173.71458Q24.253138 173.48021 24.690638 173.38646Q24.987513 173.33958 25.721888 173.33958L29.550013 173.33958L29.550013 174.38646L25.768763 174.38646Q25.112513 174.38646 24.800013 174.51146Q24.487513 174.63646 24.300013 174.94896Q24.096888 175.26146 24.096888 175.68333Q24.096888 176.35521 24.534388 176.85521Q24.956263 177.33958 26.143763 177.33958L29.550013 177.33958L29.550013 178.38646Z" />
	<path class="txt" fill="#000000" d="M65.05 272.6765Q65.05 271.14526 65.3625 270.2234Q65.675 269.2859 66.28438 268.7859Q66.90938 268.2859 67.84688 268.2859Q68.53438 268.2859 69.05 268.56714Q69.58125 268.8484 69.925 269.37964Q70.26875 269.89526 70.45625 270.64526Q70.64375 271.39526 70.64375 272.6765Q70.64375 274.19214 70.33125 275.114Q70.03438 276.0359 69.40938 276.5515Q68.8 277.0515 67.84688 277.0515Q66.6125 277.0515 65.89375 276.1609Q65.05 275.0984 65.05 272.6765ZM66.12813 272.6765Q66.12813 274.7859 66.62813 275.489Q67.12813 276.19214 67.84688 276.19214Q68.58125 276.19214 69.06563 275.489Q69.56563 274.7859 69.56563 272.6765Q69.56563 270.5515 69.06563 269.864Q68.58125 269.1609 67.83125 269.1609Q67.1125 269.1609 66.675 269.77026Q66.12813 270.5515 66.12813 272.6765Z" />
	<path class="txt" fill="#000000" d="M62.01875 221.66234L60.971874 221.66234L60.971874 214.94359Q60.58125 215.30296 59.95625 215.67796Q59.346874 216.03734 58.8625 216.20921L58.8625 215.19359Q59.7375 214.77171 60.39375 214.19359Q61.065624 213.59984 61.346874 213.03734L62.01875 213.03734L62.01875 221.66234ZM65.05 217.42796Q65.05 215.89671 65.3625 214.97484Q65.675 214.03734 66.28438 213.53734Q66.90938 213.03734 67.84688 213.03734Q68.53438 213.03734 69.05 213.31859Q69.58125 213.59984 69.925 214.13109Q70.26875 214.64671 70.45625 215.39671Q70.64375 216.14671 70.64375 217.42796Q70.64375 218.94359 70.33125 219.86546Q70.03438 220.78734 69.40938 221.30296Q68.8 221.80296 67.84688 221.80296Q66.6125 221.80296 65.89375 220.91234Q65.05 219.84984 65.05 217.42796ZM66.12813 217.42796Q66.12813 219.53734 66.62813 220.24046Q67.12813 220.94359 67.84688 220.94359Q68.58125 220.94359 69.06563 220.24046Q69.56563 219.53734 69.56563 217.42796Q69.56563 215.30296 69.06563 214.61546Q68.58125 213.91234 67.83125 213.91234Q67.1125 213.91234 66.675 214.52171Q66.12813 215.30296 66.12813 217.42796Z" />
	<path class="txt" fill="#000000" d="M63.596874 165.39816L63.596874 166.41379L57.909374 166.41379Q57.909374 166.03879 58.034374 165.67941Q58.253124 165.10129 58.721874 164.53879Q59.20625 163.97629 60.1125 163.24191Q61.51875 162.08566 62.003124 161.41379Q62.503124 160.74191 62.503124 160.14816Q62.503124 159.52316 62.05 159.10129Q61.596874 158.66379 60.878124 158.66379Q60.1125 158.66379 59.659374 159.11691Q59.20625 159.57004 59.190624 160.38254L58.1125 160.27316Q58.221874 159.05441 58.940624 158.42941Q59.675 157.78879 60.909374 157.78879Q62.14375 157.78879 62.8625 158.47629Q63.58125 159.16379 63.58125 160.17941Q63.58125 160.69504 63.3625 161.19504Q63.159374 161.67941 62.659374 162.24191Q62.175 162.78879 61.05 163.74191Q60.096874 164.53879 59.815624 164.83566Q59.55 165.11691 59.378124 165.39816L63.596874 165.39816ZM65.05 162.17941Q65.05 160.64816 65.3625 159.72629Q65.675 158.78879 66.28438 158.28879Q66.90938 157.78879 67.84688 157.78879Q68.53438 157.78879 69.05 158.07004Q69.58125 158.35129 69.925 158.88254Q70.26875 159.39816 70.45625 160.14816Q70.64375 160.89816 70.64375 162.17941Q70.64375 163.69504 70.33125 164.61691Q70.03438 165.53879 69.40938 166.05441Q68.8 166.55441 67.84688 166.55441Q66.6125 166.55441 65.89375 165.66379Q65.05 164.60129 65.05 162.17941ZM66.12813 162.17941Q66.12813 164.28879 66.62813 164.99191Q67.12813 165.69504 67.84688 165.69504Q68.58125 165.69504 69.06563 164.99191Q69.56563 164.28879 69.56563 162.17941Q69.56563 160.05441 69.06563 159.36691Q68.58125 158.66379 67.83125 158.66379Q67.1125 158.66379 66.675 159.27316Q66.12813 160.05441 66.12813 162.17941Z" />
	<path class="txt" fill="#000000" d="M58.05 108.8996L59.1125 108.75897Q59.284374 109.6496 59.721874 110.05585Q60.159374 110.44647 60.784374 110.44647Q61.534374 110.44647 62.05 109.93085Q62.565624 109.41522 62.565624 108.6496Q62.565624 107.93085 62.08125 107.4621Q61.6125 106.97772 60.878124 106.97772Q60.58125 106.97772 60.128124 107.10272L60.253124 106.16522Q60.3625 106.18085 60.425 106.18085Q61.096874 106.18085 61.628124 105.8371Q62.175 105.47772 62.175 104.74335Q62.175 104.16522 61.784374 103.79022Q61.39375 103.3996 60.76875 103.3996Q60.159374 103.3996 59.7375 103.79022Q59.33125 104.18085 59.221874 104.94647L58.159374 104.75897Q58.346874 103.7121 59.034374 103.13397Q59.721874 102.54022 60.7375 102.54022Q61.440624 102.54022 62.034374 102.85272Q62.628124 103.1496 62.940624 103.66522Q63.253124 104.18085 63.253124 104.7746Q63.253124 105.32147 62.95625 105.79022Q62.659374 106.24335 62.08125 106.50897Q62.83125 106.68085 63.253124 107.24335Q63.675 107.79022 63.675 108.63397Q63.675 109.75897 62.846874 110.54022Q62.034374 111.32147 60.784374 111.32147Q59.659374 111.32147 58.909374 110.6496Q58.159374 109.9621 58.05 108.8996ZM65.05 106.93085Q65.05 105.3996 65.3625 104.47772Q65.675 103.54022 66.28438 103.04022Q66.90938 102.54022 67.84688 102.54022Q68.53438 102.54022 69.05 102.82147Q69.58125 103.10272 69.925 103.63397Q70.26875 104.1496 70.45625 104.8996Q70.64375 105.6496 70.64375 106.93085Q70.64375 108.44647 70.33125 109.36835Q70.03438 110.29022 69.40938 110.80585Q68.8 111.30585 67.84688 111.30585Q66.6125 111.30585 65.89375 110.41522Q65.05 109.35272 65.05 106.93085ZM66.12813 106.93085Q66.12813 109.04022 66.62813 109.74335Q67.12813 110.44647 67.84688 110.44647Q68.58125 110.44647 69.06563 109.74335Q69.56563 109.04022 69.56563 106.93085Q69.56563 104.80585 69.06563 104.11835Q68.58125 103.41522 67.83125 103.41522Q67.1125 103.41522 66.675 104.0246Q66.12813 104.80585 66.12813 106.93085Z" />
	<path class="txt" fill="#000000" d="M61.425 55.916668L61.425 53.854168L57.70625 53.854168L57.70625 52.885418L61.628124 47.322918L62.4875 47.322918L62.4875 52.885418L63.64375 52.885418L63.64375 53.854168L62.4875 53.854168L62.4875 55.916668L61.425 55.916668ZM61.425 52.885418L61.425 49.026043L58.7375 52.885418L61.425 52.885418ZM65.05 51.682293Q65.05 50.151043 65.3625 49.229168Q65.675 48.291668 66.28438 47.791668Q66.90938 47.291668 67.84688 47.291668Q68.53438 47.291668 69.05 47.572918Q69.58125 47.854168 69.925 48.385418Q70.26875 48.901043 70.45625 49.651043Q70.64375 50.401043 70.64375 51.682293Q70.64375 53.197918 70.33125 54.119793Q70.03438 55.041668 69.40938 55.557293Q68.8 56.057293 67.84688 56.057293Q66.6125 56.057293 65.89375 55.166668Q65.05 54.104168 65.05 51.682293ZM66.12813 51.682293Q66.12813 53.791668 66.62813 54.494793Q67.12813 55.197918 67.84688 55.197918Q68.58125 55.197918 69.06563 54.494793Q69.56563 53.791668 69.56563 51.682293Q69.56563 49.557293 69.06563 48.869793Q68.58125 48.166668 67.83125 48.166668Q67.1125 48.166668 66.675 48.776043Q66.12813 49.557293 66.12813 51.682293Z" />
	<path class="txt" fill="#000000" d="M87.96585 307.6813L88.65086 306.8637Q89.17014 307.2725 89.65628 307.3609Q90.14242 307.44928 90.73904 307.2283Q91.33566 306.98523 91.85494 306.46597Q92.30793 306.01297 92.5289 305.52682Q92.73882 305.02966 92.67253 304.6319Q92.60624 304.21207 92.33003 303.93585Q92.04277 303.6486 91.667114 303.6044Q91.28042 303.54913 90.76114 303.78116Q90.407585 303.93585 89.36902 304.57666Q88.34151 305.20642 87.833275 305.3611Q87.15931 305.571 86.617935 305.4495Q86.065506 305.31693 85.64566 304.89706Q85.19267 304.4441 85.04904 303.7922Q84.90541 303.11826 85.20372 302.42218Q85.50203 301.70404 86.109695 301.09637Q86.78366 300.4224 87.52391 300.12408Q88.25311 299.81473 88.96022 299.96942Q89.65628 300.11304 90.20871 300.62128L89.490555 301.44992Q88.84974 300.94168 88.197876 301.01904Q87.54601 301.07428 86.84995 301.77032Q86.12075 302.49954 86.05446 303.09616Q85.98817 303.69278 86.363815 304.06842Q86.695274 304.39987 87.137215 304.37778Q87.579155 304.35568 88.7724 303.6044Q89.97669 302.84204 90.50702 302.64316Q91.291466 302.36694 91.921234 302.4885Q92.53995 302.59897 93.03713 303.09616Q93.52327 303.5823 93.67795 304.2894Q93.82158 304.98544 93.54537 305.7478Q93.25811 306.4991 92.60624 307.15097Q91.7776 307.9796 90.98211 308.31107Q90.186615 308.62042 89.380066 308.4547Q88.58457 308.27792 87.96585 307.6813ZM96.97041 302.58792L90.90477 299.85892L91.68922 299.0745L95.26894 300.75388Q95.84347 301.04114 96.42904 301.36154Q96.185974 300.9196 95.87661 300.25668L94.17513 296.58856L94.937485 295.8262L97.66647 301.89188L96.97041 302.58792ZM100.8816 295.8483L101.743385 295.1633Q102.24057 296.01404 102.11904 296.88687Q101.997505 297.7597 101.23515 298.52206Q100.27393 299.48328 99.10278 299.46118Q97.94269 299.42804 96.87098 298.35632Q95.76613 297.25146 95.73298 296.06927Q95.68879 294.87604 96.594765 293.97006Q97.47865 293.08618 98.6277 293.13037Q99.787796 293.1635 100.8816 294.25732Q100.94789 294.3236 101.080475 294.4562L97.79906 297.7376Q98.57246 298.4226 99.32375 298.44473Q100.06401 298.45578 100.61644 297.90335Q101.02523 297.49454 101.10257 296.99734Q101.17991 296.4781 100.8816 295.8483ZM97.23558 297.08575L99.68836 294.63297Q99.08069 294.11368 98.57246 294.0695Q97.77696 294.0032 97.213486 294.56668Q96.69421 295.08597 96.68315 295.782Q96.68315 296.46704 97.23558 297.08575ZM104.21826 295.3401L98.14156 289.26337L98.89286 288.5121L104.96956 294.58878L104.21826 295.3401ZM107.3229 290.9096L108.08525 291.451Q107.83114 291.83768 107.588066 292.08075Q107.17927 292.48956 106.83677 292.589Q106.483215 292.67737 106.17385 292.5669Q105.87554 292.44537 105.201584 291.7714L102.67146 289.24127L102.13009 289.78265L101.555565 289.20813L102.09694 288.66675L101.003136 287.57294L101.301445 286.39075L102.8372 287.9265L103.58849 287.1752L104.16302 287.74973L103.41172 288.50104L105.98603 291.07535Q106.306435 291.39575 106.42797 291.451Q106.560555 291.49518 106.704185 291.46204Q106.84782 291.4289 107.01354 291.26315Q107.146126 291.13058 107.3229 290.9096ZM110.07399 286.6559L110.935776 285.97092Q111.43296 286.82166 111.311424 287.6945Q111.189896 288.56732 110.42754 289.32968Q109.46632 290.2909 108.29517 290.2688Q107.13508 290.23566 106.06337 289.16394Q104.95851 288.05908 104.92537 286.8769Q104.88117 285.68365 105.787155 284.77768Q106.671036 283.8938 107.82008 283.938Q108.98019 283.97113 110.07399 285.06494Q110.14028 285.13123 110.272865 285.2638L106.99145 288.54523Q107.76485 289.23022 108.51614 289.25232Q109.2564 289.26337 109.80882 288.71094Q110.21762 288.30215 110.29496 287.80496Q110.3723 287.28568 110.07399 286.6559ZM106.42797 287.89337L108.880745 285.44058Q108.27308 284.9213 107.76485 284.8771Q106.969345 284.81082 106.405876 285.3743Q105.88659 285.8936 105.87554 286.58963Q105.87554 287.27463 106.42797 287.89337Z" />
	<path class="txt" fill="#000000" d="M129.57402 310.78595L123.49732 304.70923L125.79542 302.41113Q126.39204 301.8145 126.767685 301.54935Q127.29802 301.1737 127.80625 301.08533Q128.32553 300.98587 128.87796 301.18475Q129.44144 301.3726 129.89442 301.82556Q130.66782 302.59897 130.71202 303.63754Q130.75621 304.654 129.46353 305.9467L127.905685 307.50452L130.38055 309.9794L129.57402 310.78595ZM127.19858 306.79742L128.76747 305.22852Q129.55193 304.4441 129.58507 303.8364Q129.61821 303.20663 129.08788 302.6763Q128.71223 302.30066 128.2482 302.23438Q127.78416 302.14597 127.386406 302.36694Q127.12124 302.52164 126.579865 303.06302L125.02202 304.62085L127.19858 306.79742ZM135.13144 305.22852L130.73412 300.8312L131.40808 300.15726L132.07098 300.82016Q131.86107 300.102 131.92735 299.74844Q131.99365 299.3728 132.25882 299.10764Q132.63446 298.732 133.25319 298.5773L133.69513 299.52747Q133.25319 299.63797 132.98802 299.90314Q132.7339 300.15726 132.68971 300.5108Q132.64551 300.84225 132.83334 301.18475Q133.09851 301.7151 133.56255 302.17914L135.87169 304.48828L135.13144 305.22852ZM139.5619 297.96964L140.42369 297.2846Q140.92087 298.13535 140.79933 299.00818Q140.67781 299.88104 139.91545 300.64337Q138.95424 301.6046 137.78308 301.58252Q136.62299 301.54935 135.55128 300.47766Q134.44643 299.3728 134.41328 298.1906Q134.36908 296.99734 135.27507 296.09137Q136.15895 295.2075 137.308 295.25168Q138.4681 295.28482 139.5619 296.37863Q139.62819 296.44495 139.76077 296.5775L136.47935 299.85892Q137.25276 300.54395 138.00406 300.56604Q138.74431 300.5771 139.29674 300.02466Q139.70554 299.61588 139.78287 299.11868Q139.86021 298.5994 139.5619 297.96964ZM135.91588 299.20706L138.36865 296.7543Q137.76099 296.23502 137.25276 296.19083Q136.45726 296.1245 135.89378 296.688Q135.3745 297.20728 135.36345 297.90335Q135.36345 298.58835 135.91588 299.20706ZM145.2519 294.0253Q145.18561 294.7987 144.94254 295.32904Q144.71053 295.8483 144.26859 296.29025Q143.53938 297.01947 142.79912 297.0526Q142.05887 297.08575 141.50644 296.53333Q141.18604 296.21292 141.0645 295.8041Q140.93192 295.38428 141.02031 294.9865Q141.09766 294.57773 141.31862 294.2021Q141.46225 293.92587 141.86 293.41763Q142.65549 292.42325 142.9317 291.83768Q142.77702 291.683 142.74388 291.64987Q142.27985 291.18582 141.8821 291.20792Q141.35176 291.2521 140.78828 291.81558Q140.26901 292.33487 140.20271 292.77682Q140.12538 293.2077 140.46788 293.79327L139.63924 294.42303Q139.27464 293.85956 139.21939 293.3403Q139.16415 292.821 139.44037 292.23544Q139.71658 291.64987 140.28006 291.0864Q140.84354 290.52292 141.32967 290.30194Q141.81581 290.08096 142.1804 290.1141Q142.54501 290.14725 142.92065 290.39032Q143.14163 290.545 143.63881 291.0422L144.63318 292.03656Q145.67175 293.07513 145.99216 293.30716Q146.32361 293.5281 146.72136 293.6386L145.9369 294.42303Q145.5944 294.3015 145.2519 294.0253ZM143.51727 292.42325Q143.27422 292.99777 142.5892 293.92587Q142.19145 294.4562 142.09201 294.73242Q141.98154 294.99756 142.02573 295.26273Q142.08096 295.51685 142.27985 295.71573Q142.57816 296.01404 142.998 295.99194Q143.4289 295.9588 143.85979 295.5279Q144.29068 295.09702 144.43431 294.57773Q144.58899 294.0474 144.41222 293.56125Q144.27963 293.1856 143.79349 292.69946L143.51727 292.42325ZM149.12994 288.00385L149.95859 287.37408Q150.58835 288.24692 150.52205 289.175Q150.45576 290.10306 149.73761 290.82123Q148.83163 291.7272 147.69363 291.69406Q146.55563 291.63882 145.45078 290.53397Q144.74367 289.82684 144.44536 289.0645Q144.14705 288.28006 144.35696 287.5398Q144.57794 286.7885 145.15247 286.214Q145.85957 285.50687 146.67717 285.4185Q147.49475 285.308 148.3013 285.84937L147.68259 286.68906Q147.1412 286.34656 146.65506 286.39075Q146.15788 286.4239 145.78223 286.79956Q145.21875 287.36304 145.274 288.12537Q145.31819 288.87668 146.19102 289.7495Q147.08595 290.64444 147.82622 290.69968Q148.56647 290.75494 149.10785 290.21356Q149.54979 289.7716 149.57188 289.21918Q149.60503 288.6557 149.12994 288.00385ZM153.07426 285.95987L153.83662 286.50125Q153.5825 286.88794 153.33943 287.131Q152.93063 287.5398 152.58813 287.63925Q152.23457 287.72763 151.92522 287.61716Q151.6269 287.4956 150.95296 286.82166L148.42284 284.29153L147.88145 284.83292L147.30693 284.2584L147.84831 283.717L146.7545 282.6232L147.05281 281.441L148.58856 282.97675L149.33986 282.22546L149.91438 282.8L149.16309 283.55127L151.7374 286.12558Q152.0578 286.446 152.17934 286.50125Q152.31192 286.54544 152.45555 286.5123Q152.59918 286.47916 152.76491 286.31342Q152.89749 286.18085 153.07426 285.95987Z" />
	<path class="txt" fill="#000000" d="M185.89883 295.26273L179.82214 289.18604L180.6287 288.3795L185.98723 293.73804L188.98138 290.7439L189.69954 291.46204L185.89883 295.26273ZM185.57843 285.15332L184.71664 284.29153L185.46794 283.54022L186.32974 284.402L185.57843 285.15332ZM190.79335 290.36823L186.39603 285.97092L187.14732 285.2196L191.54465 289.61694L190.79335 290.36823ZM193.87589 285.95987L194.63824 286.50125Q194.38412 286.88794 194.14105 287.131Q193.73225 287.5398 193.38976 287.63925Q193.0362 287.72763 192.72684 287.61716Q192.42853 287.4956 191.75456 286.82166L189.22446 284.29153L188.68307 284.83292L188.10855 284.2584L188.64993 283.717L187.55612 282.6232L187.85443 281.441L189.39018 282.97675L190.14148 282.22546L190.716 282.8L189.9647 283.55127L192.53902 286.12558Q192.85942 286.44598 192.98096 286.50125Q193.11354 286.54544 193.25717 286.5123Q193.4008 286.47916 193.56653 286.31342Q193.69911 286.18085 193.87589 285.95987Z" />
	<path class="txt" fill="#000000" d="M168.3973 353.5659L160.7075 349.1023L161.53615 348.27365L166.45276 351.3341Q167.2151 351.80917 167.9443 352.3174Q167.20406 351.11313 167.09357 350.91425L164.14362 345.6662L165.11588 344.6939L169.06021 346.89258Q170.52966 347.72122 171.68976 348.57196Q171.22572 347.88696 170.66225 346.9478L167.7123 342.0975L168.51883 341.29095L172.93825 349.02496L172.15381 349.8094L166.25388 346.45065Q165.51363 346.04184 165.3479 345.9424Q165.6683 346.43958 165.87823 346.8263L169.22594 352.73727L168.3973 353.5659ZM176.61742 342.51736L177.4792 341.83234Q177.97638 342.68307 177.85486 343.5559Q177.73332 344.42874 176.97096 345.1911Q176.00975 346.1523 174.8386 346.13022Q173.6785 346.09708 172.6068 345.0254Q171.50194 343.92053 171.4688 342.73834Q171.4246 341.54507 172.33058 340.6391Q173.21446 339.75522 174.36351 339.7994Q175.5236 339.83255 176.61742 340.92636Q176.6837 340.99265 176.81628 341.12524L173.53487 344.40665Q174.30827 345.09167 175.05957 345.11377Q175.79982 345.12482 176.35225 344.5724Q176.76105 344.16357 176.83838 343.6664Q176.91573 343.14713 176.61742 342.51736ZM172.97139 343.7548L175.42418 341.302Q174.8165 340.78275 174.30827 340.73856Q173.51277 340.67224 172.9493 341.23572Q172.43002 341.755 172.41896 342.45108Q172.41896 343.13608 172.97139 343.7548ZM180.66118 341.302L179.96512 341.99808L173.88843 335.9214L174.63972 335.17007L176.80524 337.3356Q176.69475 336.27493 177.42397 335.54572Q177.83275 335.13693 178.35204 334.9491Q178.87132 334.7392 179.40164 334.80548Q179.94302 334.86072 180.49545 335.14798Q181.04788 335.43524 181.52296 335.91034Q182.64992 337.0373 182.70515 338.21948Q182.7604 339.40167 181.987 340.17508Q181.20256 340.9595 180.10875 340.7496L180.66118 341.302ZM178.41832 339.08127Q179.20277 339.8657 179.7773 339.9983Q180.70537 340.21927 181.302 339.62265Q181.78813 339.1365 181.72185 338.3631Q181.6666 337.57864 180.81586 336.7279Q179.95407 335.86612 179.20277 335.79984Q178.45148 335.73355 177.96533 336.2197Q177.4792 336.7058 177.54549 337.5013Q177.61179 338.27472 178.41832 339.08127ZM187.22401 330.47446L188.22943 329.8889Q188.95863 331.1263 188.82605 332.29745Q188.69347 333.4686 187.7433 334.41876Q186.75998 335.4021 185.74352 335.62308Q184.72705 335.84402 183.65533 335.41315Q182.57259 334.9712 181.69974 334.09836Q180.74957 333.1482 180.40706 332.07648Q180.06456 331.00476 180.36287 329.97726Q180.67223 328.9387 181.47878 328.13214Q182.38475 327.22617 183.46751 327.0715Q184.56131 326.90576 185.64407 327.50238L185.0364 328.48572Q184.16357 328.0327 183.45647 328.1432Q182.74936 328.2316 182.1417 328.83926Q181.44563 329.5353 181.31305 330.3529Q181.18047 331.1484 181.54506 331.91077Q181.92072 332.66205 182.52838 333.2697Q183.30179 334.04312 184.09727 334.39667Q184.90382 334.7392 185.66617 334.55136Q186.42853 334.36353 186.99199 333.80005Q187.66595 333.1261 187.7433 332.27536Q187.83168 331.41357 187.22401 330.47446ZM188.815 328.7509Q187.58862 327.52448 187.677 326.26495Q187.75435 325.21533 188.57195 324.39774Q189.47792 323.49176 190.64906 323.51385Q191.8202 323.51385 192.86983 324.56348Q193.72057 325.4142 193.95258 326.15445Q194.1846 326.8947 193.96362 327.66812Q193.74266 328.4194 193.16814 328.99393Q192.2511 329.91098 191.091 329.89993Q189.93091 329.86676 188.815 328.7509ZM189.57736 327.98853Q190.41704 328.82822 191.20149 328.88345Q191.997 328.92764 192.54941 328.3752Q193.11288 327.81174 193.05765 327.0273Q193.00241 326.24286 192.14062 325.38107Q191.32303 324.56348 190.52753 324.5193Q189.74309 324.46405 189.19066 325.01645Q188.63823 325.56888 188.68242 326.36438Q188.72662 327.1378 189.57736 327.98853ZM196.23962 325.72357L191.8423 321.32626L192.50522 320.66333L193.12393 321.28204Q193.00241 320.7407 193.15709 320.21036Q193.30072 319.66898 193.74266 319.22702Q194.22879 318.7409 194.73703 318.6304Q195.2563 318.50888 195.74245 318.75195Q195.51042 317.45926 196.33907 316.6306Q197.00198 315.9677 197.70909 315.9898Q198.41618 315.9898 199.17854 316.75217L202.1948 319.7684L201.45454 320.50867L198.68135 317.73547Q198.23941 317.29352 197.9632 317.172Q197.69803 317.03943 197.38867 317.1057Q197.07932 317.172 196.81415 317.43716Q196.35011 317.9012 196.35011 318.51993Q196.36116 319.1276 197.04617 319.8126L199.59839 322.3648L198.84708 323.11612L195.9855 320.25455Q195.48833 319.75735 195.05743 319.70212Q194.62654 319.6248 194.21774 320.03357Q193.89734 320.35397 193.7979 320.78488Q193.69846 321.21576 193.89734 321.6577Q194.0962 322.09964 194.69283 322.69626L196.97987 324.9833L196.23962 325.72357ZM205.70824 319.63583L199.62048 313.54807L200.29445 312.8741L200.85793 313.4376Q200.76953 312.86307 200.90211 312.39902Q201.04575 311.92395 201.47664 311.49304Q202.04012 310.92957 202.75827 310.78595Q203.47643 310.6423 204.21667 310.9627Q204.96797 311.27206 205.59775 311.90186Q206.2717 312.5758 206.57002 313.36026Q206.87938 314.13364 206.70259 314.88495Q206.52582 315.63626 206.0176 316.14447Q205.64194 316.52014 205.18895 316.66376Q204.72491 316.79636 204.30507 316.75217L206.44849 318.89557L205.70824 319.63583ZM202.5152 315.09488Q203.36594 315.94562 204.11723 316.0119Q204.8575 316.06714 205.34363 315.581Q205.8408 315.08383 205.77452 314.31042Q205.70824 313.53702 204.82434 312.65314Q203.98465 311.81345 203.23335 311.74716Q202.47101 311.66983 201.98486 312.15594Q201.50978 312.63104 201.58713 313.4376Q201.66446 314.24414 202.5152 315.09488ZM206.49268 311.0732Q205.26628 309.8468 205.35468 308.58728Q205.43202 307.53766 206.2496 306.72006Q207.1556 305.8141 208.32674 305.83618Q209.49788 305.83618 210.54749 306.8858Q211.39822 307.73654 211.63025 308.4768Q211.86227 309.21704 211.6413 309.99045Q211.42033 310.74176 210.8458 311.31628Q209.92877 312.2333 208.76868 312.22226Q207.60858 312.18912 206.49268 311.0732ZM207.25502 310.31085Q208.09471 311.15054 208.87917 311.20578Q209.67465 311.24997 210.22708 310.69754Q210.79056 310.13406 210.73532 309.34964Q210.68007 308.5652 209.81828 307.7034Q209.0007 306.8858 208.2052 306.8416Q207.42076 306.78638 206.86833 307.3388Q206.3159 307.89124 206.36009 308.6867Q206.40428 309.4601 207.25502 310.31085ZM213.9173 308.0459L209.51997 303.6486L210.18289 302.98566L210.8016 303.6044Q210.5696 302.4001 211.48662 301.48306Q211.88437 301.08533 212.35945 300.8975Q212.84558 300.6986 213.24333 300.76492Q213.64108 300.8312 214.01674 301.07428Q214.2598 301.25104 214.77908 301.77032L217.48598 304.47723L216.74573 305.21747L214.07198 302.54373Q213.60794 302.07968 213.29858 301.9471Q212.98921 301.8145 212.63567 301.90292Q212.27106 301.98026 211.97275 302.27856Q211.49767 302.75366 211.45348 303.41656Q211.40927 304.05737 212.24896 304.89706L214.65755 307.30563L213.9173 308.0459ZM220.45804 298.67673L221.31982 297.99173Q221.817 298.84247 221.69547 299.7153Q221.57394 300.58813 220.81158 301.3505Q219.85037 302.3117 218.67921 302.2896Q217.51912 302.25647 216.44742 301.18475Q215.34256 300.0799 215.30942 298.8977Q215.26521 297.70447 216.1712 296.7985Q217.05508 295.9146 218.20413 295.9588Q219.36423 295.99194 220.45804 297.08575Q220.52432 297.15204 220.6569 297.2846L217.37549 300.56604Q218.1489 301.25104 218.90019 301.27313Q219.64044 301.28418 220.19287 300.73175Q220.60167 300.32297 220.679 299.82578Q220.75635 299.3065 220.45804 298.67673ZM216.81201 299.91418L219.26479 297.4614Q218.65712 296.9421 218.1489 296.89792Q217.3534 296.83163 216.78992 297.3951Q216.27063 297.9144 216.25958 298.61044Q216.25958 299.29544 216.81201 299.91418ZM223.81679 298.1464L219.41946 293.74908L220.08238 293.08618L220.7011 293.7049Q220.46909 292.5006 221.38611 291.58356Q221.78386 291.18582 222.25894 290.998Q222.74509 290.79913 223.14284 290.86542Q223.54057 290.9317 223.91623 291.17477Q224.1593 291.35156 224.67857 291.87082L227.38547 294.57773L226.64522 295.318L223.97147 292.64423Q223.50743 292.1802 223.19807 292.0476Q222.88872 291.91504 222.53516 292.00342Q222.17056 292.08075 221.87225 292.37906Q221.39716 292.85416 221.35297 293.51706Q221.30878 294.15787 222.14847 294.99756L224.55704 297.40616L223.81679 298.1464ZM229.72777 290.9096L230.49011 291.451Q230.236 291.83768 229.99294 292.08075Q229.58414 292.48956 229.24162 292.589Q228.88808 292.67737 228.57872 292.5669Q228.28041 292.44534 227.60645 291.7714L225.07632 289.24127L224.53494 289.78265L223.96042 289.20813L224.5018 288.66675L223.40799 287.57294L223.70631 286.39075L225.24205 287.9265L225.99336 287.1752L226.56789 287.74973L225.81657 288.50104L228.39088 291.07535Q228.7113 291.39575 228.83282 291.451Q228.96541 291.49518 229.10904 291.46204Q229.25267 291.4289 229.4184 291.26315Q229.55098 291.13058 229.72777 290.9096ZM229.27477 290.05887L229.8935 289.21918Q230.40172 289.59482 230.90996 289.55063Q231.42924 289.4954 231.94852 288.9761Q232.45676 288.4679 232.50095 288.02594Q232.54514 287.5619 232.25787 287.27463Q232.00377 287.0205 231.63916 287.09787Q231.38504 287.1531 230.6227 287.6061Q229.59518 288.21378 229.13113 288.39053Q228.6671 288.54523 228.2362 288.44577Q227.80531 288.34634 227.47386 288.0149Q227.1866 287.72763 227.06506 287.34094Q226.94353 286.95422 227.00983 286.5565Q227.06506 286.25818 227.27498 285.87146Q227.48491 285.48477 227.83846 285.13123Q228.3467 284.623 228.88808 284.39096Q229.42946 284.13684 229.8714 284.20316Q230.31334 284.26944 230.79947 284.623L230.16971 285.45163Q229.79405 285.16437 229.36316 285.2196Q228.93227 285.25275 228.49033 285.6947Q227.98209 286.20294 227.9379 286.60068Q227.88266 286.98737 228.11467 287.2194Q228.2583 287.36304 228.45718 287.38513Q228.67815 287.40723 228.94331 287.29672Q229.09799 287.23044 229.79405 286.82166Q230.81052 286.24713 231.25246 286.07034Q231.6944 285.8936 232.12529 285.97092Q232.55618 286.04825 232.94289 286.43494Q233.31854 286.8106 233.42903 287.36304Q233.5395 287.89337 233.31854 288.49Q233.08652 289.07556 232.56725 289.59482Q231.70546 290.45663 230.89891 290.55606Q230.09236 290.6334 229.27477 290.05887Z" />
	<path class="txt" fill="#000000" d="M263.613 299.15182L255.18295 295.42847L256.0558 294.55563L262.05515 297.3951Q262.77332 297.7376 263.36993 298.06906Q263.0164 297.42825 262.707 296.74323L259.9228 290.68863L260.7404 289.87103L264.44165 298.32318L263.613 299.15182ZM269.6234 293.14142L268.97153 292.48956Q269.20355 293.76013 268.31967 294.644Q267.93298 295.0307 267.44684 295.22958Q266.9607 295.40637 266.574 295.35114Q266.17627 295.28482 265.7785 295.01965Q265.52438 294.85394 265.03827 294.3678L262.3203 291.64987L263.07162 290.89856L265.51334 293.3403Q266.08786 293.91483 266.34198 294.08054Q266.69553 294.3015 267.0933 294.25732Q267.49103 294.19104 267.83353 293.8485Q268.165 293.51706 268.28653 293.0641Q268.40805 292.589 268.2313 292.16913Q268.06555 291.73825 267.50208 291.17477L265.14874 288.82144L265.889 288.08118L270.28632 292.47852L269.6234 293.14142ZM273.28046 286.6559L274.14224 285.97092Q274.63943 286.82166 274.5179 287.6945Q274.39636 288.56732 273.63403 289.32968Q272.6728 290.2909 271.50165 290.2688Q270.34155 290.23566 269.26984 289.16394Q268.165 288.05908 268.13184 286.8769Q268.08765 285.68365 268.99362 284.77768Q269.87753 283.8938 271.02658 283.938Q272.18668 283.97113 273.28046 285.06494Q273.34677 285.13123 273.47934 285.2638L270.19794 288.54523Q270.9713 289.23022 271.72263 289.25232Q272.4629 289.26337 273.01532 288.71094Q273.4241 288.30215 273.50143 287.80496Q273.57877 287.28568 273.28046 286.6559ZM269.63446 287.89337L272.08722 285.44058Q271.47955 284.9213 270.9713 284.8771Q270.17584 284.81082 269.61237 285.3743Q269.09308 285.8936 269.08203 286.58963Q269.08203 287.27463 269.63446 287.89337Z" />
	<path class="txt" fill="#000000" d="M278.6052 324.96124L272.5285 318.88452L274.81555 316.59747Q275.51163 315.90143 276.1193 315.6694Q276.72696 315.43738 277.34567 315.59207Q277.9644 315.72464 278.38425 316.1445Q278.77094 316.5312 278.9035 317.08362Q279.0361 317.63605 278.81512 318.27686Q279.5333 317.89017 280.2183 318.00064Q280.9033 318.08905 281.43362 318.61935Q281.8535 319.0392 282.05234 319.59164Q282.24017 320.13303 282.1739 320.59705Q282.1076 321.0611 281.79825 321.56934Q281.49994 322.0665 280.9254 322.64102L278.6052 324.96124ZM275.88727 320.6302L277.20203 319.31543Q277.73236 318.7851 277.8981 318.4868Q278.11908 318.08905 278.06384 317.72443Q277.99753 317.3488 277.67712 317.02838Q277.3788 316.73007 277.00317 316.64166Q276.6275 316.55328 276.27396 316.75217Q275.9204 316.92892 275.26855 317.5808L274.0532 318.79614L275.88727 320.6302ZM278.6936 323.43652L280.20724 321.92288Q280.59393 321.5362 280.71548 321.34836Q280.95856 321.0169 281.02484 320.72964Q281.09113 320.4203 280.9917 320.07776Q280.89224 319.73526 280.60498 319.448Q280.26248 319.1055 279.8316 319.02817Q279.41174 318.9398 279.00296 319.1497Q278.59415 319.35962 278.00858 319.9452L276.6054 321.34836L278.6936 323.43652ZM286.53806 315.94562Q286.47177 316.71902 286.2287 317.24936Q285.99667 317.76862 285.55475 318.21057Q284.82553 318.9398 284.0853 318.97293Q283.34503 319.00607 282.7926 318.45364Q282.4722 318.13324 282.35068 317.72443Q282.21808 317.3046 282.30646 316.90683Q282.38382 316.49805 282.60477 316.1224Q282.7484 315.8462 283.14615 315.33795Q283.94165 314.34357 284.21786 313.758Q284.0632 313.60333 284.03003 313.5702Q283.566 313.10614 283.16824 313.12823Q282.63794 313.17242 282.07446 313.7359Q281.55518 314.2552 281.4889 314.69714Q281.41153 315.12802 281.75403 315.7136L280.9254 316.34335Q280.5608 315.77988 280.50555 315.26062Q280.45032 314.74133 280.72653 314.15576Q281.00275 313.5702 281.56622 313.0067Q282.1297 312.44324 282.6158 312.22226Q283.10196 312.00128 283.46655 312.03442Q283.83118 312.06757 284.20682 312.31064Q284.4278 312.46533 284.925 312.96252L285.91934 313.95688Q286.95792 314.99545 287.27832 315.22748Q287.60977 315.44843 288.0075 315.55893L287.22308 316.34335Q286.88055 316.22183 286.53806 315.94562ZM284.80344 314.34357Q284.56036 314.9181 283.87537 315.8462Q283.4776 316.37653 283.37817 316.65274Q283.2677 316.91788 283.3119 317.18304Q283.36713 317.43716 283.566 317.63605Q283.86432 317.93436 284.28415 317.91226Q284.71506 317.87912 285.14594 317.4482Q285.57684 317.01733 285.72046 316.49805Q285.87515 315.9677 285.69836 315.48157Q285.5658 315.10593 285.07965 314.61978L284.80344 314.34357ZM290.4161 309.92416L291.24475 309.2944Q291.8745 310.16724 291.80823 311.0953Q291.7419 312.02338 291.02377 312.74155Q290.1178 313.64752 288.9798 313.61438Q287.8418 313.55914 286.73694 312.45428Q286.02982 311.74716 285.7315 310.98483Q285.4332 310.20038 285.64313 309.4601Q285.8641 308.70883 286.43863 308.1343Q287.14572 307.4272 287.96332 307.3388Q288.7809 307.22833 289.58746 307.76968L288.96875 308.60938Q288.42737 308.26688 287.94122 308.31107Q287.44403 308.3442 287.0684 308.71988Q286.5049 309.28336 286.56015 310.0457Q286.60434 310.797 287.47717 311.66983Q288.37213 312.56476 289.11237 312.62Q289.85263 312.67526 290.394 312.13388Q290.83594 311.69193 290.85803 311.1395Q290.89117 310.57602 290.4161 309.92416ZM293.3992 310.16724L287.3225 304.09055L288.07382 303.33923L291.54306 306.80847L291.50992 303.2619L292.48218 302.2896L292.4159 305.6042L297.04523 306.5212L296.1282 307.43823L292.4159 306.64273L292.40485 307.67026L294.1505 309.41592L293.3992 310.16724ZM298.32684 305.2396L297.6308 305.93564L291.5541 299.85895L292.3054 299.10764L294.47092 301.27316Q294.36044 300.2125 295.08963 299.48328Q295.49844 299.0745 296.0177 298.88666Q296.537 298.67676 297.06732 298.74304Q297.6087 298.79828 298.16113 299.08554Q298.71356 299.3728 299.18863 299.8479Q300.31558 300.97485 300.37085 302.15704Q300.4261 303.33923 299.65268 304.11264Q298.86823 304.89706 297.77444 304.68716L298.32684 305.2396ZM296.084 303.01883Q296.86844 303.80328 297.44296 303.93585Q298.37106 304.15683 298.96768 303.5602Q299.4538 303.07407 299.3875 302.30066Q299.33228 301.51624 298.48154 300.6655Q297.61975 299.8037 296.86844 299.7374Q296.11716 299.6711 295.631 300.15726Q295.14487 300.64337 295.21118 301.43887Q295.27747 302.21228 296.084 303.01883ZM300.11673 299.0524Q298.89032 297.82602 298.97873 296.56647Q299.05606 295.51688 299.87366 294.69928Q300.77963 293.79327 301.95078 293.8154Q303.12192 293.8154 304.17154 294.865Q305.02228 295.71573 305.2543 296.456Q305.4863 297.19623 305.26535 297.96964Q305.04437 298.72095 304.46985 299.29547Q303.55283 300.2125 302.39273 300.20145Q301.23264 300.1683 300.11673 299.0524ZM300.87906 298.29004Q301.71875 299.12973 302.5032 299.18497Q303.2987 299.2292 303.85114 298.67676Q304.4146 298.11328 304.35938 297.32883Q304.3041 296.54437 303.44232 295.6826Q302.62473 294.865 301.82925 294.8208Q301.0448 294.76556 300.49237 295.318Q299.93994 295.87042 299.98413 296.66592Q300.02832 297.4393 300.87906 298.29004ZM307.54135 296.0251L303.144 291.62778L303.80695 290.96487L304.42566 291.5836Q304.19363 290.3793 305.11066 289.46225Q305.50842 289.0645 305.9835 288.87668Q306.46964 288.67783 306.86737 288.7441Q307.26514 288.8104 307.64078 289.05347Q307.88385 289.23026 308.40314 289.7495L311.11002 292.45642L310.36978 293.19666L307.696 290.52292Q307.232 290.05887 306.92264 289.9263Q306.61325 289.7937 306.2597 289.8821Q305.8951 289.95944 305.5968 290.25775Q305.1217 290.73285 305.0775 291.39575Q305.03333 292.03656 305.87302 292.87625L308.2816 295.28485L307.54135 296.0251ZM314.0821 286.65594L314.94388 285.97092Q315.44104 286.82166 315.31952 287.6945Q315.19797 288.56732 314.43564 289.32968Q313.4744 290.2909 312.30325 290.2688Q311.14316 290.23566 310.07147 289.16394Q308.9666 288.05908 308.93347 286.8769Q308.88925 285.68365 309.79526 284.77768Q310.67914 283.8938 311.8282 283.938Q312.98828 283.97113 314.0821 285.06494Q314.14838 285.13123 314.28094 285.26382L310.99954 288.54523Q311.77295 289.23026 312.52423 289.25235Q313.2645 289.2634 313.81693 288.71097Q314.2257 288.30215 314.30304 287.805Q314.3804 287.2857 314.0821 286.65594ZM310.43607 287.89337L312.88882 285.44058Q312.28116 284.9213 311.77295 284.8771Q310.97745 284.81082 310.41397 285.3743Q309.89468 285.8936 309.88364 286.58963Q309.88364 287.27466 310.43607 287.89337Z" />
	<path class="txt" fill="#000000" d="M327.96945 316.3986L324.224 307.99066L325.0858 307.12888L333.6484 310.71964L332.74243 311.62564L330.17917 310.4987L327.64905 313.02878L328.8202 315.54785L327.96945 316.3986ZM327.22922 312.1449L329.28424 310.08987L326.9751 309.04025Q325.91443 308.57623 325.28467 308.21164Q325.7487 308.91873 326.1133 309.7032L327.22922 312.1449ZM333.49374 310.87433L329.0964 306.47702L329.7593 305.8141L330.37805 306.4328Q330.14603 305.22852 331.06305 304.3115Q331.4608 303.91376 331.93588 303.72592Q332.42203 303.52704 332.81976 303.59332Q333.21753 303.65964 333.59317 303.9027Q333.83624 304.07947 334.35553 304.59875L337.0624 307.30563L336.32214 308.0459L333.6484 305.37216Q333.18436 304.9081 332.875 304.77554Q332.56564 304.64294 332.2121 304.73132Q331.8475 304.8087 331.5492 305.107Q331.0741 305.58206 331.0299 306.245Q330.98572 306.8858 331.8254 307.7255L334.23398 310.13406L333.49374 310.87433ZM338.66446 306.4328L339.50415 305.8141Q339.8798 306.10135 340.2444 306.0461Q340.73053 305.97983 341.20563 305.50473Q341.72488 304.98544 341.7912 304.49933Q341.86853 304.00214 341.60336 303.5381Q341.43762 303.23978 340.6974 302.52164Q340.78577 303.58228 340.05658 304.3115Q339.15057 305.21747 338.00153 305.0628Q336.84143 304.89706 335.93546 303.9911Q335.3057 303.36133 334.99634 302.61002Q334.68698 301.8366 334.8306 301.11847Q334.97424 300.4003 335.5598 299.81473Q336.34427 299.03027 337.48227 299.15182L336.95193 298.6215L337.63693 297.9365L341.43762 301.73718Q342.46515 302.7647 342.68613 303.40552Q342.9071 304.04633 342.69717 304.74237Q342.4983 305.4495 341.8354 306.1124Q341.05093 306.89685 340.21124 307.02942Q339.37155 307.16202 338.66446 306.4328ZM336.64258 303.1735Q337.50436 304.03528 338.2446 304.0905Q338.98486 304.14575 339.50415 303.6265Q340.0234 303.1072 339.96817 302.36694Q339.92398 301.61563 339.0843 300.77597Q338.27774 299.96942 337.50436 299.92523Q336.742 299.86996 336.23376 300.3782Q335.73657 300.8754 335.79184 301.63776Q335.84708 302.378 336.64258 303.1735ZM346.2769 298.09116L345.62503 297.4393Q345.85706 298.70987 344.97318 299.59375Q344.58646 299.98047 344.10034 300.17932Q343.6142 300.3561 343.2275 300.30087Q342.82974 300.2346 342.432 299.96942Q342.1779 299.80368 341.69174 299.31754L338.97382 296.5996L339.7251 295.8483L342.16684 298.29004Q342.74136 298.86456 342.99548 299.03027Q343.34903 299.25125 343.74677 299.20706Q344.14453 299.14078 344.48703 298.79828Q344.81848 298.4668 344.94003 298.01382Q345.06155 297.53873 344.88477 297.1189Q344.71906 296.688 344.15558 296.1245L341.80225 293.77118L342.54248 293.0309L346.93982 297.42825L346.2769 298.09116ZM348.32086 296.04718L342.24417 289.9705L342.99548 289.21918L349.07217 295.29587L348.32086 296.04718ZM352.79553 290.48978Q352.72925 291.26315 352.48618 291.7935Q352.25415 292.31277 351.81223 292.7547Q351.083 293.48392 350.34277 293.51706Q349.6025 293.5502 349.05008 292.99777Q348.72968 292.67737 348.60812 292.2686Q348.47556 291.84872 348.56393 291.451Q348.6413 291.04218 348.86224 290.66653Q349.0059 290.39032 349.40363 289.88208Q350.19913 288.88773 350.47534 288.30215Q350.32065 288.14746 350.2875 288.11432Q349.8235 287.6503 349.42572 287.6724Q348.8954 287.71658 348.3319 288.28006Q347.81265 288.79935 347.74634 289.24127Q347.669 289.67218 348.0115 290.25775L347.18286 290.8875Q346.81827 290.32404 346.76303 289.80475Q346.7078 289.28546 346.984 288.6999Q347.26022 288.11432 347.8237 287.55084Q348.38718 286.98737 348.8733 286.76642Q349.35944 286.54544 349.72403 286.57858Q350.08865 286.61172 350.4643 286.8548Q350.68527 287.00946 351.18243 287.50665L352.17682 288.50104Q353.2154 289.53958 353.5358 289.7716Q353.86725 289.99258 354.26498 290.10306L353.48056 290.8875Q353.13803 290.766 352.79553 290.48978ZM351.0609 288.88773Q350.81784 289.46225 350.13284 290.39032Q349.73508 290.92065 349.63565 291.19687Q349.52518 291.46204 349.56937 291.7272Q349.6246 291.98132 349.8235 292.18018Q350.1218 292.47852 350.54163 292.4564Q350.97253 292.42325 351.4034 291.99237Q351.83432 291.56146 351.97794 291.04218Q352.13263 290.51187 351.95584 290.02573Q351.82327 289.6501 351.33713 289.16394L351.0609 288.88773ZM355.40298 288.96506L351.00568 284.56775L351.67963 283.89377L352.34256 284.5567Q352.13263 283.83853 352.1989 283.485Q352.2652 283.10934 352.53036 282.84418Q352.90604 282.4685 353.52475 282.31384L353.96667 283.264Q353.52475 283.3745 353.25958 283.63968Q353.00546 283.89377 352.96127 284.24734Q352.91708 284.5788 353.1049 284.9213Q353.37006 285.45163 353.8341 285.91568L356.14325 288.22482L355.40298 288.96506Z" />
	<path class="txt" fill="#000000" d="M376.51608 308.65356L370.4394 302.57687L373.13525 299.88104Q373.95282 299.06345 374.53842 298.80933Q375.124 298.5552 375.79794 298.72095Q376.46085 298.8756 376.95804 299.3728Q377.6099 300.02466 377.632 300.88644Q377.65408 301.74823 376.9028 302.7426Q377.37787 302.57687 377.68726 302.55478Q378.3612 302.52164 379.1567 302.69843L381.87463 303.29504L380.8582 304.3115L378.80313 303.84747Q377.89716 303.6486 377.37787 303.59335Q376.86966 303.52707 376.57135 303.6044Q376.27304 303.65964 376.02997 303.7922Q375.87527 303.9027 375.56592 304.21207L374.6268 305.15118L377.32263 307.84705L376.51608 308.65356ZM373.93073 304.45514L375.66534 302.72052Q376.20673 302.17914 376.4056 301.75928Q376.6045 301.31735 376.51608 300.9196Q376.4277 300.49976 376.1294 300.20145Q375.69852 299.77054 375.1019 299.81476Q374.5163 299.8479 373.84235 300.52185L371.9199 302.4443L373.93073 304.45514ZM384.3716 297.96964L385.2334 297.28464Q385.7306 298.13538 385.60904 299.0082Q385.48752 299.88104 384.72516 300.64337Q383.76395 301.6046 382.5928 301.58252Q381.4327 301.54938 380.361 300.47766Q379.25613 299.3728 379.223 298.1906Q379.1788 296.99738 380.08478 296.09137Q380.96866 295.2075 382.1177 295.2517Q383.2778 295.28485 384.3716 296.37863Q384.4379 296.44495 384.5705 296.5775L381.28906 299.85895Q382.06247 300.54395 382.81378 300.56604Q383.55402 300.5771 384.10645 300.02466Q384.51523 299.61588 384.5926 299.11868Q384.66992 298.5994 384.3716 297.96964ZM380.7256 299.20706L383.17838 296.7543Q382.5707 296.23502 382.06247 296.19083Q381.26697 296.12454 380.7035 296.68802Q380.1842 297.20728 380.17316 297.90335Q380.17316 298.58835 380.7256 299.20706ZM390.0616 294.0253Q389.99533 294.7987 389.75226 295.32904Q389.52023 295.84833 389.07828 296.29025Q388.3491 297.01947 387.60883 297.0526Q386.8686 297.08575 386.31616 296.53333Q385.99576 296.21292 385.8742 295.8041Q385.74164 295.38428 385.83002 294.98654Q385.90735 294.57773 386.12833 294.2021Q386.27197 293.92587 386.6697 293.41763Q387.4652 292.42328 387.74142 291.8377Q387.58673 291.683 387.5536 291.64987Q387.08954 291.18582 386.6918 291.20792Q386.16147 291.25214 385.598 291.8156Q385.0787 292.33487 385.01242 292.77682Q384.9351 293.2077 385.2776 293.79327L384.44894 294.42307Q384.08435 293.8596 384.0291 293.3403Q383.97388 292.821 384.2501 292.23544Q384.5263 291.64987 385.08975 291.0864Q385.65323 290.52292 386.13937 290.30194Q386.62552 290.08096 386.9901 290.11414Q387.3547 290.14728 387.73038 290.39035Q387.95132 290.545 388.44852 291.0422L389.4429 292.03656Q390.48145 293.07513 390.80185 293.30716Q391.13333 293.52814 391.53107 293.6386L390.7466 294.42307Q390.4041 294.3015 390.0616 294.0253ZM388.327 292.42328Q388.08392 292.9978 387.39893 293.92587Q387.00116 294.4562 386.90173 294.73242Q386.79123 294.9976 386.83545 295.26276Q386.8907 295.51685 387.08954 295.71573Q387.38788 296.01404 387.8077 295.99194Q388.23862 295.9588 388.6695 295.52792Q389.1004 295.09702 389.24402 294.57773Q389.3987 294.0474 389.22192 293.56128Q389.08932 293.1856 388.6032 292.6995L388.327 292.42328ZM393.93964 288.00385L394.76828 287.37408Q395.39807 288.24692 395.33176 289.175Q395.26547 290.1031 394.54733 290.82123Q393.64133 291.7272 392.50333 291.69406Q391.36533 291.63882 390.2605 290.53397Q389.55338 289.82687 389.25507 289.0645Q388.95676 288.28006 389.1667 287.53983Q389.38766 286.7885 389.9622 286.214Q390.66928 285.50687 391.48688 285.4185Q392.30447 285.308 393.11102 285.8494L392.49228 286.6891Q391.9509 286.34656 391.46478 286.39078Q390.9676 286.42392 390.59195 286.79956Q390.02847 287.36304 390.0837 288.1254Q390.1279 288.87668 391.00073 289.7495Q391.89566 290.64444 392.63593 290.6997Q393.37616 290.75494 393.91754 290.21356Q394.3595 289.7716 394.3816 289.21918Q394.41473 288.6557 393.93964 288.00385ZM397.88397 285.95987L398.64633 286.50125Q398.3922 286.88794 398.14914 287.131Q397.74036 287.53983 397.39786 287.63925Q397.04428 287.72763 396.73492 287.61716Q396.4366 287.4956 395.76266 286.82166L393.23254 284.29153L392.69116 284.83292L392.11664 284.2584L392.65802 283.717L391.5642 282.6232L391.86252 281.441L393.3983 282.97678L394.14957 282.22546L394.7241 282.8L393.9728 283.5513L396.54712 286.1256Q396.86752 286.446 396.98904 286.50125Q397.12164 286.54544 397.26526 286.5123Q397.4089 286.47916 397.57462 286.31342Q397.7072 286.18085 397.88397 285.95987Z" />
	<path class="txt" fill="#000000" d="M423.69275 302.27856L417.61603 296.20187L422.00232 291.81558L422.72046 292.53375L419.14075 296.11346L420.9969 297.96964L424.35565 294.61087L425.0738 295.329L421.71506 298.68777L423.78113 300.75385L427.5045 297.0305L428.22263 297.74866L423.69275 302.27856ZM427.10675 294.95337L427.79175 294.13577Q428.31104 294.5446 428.79715 294.63297Q429.2833 294.72134 429.8799 294.5004Q430.47653 294.25732 430.99582 293.73804Q431.44882 293.28503 431.6698 292.79892Q431.8797 292.30173 431.81342 291.90396Q431.74713 291.48413 431.47092 291.20792Q431.18365 290.92065 430.808 290.87646Q430.4213 290.82123 429.902 291.05322Q429.54846 291.20792 428.5099 291.84872Q427.4824 292.4785 426.97415 292.63318Q426.3002 292.8431 425.75882 292.72156Q425.2064 292.589 424.78653 292.16913Q424.33356 291.71616 424.1899 291.0643Q424.0463 290.39032 424.3446 289.69427Q424.6429 288.9761 425.25058 288.36844Q425.92453 287.6945 426.6648 287.39618Q427.394 287.08682 428.1011 287.2415Q428.79715 287.38513 429.34958 287.89334L428.63144 288.722Q427.99063 288.21378 427.33875 288.2911Q426.6869 288.34634 425.99084 289.0424Q425.26163 289.7716 425.19534 290.36823Q425.12906 290.96484 425.5047 291.34048Q425.83615 291.67197 426.2781 291.64987Q426.72003 291.62775 427.91327 290.87646Q429.11758 290.1141 429.6479 289.91522Q430.43234 289.63904 431.0621 289.76056Q431.68085 289.87103 432.178 290.36823Q432.66415 290.85437 432.81885 291.56146Q432.96246 292.25754 432.68625 293.01987Q432.399 293.77118 431.74713 294.42303Q430.9185 295.25168 430.123 295.58313Q429.32748 295.8925 428.52097 295.72678Q427.72546 295.55 427.10675 294.95337ZM433.09506 289.69427L433.8132 288.84354Q434.4761 289.32965 435.07272 289.30756Q435.68042 289.2744 436.1334 288.82144Q436.66373 288.2911 436.63058 287.50665Q436.59744 286.7222 435.9345 286.0593Q435.2937 285.4185 434.5645 285.4185Q433.8353 285.3964 433.24973 285.98196Q432.89618 286.3355 432.76358 286.79956Q432.64206 287.25253 432.73044 287.6724L431.946 288.28006L429.4159 284.5788L432.44318 281.55148L433.1503 282.2586L430.7196 284.68927L432.0344 286.64487Q432.18906 285.7168 432.78568 285.12018Q433.58118 284.32468 434.675 284.33572Q435.77985 284.33572 436.65268 285.20856Q437.47028 286.02615 437.60284 287.10892Q437.7465 288.42368 436.74106 289.4291Q435.9124 290.25775 434.91806 290.32404Q433.93472 290.37927 433.09506 289.69427Z" />
	<path class="txt" fill="#000000" d="M430.54218 336.23074L424.46548 330.15405L427.16132 327.4582Q427.9789 326.6406 428.56448 326.38647Q429.15005 326.1324 429.824 326.2981Q430.48694 326.4528 430.9841 326.94995Q431.636 327.60184 431.65808 328.46362Q431.68018 329.3254 430.92886 330.31976Q431.40396 330.15405 431.71332 330.13196Q432.38727 330.0988 433.18277 330.27557L435.90073 330.8722L434.88425 331.88867L432.82922 331.42462Q431.92325 331.22574 431.40396 331.1705Q430.89572 331.10422 430.5974 331.18155Q430.2991 331.2368 430.05603 331.3694Q429.90137 331.47986 429.592 331.7892L428.65286 332.72836L431.34872 335.4242L430.54218 336.23074ZM427.95682 332.0323L429.69144 330.29767Q430.23282 329.7563 430.4317 329.33646Q430.63055 328.8945 430.54218 328.49677Q430.4538 328.0769 430.1555 327.7786Q429.72458 327.34772 429.12796 327.3919Q428.5424 327.42505 427.86844 328.099L425.94598 330.02145L427.95682 332.0323ZM438.39767 325.5468L439.25946 324.8618Q439.75665 325.71252 439.63513 326.58536Q439.51358 327.4582 438.75125 328.22055Q437.79 329.18176 436.61887 329.15967Q435.45877 329.12653 434.38705 328.0548Q433.28223 326.94995 433.24905 325.76776Q433.20486 324.57452 434.11084 323.66855Q434.99475 322.78467 436.1438 322.82886Q437.3039 322.862 438.39767 323.9558Q438.464 324.0221 438.59656 324.1547L435.31516 327.4361Q436.08853 328.12112 436.83984 328.14322Q437.5801 328.15427 438.1325 327.60184Q438.54132 327.19302 438.61865 326.69586Q438.69598 326.17657 438.39767 325.5468ZM434.75168 326.78424L437.20444 324.33145Q436.59677 323.81216 436.08853 323.76797Q435.29306 323.7017 434.72958 324.26517Q434.2103 324.78445 434.19925 325.4805Q434.19925 326.16553 434.75168 326.78424ZM444.08768 321.60248Q444.0214 322.37585 443.77832 322.9062Q443.5463 323.42548 443.10437 323.86743Q442.37515 324.59662 441.63492 324.62976Q440.89465 324.6629 440.34222 324.1105Q440.02182 323.79007 439.9003 323.3813Q439.7677 322.96143 439.8561 322.5637Q439.93344 322.1549 440.15442 321.77924Q440.29803 321.50302 440.69577 320.9948Q441.49127 320.00043 441.7675 319.41486Q441.61282 319.2602 441.57968 319.22702Q441.11563 318.763 440.7179 318.7851Q440.18756 318.82928 439.62408 319.39276Q439.1048 319.91205 439.0385 320.35397Q438.96115 320.78488 439.30368 321.37045L438.47504 322.0002Q438.1104 321.43674 438.05518 320.91745Q437.99994 320.3982 438.27615 319.8126Q438.55237 319.22702 439.11584 318.66354Q439.67932 318.10007 440.16547 317.87912Q440.65158 317.65814 441.0162 317.69128Q441.3808 317.72443 441.75644 317.9675Q441.97742 318.1222 442.4746 318.61935L443.46896 319.61374Q444.50754 320.65228 444.82794 320.8843Q445.1594 321.1053 445.55713 321.21576L444.7727 322.0002Q444.4302 321.8787 444.08768 321.60248ZM442.35306 320.00043Q442.11 320.57495 441.425 321.50302Q441.02725 322.03336 440.9278 322.30957Q440.81732 322.57474 440.8615 322.8399Q440.91675 323.09402 441.11563 323.2929Q441.41394 323.59122 441.83377 323.56912Q442.26468 323.53598 442.69556 323.10507Q443.12646 322.67416 443.27008 322.1549Q443.42477 321.62457 443.248 321.13843Q443.11542 320.7628 442.62927 320.27664L442.35306 320.00043ZM447.96573 315.58102L448.79437 314.95123Q449.42413 315.8241 449.35785 316.75217Q449.29156 317.68024 448.5734 318.3984Q447.66742 319.30438 446.52942 319.27124Q445.39142 319.21597 444.28656 318.11115Q443.57947 317.40402 443.28116 316.64166Q442.98282 315.85724 443.19275 315.11697Q443.41373 314.36566 443.98825 313.79114Q444.69534 313.08405 445.51294 312.99567Q446.33054 312.88516 447.1371 313.42654L446.51837 314.26624Q445.977 313.92374 445.49084 313.96793Q444.99368 314.00107 444.618 314.3767Q444.05453 314.9402 444.10977 315.70255Q444.154 316.45386 445.02682 317.3267Q445.92175 318.22162 446.662 318.27686Q447.40225 318.3321 447.94363 317.7907Q448.38556 317.3488 448.40765 316.79636Q448.44083 316.23288 447.96573 315.58102ZM451.91006 313.53705L452.6724 314.0784Q452.41827 314.46512 452.17523 314.7082Q451.76642 315.11697 451.42392 315.2164Q451.07037 315.3048 450.76102 315.1943Q450.4627 315.07278 449.78873 314.39883L447.2586 311.8687L446.71725 312.4101L446.14273 311.83557L446.68408 311.2942L445.5903 310.20038L445.8886 309.0182L447.42435 310.55392L448.17566 309.8026L448.75018 310.37714L447.99887 311.12845L450.57318 313.70276Q450.8936 314.02316 451.01514 314.0784Q451.1477 314.12262 451.29135 314.08945Q451.43497 314.0563 451.6007 313.8906Q451.73328 313.758 451.91006 313.53705ZM450.94882 312.17807L450.19754 311.42676L452.49564 309.12866L453.24692 309.87997L450.94882 312.17807ZM455.99802 310.7749L449.92133 304.6982L452.61716 302.00235Q453.43475 301.18475 454.02032 300.93063Q454.6059 300.6765 455.27988 300.84225Q455.94278 300.99695 456.43997 301.4941Q457.09183 302.146 457.11392 303.00778Q457.13602 303.86957 456.3847 304.86392Q456.8598 304.6982 457.16916 304.6761Q457.8431 304.64294 458.6386 304.81973L461.35657 305.41635L460.3401 306.43283L458.28506 305.96878Q457.3791 305.7699 456.8598 305.71466Q456.35156 305.64838 456.05325 305.7257Q455.75494 305.78094 455.51187 305.91354Q455.3572 306.02402 455.04785 306.33337L454.1087 307.27252L456.80457 309.96835L455.99802 310.7749ZM453.41266 306.57645L455.14728 304.84183Q455.68866 304.30045 455.88754 303.8806Q456.0864 303.43866 455.99802 303.04092Q455.90964 302.62106 455.61133 302.32275Q455.18042 301.89188 454.5838 301.93607Q453.99823 301.9692 453.32428 302.64316L451.40182 304.5656L453.41266 306.57645ZM463.85355 300.09094L464.71533 299.40594Q465.2125 300.25668 465.09097 301.12952Q464.96942 302.00235 464.2071 302.7647Q463.24585 303.72592 462.0747 303.70383Q460.9146 303.6707 459.8429 302.59897Q458.73807 301.4941 458.7049 300.31192Q458.6607 299.11868 459.5667 298.2127Q460.4506 297.32883 461.59964 297.37302Q462.75974 297.40616 463.85355 298.49997Q463.91983 298.56625 464.0524 298.69885L460.771 301.98026Q461.54437 302.66525 462.2957 302.68738Q463.03595 302.69843 463.58838 302.146Q463.99716 301.73718 464.0745 301.24Q464.15186 300.72073 463.85355 300.09094ZM460.20752 301.3284L462.66028 298.8756Q462.0526 298.35632 461.54437 298.31213Q460.7489 298.24585 460.18542 298.80933Q459.66614 299.3286 459.6551 300.02466Q459.6551 300.7097 460.20752 301.3284ZM470.0628 296.7101L469.51038 296.15768Q469.7424 297.22937 468.93585 298.03592Q468.40552 298.56625 467.67633 298.72095Q466.93607 298.86456 466.17374 298.58835Q465.41138 298.31213 464.73743 297.63818Q464.08554 296.98633 463.76514 296.22397Q463.44473 295.4616 463.61047 294.74347Q463.76514 294.01425 464.30652 293.47287Q464.70425 293.07513 465.17935 292.9315Q465.65445 292.78787 466.11847 292.85416L463.94193 290.67758L464.68216 289.93735L470.75888 296.01404L470.0628 296.7101ZM465.5108 296.86478Q466.36154 297.7155 467.13495 297.7818Q467.8973 297.83707 468.38342 297.35092Q468.86957 296.86478 468.81433 296.12454Q468.7591 295.38428 467.9415 294.56668Q467.03552 293.6607 466.26212 293.59442Q465.49976 293.51706 464.99155 294.0253Q464.49435 294.5225 464.5717 295.26276Q464.63797 295.99194 465.5108 296.86478ZM475.04572 291.7272L474.39383 291.07535Q474.62585 292.34592 473.74197 293.2298Q473.3553 293.61652 472.86914 293.81537Q472.383 293.99216 471.9963 293.93692Q471.59857 293.87064 471.2008 293.60547Q470.9467 293.43973 470.46057 292.95358L467.7426 290.23566L468.49393 289.48434L470.93564 291.9261Q471.51016 292.5006 471.76428 292.66632Q472.11783 292.8873 472.5156 292.8431Q472.91333 292.77682 473.25583 292.43433Q473.5873 292.10284 473.70883 291.64987Q473.83035 291.17477 473.6536 290.75494Q473.48785 290.32404 472.92438 289.76056L470.57104 287.40723L471.3113 286.66696L475.70862 291.0643L475.04572 291.7272ZM476.6146 290.15833L475.9296 286.26923L472.3388 285.63947L473.26688 284.7114L474.96835 285.06494Q475.4545 285.1754 475.7749 285.25278Q475.67548 284.79977 475.62024 284.43518L475.32193 282.65634L476.21686 281.7614L476.75824 285.3522L480.72467 286.04825L479.81866 286.95422L477.54266 286.4902L476.935 286.36865L477.50952 289.2634L476.6146 290.15833Z" />
	<path class="txt" fill="#000000" d="M466.4051 341.16943L460.3284 335.09274L464.7147 330.70645L465.43283 331.42462L461.85312 335.00433L463.70926 336.8605L467.06802 333.50174L467.78616 334.2199L464.42743 337.57864L466.4935 339.64474L470.21686 335.92136L470.935 336.63953L466.4051 341.16943ZM469.8191 333.84424L470.50412 333.02664Q471.0234 333.43546 471.50952 333.52383Q471.99567 333.6122 472.5923 333.39127Q473.1889 333.1482 473.7082 332.6289Q474.1612 332.1759 474.38214 331.6898Q474.59207 331.1926 474.5258 330.79486Q474.4595 330.375 474.1833 330.0988Q473.89603 329.81152 473.52036 329.76733Q473.13367 329.7121 472.61438 329.94412Q472.26083 330.0988 471.22226 330.7396Q470.19476 331.3694 469.68652 331.52405Q469.01257 331.73398 468.4712 331.61243Q467.91876 331.47986 467.4989 331.06Q467.04593 330.60703 466.90228 329.95517Q466.75867 329.2812 467.05698 328.58514Q467.3553 327.86697 467.96295 327.2593Q468.6369 326.58536 469.37717 326.28705Q470.10635 325.9777 470.81348 326.13235Q471.50952 326.276 472.06195 326.7842L471.3438 327.61285Q470.703 327.10464 470.05112 327.18198Q469.39926 327.2372 468.70322 327.9333Q467.974 328.66248 467.9077 329.2591Q467.84143 329.8557 468.21707 330.23138Q468.54852 330.56284 468.99048 330.54074Q469.4324 330.51865 470.62564 329.76733Q471.82993 329.00497 472.36026 328.80612Q473.1447 328.5299 473.77448 328.65143Q474.3932 328.7619 474.89038 329.2591Q475.37653 329.74524 475.5312 330.45233Q475.67484 331.1484 475.39862 331.91074Q475.11136 332.66205 474.4595 333.3139Q473.63086 334.14255 472.83536 334.474Q472.03986 334.78336 471.2333 334.61765Q470.43784 334.44086 469.8191 333.84424ZM476.68024 321.724L475.99524 322.5195Q475.45386 322.17697 475.07822 322.15488Q474.44846 322.14383 474.0065 322.5858Q473.65295 322.93933 473.57562 323.41443Q473.49826 324.0221 473.78552 324.7292Q474.07278 325.4142 474.9677 326.33124Q474.8241 325.6573 475.01193 325.07172Q475.2108 324.47507 475.6417 324.0442Q476.38193 323.30392 477.45364 323.33707Q478.5364 323.3592 479.3982 324.22098Q479.97272 324.7955 480.2158 325.54678Q480.45886 326.276 480.29312 326.97205Q480.11633 327.65707 479.57498 328.19843Q478.63583 329.13757 477.36526 329.03812Q476.09467 328.9387 474.5258 327.3698Q472.75803 325.60202 472.61438 324.15466Q472.4818 322.89514 473.44302 321.93393Q474.1612 321.21576 475.02298 321.17157Q475.88477 321.1053 476.68024 321.724ZM476.2604 327.38086Q476.6471 327.76755 477.15533 327.96643Q477.66357 328.1432 478.13867 328.04376Q478.6248 327.9333 478.95624 327.6018Q479.4203 327.1378 479.38715 326.41962Q479.34296 325.69043 478.69107 325.03854Q478.0613 324.40878 477.35422 324.3867Q476.65814 324.35355 476.14993 324.8618Q475.6417 325.37003 475.65274 326.08817Q475.67484 326.7953 476.2604 327.38086ZM480.43677 323.49176L479.68546 322.74045L481.98355 320.44235L482.73486 321.19366L480.43677 323.49176ZM486.53555 321.03897L478.84576 316.57538L479.6744 315.74673L484.591 318.8072Q485.35336 319.28226 486.08255 319.7905Q485.34232 318.5862 485.2318 318.38733L482.28186 313.13928L483.25412 312.167L487.19846 314.36566Q488.6679 315.1943 489.828 316.04504Q489.36398 315.36005 488.8005 314.4209L485.85056 309.5706L486.65707 308.76404L491.0765 316.49802L490.29205 317.28247L484.39212 313.9237Q483.6519 313.51492 483.48615 313.4155Q483.80655 313.91266 484.01648 314.29938L487.3642 320.21033L486.53555 321.03897ZM494.75568 309.99045L495.61746 309.30542Q496.11462 310.15616 495.9931 311.029Q495.87158 311.90182 495.10922 312.66418Q494.148 313.6254 492.97684 313.6033Q491.81674 313.57016 490.74506 312.49844Q489.6402 311.39362 489.60706 310.2114Q489.56287 309.01816 490.46884 308.11218Q491.35272 307.2283 492.50177 307.2725Q493.66187 307.30563 494.75568 308.39944Q494.82196 308.46573 494.95453 308.59833L491.67313 311.87973Q492.44653 312.56476 493.1978 312.58685Q493.93808 312.5979 494.4905 312.04547Q494.8993 311.63666 494.97662 311.1395Q495.054 310.6202 494.75568 309.99045ZM491.10965 311.22787L493.56244 308.7751Q492.95474 308.25583 492.44653 308.2116Q491.65103 308.14532 491.08755 308.7088Q490.56827 309.2281 490.55722 309.92413Q490.55722 310.60916 491.10965 311.22787ZM498.79944 308.7751L498.10336 309.47116L492.02667 303.39447L492.77798 302.64316L494.94348 304.8087Q494.83304 303.748 495.56223 303.0188Q495.97104 302.61 496.4903 302.42218Q497.00958 302.21225 497.53992 302.27853Q498.0813 302.33377 498.63373 302.62103Q499.18616 302.9083 499.66125 303.3834Q500.7882 304.51035 500.84344 305.69254Q500.89868 306.87473 500.12527 307.64813Q499.34082 308.4326 498.247 308.2227L498.79944 308.7751ZM496.55658 306.55435Q497.34103 307.33878 497.91556 307.47137Q498.84366 307.69232 499.44028 307.0957Q499.92642 306.60956 499.8601 305.83615Q499.80487 305.05173 498.95413 304.201Q498.09235 303.3392 497.34103 303.2729Q496.58975 303.2066 496.1036 303.69275Q495.61746 304.1789 495.68378 304.97437Q495.75003 305.7478 496.55658 306.55435ZM504.7546 306.20078L498.66687 300.113L499.34082 299.43906L499.9043 300.00253Q499.81592 299.428 499.94852 298.96396Q500.09213 298.4889 500.52304 298.05798Q501.08652 297.4945 501.80466 297.3509Q502.52283 297.20724 503.26306 297.52765Q504.01437 297.837 504.64413 298.4668Q505.31808 299.14075 505.6164 299.9252Q505.92578 300.69858 505.749 301.4499Q505.5722 302.2012 505.064 302.70944Q504.68832 303.08508 504.23535 303.2287Q503.7713 303.3613 503.35147 303.3171L505.49487 305.4605L504.7546 306.20078ZM501.56158 301.65982Q502.41232 302.51056 503.16364 302.57684Q503.90387 302.63208 504.39 302.14597Q504.8872 301.64877 504.82092 300.87537Q504.7546 300.10196 503.87073 299.21808Q503.03104 298.3784 502.27975 298.3121Q501.5174 298.23477 501.03125 298.72092Q500.55618 299.19598 500.6335 300.00253Q500.71085 300.80908 501.56158 301.65982ZM510.34518 296.1466Q510.2789 296.91998 510.03583 297.45032Q509.8038 297.9696 509.36188 298.41153Q508.63266 299.14075 507.8924 299.1739Q507.15216 299.20703 506.59973 298.6546Q506.27933 298.3342 506.15778 297.9254Q506.0252 297.50555 506.1136 297.10782Q506.19092 296.699 506.4119 296.32336Q506.55554 296.04715 506.95328 295.5389Q507.74878 294.54456 508.025 293.95898Q507.8703 293.8043 507.83716 293.77115Q507.37314 293.30713 506.97537 293.32922Q506.44504 293.3734 505.88156 293.9369Q505.3623 294.45618 505.296 294.8981Q505.21866 295.329 505.56116 295.91458L504.7325 296.54434Q504.36792 295.98087 504.31268 295.46158Q504.25745 294.9423 504.53366 294.35672Q504.80988 293.77115 505.37335 293.20767Q505.93683 292.6442 506.42294 292.42325Q506.9091 292.20227 507.27368 292.2354Q507.6383 292.26855 508.01395 292.51163Q508.23492 292.6663 508.7321 293.16348L509.72647 294.15787Q510.765 295.1964 511.08545 295.42844Q511.4169 295.6494 511.81464 295.7599L511.03018 296.54434Q510.68768 296.42282 510.34518 296.1466ZM508.61057 294.54456Q508.3675 295.11908 507.6825 296.04715Q507.28473 296.57748 507.1853 296.8537Q507.07483 297.11887 507.11902 297.38403Q507.17426 297.63815 507.37314 297.837Q507.67145 298.13535 508.09128 298.11322Q508.5222 298.08008 508.95306 297.6492Q509.38397 297.2183 509.5276 296.699Q509.68228 296.1687 509.5055 295.68256Q509.37292 295.30692 508.88678 294.82077L508.61057 294.54456ZM514.2232 290.12512L515.0519 289.49536Q515.68164 290.3682 515.61536 291.2963Q515.5491 292.22437 514.8309 292.9425Q513.9249 293.8485 512.7869 293.81534Q511.64893 293.7601 510.54407 292.65524Q509.83694 291.94815 509.53864 291.1858Q509.24033 290.40134 509.45026 289.6611Q509.67123 288.9098 510.24576 288.33527Q510.95285 287.62817 511.77045 287.53976Q512.588 287.4293 513.3946 287.97067L512.7759 288.81036Q512.2345 288.46786 511.74835 288.51205Q511.25116 288.5452 510.87552 288.92084Q510.31204 289.4843 510.36728 290.24667Q510.41147 290.998 511.2843 291.87082Q512.17926 292.76575 512.9195 292.82098Q513.6597 292.87622 514.2011 292.33484Q514.64307 291.8929 514.66516 291.34048Q514.6983 290.777 514.2232 290.12512ZM517.20636 290.3682L511.12964 284.2915L511.88092 283.5402L515.35016 287.00946L515.317 283.46286L516.2893 282.4906L516.223 285.80515L520.85236 286.7222L519.9353 287.63922L516.223 286.84372L516.212 287.87125L517.95764 289.6169L517.20636 290.3682Z" />
	<path class="txt" fill="#000000" d="M532.2869 305.68152L531.41406 304.8087L532.16534 304.05737L533.0382 304.9302L532.2869 305.68152ZM538.26416 313.53702L537.7559 312.76364Q538.0432 312.58685 538.16473 312.46533Q538.3967 312.2333 538.35254 311.96814Q538.3194 311.71402 537.71173 311.10635L533.09344 306.48807L533.8447 305.73676L538.48517 310.37714Q539.2917 311.1837 539.40216 311.71402Q539.5458 312.4101 538.92706 313.0288Q538.61774 313.33817 538.26416 313.53702ZM543.66693 303.40552Q544.61707 303.22873 545.2579 302.94147L545.58936 303.73697Q544.6944 304.14578 543.5343 304.2894Q543.236 305.33902 542.4184 306.15662Q541.5898 306.98526 540.51807 307.26144Q539.4574 307.5266 538.37463 307.17307Q537.2919 306.81952 536.3859 305.91354Q535.49097 305.01862 535.11536 303.91376Q534.7397 302.8089 535.0269 301.74823Q535.3142 300.68756 536.1428 299.85895Q536.98254 299.01926 538.0653 298.7541Q539.1481 298.46683 540.2198 298.83142Q541.29144 299.196 542.19745 300.102Q542.9487 300.8533 543.31335 301.68195Q543.689 302.49954 543.66693 303.40552ZM540.87164 304.14578Q541.76654 303.6486 542.60626 303.5823Q542.6615 302.22333 541.36884 300.93063Q540.62854 300.1904 539.822 299.8921Q539.01544 299.59378 538.231 299.7816Q537.4466 299.94733 536.85 300.54395Q535.944 301.44992 535.96606 302.66525Q535.98816 303.85852 537.21454 305.0849Q538.3967 306.2671 539.62317 306.32233Q540.8385 306.36652 541.7555 305.4495Q542.1864 305.01862 542.3963 304.47723Q541.7776 304.6098 541.2583 304.9302L540.87164 304.14578ZM548.8708 299.50537L548.21893 298.85352Q548.4509 300.1241 547.567 301.008Q547.18036 301.39468 546.6942 301.59357Q546.20807 301.77032 545.82135 301.7151Q545.42365 301.6488 545.0259 301.38364Q544.7718 301.2179 544.28564 300.73178L541.5677 298.01382L542.319 297.2625L544.76074 299.70425Q545.33527 300.27878 545.58936 300.44452Q545.94293 300.66547 546.34064 300.62128Q546.7384 300.555 547.08093 300.2125Q547.41235 299.88104 547.5339 299.42804Q547.65546 298.95294 547.47864 298.5331Q547.3129 298.1022 546.74945 297.53873L544.3961 295.1854L545.13635 294.44516L549.5337 298.84247L548.8708 299.50537ZM552.52783 293.0199L553.38965 292.33487Q553.88684 293.1856 553.76526 294.05844Q553.64374 294.93127 552.8814 295.69363Q551.92017 296.65485 550.749 296.63275Q549.5889 296.5996 548.5172 295.5279Q547.41235 294.42307 547.3792 293.24084Q547.335 292.0476 548.241 291.14163Q549.1249 290.25775 550.2739 290.30194Q551.434 290.33508 552.52783 291.4289Q552.5941 291.49518 552.7267 291.62778L549.4453 294.90918Q550.2187 295.5942 550.97 295.6163Q551.71027 295.62735 552.2627 295.07492Q552.67145 294.6661 552.74884 294.16895Q552.8262 293.64966 552.52783 293.0199ZM548.88184 294.25732L551.3346 291.80453Q550.7269 291.28528 550.2187 291.24106Q549.4232 291.17477 548.85974 291.73825Q548.34045 292.25754 548.3294 292.95358Q548.3294 293.6386 548.88184 294.25732ZM555.87555 292.5006L551.4782 288.10327L552.15216 287.42932L552.8151 288.09222Q552.60516 287.37408 552.67145 287.02054Q552.73773 286.64487 553.0029 286.3797Q553.3786 286.00406 553.9973 285.8494L554.4392 286.79956Q553.9973 286.91003 553.7321 287.1752Q553.478 287.42932 553.43384 287.78287Q553.38965 288.11432 553.57745 288.45685Q553.8426 288.98718 554.30664 289.4512L556.6158 291.76035L555.87555 292.5006ZM560.3723 291.3847L559.5878 290.77704Q559.8972 290.60025 560.085 290.41245Q560.3281 290.16937 560.38336 289.93735Q560.4607 289.70532 560.4165 289.46225Q560.36127 289.27444 560.085 288.66675Q560.04083 288.60046 559.97455 288.4237L553.88684 285.6947L554.69336 284.88815L558.15155 286.5123Q558.81445 286.82166 559.49945 287.2194Q559.1128 286.56754 558.8034 285.90463L557.17926 282.40222L557.91956 281.662L560.7258 287.80496Q561.1678 288.79935 561.30035 289.21918Q561.4772 289.7937 561.37775 290.2246Q561.30035 290.6555 560.94684 291.00906Q560.7369 291.21896 560.3723 291.3847Z" />
	<path fill="#4285f4" d="M197.5 20.55C197.5 19.997715 197.94771 19.55 198.5 19.55L208.5 19.55C209.05229 19.55 209.5 19.997715 209.5 20.55L209.5 30.55C209.5 31.102285 209.05229 31.55 208.5 31.55L198.5 31.55C197.94771 31.55 197.5 31.102285 197.5 30.55Z" />
	<path class="title" fill="#1a1a1a" d="M224.5625 26.534374L225.6875 26.83125Q225.32812 28.221874 224.40625 28.95625Q223.48438 29.690624 222.14062 29.690624Q220.75 29.690624 219.875 29.128124Q219.0 28.565624 218.54688 27.503124Q218.09375 26.425 218.09375 25.190624Q218.09375 23.846874 218.60938 22.846874Q219.125 21.846874 220.0625 21.33125Q221.01562 20.815624 222.15625 20.815624Q223.4375 20.815624 224.3125 21.471874Q225.20312 22.128124 225.54688 23.315624L224.42188 23.58125Q224.125 22.64375 223.54688 22.221874Q222.98438 21.784374 222.125 21.784374Q221.14062 21.784374 220.46875 22.26875Q219.8125 22.7375 219.53125 23.534374Q219.26562 24.33125 219.26562 25.190624Q219.26562 26.284374 219.57812 27.096874Q219.90625 27.909374 220.57812 28.315624Q221.25 28.721874 222.04688 28.721874Q223.0 28.721874 223.65625 28.175Q224.32812 27.628124 224.5625 26.534374ZM227.29688 29.55L227.29688 20.95625L228.34375 20.95625L228.34375 24.034374Q229.07812 23.190624 230.20312 23.190624Q230.90625 23.190624 231.40625 23.471874Q231.92188 23.7375 232.14062 24.221874Q232.35938 24.690624 232.35938 25.6125L232.35938 29.55L231.3125 29.55L231.3125 25.6125Q231.3125 24.815624 230.96875 24.45625Q230.625 24.096874 230.0 24.096874Q229.53125 24.096874 229.10938 24.346874Q228.70312 24.58125 228.51562 25.003124Q228.34375 25.409374 228.34375 26.14375L228.34375 29.55L227.29688 29.55ZM234.28125 29.55L234.28125 23.33125L235.23438 23.33125L235.23438 24.26875Q235.59375 23.6125 235.89062 23.409374Q236.20312 23.190624 236.57812 23.190624Q237.10938 23.190624 237.65625 23.51875L237.29688 24.503124Q236.90625 24.26875 236.53125 24.26875Q236.17188 24.26875 235.89062 24.4875Q235.625 24.690624 235.51562 25.065624Q235.32812 25.628124 235.32812 26.284374L235.32812 29.55L234.28125 29.55ZM237.90625 26.440624Q237.90625 24.70625 238.85938 23.878124Q239.65625 23.190624 240.8125 23.190624Q242.09375 23.190624 242.90625 24.034374Q243.73438 24.8625 243.73438 26.346874Q243.73438 27.55 243.375 28.2375Q243.01562 28.925 242.3125 29.315624Q241.625 29.690624 240.8125 29.690624Q239.51562 29.690624 238.70312 28.8625Q237.90625 28.01875 237.90625 26.440624ZM238.98438 26.440624Q238.98438 27.628124 239.5 28.221874Q240.03125 28.815624 240.8125 28.815624Q241.60938 28.815624 242.125 28.221874Q242.64062 27.628124 242.64062 26.409374Q242.64062 25.253124 242.10938 24.659374Q241.59375 24.065624 240.8125 24.065624Q240.03125 24.065624 239.5 24.659374Q238.98438 25.2375 238.98438 26.440624ZM245.29688 29.55L245.29688 23.33125L246.23438 23.33125L246.23438 24.20625Q246.53125 23.7375 247.01562 23.471874Q247.5 23.190624 248.125 23.190624Q248.8125 23.190624 249.25 23.471874Q249.70312 23.753124 249.875 24.26875Q250.625 23.190624 251.79688 23.190624Q252.73438 23.190624 253.21875 23.70625Q253.71875 24.20625 253.71875 25.284374L253.71875 29.55L252.67188 29.55L252.67188 25.628124Q252.67188 25.003124 252.5625 24.721874Q252.46875 24.440624 252.20312 24.26875Q251.9375 24.096874 251.5625 24.096874Q250.90625 24.096874 250.46875 24.534374Q250.04688 24.971874 250.04688 25.940624L250.04688 29.55L248.98438 29.55L248.98438 25.503124Q248.98438 24.8 248.71875 24.45625Q248.46875 24.096874 247.89062 24.096874Q247.4375 24.096874 247.0625 24.33125Q246.6875 24.565624 246.51562 25.01875Q246.34375 25.471874 246.34375 26.315624L246.34375 29.55L245.29688 29.55ZM260.54688 27.55L261.64062 27.675Q261.39062 28.628124 260.6875 29.159374Q259.98438 29.690624 258.90625 29.690624Q257.54688 29.690624 256.73438 28.846874Q255.9375 28.003124 255.9375 26.4875Q255.9375 24.925 256.75 24.065624Q257.5625 23.190624 258.84375 23.190624Q260.09375 23.190624 260.875 24.034374Q261.67188 24.878124 261.67188 26.425Q261.67188 26.51875 261.67188 26.70625L257.03125 26.70625Q257.09375 27.7375 257.60938 28.284374Q258.125 28.815624 258.90625 28.815624Q259.48438 28.815624 259.89062 28.51875Q260.3125 28.20625 260.54688 27.55ZM257.09375 25.846874L260.5625 25.846874Q260.5 25.05 260.17188 24.659374Q259.65625 24.05 258.85938 24.05Q258.125 24.05 257.625 24.534374Q257.14062 25.01875 257.09375 25.846874Z" />
	<path fill="#ea4335" d="M278.5 20.55C278.5 19.997715 278.94772 19.55 279.5 19.55L289.5 19.55C290.05228 19.55 290.5 19.997715 290.5 20.55L290.5 30.55C290.5 31.102285 290.05228 31.55 289.5 31.55L279.5 31.55C278.94772 31.55 278.5 31.102285 278.5 30.55Z" />
	<path class="title" fill="#1a1a1a" d="M299.48438 29.55L299.48438 20.95625L305.28125 20.95625L305.28125 21.971874L300.625 21.971874L300.625 24.628124L304.65625 24.628124L304.65625 25.64375L300.625 25.64375L300.625 29.55L299.48438 29.55ZM306.29688 22.175L306.29688 20.95625L307.35938 20.95625L307.35938 22.175L306.29688 22.175ZM306.29688 29.55L306.29688 23.33125L307.35938 23.33125L307.35938 29.55L306.29688 29.55ZM309.28125 29.55L309.28125 23.33125L310.23438 23.33125L310.23438 24.26875Q310.59375 23.6125 310.89062 23.409374Q311.20312 23.190624 311.57812 23.190624Q312.10938 23.190624 312.65625 23.51875L312.29688 24.503124Q311.90625 24.26875 311.53125 24.26875Q311.17188 24.26875 310.89062 24.4875Q310.625 24.690624 310.51562 25.065624Q310.32812 25.628124 310.32812 26.284374L310.32812 29.55L309.28125 29.55ZM317.54688 27.55L318.64062 27.675Q318.39062 28.628124 317.6875 29.159374Q316.98438 29.690624 315.90625 29.690624Q314.54688 29.690624 313.73438 28.846874Q312.9375 28.003124 312.9375 26.4875Q312.9375 24.925 313.75 24.065624Q314.5625 23.190624 315.84375 23.190624Q317.09375 23.190624 317.875 24.034374Q318.67188 24.878124 318.67188 26.425Q318.67188 26.51875 318.67188 26.70625L314.03125 26.70625Q314.09375 27.7375 314.60938 28.284374Q315.125 28.815624 315.90625 28.815624Q316.48438 28.815624 316.89062 28.51875Q317.3125 28.20625 317.54688 27.55ZM314.09375 25.846874L317.5625 25.846874Q317.5 25.05 317.17188 24.659374Q316.65625 24.05 315.85938 24.05Q315.125 24.05 314.625 24.534374Q314.14062 25.01875 314.09375 25.846874ZM320.54688 29.55L320.54688 24.14375L319.60938 24.14375L319.60938 23.33125L320.54688 23.33125L320.54688 22.659374Q320.54688 22.034374 320.65625 21.7375Q320.8125 21.315624 321.1875 21.065624Q321.57812 20.815624 322.26562 20.815624Q322.71875 20.815624 323.25 20.925L323.09375 21.83125Q322.76562 21.784374 322.46875 21.784374Q321.98438 21.784374 321.78125 21.9875Q321.59375 22.190624 321.59375 22.753124L321.59375 23.33125L322.8125 23.33125L322.8125 24.14375L321.59375 24.14375L321.59375 29.55L320.54688 29.55ZM322.90625 26.440624Q322.90625 24.70625 323.85938 23.878124Q324.65625 23.190624 325.8125 23.190624Q327.09375 23.190624 327.90625 24.034374Q328.73438 24.8625 328.73438 26.346874Q328.73438 27.55 328.375 28.2375Q328.01562 28.925 327.3125 29.315624Q326.625 29.690624 325.8125 29.690624Q324.51562 29.690624 323.70312 28.8625Q322.90625 28.01875 322.90625 26.440624ZM323.98438 26.440624Q323.98438 27.628124 324.5 28.221874Q325.03125 28.815624 325.8125 28.815624Q326.60938 28.815624 327.125 28.221874Q327.64062 27.628124 327.64062 26.409374Q327.64062 25.253124 327.10938 24.659374Q326.59375 24.065624 325.8125 24.065624Q325.03125 24.065624 324.5 24.659374Q323.98438 25.2375 323.98438 26.440624ZM329.59375 29.55L331.85938 26.315624L329.76562 23.33125L331.07812 23.33125L332.03125 24.784374Q332.29688 25.20625 332.46875 25.4875Q332.71875 25.096874 332.9375 24.8L333.98438 23.33125L335.25 23.33125L333.09375 26.253124L335.40625 29.55L334.125 29.55L332.84375 27.6125L332.5 27.096874L330.85938 29.55L329.59375 29.55Z" />
	<path fill="#fbbc04" d="M350.5 20.55C350.5 19.997715 350.94772 19.55 351.5 19.55L361.5 19.55C362.05228 19.55 362.5 19.997715 362.5 20.55L362.5 30.55C362.5 31.102285 362.05228 31.55 361.5 31.55L351.5 31.55C350.94772 31.55 350.5 31.102285 350.5 30.55Z" />
	<path class="title" fill="#1a1a1a" d="M371.04688 26.784374L372.10938 26.690624Q372.1875 27.346874 372.46875 27.753124Q372.75 28.159374 373.32812 28.425Q373.92188 28.675 374.65625 28.675Q375.29688 28.675 375.79688 28.4875Q376.29688 28.284374 376.53125 27.95625Q376.78125 27.6125 376.78125 27.221874Q376.78125 26.815624 376.54688 26.51875Q376.3125 26.20625 375.78125 26.003124Q375.42188 25.8625 374.23438 25.58125Q373.0625 25.3 372.59375 25.05Q371.96875 24.721874 371.67188 24.253124Q371.375 23.76875 371.375 23.175Q371.375 22.534374 371.73438 21.971874Q372.10938 21.39375 372.8125 21.1125Q373.53125 20.815624 374.39062 20.815624Q375.34375 20.815624 376.07812 21.128124Q376.8125 21.425 377.20312 22.034374Q377.59375 22.628124 377.625 23.378124L376.53125 23.45625Q376.4375 22.64375 375.92188 22.2375Q375.42188 21.815624 374.4375 21.815624Q373.40625 21.815624 372.9375 22.190624Q372.46875 22.565624 372.46875 23.096874Q372.46875 23.565624 372.79688 23.8625Q373.125 24.159374 374.5 24.471874Q375.89062 24.784374 376.40625 25.01875Q377.15625 25.378124 377.51562 25.909374Q377.875 26.425 377.875 27.128124Q377.875 27.815624 377.48438 28.425Q377.09375 29.01875 376.35938 29.3625Q375.625 29.690624 374.70312 29.690624Q373.53125 29.690624 372.73438 29.3625Q371.95312 29.01875 371.5 28.33125Q371.0625 27.64375 371.04688 26.784374ZM383.35938 28.784374Q382.76562 29.284374 382.21875 29.4875Q381.6875 29.690624 381.0625 29.690624Q380.03125 29.690624 379.48438 29.190624Q378.9375 28.690624 378.9375 27.909374Q378.9375 27.45625 379.14062 27.08125Q379.34375 26.690624 379.6875 26.471874Q380.03125 26.2375 380.45312 26.128124Q380.75 26.034374 381.39062 25.95625Q382.65625 25.815624 383.26562 25.596874Q383.26562 25.378124 383.26562 25.33125Q383.26562 24.675 382.96875 24.409374Q382.5625 24.065624 381.76562 24.065624Q381.03125 24.065624 380.67188 24.33125Q380.3125 24.58125 380.14062 25.2375L379.10938 25.096874Q379.25 24.440624 379.57812 24.034374Q379.90625 23.628124 380.51562 23.409374Q381.125 23.190624 381.92188 23.190624Q382.71875 23.190624 383.21875 23.378124Q383.71875 23.565624 383.95312 23.846874Q384.1875 24.128124 384.28125 24.565624Q384.32812 24.83125 384.32812 25.534374L384.32812 26.940624Q384.32812 28.409374 384.39062 28.8Q384.46875 29.190624 384.67188 29.55L383.5625 29.55Q383.40625 29.221874 383.35938 28.784374ZM383.26562 26.425Q382.6875 26.659374 381.54688 26.83125Q380.89062 26.925 380.625 27.05Q380.35938 27.159374 380.20312 27.378124Q380.0625 27.596874 380.0625 27.878124Q380.0625 28.3 380.375 28.58125Q380.70312 28.8625 381.3125 28.8625Q381.92188 28.8625 382.39062 28.596874Q382.875 28.33125 383.09375 27.8625Q383.26562 27.503124 383.26562 26.815624L383.26562 26.425ZM386.54688 29.55L386.54688 24.14375L385.60938 24.14375L385.60938 23.33125L386.54688 23.33125L386.54688 22.659374Q386.54688 22.034374 386.65625 21.7375Q386.8125 21.315624 387.1875 21.065624Q387.57812 20.815624 388.26562 20.815624Q388.71875 20.815624 389.25 20.925L389.09375 21.83125Q388.76562 21.784374 388.46875 21.784374Q387.98438 21.784374 387.78125 21.9875Q387.59375 22.190624 387.59375 22.753124L387.59375 23.33125L388.8125 23.33125L388.8125 24.14375L387.59375 24.14375L387.59375 29.55L386.54688 29.55ZM393.35938 28.784374Q392.76562 29.284374 392.21875 29.4875Q391.6875 29.690624 391.0625 29.690624Q390.03125 29.690624 389.48438 29.190624Q388.9375 28.690624 388.9375 27.909374Q388.9375 27.45625 389.14062 27.08125Q389.34375 26.690624 389.6875 26.471874Q390.03125 26.2375 390.45312 26.128124Q390.75 26.034374 391.39062 25.95625Q392.65625 25.815624 393.26562 25.596874Q393.26562 25.378124 393.26562 25.33125Q393.26562 24.675 392.96875 24.409374Q392.5625 24.065624 391.76562 24.065624Q391.03125 24.065624 390.67188 24.33125Q390.3125 24.58125 390.14062 25.2375L389.10938 25.096874Q389.25 24.440624 389.57812 24.034374Q389.90625 23.628124 390.51562 23.409374Q391.125 23.190624 391.92188 23.190624Q392.71875 23.190624 393.21875 23.378124Q393.71875 23.565624 393.95312 23.846874Q394.1875 24.128124 394.28125 24.565624Q394.32812 24.83125 394.32812 25.534374L394.32812 26.940624Q394.32812 28.409374 394.39062 28.8Q394.46875 29.190624 394.67188 29.55L393.5625 29.55Q393.40625 29.221874 393.35938 28.784374ZM393.26562 26.425Q392.6875 26.659374 391.54688 26.83125Q390.89062 26.925 390.625 27.05Q390.35938 27.159374 390.20312 27.378124Q390.0625 27.596874 390.0625 27.878124Q390.0625 28.3 390.375 28.58125Q390.70312 28.8625 391.3125 28.8625Q391.92188 28.8625 392.39062 28.596874Q392.875 28.33125 393.09375 27.8625Q393.26562 27.503124 393.26562 26.815624L393.26562 26.425ZM396.28125 29.55L396.28125 23.33125L397.23438 23.33125L397.23438 24.26875Q397.59375 23.6125 397.89062 23.409374Q398.20312 23.190624 398.57812 23.190624Q399.10938 23.190624 399.65625 23.51875L399.29688 24.503124Q398.90625 24.26875 398.53125 24.26875Q398.17188 24.26875 397.89062 24.4875Q397.625 24.690624 397.51562 25.065624Q397.32812 25.628124 397.32812 26.284374L397.32812 29.55L396.28125 29.55ZM400.29688 22.175L400.29688 20.95625L401.35938 20.95625L401.35938 22.175L400.29688 22.175ZM400.29688 29.55L400.29688 23.33125L401.35938 23.33125L401.35938 29.55L400.29688 29.55Z" />
	<style>
		#bkg { fill: #ffedd5; }
		.txt { fill: #0f172a; }
		.title { fill: #171717; }
		.divide { stroke: #fed7aa; }
		@media (prefers-color-scheme: dark) {
		#bkg { fill: #0f172a; }
		.txt { fill: #f1f5f9; }
		.title { fill: #ffedd5; }
		.divide { stroke: #1e293b; }
		}
	</style>
</svg>
