<svg xmlns="http://www.w3.org/2000/svg" width="512" height="512" viewBox="0 0 512 512"><path d="M170.687 256c0-47.126 38.195-85.34 85.323-85.34 47.129 0 85.344 38.214 85.344 85.34 0 47.126-38.215 85.34-85.344 85.34-47.128 0-85.323-38.214-85.323-85.34m-46.135 0c0 72.602 58.853 131.453 131.458 131.453 72.606 0 131.459-58.85 131.459-131.453 0-72.602-58.853-131.453-131.459-131.453-72.605 0-131.458 58.85-131.458 131.453M361.95 119.336c0 16.956 13.751 30.728 30.73 30.728 16.956 0 30.729-13.772 30.729-30.728 0-16.957-13.752-30.708-30.73-30.708s-30.73 13.751-30.73 30.708M152.573 464.377c-24.96-1.137-38.525-5.293-47.542-8.809-11.952-4.652-20.472-10.194-29.447-19.148-8.954-8.954-14.517-17.473-19.15-29.425-3.515-9.016-7.671-22.581-8.808-47.54-1.241-26.986-1.49-35.092-1.49-103.455s.27-76.448 1.49-103.455c1.137-24.959 5.314-38.503 8.809-47.54 4.653-11.952 10.195-20.471 19.149-29.446 8.954-8.954 17.474-14.516 29.447-19.148 9.017-3.515 22.582-7.672 47.542-8.81 26.987-1.24 35.093-1.488 103.438-1.488 68.366 0 76.452.269 103.46 1.489 24.96 1.137 38.504 5.314 47.54 8.809 11.954 4.632 20.473 10.194 29.448 19.148 8.954 8.954 14.497 17.494 19.15 29.446 3.515 9.016 7.671 22.581 8.809 47.54 1.24 27.007 1.489 35.092 1.489 103.455 0 68.343-.248 76.448-1.49 103.455-1.137 24.959-5.314 38.524-8.809 47.54-4.652 11.952-10.195 20.471-19.149 29.425s-17.494 14.496-29.447 19.148c-9.016 3.516-22.582 7.672-47.542 8.81-26.986 1.24-35.093 1.488-103.459 1.488-68.345 0-76.451-.248-103.438-1.489m-2.11-462.826c-27.254 1.24-45.866 5.562-62.14 11.89-16.833 6.534-31.102 15.302-45.35 29.529-14.228 14.227-22.996 28.495-29.53 45.348-6.328 16.274-10.65 34.885-11.891 62.139C.29 177.753 0 186.479 0 256c0 69.521.29 78.248 1.551 105.543 1.24 27.254 5.563 45.865 11.89 62.14 6.535 16.831 15.283 31.12 29.53 45.347 14.228 14.227 28.497 22.974 45.35 29.529 16.296 6.328 34.887 10.65 62.142 11.89C177.78 511.69 186.486 512 256.01 512c69.545 0 78.251-.29 105.548-1.55 27.255-1.242 45.867-5.563 62.141-11.891 16.833-6.555 31.102-15.302 45.35-29.529 14.227-14.227 22.975-28.516 29.53-45.348 6.328-16.274 10.67-34.885 11.89-62.139C511.71 334.227 512 325.521 512 256c0-69.521-.29-78.248-1.53-105.543-1.241-27.254-5.563-45.865-11.89-62.14-6.556-16.831-15.304-31.1-29.531-45.347-14.227-14.227-28.517-22.995-45.33-29.529-16.294-6.328-34.906-10.67-62.14-11.89C334.281.31 325.554 0 256.03 0c-69.545 0-78.25.29-105.568 1.55" fill="#fff"/></svg>