<svg xmlns="http://www.w3.org/2000/svg" width="512" height="512" viewBox="0 0 512 512"><path d="M512 97.26a209.748 209.748 0 0 1-60.309 16.542c21.692-12.99 38.297-33.594 46.167-58.07-20.348 12.03-42.808 20.765-66.74 25.5-19.164-20.444-46.423-33.178-76.658-33.178-58.005 0-105.036 47.032-105.036 105.005 0 8.222.928 16.253 2.72 23.932-87.28-4.384-164.673-46.2-216.471-109.74-9.055 15.485-14.206 33.529-14.206 52.79 0 36.441 18.557 68.595 46.712 87.407a105.04 105.04 0 0 1-47.575-13.181v1.311c0 50.87 36.217 93.327 84.24 102.99a106.386 106.386 0 0 1-27.675 3.679c-6.782 0-13.341-.672-19.772-1.952 13.373 41.753 52.15 72.114 98.094 72.947-35.93 28.155-81.233 44.888-130.44 44.888-8.478 0-16.829-.512-25.051-1.44 46.488 29.85 101.677 47.256 160.994 47.256 193.212 0 298.825-160.035 298.825-298.825l-.353-13.597c20.636-14.719 38.488-33.21 52.534-54.263z" fill="#fff"/></svg>