<svg xmlns="http://www.w3.org/2000/svg" width="512" height="512" viewBox="0 0 512 512"><path d="M477.66 127.5c-22.893-39.223-53.945-70.276-93.164-93.166C345.27 11.443 302.448 0 255.998 0 209.554 0 166.717 11.446 127.5 34.334 88.277 57.222 57.226 88.277 34.334 127.5 11.444 166.722 0 209.552 0 255.99c0 55.784 16.275 105.945 48.833 150.498 32.554 44.556 74.61 75.387 126.163 92.497 6 1.114 10.443.33 13.331-2.33 2.89-2.665 4.333-6.001 4.333-9.997 0-.666-.057-6.664-.168-17.999a2976.89 2976.89 0 0 1-.168-29.661l-7.667 1.326c-4.889.895-11.055 1.275-18.5 1.168-7.442-.104-15.167-.884-23.166-2.334-8.002-1.437-15.445-4.77-22.334-9.993-6.886-5.222-11.774-12.058-14.664-20.496l-3.333-7.67c-2.222-5.107-5.72-10.78-10.498-16.998-4.779-6.224-9.61-10.444-14.5-12.665l-2.333-1.671c-1.555-1.11-2.998-2.45-4.332-4.003-1.334-1.554-2.332-3.11-2.999-4.667-.667-1.558-.114-2.837 1.666-3.84 1.78-1.003 4.998-1.49 9.667-1.49l6.664.996c4.445.891 9.943 3.552 16.5 7.999 6.555 4.443 11.943 10.22 16.166 17.328 5.113 9.113 11.274 16.058 18.5 20.836 7.22 4.779 14.499 7.164 21.83 7.164 7.333 0 13.665-.556 19-1.662 5.33-1.111 10.33-2.782 15-5.002 2-14.895 7.444-26.338 16.33-34.336-12.665-1.331-24.051-3.336-34.165-6.001-10.108-2.669-20.554-7-31.33-13.006-10.782-5.997-19.726-13.445-26.835-22.33-7.11-8.889-12.945-20.56-17.497-35-4.555-14.446-6.832-31.111-6.832-49.999 0-26.893 8.78-49.778 26.335-68.668-8.224-20.22-7.448-42.885 2.331-67.995 6.445-2.003 16.002-.5 28.667 4.498 12.667 5 21.942 9.284 27.833 12.835 5.891 3.55 10.611 6.56 14.168 9 20.67-5.776 42.001-8.664 64-8.664 21.997 0 43.333 2.888 64.005 8.663l12.666-7.996c8.662-5.335 18.89-10.225 30.66-14.67 11.778-4.442 20.784-5.665 27.01-3.663 9.996 25.112 10.886 47.776 2.66 67.995 17.555 18.89 26.338 41.781 26.338 68.669 0 18.887-2.286 35.605-6.834 50.162-4.553 14.56-10.438 26.219-17.658 35-7.228 8.781-16.23 16.17-27.005 22.166-10.779 6.001-21.228 10.333-31.336 13.002-10.113 2.669-21.5 4.674-34.164 6.008 11.551 9.996 17.328 25.774 17.328 47.329v70.326c0 3.995 1.39 7.33 4.17 9.996 2.778 2.66 7.164 3.444 13.165 2.33 51.56-17.108 93.615-47.94 126.169-92.497C495.72 361.926 512 311.764 512 255.981c-.012-46.432-11.462-89.26-34.34-128.481z" fill="#fff"/></svg>