<svg xmlns="http://www.w3.org/2000/svg" width="512" height="512" viewBox="0 0 512 512"><path d="M503.5 256c0 136.69-110.81 247.5-247.5 247.5S8.5 392.69 8.5 256 119.31 8.5 256 8.5 503.5 119.31 503.5 256z" fill="#ffb888"/><path d="M164.222 408.963h-29.136L119.06 392.94l-16.023-16.026V135.086l16.024-16.025 16.03-16.02h58.27l16.025 16.024 16.024 16.026v90.32h-40.79v-81.58h-40.79v224.346h40.79v-81.58h-20.396v-40.79h61.185v131.11l-16.025 16.026-16.025 16.024h-29.14zm101.976 0h-20.396V135.085l16.025-16.024 16.025-16.02h99.062l16.025 16.024 16.02 16.026v273.876h-40.79v-265.14h-20.395v244.74h-40.79v-244.74H286.59v265.137h-20.394z" fill="#fe6500"/></svg>