<svg xmlns="http://www.w3.org/2000/svg" width="512" height="512" viewBox="0 0 512 512"><path d="M42.164 0C19.576 0 0 19.576 0 42.164v427.672C0 492.424 19.576 512 42.164 512h427.672C492.424 512 512 492.424 512 469.836V42.164C512 19.576 492.424 0 469.836 0H42.164zm70.777 67.766c25.6 0 46.682 19.575 46.682 45.175 0 25.6-21.082 45.176-46.682 45.176S66.26 137.036 66.26 112.941c0-25.6 21.081-45.175 46.681-45.175zm228.895 124.988c70.776 0 94.87 31.622 94.87 108.422V438.21h-75.294V317.74c0-40.66-7.529-61.741-37.646-61.741-39.153 0-52.707 30.117-52.707 61.74v120.47h-75.293V195.767h72.28v36.14c9.036-19.576 37.649-39.152 73.79-39.152zm-266.541 3.012h75.293v240.94H75.295v-240.94z" fill="#fff"/></svg>